<svg width="20" height="20" viewBox="0 0 20 20" fill="none" xmlns="http://www.w3.org/2000/svg">
<path d="M16.871 2.99413L16.871 2.99412C16.5413 2.73084 16.115 2.59023 15.6699 2.59023H7.10156C6.6563 2.59023 6.22811 2.73291 5.90062 2.99405L5.90052 2.99413C5.5485 3.27532 5.33828 3.68007 5.33828 4.10742V4.91445H4.00586C3.16911 4.91445 2.48867 5.59489 2.48867 6.43164V15.7402C2.48867 16.577 3.16911 17.2574 4.00586 17.2574H13.0664C13.9032 17.2574 14.5836 16.577 14.5836 15.7402V14.9332H15.6699C16.1152 14.9332 16.5434 14.7905 16.8709 14.5294L16.871 14.5293C17.223 14.2481 17.4332 13.8434 17.4332 13.416V4.10742C17.4332 3.68007 17.223 3.27532 16.871 2.99413ZM13.5023 7.76406H3.56992V6.43164C3.56992 6.19222 3.76644 5.9957 4.00586 5.9957H13.0664C13.3058 5.9957 13.5023 6.19222 13.5023 6.43164V7.76406ZM13.5023 15.7402C13.5023 15.9797 13.3058 16.1762 13.0664 16.1762H4.00586C3.76644 16.1762 3.56992 15.9797 3.56992 15.7402V8.45469H13.5023V15.7402ZM16.352 13.416C16.352 13.5116 16.2943 13.6174 16.1688 13.7057C16.0445 13.7932 15.8672 13.852 15.6699 13.852H14.5836V6.43164C14.5836 5.59489 13.9032 4.91445 13.0664 4.91445H6.41953V4.10742C6.41953 4.01184 6.47714 3.90608 6.60268 3.81774C6.72696 3.73028 6.90426 3.67148 7.10156 3.67148H15.6699C15.8672 3.67148 16.0445 3.73028 16.1688 3.81774C16.2943 3.90608 16.352 4.01184 16.352 4.10742V13.416Z" fill="#3B6AFC" stroke="#3B6AFC" stroke-width="0.3"/>
<path d="M10.4941 7.21094H7.67773C7.48437 7.21094 7.32812 7.05469 7.32812 6.86133C7.32812 6.66797 7.48437 6.51172 7.67773 6.51172H10.4941C10.6875 6.51172 10.8438 6.66797 10.8438 6.86133C10.8438 7.05469 10.6875 7.21094 10.4941 7.21094Z" fill="#3B6AFC"/>
<path d="M4.13086 6.86133C4.13086 6.95819 4.16934 7.05109 4.23783 7.11959C4.30633 7.18808 4.39923 7.22656 4.49609 7.22656C4.59296 7.22656 4.68586 7.18808 4.75435 7.11959C4.82285 7.05109 4.86133 6.95819 4.86133 6.86133C4.86133 6.76446 4.82285 6.67156 4.75435 6.60307C4.68586 6.53457 4.59296 6.49609 4.49609 6.49609C4.39923 6.49609 4.30633 6.53457 4.23783 6.60307C4.16934 6.67156 4.13086 6.76446 4.13086 6.86133Z" fill="#3B6AFC"/>
<path d="M5.31055 6.86133C5.31055 6.90929 5.31999 6.95678 5.33835 7.0011C5.3567 7.04541 5.38361 7.08567 5.41752 7.11959C5.45144 7.1535 5.4917 7.18041 5.53601 7.19876C5.58032 7.21712 5.62782 7.22656 5.67578 7.22656C5.72374 7.22656 5.77124 7.21712 5.81555 7.19876C5.85986 7.18041 5.90013 7.1535 5.93404 7.11959C5.96796 7.08567 5.99486 7.04541 6.01321 7.0011C6.03157 6.95678 6.04102 6.90929 6.04102 6.86133C6.04102 6.81336 6.03157 6.76587 6.01321 6.72156C5.99486 6.67725 5.96796 6.63698 5.93404 6.60307C5.90013 6.56915 5.85986 6.54225 5.81555 6.5239C5.77124 6.50554 5.72374 6.49609 5.67578 6.49609C5.62782 6.49609 5.58032 6.50554 5.53601 6.5239C5.4917 6.54225 5.45144 6.56915 5.41752 6.60307C5.38361 6.63698 5.3567 6.67725 5.33835 6.72156C5.31999 6.76587 5.31055 6.81336 5.31055 6.86133Z" fill="#3B6AFC"/>
</svg>
