<svg width="40" height="41" viewBox="0 0 40 41" fill="none" xmlns="http://www.w3.org/2000/svg">
<g clip-path="url(#clip0_107_351)">
<g filter="url(#filter0_d_107_351)">
<path d="M18.3195 14.5818H20.7184C21.7008 14.5818 22.6832 14.5781 23.6662 14.5818C24.4701 14.5818 25.028 15.1178 25.0254 15.8805C25.0254 16.6281 24.4465 17.1721 23.6479 17.1732C21.9872 17.1753 20.3257 17.1753 18.6636 17.1732H18.3345V20.6521C18.4368 20.6574 18.5392 20.6671 18.6416 20.6671C20.392 20.6671 22.1424 20.6708 23.8939 20.6633C23.9804 20.6565 24.0671 20.6733 24.1447 20.7121C24.2223 20.7508 24.288 20.8099 24.3345 20.8831C26.5412 23.8776 28.7519 26.8688 30.9664 29.8566C31.5721 30.6766 31.5914 31.6413 31.0307 32.3616C30.8448 32.6058 30.6042 32.803 30.3283 32.9375C30.0524 33.0719 29.7488 33.1398 29.442 33.1358C29.1351 33.1318 28.8334 33.056 28.5611 32.9144C28.2888 32.7727 28.0535 32.5693 27.874 32.3204C26.0288 29.8246 24.1848 27.3279 22.3418 24.8304C22.2164 24.6594 22.0851 24.6005 21.8771 24.601C19.0645 24.608 16.2496 24.6053 13.4385 24.6074C12.9792 24.6074 12.581 24.4697 12.3543 24.0527C12.2445 23.8507 12.1846 23.6255 12.1796 23.3956C12.1692 19.377 12.1674 15.3584 12.1742 11.3398C12.1742 10.3821 12.8602 9.71642 13.8233 9.71106C14.7784 9.70642 15.7338 9.70642 16.6896 9.71106C17.6254 9.71428 18.3152 10.4014 18.3189 11.3339C18.3227 12.3072 18.3189 13.2805 18.3189 14.2538L18.3195 14.5818Z" fill="white" stroke="#263238" stroke-width="2"/>
<path d="M18.5414 5.17261C18.5397 5.88462 18.327 6.58014 17.9301 7.17124C17.5331 7.76235 16.9699 8.2225 16.3115 8.49353C15.653 8.76456 14.9291 8.83429 14.231 8.69392C13.533 8.55354 12.8923 8.20936 12.3898 7.70489C11.8874 7.20041 11.5457 6.55829 11.4082 5.8597C11.2706 5.16111 11.3433 4.43741 11.6169 3.7801C11.8906 3.12279 12.353 2.56137 12.9457 2.16683C13.5384 1.77228 14.2348 1.56232 14.9468 1.56348C16.9507 1.56241 18.5414 3.15902 18.5414 5.17261Z" fill="#E90C59" stroke="#263238" stroke-width="2"/>
</g>
<path d="M1.99888 24.5406L2.00024 24.4789C2.07034 21.3125 3.16312 18.765 5.37088 16.7296L5.37296 16.7277L5.37297 16.7277C6.33314 15.8475 7.45686 15.162 8.68093 14.7091C9.77313 14.3004 11.0197 14.7768 11.4634 15.9071C11.9185 17.0655 11.3415 18.2541 10.2287 18.7034L10.2286 18.7034C8.17837 19.5309 6.91082 20.9463 6.459 23.0335L6.45897 23.0336C5.98361 25.2279 6.60305 27.0901 8.26423 28.6667L8.26425 28.6667C9.40701 29.7513 10.7948 30.2747 12.3977 30.2578C14.1165 30.2387 15.5565 29.5925 16.7569 28.3414L16.7575 28.3407C17.2202 27.8595 17.5812 27.2937 17.8729 26.6487C18.295 25.7151 19.2633 25.1887 20.2747 25.4042C21.5746 25.6793 22.4017 27.0635 21.8067 28.3666L21.8062 28.3677C20.3402 31.5684 17.8336 33.6135 14.3512 34.335C12.1273 34.7967 9.88837 34.5826 7.82194 33.4707L1.99888 24.5406ZM1.99888 24.5406L2.00511 24.602M1.99888 24.5406L2.00511 24.602M2.00511 24.602C2.00837 24.6341 2.01196 24.6864 2.01661 24.7541M2.00511 24.602L2.01661 24.7541M2.01661 24.7541C2.03509 25.0233 2.07023 25.5352 2.16758 25.984L2.01661 24.7541ZM2.16773 25.9847C2.89078 29.3265 4.81265 31.8523 7.82172 33.4706L2.16773 25.9847Z" fill="#0C8CE9" stroke="#263238" stroke-width="2"/>
</g>
<defs>
<filter id="filter0_d_107_351" x="10.3403" y="0.563477" width="25.0964" height="36.5725" filterUnits="userSpaceOnUse" color-interpolation-filters="sRGB">
<feFlood flood-opacity="0" result="BackgroundImageFix"/>
<feColorMatrix in="SourceAlpha" type="matrix" values="0 0 0 0 0 0 0 0 0 0 0 0 0 0 0 0 0 0 127 0" result="hardAlpha"/>
<feOffset dx="3" dy="3"/>
<feComposite in2="hardAlpha" operator="out"/>
<feColorMatrix type="matrix" values="0 0 0 0 0.14902 0 0 0 0 0.196078 0 0 0 0 0.219608 0 0 0 1 0"/>
<feBlend mode="normal" in2="BackgroundImageFix" result="effect1_dropShadow_107_351"/>
<feBlend mode="normal" in="SourceGraphic" in2="effect1_dropShadow_107_351" result="shape"/>
</filter>
<clipPath id="clip0_107_351">
<rect width="40" height="40" fill="white" transform="translate(0 0.563477)"/>
</clipPath>
</defs>
</svg>
