<svg width="24" height="24" viewBox="0 0 24 24" fill="none" xmlns="http://www.w3.org/2000/svg">
<path d="M12 8.95394V6.11047C11.9996 5.89088 11.9335 5.67631 11.8099 5.4938C11.6862 5.31128 11.5107 5.169 11.3053 5.08487C11.1 5.00074 10.874 4.97853 10.6559 5.02105C10.4377 5.06356 10.2372 5.16889 10.0796 5.32377L3 12.2219L10.0796 19.1188C10.1839 19.2224 10.3078 19.3046 10.4443 19.3606C10.5808 19.4167 10.7272 19.4456 10.875 19.4456C11.0228 19.4456 11.1692 19.4167 11.3057 19.3606C11.4422 19.3046 11.5661 19.2224 11.6704 19.1188C11.7749 19.0157 11.8578 18.8933 11.9144 18.7585C11.9709 18.6237 12 18.4792 12 18.3333V15.5676C15.0938 15.6431 18.4744 16.1965 21 20V18.8888C21 13.7408 17.0625 9.5073 12 8.95394Z" fill="black"/>
</svg>
