<svg width="52" height="52" viewBox="0 0 52 52" fill="none" xmlns="http://www.w3.org/2000/svg">
<path d="M48.8065 5.5H3.19351C1.98209 5.5 1 6.48166 1 7.69262V36.0894C1 37.3003 1.98209 38.282 3.19351 38.282H48.8065C50.018 38.282 51 37.3003 51 36.0894V7.69262C51 6.48165 50.018 5.5 48.8065 5.5Z" fill="#E7E3E6"/>
<path d="M48.2283 8.12622H3.77344V32.8553H48.2283V8.12622Z" fill="#656766"/>
<path d="M48.2276 8.12622H25.999V20.4907H48.2276V8.12622Z" fill="#806292"/>
<path d="M48.2276 20.4907H25.999V32.8552H48.2276V20.4907Z" fill="#4E4C4D"/>
<path d="M26.0011 8.12622H3.77246V20.4907H26.0011V8.12622Z" fill="#656766"/>
<path d="M26.0011 20.491H3.77246V32.8555H26.0011V20.491Z" fill="#656766"/>
<path d="M41.3611 14.0428L40.0873 12.7694C39.9406 12.6228 39.703 12.6228 39.5563 12.7694C39.4096 12.916 39.4096 13.1535 39.5563 13.3002L40.5647 14.3082L39.5563 15.3162C39.4096 15.4628 39.4096 15.7003 39.5563 15.847C39.6296 15.9203 39.7257 15.9569 39.8218 15.9569C39.9178 15.9569 40.0139 15.9203 40.0873 15.847L41.3611 14.5736C41.5078 14.4269 41.5078 14.1894 41.3611 14.0428Z" fill="white"/>
<path d="M34.9205 12.7694C34.7738 12.6228 34.5362 12.6228 34.3895 12.7694L33.1149 14.0428C33.0445 14.1132 33.0049 14.2085 33.0049 14.3082C33.0049 14.4079 33.0445 14.5032 33.1149 14.5736L34.3895 15.847C34.4628 15.9203 34.5589 15.9569 34.655 15.9569C34.7511 15.9569 34.8471 15.9203 34.9205 15.847C35.0671 15.7003 35.0671 15.4628 34.9205 15.3162L33.9113 14.3082L34.9205 13.3002C35.0672 13.1535 35.0672 12.916 34.9205 12.7694Z" fill="white"/>
<path d="M38.6495 11.5557C38.4647 11.4618 38.2388 11.5344 38.1435 11.7184L35.6624 16.5562C35.5678 16.7409 35.6412 16.9675 35.8253 17.062C35.8803 17.0899 35.9389 17.1031 35.9969 17.1031C36.1333 17.1031 36.2646 17.0283 36.3313 16.8993L38.8123 12.0615C38.9069 11.8768 38.8336 11.6502 38.6495 11.5557Z" fill="white"/>
<path d="M38.1049 23.2925H31.397C31.1894 23.2925 31.0215 23.1245 31.0215 22.917C31.0215 22.7095 31.1894 22.5415 31.397 22.5415H38.1049C38.3124 22.5415 38.4803 22.7095 38.4803 22.917C38.4803 23.1245 38.3124 23.2925 38.1049 23.2925Z" fill="#85BD57"/>
<path d="M43.079 23.2922H40.0718C39.8642 23.2922 39.6963 23.1243 39.6963 22.9168C39.6963 22.7092 39.8642 22.5413 40.0718 22.5413H43.079C43.2866 22.5413 43.4545 22.7092 43.4545 22.9168C43.4545 23.1243 43.2866 23.2922 43.079 23.2922Z" fill="#E7E3E6"/>
<path d="M34.4885 25.1707H31.397C31.1894 25.1707 31.0215 25.0027 31.0215 24.7952C31.0215 24.5876 31.1894 24.4197 31.397 24.4197H34.4885C34.6961 24.4197 34.864 24.5876 34.864 24.7952C34.864 25.0027 34.6961 25.1707 34.4885 25.1707Z" fill="#E7E3E6"/>
<path d="M43.0795 25.1707H36.4556C36.248 25.1707 36.0801 25.0027 36.0801 24.7952C36.0801 24.5876 36.248 24.4197 36.4556 24.4197H43.0795C43.287 24.4197 43.455 24.5876 43.455 24.7952C43.455 25.0027 43.287 25.1707 43.0795 25.1707Z" fill="#53B1E2"/>
<path d="M32.5223 27.0488H31.397C31.1894 27.0488 31.0215 26.8809 31.0215 26.6733C31.0215 26.4658 31.1894 26.2979 31.397 26.2979H32.5223C32.7299 26.2979 32.8978 26.4658 32.8978 26.6733C32.8978 26.8809 32.7299 27.0488 32.5223 27.0488Z" fill="#BA8C5C"/>
<path d="M43.0795 27.0491H34.4897C34.2822 27.0491 34.1143 26.8811 34.1143 26.6736C34.1143 26.466 34.2822 26.2981 34.4897 26.2981H43.0795C43.287 26.2981 43.455 26.466 43.455 26.6736C43.455 26.8811 43.287 27.0491 43.0795 27.0491Z" fill="#E7E3E6"/>
<path d="M37.8001 28.9272H31.397C31.1894 28.9272 31.0215 28.7593 31.0215 28.5518C31.0215 28.3442 31.1894 28.1763 31.397 28.1763H37.8001C38.0077 28.1763 38.1756 28.3442 38.1756 28.5518C38.1756 28.7593 38.0077 28.9272 37.8001 28.9272Z" fill="#FFC966"/>
<path d="M43.079 28.9272H39.7671C39.5595 28.9272 39.3916 28.7593 39.3916 28.5518C39.3916 28.3442 39.5595 28.1763 39.7671 28.1763H43.079C43.2866 28.1763 43.4545 28.3442 43.4545 28.5518C43.4545 28.7593 43.2866 28.9272 43.079 28.9272Z" fill="#9A7CA8"/>
<path d="M34.7511 30.8047H31.397C31.1894 30.8047 31.0215 30.6367 31.0215 30.4292C31.0215 30.2217 31.1894 30.0537 31.397 30.0537H34.7511C34.9587 30.0537 35.1266 30.2217 35.1266 30.4292C35.1266 30.6367 34.9586 30.8047 34.7511 30.8047Z" fill="#E7E3E6"/>
<path d="M43.0783 30.8047H36.7173C36.5097 30.8047 36.3418 30.6367 36.3418 30.4292C36.3418 30.2217 36.5097 30.0537 36.7173 30.0537H43.0783C43.2858 30.0537 43.4538 30.2217 43.4538 30.4292C43.4538 30.6367 43.2858 30.8047 43.0783 30.8047Z" fill="#E7E3E6"/>
<path d="M7.6534 9.75635H6.01239C5.31468 9.75635 4.74902 10.3218 4.74902 11.0192V29.9624C4.74902 30.6599 5.31468 31.2253 6.01239 31.2253H7.65341C8.35118 31.2253 8.91677 30.6599 8.91677 29.9624V11.0192C8.91676 10.3218 8.35117 9.75635 7.6534 9.75635Z" fill="#4E4C4D"/>
<path d="M7.51114 10.6721H6.15559C5.83777 10.6721 5.58008 10.9298 5.58008 11.2476V12.6031C5.58008 12.921 5.83777 13.1787 6.15559 13.1787H7.51114C7.82896 13.1787 8.08665 12.921 8.08665 12.6031V11.2476C8.08665 10.9298 7.82896 10.6721 7.51114 10.6721Z" fill="#D2D2D2"/>
<path d="M7.51114 14.0984H6.15559C5.83777 14.0984 5.58008 14.3561 5.58008 14.6739V16.0294C5.58008 16.3473 5.83777 16.605 6.15565 16.605H7.51114C7.82896 16.605 8.08665 16.3473 8.08665 16.0295V14.6739C8.08665 14.3561 7.82896 14.0984 7.51114 14.0984Z" fill="#D2D2D2"/>
<path d="M7.51108 17.5249H6.15559C5.83777 17.5249 5.58008 17.7826 5.58008 18.1004V19.456C5.58008 19.7739 5.83777 20.0315 6.15559 20.0315H7.51114C7.82896 20.0315 8.08665 19.7739 8.08665 19.456V18.1005C8.08665 17.7826 7.82896 17.5249 7.51108 17.5249Z" fill="#D2D2D2"/>
<path d="M7.51114 20.9512H6.15559C5.83777 20.9512 5.58008 21.2089 5.58008 21.5267V22.8822C5.58008 23.2001 5.83777 23.4577 6.15559 23.4577H7.51114C7.82896 23.4577 8.08665 23.2001 8.08665 22.8822V21.5267C8.08665 21.2088 7.82896 20.9512 7.51114 20.9512Z" fill="#D2D2D2"/>
<path d="M7.51114 24.3779H6.15559C5.83777 24.3779 5.58008 24.6356 5.58008 24.9534V26.3089C5.58008 26.6268 5.83777 26.8846 6.15565 26.8846H7.51108C7.82897 26.8846 8.08665 26.6268 8.08665 26.3089V24.9534C8.08665 24.6356 7.82896 24.3779 7.51114 24.3779Z" fill="#D2D2D2"/>
<path d="M7.51114 27.804H6.15559C5.83777 27.804 5.58008 28.0616 5.58008 28.3795V29.735C5.58008 30.0529 5.83777 30.3106 6.15559 30.3106H7.51114C7.82896 30.3106 8.08665 30.0529 8.08665 29.735V28.3795C8.08665 28.0616 7.82896 27.804 7.51114 27.804Z" fill="#D2D2D2"/>
<path d="M20.6235 29.4876L22.2251 27.8867C22.4031 27.7088 22.4031 27.4204 22.2251 27.2425L20.3969 25.4149L22.0467 24.7318C22.552 24.5226 22.4912 23.7884 21.9584 23.665L15.5939 22.1912C15.1887 22.0974 14.8254 22.4605 14.9192 22.8656L16.3943 29.2308C16.5177 29.7631 17.2516 29.8242 17.4613 29.3195L18.1509 27.6601L19.9791 29.4876C20.1571 29.6655 20.4456 29.6655 20.6235 29.4876Z" fill="#EC6E62"/>
<path d="M35.3502 38.282H16.6504V42.7999H35.3502V38.282Z" fill="#D2D2D2"/>
<path d="M36.4664 42.7998H15.5334C14.5113 42.7998 13.6826 43.6281 13.6826 44.6499C13.6826 45.6717 14.5113 46.5 15.5334 46.5H36.4664C37.4885 46.5 38.3172 45.6717 38.3172 44.6499C38.3172 43.6281 37.4885 42.7998 36.4664 42.7998Z" fill="#E7E3E6"/>
</svg>
