<svg width="158" height="31" viewBox="0 0 158 31" fill="none" xmlns="http://www.w3.org/2000/svg">
<g clip-path="url(#clip0_897_1073)">
<path d="M0.110352 29.5901L6.11035 1.40015H21.7104L20.5104 7.12015H11.9504L10.7904 12.4801H19.3904L18.1504 18.2001H9.57036L8.37036 23.8301H16.8904L15.6904 29.5901H0.110352Z" fill="black"/>
<path d="M37.3904 29.5901L36.7504 24.1902H26.9504L23.9504 29.5901H17.1504L33.1504 1.40015H40.1504L44.0704 29.5901H37.3904ZM29.8704 18.5101H36.0704L34.9104 9.08014L29.8704 18.5101Z" fill="black"/>
<path d="M44.5699 16.6801C44.5146 14.5999 44.8796 12.5299 45.6429 10.5941C46.4063 8.65826 47.5524 6.89633 49.0125 5.41375C50.4727 3.93116 52.217 2.7584 54.141 1.96566C56.065 1.17291 58.1291 0.776466 60.2099 0.800067C64.6499 0.800067 69.0499 2.60008 71.2099 5.28008L66.2099 10.2001C65.4755 9.23844 64.5232 8.46501 63.4314 7.94344C62.3395 7.42187 61.1395 7.16708 59.9299 7.20006C55.0499 7.20006 51.3699 11.0401 51.3699 16.2001C51.3699 20.6701 54.1699 23.7101 58.3699 23.7101C59.1966 23.7111 60.0188 23.5898 60.8099 23.3501L62.6099 15.0801H69.0899L66.2499 28.5101C63.7299 29.6184 61.0028 30.1775 58.2499 30.1501C49.9899 30.1901 44.5699 24.6801 44.5699 16.6801Z" fill="black"/>
<path d="M81.4306 1.40015L76.6706 23.8301H85.1906L83.9906 29.5901H68.3906L74.3906 1.40015H81.4306Z" fill="black"/>
<path d="M86.5107 29.5901L92.5107 1.40015H108.111L106.911 7.12015H98.3507L97.1907 12.4801H105.791L104.571 18.2001H96.0107L94.8107 23.8301H103.331L102.131 29.5901H86.5107Z" fill="black"/>
<path d="M118.271 0.800138C120.41 0.748233 122.524 1.27329 124.391 2.32016L123.151 8.24014C121.944 7.17895 120.398 6.58324 118.791 6.56015C116.911 6.56015 115.631 7.56013 115.631 9.20013C115.631 12.7201 121.711 14.4401 121.711 20.7101C121.711 26.2301 117.391 30.1902 111.391 30.1902C108.97 30.2533 106.592 29.5537 104.591 28.1902L105.871 22.2701C107.264 23.5859 109.078 24.3655 110.991 24.4702C111.451 24.5072 111.915 24.4492 112.352 24.2996C112.789 24.1501 113.191 23.9122 113.532 23.6009C113.873 23.2895 114.147 22.9113 114.336 22.4897C114.525 22.0681 114.625 21.6121 114.631 21.1501C114.631 17.4401 108.511 15.8001 108.511 9.64013C108.511 4.40014 112.571 0.800138 118.271 0.800138Z" fill="black"/>
<path d="M138.33 29.8901C137.103 29.9177 135.89 29.6247 134.81 29.0401C133.811 28.4898 132.992 27.6636 132.45 26.6602C131.871 25.561 131.582 24.3323 131.61 23.0902C131.599 22.0256 131.796 20.969 132.19 19.9801C132.567 19.0463 133.12 18.1941 133.82 17.4702C134.517 16.7532 135.35 16.1821 136.27 15.7901C137.22 15.3899 138.24 15.1858 139.27 15.1902C140.34 15.1822 141.4 15.3861 142.39 15.7901C143.29 16.1406 144.088 16.7113 144.71 17.4501L142.61 19.5101C142.208 18.9837 141.686 18.5605 141.088 18.2753C140.49 17.9902 139.833 17.8513 139.17 17.8702C138.318 17.8596 137.479 18.0883 136.75 18.5302C136.032 18.9663 135.445 19.5881 135.05 20.3301C134.629 21.1312 134.416 22.0252 134.43 22.9302C134.416 23.7028 134.587 24.4677 134.93 25.1602C135.241 25.7848 135.723 26.3084 136.32 26.6701C136.925 27.0285 137.617 27.2152 138.32 27.2102C138.861 27.2141 139.398 27.1122 139.9 26.9102L140.9 22.3702H143.64L142.24 28.9501C141.678 29.2767 141.067 29.5097 140.43 29.6401C139.742 29.8037 139.038 29.8876 138.33 29.8901Z" fill="black"/>
<path d="M151.47 29.8899C150.243 29.9174 149.03 29.6245 147.95 29.0399C146.947 28.498 146.121 27.6788 145.57 26.6799C144.991 25.5808 144.702 24.352 144.73 23.1099C144.719 22.0454 144.916 20.9889 145.31 19.9999C145.687 19.0661 146.241 18.2139 146.94 17.4899C147.638 16.773 148.47 16.2019 149.39 15.8099C150.34 15.4097 151.36 15.2056 152.39 15.2099C153.46 15.202 154.52 15.4059 155.51 15.8099C156.411 16.1604 157.208 16.7312 157.83 17.4699L155.73 19.5299C155.328 19.0035 154.806 18.5803 154.208 18.2951C153.61 18.01 152.953 17.8711 152.29 17.8899C151.438 17.8794 150.6 18.108 149.87 18.5499C149.152 18.9861 148.565 19.6079 148.17 20.35C147.749 21.151 147.536 22.045 147.55 22.9499C147.536 23.7226 147.707 24.4874 148.05 25.1799C148.362 25.8046 148.844 26.3282 149.44 26.6899C150.06 27.0572 150.77 27.2442 151.49 27.2299C152.032 27.2339 152.568 27.132 153.07 26.9299L154.07 22.3899H156.81L155.41 28.9699C154.848 29.2965 154.237 29.5295 153.6 29.66C152.902 29.8191 152.187 29.8963 151.47 29.8899Z" fill="black"/>
</g>
<defs>
<clipPath id="clip0_897_1073">
<rect width="157.78" height="29.4" fill="white" transform="translate(0.110352 0.800049)"/>
</clipPath>
</defs>
</svg>
