<svg width="20" height="20" viewBox="0 0 20 20" fill="none" xmlns="http://www.w3.org/2000/svg">
<path d="M14.017 3.75008V4.85008H2.65033V3.75008C2.65033 3.14257 3.14281 2.65008 3.75033 2.65008H12.917C13.5245 2.65008 14.017 3.14257 14.017 3.75008ZM2.65033 13.7501V5.98341H10.9729C10.7888 6.30817 10.6837 6.68365 10.6837 7.08341V14.8501H3.75033C3.14281 14.8501 2.65033 14.3576 2.65033 13.7501ZM11.817 7.08341C11.817 6.4759 12.3095 5.98341 12.917 5.98341H16.2503C16.8578 5.98341 17.3503 6.4759 17.3503 7.08341V16.2501C17.3503 16.8576 16.8578 17.3501 16.2503 17.3501H12.917C12.3095 17.3501 11.817 16.8576 11.817 16.2501V7.08341ZM16.2503 4.85008H15.1503V3.75008C15.1503 2.51665 14.1504 1.51675 12.917 1.51675H3.75033C2.51689 1.51675 1.51699 2.51665 1.51699 3.75008V13.7501C1.51699 14.9835 2.51689 15.9834 3.75033 15.9834H10.6837V16.2501C10.6837 17.4835 11.6836 18.4834 12.917 18.4834H16.2503C17.4838 18.4834 18.4837 17.4835 18.4837 16.2501V7.08341C18.4837 5.84998 17.4838 4.85008 16.2503 4.85008Z" fill="#3B6AFC" stroke="#3B6AFC" stroke-width="0.3"/>
<path d="M3.33398 3.3335H4.16732V4.16683H3.33398V3.3335ZM5.00065 3.3335H5.83398V4.16683H5.00065V3.3335ZM6.66732 3.3335H7.50065V4.16683H6.66732V3.3335ZM13.7507 16.6668C13.5205 16.6668 13.334 16.4803 13.334 16.2502C13.334 16.02 13.5205 15.8335 13.7507 15.8335H15.4173C15.6474 15.8335 15.834 16.02 15.834 16.2502C15.834 16.4803 15.6474 16.6668 15.4173 16.6668H13.7507Z" fill="#3B6AFC"/>
</svg>
