<svg width="20" height="20" viewBox="0 0 20 20" fill="none" xmlns="http://www.w3.org/2000/svg">
<path fill-rule="evenodd" clip-rule="evenodd" d="M3.55219 17.4526C3.94149 17.4526 4.23346 17.1606 4.23346 16.7713V14.6788H19.3187C19.708 14.6788 20 14.3382 20 13.9489C20 13.5596 19.708 13.219 19.3187 13.219H4.23346V3.72993C4.23346 3.34063 3.94149 3 3.55219 3C3.11424 3 2.82227 3.34063 2.82227 3.72993V13.219H0.729927C0.340633 13.219 0 13.5596 0 13.9489C0 14.3382 0.340633 14.6788 0.729927 14.6788H2.82227V16.7713C2.82227 17.1606 3.11424 17.4526 3.55219 17.4526ZM18.4422 4.50838L17.9069 6.60084C17.8096 6.99013 17.4203 7.18478 17.031 7.08746C16.885 7.03879 16.7877 6.99013 16.6904 6.89281L16.4474 6.64986L12.4578 10.6395C12.1658 10.9315 11.7279 10.9315 11.4359 10.6395L9.53808 8.79037L7.3483 10.9801C7.05633 11.2721 6.61837 11.2721 6.3264 10.9801C6.03443 10.6882 6.03443 10.2502 6.3264 9.95825L9.05146 7.23319C9.29477 6.94122 9.78139 6.94122 10.0734 7.23319L11.9225 9.131L15.4255 5.62797L15.1819 5.38429C14.8899 5.09232 14.8899 4.65437 15.1819 4.36239C15.2562 4.28805 15.359 4.2421 15.4467 4.20285L15.4467 4.20284C15.4739 4.19071 15.4995 4.17923 15.5225 4.16775L17.5663 3.63247C17.9556 3.53514 18.3449 3.72979 18.4422 4.11908C18.4909 4.26507 18.4909 4.41106 18.4422 4.50838Z" fill="#3B6AFC"/>
</svg>
