<svg width="602" height="662" viewBox="0 0 602 662" fill="none" xmlns="http://www.w3.org/2000/svg">
<path d="M315.86 661.025C473.419 661.025 601.146 627.081 601.146 585.209C601.146 543.337 473.419 509.393 315.86 509.393C158.301 509.393 30.5742 543.337 30.5742 585.209C30.5742 627.081 158.301 661.025 315.86 661.025Z" fill="#AAE0BC"/>
<path d="M315.86 661.025C473.419 661.025 601.146 627.081 601.146 585.209C601.146 543.337 473.419 509.393 315.86 509.393C158.301 509.393 30.5742 543.337 30.5742 585.209C30.5742 627.081 158.301 661.025 315.86 661.025Z" fill="#D2244E"/>
<path d="M350.635 39.0379H15.238C7.37458 39.0379 1 45.3277 1 53.0866V238.607C1 246.366 7.37458 252.656 15.238 252.656H350.635C358.499 252.656 364.873 246.366 364.873 238.607V53.0866C364.873 45.3277 358.499 39.0379 350.635 39.0379Z" fill="white"/>
<path d="M364.873 53.087V58.6438H1V53.087C0.999942 49.3537 2.49748 45.7721 5.16536 43.125C7.83325 40.4778 11.4546 38.9802 15.238 38.9595H350.699C352.571 38.9656 354.423 39.3363 356.149 40.0502C357.875 40.7641 359.442 41.8072 360.759 43.1196C362.075 44.4321 363.117 45.9882 363.823 47.6986C364.529 49.409 364.886 51.2401 364.873 53.087Z" fill="#3B6AFC"/>
<path d="M350.635 39.0379H15.238C7.37458 39.0379 1 45.3277 1 53.0866V238.607C1 246.366 7.37458 252.656 15.238 252.656H350.635C358.499 252.656 364.873 246.366 364.873 238.607V53.0866C364.873 45.3277 358.499 39.0379 350.635 39.0379Z" stroke="#121416" stroke-linecap="round" stroke-linejoin="round"/>
<path d="M364.873 53.087V58.6438H1V53.087C0.999942 49.3537 2.49748 45.7721 5.16536 43.125C7.83325 40.4778 11.4546 38.9802 15.238 38.9595H350.699C352.571 38.9656 354.423 39.3363 356.149 40.0502C357.875 40.7641 359.442 41.8072 360.758 43.1196C362.075 44.4321 363.117 45.9882 363.823 47.6986C364.529 49.409 364.886 51.2401 364.873 53.087Z" stroke="#121416" stroke-linecap="round" stroke-linejoin="round"/>
<path d="M41.869 48.833C41.8722 49.5447 41.6612 50.2412 41.2628 50.8344C40.8644 51.4276 40.2966 51.8908 39.6312 52.1653C38.9658 52.4397 38.2328 52.5132 37.5251 52.3762C36.8174 52.2393 36.1667 51.8982 35.6557 51.3961C35.1446 50.894 34.796 50.2535 34.6542 49.5558C34.5123 48.8581 34.5835 48.1345 34.8588 47.4768C35.134 46.819 35.601 46.2567 36.2004 45.861C36.7998 45.4653 37.5048 45.2541 38.226 45.2541C39.1894 45.2541 40.1137 45.6306 40.7964 46.3014C41.4791 46.9721 41.8648 47.8824 41.869 48.833Z" fill="#121416"/>
<path d="M60.8798 48.833C60.8829 49.5447 60.6719 50.2412 60.2736 50.8344C59.8752 51.4276 59.3073 51.8908 58.6419 52.1653C57.9765 52.4397 57.2435 52.5132 56.5358 52.3762C55.8281 52.2393 55.1775 51.8982 54.6664 51.3961C54.1553 50.894 53.8068 50.2535 53.6649 49.5558C53.5231 48.8581 53.5943 48.1345 53.8695 47.4768C54.1448 46.819 54.6117 46.2567 55.2111 45.861C55.8106 45.4653 56.5155 45.2541 57.2367 45.2541C58.2002 45.2541 59.1244 45.6306 59.8072 46.3014C60.4899 46.9721 60.8756 47.8824 60.8798 48.833Z" fill="#121416"/>
<path d="M76.2465 52.4434C78.2585 52.4434 79.8896 50.834 79.8896 48.8487C79.8896 46.8635 78.2585 45.2541 76.2465 45.2541C74.2346 45.2541 72.6035 46.8635 72.6035 48.8487C72.6035 50.834 74.2346 52.4434 76.2465 52.4434Z" fill="#121416"/>
<path d="M131.338 74.1989H28.4581C25.2161 74.1989 22.5879 76.7921 22.5879 79.991V128.824C22.5879 132.023 25.2161 134.616 28.4581 134.616H131.338C134.58 134.616 137.208 132.023 137.208 128.824V79.991C137.208 76.7921 134.58 74.1989 131.338 74.1989Z" stroke="#121416" stroke-linecap="round" stroke-linejoin="round"/>
<path d="M29.3174 127.019H128.697" stroke="#121416" stroke-linecap="round" stroke-linejoin="round"/>
<path d="M48.2328 115.482H36.6992V126.862H48.2328V115.482Z" fill="#3B6AFC" stroke="#121416" stroke-miterlimit="10"/>
<path d="M65.1108 100.522H53.5771V127.019H65.1108V100.522Z" fill="#3B6AFC" stroke="#121416" stroke-miterlimit="10"/>
<path d="M84.1225 105.075H72.5889V127.286H84.1225V105.075Z" fill="#3B6AFC" stroke="#121416" stroke-miterlimit="10"/>
<path d="M104.102 82.9575H92.5684V126.517H104.102V82.9575Z" fill="#3B6AFC" stroke="#121416" stroke-miterlimit="10"/>
<path d="M124.068 83.3028H112.534V126.863H124.068V83.3028Z" fill="#3B6AFC" stroke="#121416" stroke-miterlimit="10"/>
<path d="M279.302 137.74C297.111 137.74 311.548 123.494 311.548 105.922C311.548 88.3498 297.111 74.1047 279.302 74.1047C261.493 74.1047 247.056 88.3498 247.056 105.922C247.056 123.494 261.493 137.74 279.302 137.74Z" fill="#FDBE6E" stroke="#121416" stroke-miterlimit="10"/>
<path d="M19.8994 165.492H29.3172" stroke="#121416" stroke-linecap="round" stroke-linejoin="round"/>
<path d="M19.8994 183.449H29.3172" stroke="#121416" stroke-linecap="round" stroke-linejoin="round"/>
<path d="M19.8994 201.406H29.3172" stroke="#121416" stroke-linecap="round" stroke-linejoin="round"/>
<path d="M19.8994 219.363H29.3172" stroke="#121416" stroke-linecap="round" stroke-linejoin="round"/>
<path d="M50.0771 232.925V225.72" stroke="#121416" stroke-linecap="round" stroke-linejoin="round"/>
<path d="M65 232.925V225.72" stroke="#121416" stroke-linecap="round" stroke-linejoin="round"/>
<path d="M79.9219 232.925V225.72" stroke="#121416" stroke-linecap="round" stroke-linejoin="round"/>
<path d="M94.8594 232.925V225.72" stroke="#121416" stroke-linecap="round" stroke-linejoin="round"/>
<path d="M109.782 232.925V225.72" stroke="#121416" stroke-linecap="round" stroke-linejoin="round"/>
<path d="M124.704 232.925V225.72" stroke="#121416" stroke-linecap="round" stroke-linejoin="round"/>
<path d="M139.626 232.925V225.72" stroke="#121416" stroke-linecap="round" stroke-linejoin="round"/>
<path d="M154.564 232.925V225.72" stroke="#121416" stroke-linecap="round" stroke-linejoin="round"/>
<path d="M169.486 232.925V225.72" stroke="#121416" stroke-linecap="round" stroke-linejoin="round"/>
<path d="M184.408 232.925V225.72" stroke="#121416" stroke-linecap="round" stroke-linejoin="round"/>
<path d="M199.33 232.925V225.72" stroke="#121416" stroke-linecap="round" stroke-linejoin="round"/>
<path d="M214.269 232.925V225.72" stroke="#121416" stroke-linecap="round" stroke-linejoin="round"/>
<path d="M229.19 232.925V225.72" stroke="#121416" stroke-linecap="round" stroke-linejoin="round"/>
<path d="M244.112 232.925V225.72" stroke="#121416" stroke-linecap="round" stroke-linejoin="round"/>
<path d="M259.034 232.925V225.72" stroke="#121416" stroke-linecap="round" stroke-linejoin="round"/>
<path d="M273.399 232.925V225.72" stroke="#121416" stroke-linecap="round" stroke-linejoin="round"/>
<path d="M287.766 232.925V225.72" stroke="#121416" stroke-linecap="round" stroke-linejoin="round"/>
<path d="M302.115 232.925V225.72" stroke="#121416" stroke-linecap="round" stroke-linejoin="round"/>
<path d="M340.105 154.488V224.276C340.105 229.064 335.173 232.925 329.096 232.925H30.9406C29.1251 232.989 27.3193 232.638 25.6637 231.9C24.0082 231.162 22.5475 230.057 21.3955 228.671C20.4002 227.413 19.8424 225.872 19.8047 224.276V154.488C19.8047 149.779 24.7363 145.839 30.8133 145.839H329.096C335.173 145.839 340.105 149.701 340.105 154.488Z" stroke="#3B6AFC" stroke-linecap="round" stroke-linejoin="round"/>
<path d="M249.362 19.3229L154.182 145.839L117.783 194.217L78.0121 169.228L29.3483 232.925H28.6483C27.1225 232.927 25.6228 232.535 24.2975 231.789C22.9721 231.043 21.8672 229.968 21.0918 228.671L75.769 157.078L115.54 182.021L142.759 145.918L242.012 14.0645L249.362 19.3229Z" fill="#121416"/>
<path d="M225.214 20.9401L260.212 0L250.524 36.1977L244.352 19.4488L225.214 20.9401Z" fill="#121416"/>
<path d="M398.901 207.01C398.899 219.892 394.473 232.394 386.347 242.476C378.22 252.559 366.871 259.627 354.151 262.529H353.976C352.464 262.859 350.953 263.157 349.394 263.377C346.659 263.761 343.9 263.955 341.138 263.958C326.038 263.904 311.56 259.341 300.804 248.885C290.048 238.429 282.53 222.911 282.252 208.015C281.973 193.119 287.829 178.737 298.187 167.896C308.544 157.055 323.919 150.618 339.006 150.014C339.531 150.014 340.088 150.014 340.597 150.014C340.766 149.999 340.936 149.999 341.106 150.014C341.302 149.999 341.499 149.999 341.694 150.014C349.488 150.064 357.188 151.694 364.316 154.802C374.599 159.247 383.346 166.552 389.489 175.824C395.631 185.096 398.902 195.933 398.901 207.01Z" fill="#FDBE6E"/>
<path d="M398.901 207.01C398.901 219.924 394.455 232.455 386.293 242.55C378.131 252.645 366.737 259.706 353.976 262.576C349.766 263.533 345.458 264.012 341.138 264.005C325.818 264.284 311.014 258.546 299.981 248.055C288.948 237.564 282.591 223.177 282.309 208.061C282.026 192.945 287.841 178.338 298.474 167.452C309.106 156.566 323.686 150.293 339.006 150.014C339.706 150.014 340.422 150.014 341.138 150.014C356.457 150.019 371.146 156.025 381.978 166.713C392.81 177.4 398.897 191.895 398.901 207.01Z" stroke="#121416" stroke-linecap="round" stroke-linejoin="round"/>
<path d="M398.902 207.01C398.901 219.924 394.456 232.455 386.294 242.55C378.132 252.645 366.737 259.706 353.977 262.576C353.277 262.576 352.561 262.576 351.845 262.576C337.666 262.539 323.996 257.36 313.436 248.023C302.877 238.686 296.166 225.844 294.58 211.941C292.995 198.039 296.645 184.046 304.837 172.627C313.029 161.208 325.191 153.16 339.007 150.014C339.707 150.014 340.423 150.014 341.138 150.014C356.457 150.019 371.147 156.025 381.979 166.713C392.811 177.4 398.898 191.895 398.902 207.01Z" stroke="#121416" stroke-linecap="round" stroke-linejoin="round"/>
<path d="M311.611 256.015L323.813 255.466" stroke="#121416" stroke-linecap="round" stroke-linejoin="round"/>
<path d="M305.741 252.012L316.4 251.133" stroke="#121416" stroke-linecap="round" stroke-linejoin="round"/>
<path d="M300.969 247.79L311.611 246.895" stroke="#121416" stroke-linecap="round" stroke-linejoin="round"/>
<path d="M299.506 167.485H308.621" stroke="#121416" stroke-linecap="round" stroke-linejoin="round"/>
<path d="M304.009 163.341L313.093 162.933" stroke="#121416" stroke-linecap="round" stroke-linejoin="round"/>
<path d="M309.703 159.182L319.28 158.303" stroke="#121416" stroke-linecap="round" stroke-linejoin="round"/>
<path opacity="0.3" d="M352.419 263.081V262.42C348.209 263.377 345.357 264.411 341.037 264.404C325.938 264.35 311.561 259.341 300.805 248.885C290.049 238.429 282.531 224.233 282.252 209.337C281.973 194.441 286.221 180.059 296.578 169.218C306.936 158.377 320.594 150.652 335.681 150.049C336.206 150.049 339.858 149.388 340.367 149.388C326.288 153.767 302.894 166.908 296.579 190.249C287.654 223.416 306.014 260.303 352.419 263.081Z" fill="#121416"/>
<path d="M431.672 117.286C427.099 123.661 420.47 128.318 412.868 130.496C405.266 132.674 397.14 132.245 389.817 129.279L389.611 129.185C388.524 128.714 387.463 128.19 386.429 127.615C385.261 126.996 384.135 126.304 383.056 125.543C376.009 120.233 371.268 112.481 369.79 103.854C368.312 95.2276 370.207 86.3689 375.094 79.068C379.98 71.7672 387.493 66.5686 396.114 64.5225C404.735 62.4765 413.822 63.7357 421.539 68.0455L422.318 68.5321C422.684 68.7362 423.034 68.9874 423.4 69.2385C423.766 69.4896 424.466 70.0076 424.991 70.4158C431.945 75.9193 436.508 83.8338 437.75 92.544C438.992 101.254 436.818 110.104 431.672 117.286Z" fill="#FDBE6E"/>
<path d="M431.673 117.302C427.094 123.671 420.463 128.322 412.862 130.494C405.26 132.666 397.137 132.232 389.817 129.263C387.402 128.289 385.107 127.046 382.977 125.559C375.886 120.191 371.144 112.35 369.725 103.644C368.305 94.9375 370.315 86.0251 375.342 78.734C380.37 71.443 388.033 66.3259 396.762 64.4319C405.491 62.5378 414.623 64.0105 422.287 68.5478C422.637 68.7518 423.002 68.9873 423.352 69.2384C430.903 74.5327 436.019 82.5645 437.578 91.5739C439.138 100.583 437.014 109.835 431.673 117.302Z" stroke="#121416" stroke-linecap="round" stroke-linejoin="round"/>
<path d="M431.673 117.302C427.095 123.672 420.464 128.322 412.862 130.494C405.261 132.666 397.137 132.233 389.818 129.263L388.752 128.573C381.841 123.63 376.999 116.365 375.137 108.145C373.275 99.9251 374.522 91.3173 378.643 83.9413C382.763 76.5653 389.474 70.9295 397.512 68.0945C405.55 65.2596 414.361 65.4208 422.287 68.548C422.637 68.7521 423.003 68.9876 423.353 69.2387C430.904 74.5329 436.019 82.5648 437.579 91.5741C439.139 100.583 437.015 109.835 431.673 117.302Z" stroke="#121416" stroke-linecap="round" stroke-linejoin="round"/>
<path opacity="0.3" d="M421.46 68.0614C411.915 66.3818 399.824 65.4557 393.302 69.6311C381.323 77.2126 373.862 86.772 373.973 102.265C374.084 117.758 388.752 128.62 388.752 128.62L389.611 129.232C387.271 128.268 385.047 127.052 382.977 125.606C375.93 120.296 371.189 112.544 369.71 103.917C368.232 95.2905 370.128 86.4318 375.014 79.1309C379.901 71.8301 387.414 66.6315 396.035 64.5855C404.656 62.5395 413.743 63.7986 421.46 68.1085V68.0614Z" fill="#121416"/>
<path d="M413.665 559.325C398.857 576.9 381.205 591.936 361.422 603.825C355.258 607.464 348.884 610.745 342.332 613.652C297.136 633.696 245.625 634.999 197.454 623.478C96.165 599.258 42.4264 511.041 35.6017 413.109C33.7722 386.644 29.6678 358.06 40.5333 332.882C51.3987 307.705 73.3683 292.071 98.2172 281.208C116.257 273.282 135.745 267.96 153.451 263.612C185.494 255.802 219.293 259.243 249.045 273.344C269.869 283.092 284.696 300.029 302.211 314.297C304.067 315.804 305.934 317.306 307.811 318.802C325.504 332.854 344.103 345.758 363.49 357.432C392.937 375.154 423.083 391.871 441.903 421.632C471.922 469.068 446.596 520.711 413.665 559.325Z" fill="#AAE0BC"/>
<path d="M413.665 559.325C398.857 576.9 381.205 591.936 361.422 603.825C355.258 607.464 348.884 610.745 342.332 613.652C297.136 633.696 245.625 634.999 197.454 623.478C96.165 599.258 42.4264 511.041 35.6017 413.109C33.7722 386.644 29.6678 358.06 40.5333 332.882C51.3987 307.705 73.3683 292.071 98.2172 281.208C116.257 273.282 135.745 267.96 153.451 263.612C185.494 255.802 219.293 259.243 249.045 273.344C269.869 283.092 284.696 300.029 302.211 314.297C304.067 315.804 305.934 317.306 307.811 318.802C325.504 332.854 344.103 345.758 363.49 357.432C392.937 375.154 423.083 391.871 441.903 421.632C471.922 469.068 446.596 520.711 413.665 559.325Z" fill="#ED305C"/>
<path d="M307.747 318.802C305.869 317.317 304.003 315.81 302.147 314.282C284.648 299.982 269.789 283.092 248.981 273.344C219.227 259.251 185.431 255.81 153.387 263.612C111.278 273.925 59.0502 289.81 40.4373 332.898C29.5719 358.013 33.6763 386.644 35.5216 413.109C42.4259 511.042 96.1645 599.258 197.453 623.478C252.56 636.663 311.994 633.053 361.422 603.825C381.204 591.937 398.857 576.9 413.665 559.325C446.595 520.711 471.921 469.068 441.934 421.632C423.13 391.808 392.984 375.154 363.521 357.432C344.101 345.762 325.47 332.858 307.747 318.802Z" stroke="#121416" stroke-miterlimit="10"/>
<path d="M154.309 493.429C145.876 495.948 137.692 499.216 129.857 503.193" stroke="#121416" stroke-linecap="round" stroke-linejoin="round"/>
<path d="M205.932 483.729C193.614 484.781 181.386 486.696 169.343 489.459" stroke="#121416" stroke-linecap="round" stroke-linejoin="round"/>
<path d="M195.194 481.218C195.194 481.218 147.66 453.936 90.2939 475.803" stroke="#121416" stroke-linecap="round" stroke-linejoin="round"/>
<path d="M430.241 558.132C439.161 565.449 448.493 572.262 458.193 578.538C477.108 579.794 468.628 602.351 468.628 602.351L452.434 612.633C452.434 612.633 424.705 590.892 409.56 583.844C394.416 576.796 430.241 558.132 430.241 558.132Z" fill="white"/>
<path opacity="0.3" d="M295.831 320.639C295.831 320.639 293.238 295.32 289.102 288.209L226.296 275.589V270.786C226.296 270.786 227.743 262.435 213.744 257.208C199.745 251.981 170.569 258.778 163.044 264.397C155.519 270.017 158.271 279.686 158.271 279.686C158.271 279.686 132.977 292.291 121.618 297.094C112.32 301.327 103.256 306.043 94.4627 311.221C94.4627 311.221 89.3084 369.425 90.3265 382.94C91.3447 396.455 89.4993 409.169 90.6765 416.657C91.8537 424.144 92.7764 428.398 100.731 434.771C108.685 441.144 115.923 450.467 136.779 441.222L133.868 438.946L271.158 393.315L295.831 320.639Z" fill="#121416"/>
<path d="M295.831 320.639C295.831 320.639 293.238 295.32 289.102 288.209L226.296 275.589V270.786C226.296 270.786 227.743 262.435 213.744 257.208C199.745 251.981 170.569 258.778 163.044 264.397C155.519 270.017 158.271 279.686 158.271 279.686C158.271 279.686 132.977 292.291 121.618 297.094C112.32 301.327 103.256 306.043 94.4627 311.221C94.4627 311.221 89.3084 369.425 90.3265 382.94C91.3447 396.455 89.4993 409.169 90.6765 416.657C91.8537 424.144 92.7764 428.398 100.731 434.771C108.685 441.144 115.923 450.467 136.779 441.222L133.868 438.946L271.158 393.315L295.831 320.639Z" fill="#AAE0BC"/>
<path d="M295.831 320.639C295.831 320.639 293.238 295.32 289.102 288.209L226.296 275.589V270.786C226.296 270.786 227.743 262.435 213.744 257.208C199.745 251.981 170.569 258.778 163.044 264.397C155.519 270.017 158.271 279.686 158.271 279.686C158.271 279.686 132.977 292.291 121.618 297.094C112.32 301.327 103.256 306.043 94.4627 311.221C94.4627 311.221 89.3084 369.425 90.3265 382.94C91.3447 396.455 89.4993 409.169 90.6765 416.657C91.8537 424.144 92.7764 428.398 100.731 434.771C108.685 441.144 115.923 450.467 136.779 441.222L133.868 438.946L271.158 393.315L295.831 320.639Z" fill="#53B4E6"/>
<path d="M206.489 253.158C206.489 253.158 221.411 257.24 223.829 262.184C226.247 267.129 225.993 279.639 225.993 279.639C222.372 288.001 216.885 295.449 209.941 301.427L198.805 279.639L199.808 304.347C199.808 304.347 178.681 300.878 169.709 294.222L160.752 287.551C160.752 287.551 156.887 274.993 157.444 270.739C158 266.485 174.116 257.852 174.116 257.852L206.489 253.158Z" fill="#299CD7"/>
<path d="M455.042 634.136C454.628 633.242 461.166 621.846 456.044 610.246C450.921 598.646 442.76 603.119 442.76 603.119C442.76 603.119 419.518 588.521 409.75 583.906C402.713 580.418 395.935 576.442 389.467 572.008L379.143 585.727L388.688 614.861L455.042 634.136Z" fill="#AAE0BC"/>
<path d="M441.918 602.413L471.762 620.401C471.762 620.401 492.745 607.122 502.752 597.955C512.758 588.788 535.237 569.261 535.237 569.261L549.554 550.252C549.554 550.252 539.627 538.134 523.083 547.866C501.702 560.424 475.628 578.663 458.24 578.491C458.24 578.491 461.66 599.572 442.029 602.413" fill="#AAE0BC"/>
<path d="M201.43 177.06C201.43 177.06 214.968 197.278 217.434 203.823C219.9 210.369 221.888 220.054 221.395 224.716C220.902 229.378 215.939 254.351 213.441 255.073L211.039 257.757L212.63 268.337C212.63 268.337 202.035 286.404 170.886 273.156C170.886 273.156 169.677 252.059 165.891 245.435C162.105 238.811 156.441 246.691 150.762 227.557C145.083 208.422 163.17 188.315 163.17 188.315L201.43 177.06Z" fill="#F4D7C9"/>
<path d="M536.557 544.35C536.557 544.35 521.205 546.987 516.226 555.95C511.246 564.913 501.685 581.568 498.424 589.62C495.163 597.672 468.198 617.121 468.198 617.121L471.778 620.401C471.778 620.401 493.731 607.012 506.983 594.282C520.235 581.552 549.458 549.53 549.458 549.53C549.458 549.53 547.359 547.474 536.557 544.35Z" fill="#1B2E3D"/>
<path d="M382.945 580.688L379.143 585.727L390.819 609.618L455.042 632.395L458.017 623.118C458.017 623.118 459.003 613.7 436.461 606.542C413.918 599.384 400.174 594.659 393.762 589.746C387.351 584.833 382.945 580.688 382.945 580.688Z" fill="#1B2E3D"/>
<path d="M170.934 403.252C170.934 403.252 151.271 400.332 142.092 416.201C132.913 432.071 133.851 438.946 133.851 438.946C133.851 438.946 146.848 450.593 164.714 449.934C182.579 449.275 208.589 429.089 217.068 422.512C225.547 415.935 246.928 397.114 261.516 401.007L263.107 387.398C263.107 387.398 261.675 381.292 249.203 382.94C236.731 384.588 231.831 391.604 227.806 391.604C223.782 391.604 219.979 387.79 211.898 401.415C211.882 401.415 183.517 406.375 170.934 403.252Z" fill="#F4D7C9"/>
<path d="M196.483 206.131C196.902 208.674 197.497 211.187 198.265 213.65C198.553 214.852 199.095 215.981 199.856 216.962C201.351 218.532 203.769 218.94 205.981 219.269C206.346 219.295 206.692 219.438 206.967 219.677C207.145 219.959 207.229 220.288 207.206 220.619C207.192 223.092 206.44 225.505 205.042 227.557" stroke="#121416" stroke-linecap="round" stroke-linejoin="round"/>
<path d="M396.133 564.411L382.945 580.626C382.945 580.626 397.422 593.827 412.408 598.725C427.393 603.622 453.626 612.852 458.017 619.963L456.331 611.502C456.331 611.502 415.303 586.669 405.885 580.736C403.101 578.934 400.773 576.525 399.082 573.694C397.392 570.863 396.383 567.687 396.133 564.411Z" fill="#1B2E3D"/>
<path d="M441.918 602.413L468.183 617.121C468.183 617.121 481.148 608.362 487.512 601.911C493.875 595.459 501.718 588.301 506.602 573.845C513.267 553.863 532.357 544.35 532.357 544.35C532.357 544.35 505.806 556.688 491.982 566.326C478.157 575.964 464.683 580.045 456.856 579.386C456.776 579.433 463.06 599.054 441.918 602.413Z" fill="#1B2E3D"/>
<path d="M187.224 231.12C187.224 231.12 197.548 239.11 208.27 236.112C208.27 236.112 198.153 255.89 187.224 231.12Z" fill="white" stroke="#121416" stroke-linecap="round" stroke-linejoin="round"/>
<path d="M186.842 213.854C187.144 216.051 186.46 217.951 185.346 218.108C184.233 218.265 183.071 216.538 182.769 214.387C182.467 212.237 183.135 210.29 184.264 210.133C185.394 209.976 186.603 211.656 186.842 213.854Z" fill="#121416"/>
<path d="M209.32 209.851C209.607 212.064 208.939 213.964 207.825 214.105C206.711 214.246 205.534 212.535 205.248 210.4C204.962 208.266 205.614 206.288 206.743 206.146C207.873 206.005 209.018 207.653 209.32 209.851Z" fill="#121416"/>
<path d="M185.252 204.53C185.252 204.53 179.238 201.469 174.959 208.03" stroke="#121416" stroke-linecap="round" stroke-linejoin="round"/>
<path d="M200.666 200.448C200.666 200.448 207.029 195.064 210.704 200.448" stroke="#121416" stroke-linecap="round" stroke-linejoin="round"/>
<path d="M164.826 224.732C164.826 224.732 160.96 219.096 156.871 219.269C152.783 219.442 151.16 225.093 152.624 230.555C154.087 236.018 160.18 243.647 164.794 242.925C167.396 242.594 169.771 241.29 171.428 239.283" stroke="#121416" stroke-linecap="round" stroke-linejoin="round"/>
<path d="M201.891 181.612C206.234 185.175 210.831 189.053 213.027 194.295C214.967 198.753 215.397 203.713 217.179 208.218C219.072 213.037 221.14 218.076 221.299 223.334C221.215 228.199 220.569 233.039 219.374 237.76C218.713 241.853 217.729 245.889 216.431 249.831C214.283 255.466 210.322 258.935 205.009 261.603C201.143 263.55 194.7 266.312 190.516 263.707C188.082 262.137 184.423 257.648 181.385 253.519" stroke="#121416" stroke-linecap="round" stroke-linejoin="round"/>
<path d="M164.825 242.924C164.825 242.924 171.666 259.469 170.011 271.101" stroke="#121416" stroke-linecap="round" stroke-linejoin="round"/>
<path d="M163.076 221.953C163.986 221.288 164.708 220.403 165.17 219.383C165.633 218.363 165.821 217.242 165.717 216.13C165.462 213.587 163.68 211.232 164.03 208.689C164.323 207.472 164.783 206.299 165.398 205.205C166.325 203.093 166.733 200.795 166.589 198.499C166.445 196.202 165.754 193.971 164.571 191.988C164.571 191.988 186.302 192.993 196.483 186.604C206.665 180.215 214.428 163.875 208.272 156.074C202.115 148.272 190.12 158.915 181.227 160.092C172.335 161.269 140.709 166.245 135.666 178.269C130.623 190.293 138.306 194.609 138.545 206.084C138.784 217.558 138.784 239.298 156.172 237.305C156.172 237.305 149.665 229.001 154.183 220.446C157.253 216.852 163.076 221.953 163.076 221.953Z" fill="#121416"/>
<path d="M205.693 169.636C208.644 171.903 211.09 174.746 212.88 177.986C214.67 181.227 215.765 184.796 216.097 188.472C217.068 197.074 232.531 213.792 221.379 223.32C221.379 223.32 218.786 213.195 217.259 208.204C215.731 203.212 213.775 194.076 211.213 190.937C208.652 187.797 195.066 176.809 195.066 176.809L205.693 169.636Z" fill="#121416"/>
<path d="M166.829 270.739C166.829 270.739 177.552 277.708 197.469 277.991L199.808 304.346C199.808 304.346 177.408 302.667 160.752 287.55C160.752 287.55 156.25 275.793 157.443 270.739C158.637 265.684 169.343 260.677 169.343 260.677" stroke="#121416" stroke-linecap="round" stroke-linejoin="round"/>
<path d="M211.882 258.95L212.518 268.369C208.319 272.684 203.17 275.987 197.469 278.022L209.941 301.458C209.941 301.458 224.815 290.031 226.295 278.022C226.295 278.022 226.422 265.732 223.829 262.215C221.236 258.699 211.786 257.051 211.786 257.051" stroke="#121416" stroke-linecap="round" stroke-linejoin="round"/>
<path opacity="0.8" d="M151.525 186.118C153.116 182.178 157.475 179.839 161.723 179.211C165.97 178.583 170.329 179.023 174.624 178.913C180.572 178.865 186.397 177.239 191.487 174.204C194.017 172.684 196.218 170.687 197.965 168.328C199.711 165.968 200.97 163.292 201.669 160.453" stroke="white" stroke-linecap="round" stroke-linejoin="round"/>
<path opacity="0.8" d="M141.265 185.348C143.953 177.296 152.671 172.32 161.246 171.613C165.493 171.252 169.788 171.739 173.972 171.252C178.156 170.766 182.611 169.039 184.822 165.444" stroke="white" stroke-linecap="round" stroke-linejoin="round"/>
<path d="M136.747 441.222C116.066 451.802 108.717 440.908 97.1989 431.898C85.6812 422.888 93.2377 406.783 90.8356 380.962C88.4334 355.141 94.4149 311.221 94.4149 311.221C94.4149 311.221 99.5693 310.06 113.871 301.426C128.173 292.793 158.271 279.639 158.271 279.639" stroke="#121416" stroke-linecap="round" stroke-linejoin="round"/>
<path d="M157.236 402.137C157.236 402.137 153.959 391.887 144.7 391.62C135.442 391.353 120.838 395.466 110.434 414.883" stroke="#121416" stroke-linecap="round" stroke-linejoin="round"/>
<path d="M142.585 391.008C142.01 390.971 141.445 390.838 140.915 390.616C133.282 387.906 124.998 387.534 117.147 389.548" stroke="#121416" stroke-linecap="round" stroke-linejoin="round"/>
<path d="M111.818 325.238C128.665 343.604 136.874 367.902 144.653 391.447" stroke="#121416" stroke-linecap="round" stroke-linejoin="round"/>
<path d="M226.295 275.589C226.295 275.589 256.839 282.778 271.761 284.489C286.683 286.2 289.101 288.257 289.101 288.257L291.885 298.523" stroke="#121416" stroke-linecap="round" stroke-linejoin="round"/>
<path d="M368.628 293.452L264.603 297.392L256.107 402.953H273.925L364.253 383.003L375.611 295.979L368.628 293.452Z" fill="#E9EAEB"/>
<path d="M261.517 403.251L270.616 301.426L375.612 295.979L364.253 383.002L261.517 403.251Z" stroke="#121416" stroke-linecap="round" stroke-linejoin="round"/>
<path d="M364.253 383.002C364.253 383.002 412.328 381.653 427.362 391.447C442.395 401.242 451.224 450.358 449.14 476.446C447.056 502.534 428.921 562.402 428.921 562.402L394.177 523.599C394.177 523.599 377.059 462.193 386.397 438.145C386.397 438.145 340.263 440.704 322.096 435.085C322.096 435.085 305.821 408.792 277.918 400.096L364.253 383.002Z" fill="#353957"/>
<path d="M436.255 563.422C423.915 552.055 412.833 539.427 403.198 525.749C386.382 500.116 363.14 475.52 339.23 456.322C319.965 440.908 315.606 415.793 291.839 403.189C252.465 382.359 218.421 423.751 205.694 432.134C192.968 440.516 170.935 450.012 170.935 450.012C170.935 450.012 178.984 479.836 202.624 483.368C226.264 486.9 250.174 470.811 261.485 478.58C272.796 486.35 281.164 521.04 318.517 541.368C349.045 557.975 390.646 574.174 412.106 585.099C416.879 587.548 420.442 590.122 423.147 591.582C430.56 595.569 438.482 600.262 445.959 604.909L471.715 620.386C471.715 620.386 497.566 605.301 507.493 591.394C508.814 589.526 511.566 584.55 514.143 579.746C519.759 569.245 526.87 559.827 536.717 554.632C543.526 551.006 549.587 549.923 549.444 549.546C548.791 548.353 536.446 542.121 528.063 545.527C510.309 552.764 474.817 580.563 458.066 578.491C450.274 574.246 442.963 569.194 436.255 563.422Z" stroke="#121416" stroke-miterlimit="10"/>
<path d="M436.255 563.422C420.776 569.591 414.54 579.119 412.154 585.115C390.693 574.127 349.093 557.991 318.565 541.384C281.212 520.978 272.908 486.351 261.533 478.596C250.158 470.842 226.232 486.978 202.672 483.384C179.111 479.789 170.935 449.997 170.935 449.997C170.935 449.997 192.984 440.579 205.71 432.196C218.437 423.814 247.788 382.406 291.839 403.251C316.163 414.757 319.965 440.924 339.23 456.385C363.092 475.52 386.382 500.179 403.197 525.812C412.81 539.489 423.894 552.098 436.255 563.422Z" fill="#353957"/>
<path d="M319.932 430.345C319.932 430.345 308.016 406.454 288.91 401.823" stroke="white" stroke-linecap="round" stroke-linejoin="round"/>
<path d="M257.475 382.783C244.335 379.957 229.906 394.288 223.829 391.604C219.311 389.611 211.882 401.415 211.882 401.415C199.653 403.157 187.287 403.772 174.942 403.251C157.236 402.137 148.853 405.543 142.585 414.883L133.835 437.753C133.835 437.753 156.918 458.159 181.56 446.276C206.202 434.394 238.942 398.542 261.5 398.668" stroke="#121416" stroke-linecap="round" stroke-linejoin="round"/>
<path d="M440.916 601.801C440.916 601.801 462.488 603.543 457.429 578.114" stroke="#121416" stroke-miterlimit="10"/>
<path d="M542.57 562.402C540.979 565.541 521.205 582.149 504.167 596.669C504.167 596.449 508.94 587.58 510.912 583.797C515.446 575.446 527.155 552.544 549.442 549.53C552.608 551.414 542.57 562.402 542.57 562.402Z" fill="#1B2E3D"/>
<path d="M534.091 544.523C511.549 548.949 506.426 577.486 498.424 589.62C490.422 601.754 468.198 618.251 468.198 618.251" stroke="#121416" stroke-miterlimit="10"/>
<path d="M456.044 610.968C459.719 617.592 457.985 625.283 456.044 630.102C455.093 632.495 453.91 634.793 452.512 636.962C420.6 631.782 388.688 614.861 388.688 614.861L380.463 589.746L379.143 585.727L391.535 569.261" stroke="#121416" stroke-miterlimit="10"/>
<path d="M456.045 630.103C455.094 632.496 453.911 634.794 452.513 636.963C420.601 631.783 388.689 614.861 388.689 614.861L380.464 589.746C384.584 595.051 392.22 602.821 403.674 606.008C419.217 610.356 447.9 615.442 456.045 630.103Z" fill="#1B2E3D"/>
<path d="M256.107 399.28L264.603 297.392L368.628 293.452L375.611 295.979" stroke="#121416" stroke-linecap="round" stroke-linejoin="round"/>
<path d="M457.285 589.621C457.285 589.621 471.507 592.132 482.436 583.342C493.365 574.551 510.976 554.663 510.976 554.663" stroke="#121416" stroke-miterlimit="10"/>
<path d="M471.763 576.968C471.763 576.968 468.326 582.07 471.763 592.304" stroke="#121416" stroke-linecap="round" stroke-linejoin="round"/>
<path d="M481.848 572.086C480.284 577.174 480.745 582.658 483.136 587.423" stroke="#121416" stroke-linecap="round" stroke-linejoin="round"/>
<path d="M493.874 565.211C493.874 565.211 490.995 573.735 493.874 581.254" stroke="#121416" stroke-linecap="round" stroke-linejoin="round"/>
<path d="M394.352 567.142L382.945 580.689C382.945 580.689 394.431 593.074 410.642 598.222C426.853 603.371 455.806 612.114 458.208 621.423" stroke="#121416" stroke-miterlimit="10"/>
</svg>
