<svg width="81" height="80" viewBox="0 0 81 80" fill="none" xmlns="http://www.w3.org/2000/svg">
<g filter="url(#filter0_d_884_1665)">
<rect x="25" width="40" height="66" rx="3" fill="white"/>
<rect x="25.5" y="0.5" width="39" height="65" rx="2.5" stroke="#121416"/>
</g>
<path d="M25.8398 3C25.8398 1.61929 26.9591 0.5 28.3398 0.5H61.3398C62.7206 0.5 63.8398 1.61929 63.8398 3V5.5H25.8398V3Z" fill="#3B6AFC" stroke="#121416"/>
<rect x="28.5" y="24.5" width="33.3389" height="5" rx="1" fill="white" stroke="#121416"/>
<path d="M28.5 33.5C28.5 32.9477 28.9477 32.5 29.5 32.5H60.8389C61.3912 32.5 61.8389 32.9477 61.8389 33.5V36.5C61.8389 37.0523 61.3912 37.5 60.8389 37.5H29.5C28.9477 37.5 28.5 37.0523 28.5 36.5V33.5Z" fill="white" stroke="#121416"/>
<path d="M28.5 41.5C28.5 40.9477 28.9477 40.5 29.5 40.5H60.8389C61.3912 40.5 61.8389 40.9477 61.8389 41.5V44.5C61.8389 45.0523 61.3912 45.5 60.8389 45.5H29.5C28.9477 45.5 28.5 45.0523 28.5 44.5V41.5Z" fill="white" stroke="#121416"/>
<path d="M28.5 49.5C28.5 48.9477 28.9477 48.5 29.5 48.5H60.8389C61.3912 48.5 61.8389 48.9477 61.8389 49.5V52.5C61.8389 53.0523 61.3912 53.5 60.8389 53.5H29.5C28.9477 53.5 28.5 53.0523 28.5 52.5V49.5Z" fill="white" stroke="#121416"/>
<rect x="17.5" y="9.5" width="39" height="11" rx="2.5" fill="white" stroke="#121416"/>
<rect x="22" y="14" width="30" height="2" rx="1" fill="#EEEEEE"/>
<g clip-path="url(#clip0_884_1665)">
<path d="M33.5 67.9998C33.5 61.6486 38.6488 56.5 45 56.5C51.3512 56.5 56.5 61.6486 56.5 67.9998C56.5 74.3512 51.3512 79.5 45 79.5C38.6488 79.5 33.5 74.3512 33.5 67.9998Z" fill="white" stroke="#121416"/>
<path fill-rule="evenodd" clip-rule="evenodd" d="M36.0764 63.3183C37.6654 60.3094 40.7359 58.1864 44.2877 57.9425C44.5272 57.9259 44.7643 57.9209 45.0003 57.9209V59.3643C44.9748 59.3643 44.9494 59.364 44.924 59.3638C44.8733 59.3634 44.8225 59.363 44.7713 59.3643C41.5756 59.4468 38.7815 61.3103 37.3602 63.9918L37.3603 63.9919C36.7738 65.0988 36.4193 66.3439 36.3691 67.6622C36.3144 69.0984 36.6617 70.5622 37.247 71.7672C37.4126 72.108 37.2888 72.5141 36.9509 72.7001L36.9379 72.707C36.5623 72.9142 36.0888 72.7618 35.9047 72.383C35.1602 70.8528 34.8046 69.0048 34.9531 67.1645C35.0642 65.7871 35.4581 64.4856 36.0749 63.3175L36.0764 63.3183Z" fill="#3B6AFC"/>
<path fill-rule="evenodd" clip-rule="evenodd" d="M45 59.3643V57.9209C48.9701 57.9216 52.403 60.2148 54.0463 63.5506L54.0455 63.551C54.7067 64.8922 55.08 66.4005 55.08 67.9971C55.08 69.5311 54.7255 71.0455 54.0943 72.3735C53.91 72.7611 53.4365 72.9166 53.0611 72.7049L53.0482 72.6977C52.7105 72.5071 52.5864 72.0919 52.7518 71.7435C53.2915 70.6066 53.6364 69.3101 53.6364 67.9971C53.6364 66.5494 53.2778 65.1859 52.6481 63.9876L52.6502 63.9865C51.2057 61.2372 48.3216 59.3645 45 59.3643Z" fill="#ED305C"/>
<path d="M51.3738 61.2834L51.7163 61.6262L43.149 70.8784L42.1211 69.8505L51.3738 61.2834Z" fill="#121416"/>
<path d="M44.9998 66.7998C44.3369 66.7998 43.7998 67.3369 43.7998 67.9998C43.7998 68.6627 44.3369 69.1998 44.9998 69.1998C45.6627 69.1998 46.1998 68.6627 46.1998 67.9998C46.1998 67.3369 45.6627 66.7998 44.9998 66.7998Z" fill="#121416"/>
<rect x="41" y="75" width="8" height="2" rx="1" fill="#EEEEEE"/>
</g>
<path d="M5 36.8981V35.8796H6.6959V31.4352C6.15984 31.7593 5.57505 31.963 5 32.1111V31.0556C5.78947 30.8333 6.45224 30.5278 6.9883 30.1019H8.05068V35.8796H9.72709V36.8981H5Z" fill="#ED305C"/>
<path d="M13.2222 37C10.9805 37 10.5029 35.3056 10.5029 33.5093C10.5029 31.7222 10.9708 30 13.2125 30C15.4639 30 15.9415 31.6944 15.9415 33.4907C15.9415 35.2778 15.4737 37 13.2222 37ZM13.2222 36C14.46 36 14.5867 34.713 14.5867 33.5C14.5867 32.287 14.46 31 13.2222 31C11.9747 31 11.8577 32.287 11.8577 33.5C11.8577 34.713 11.9747 36 13.2222 36Z" fill="#ED305C"/>
<path d="M19.2807 37C17.039 37 16.5614 35.3056 16.5614 33.5093C16.5614 31.7222 17.0292 30 19.271 30C21.5224 30 22 31.6944 22 33.4907C22 35.2778 21.5322 37 19.2807 37ZM19.2807 36C20.5185 36 20.6452 34.713 20.6452 33.5C20.6452 32.287 20.5185 31 19.2807 31C18.0331 31 17.9162 32.287 17.9162 33.5C17.9162 34.713 18.0331 36 19.2807 36Z" fill="#ED305C"/>
<defs>
<filter id="filter0_d_884_1665" x="25" y="0" width="44" height="71" filterUnits="userSpaceOnUse" color-interpolation-filters="sRGB">
<feFlood flood-opacity="0" result="BackgroundImageFix"/>
<feColorMatrix in="SourceAlpha" type="matrix" values="0 0 0 0 0 0 0 0 0 0 0 0 0 0 0 0 0 0 127 0" result="hardAlpha"/>
<feOffset dx="4" dy="5"/>
<feComposite in2="hardAlpha" operator="out"/>
<feColorMatrix type="matrix" values="0 0 0 0 0.0705882 0 0 0 0 0.0784314 0 0 0 0 0.0862745 0 0 0 1 0"/>
<feBlend mode="normal" in2="BackgroundImageFix" result="effect1_dropShadow_884_1665"/>
<feBlend mode="normal" in="SourceGraphic" in2="effect1_dropShadow_884_1665" result="shape"/>
</filter>
<clipPath id="clip0_884_1665">
<rect width="24" height="24" fill="white" transform="translate(33 56)"/>
</clipPath>
</defs>
</svg>
