<svg width="60" height="60" viewBox="0 0 60 60" fill="none" xmlns="http://www.w3.org/2000/svg">
<g clip-path="url(#clip0_307_519)">
<path d="M16.7651 36.3147C15.3573 35.916 14.0006 35.3549 12.7225 34.6425C10.1728 33.1438 8.30402 30.7144 7.50948 27.8655C7.01565 26.2689 6.87858 24.5832 7.10803 22.9277C7.33749 21.2723 7.92784 19.6874 8.83732 18.2853C9.70315 16.8574 10.8713 15.6366 12.2597 14.7088C13.648 13.781 15.2228 13.1686 16.8733 12.9148L17.3258 12.8361C17.3258 12.7083 17.3258 12.541 17.3258 12.3837C17.4157 9.05784 18.8044 5.89945 21.1943 3.58486C23.5843 1.27027 26.7856 -0.0164835 30.1126 0.000159455H30.2011C33.5563 0.00524513 36.7739 1.33499 39.1537 3.70012C41.5336 6.06526 42.8833 9.27444 42.9092 12.6296V12.8361L43.2633 12.8952C45.2732 13.2087 47.168 14.0363 48.7638 15.2978C50.3596 16.5593 51.6024 18.2119 52.3714 20.0951C53.136 21.9572 53.409 23.9845 53.1644 25.9825C52.9198 27.9806 52.1658 29.8822 50.9747 31.5049C49.1957 33.939 46.5782 35.6279 43.6272 36.2458L43.2731 34.2786C45.7217 33.7579 47.8946 32.3582 49.3813 30.3442C50.3764 28.9926 51.0068 27.4076 51.2118 25.7418C51.4168 24.0759 51.1895 22.3853 50.5517 20.8328C49.9046 19.2624 48.8644 17.8847 47.5312 16.8323C46.198 15.7798 44.6165 15.0879 42.9387 14.823C41.542 14.5968 40.9715 14.2427 40.9715 12.6493C40.938 9.81381 39.7928 7.10484 37.7822 5.10527C35.7716 3.1057 33.0563 1.97538 30.2208 1.95753H30.1421C27.3295 1.95618 24.6271 3.05007 22.6073 5.00737C20.5876 6.96466 19.4094 9.63151 19.3225 12.4427C19.2634 14.164 18.9389 14.5476 17.2471 14.8427C15.8663 15.0503 14.548 15.5588 13.3854 16.3321C12.2229 17.1055 11.2444 18.1248 10.5193 19.3181C9.76073 20.4849 9.26716 21.8039 9.07343 23.1821C8.8797 24.5604 8.9905 25.9643 9.39798 27.295C10.0632 29.6706 11.6209 31.697 13.7455 32.9507C14.8701 33.5789 16.061 34.0803 17.2962 34.4458L16.7651 36.3147Z" fill="white"/>
<path d="M29.3456 17.1838C33.4374 17.2821 36.6734 17.7247 39.6242 19.3575C40.3833 19.7898 41.0758 20.3298 41.68 20.9608C41.9698 21.2299 42.2027 21.5546 42.3646 21.9155C42.5265 22.2764 42.6142 22.6662 42.6224 23.0617C42.6307 23.4572 42.5593 23.8503 42.4126 24.2176C42.2659 24.585 42.0469 24.9191 41.7684 25.2001C40.6772 26.4053 39.2751 27.2867 37.716 27.7476C35.2593 28.5927 32.6812 29.0312 30.0833 29.046C27.3596 29.0369 24.6602 28.5336 22.1161 27.5607C20.9208 27.1014 19.8154 26.4355 18.8506 25.5935C17.149 24.1083 17.208 22.21 18.8506 20.6755C20.5849 19.1642 22.7139 18.1782 24.9882 17.8329C26.68 17.4985 27.6263 17.318 29.3456 17.1838ZM29.2656 15.7772L29.1836 15.7772L28.2833 15.8559C27.2997 15.9641 26.0014 16.1116 24.703 16.3674C22.149 16.7636 19.7607 17.8793 17.8178 19.5837C17.2903 20.0397 16.8658 20.6026 16.5724 21.2352C16.279 21.8677 16.1236 22.5554 16.1162 23.2526C16.1439 23.9184 16.3145 24.5706 16.6166 25.1646C16.9187 25.7586 17.3452 26.2806 17.867 26.6952C18.9624 27.6687 20.2211 28.4412 21.585 28.9771C24.2964 30.0094 27.1722 30.5426 30.0735 30.5509C32.832 30.5356 35.5696 30.0705 38.1783 29.1738C39.9869 28.641 41.6137 27.62 42.8799 26.223C43.6799 25.3767 44.1132 24.2487 44.0856 23.0845C44.058 21.9203 43.5716 20.8141 42.7324 20.0067C42.0275 19.2663 41.2151 18.6363 40.3226 18.1379C37.0472 16.3182 33.5751 15.8854 29.3751 15.7772H29.2656Z" fill="white"/>
<path d="M17.6112 26.4196C20.3161 29.0556 25.2538 30.354 30.1718 30.354C35.0898 30.354 39.8701 29.0655 42.5455 26.4786C42.5775 26.6871 42.5972 26.8973 42.6045 27.1081C42.6045 28.0917 42.5455 29.0753 42.6045 30.0097C42.6653 30.7715 42.5136 31.5351 42.1663 32.2158C41.819 32.8965 41.2897 33.4675 40.6373 33.8654C38.8707 35.075 36.853 35.8686 34.7357 36.1867C33.1504 36.4906 31.54 36.6454 29.9259 36.649C27.1939 36.6607 24.4842 36.1568 21.939 35.1638C20.6492 34.7087 19.4861 33.9536 18.5456 32.9605C18.2228 32.6291 17.9696 32.2364 17.8007 31.8057C17.6317 31.375 17.5506 30.9148 17.562 30.4523C17.562 29.1441 17.562 27.8458 17.562 26.39M16.0866 22.8884V26.39C16.0866 26.8327 16.0866 27.2753 16.0866 27.6982C16.0866 28.6818 16.0866 29.5376 16.0866 30.4228C16.0686 31.0718 16.1792 31.7181 16.4122 32.3241C16.6452 32.9302 16.9958 33.4841 17.444 33.9539C18.5353 35.1118 19.8828 35.9978 21.3784 36.5408C24.0969 37.5975 26.9895 38.1347 29.9062 38.1244C31.609 38.1156 33.3076 37.9542 34.9816 37.6424C37.3009 37.2763 39.509 36.3957 41.4438 35.0654C42.3076 34.5228 43.0057 33.7533 43.4619 32.8409C43.9181 31.9285 44.1149 30.9083 44.0307 29.8917C44.0307 29.3212 44.0307 28.731 44.0307 28.1015C44.0307 27.7671 44.0307 27.4327 44.0307 27.1179C44.0307 26.8032 44.0307 26.754 44.0307 26.5474V26.3605L44.0307 22.9999L41.5323 25.436C39.3291 27.5704 34.9816 28.8982 30.1816 28.8982C25.3816 28.8982 20.8964 27.5409 18.6538 25.3474L16.1456 22.9081L16.0866 22.8884Z" fill="white"/>
<path d="M17.6112 34.1114C21.2702 37.2589 25.5784 38.0458 30.0735 38.0458C34.5587 38.0458 38.8668 37.2687 42.4668 34.2196C42.4668 35.9114 42.575 37.5737 42.4668 39.1966C42.3512 39.6835 42.1348 40.1408 41.8315 40.539C41.5282 40.9371 41.1449 41.2672 40.7062 41.5081C38.9959 42.7026 37.0398 43.4991 34.9816 43.8392C33.3229 44.1689 31.6367 44.3402 29.9456 44.3507C27.2914 44.3644 24.6585 43.8772 22.185 42.9146C21.1016 42.4604 20.0776 41.8758 19.1358 41.1736C18.622 40.813 18.2106 40.3252 17.9416 39.758C17.6727 39.1909 17.5555 38.5636 17.6014 37.9376C17.6604 36.7081 17.6014 35.4687 17.6014 34.1114M16.126 30.895V34.1114C16.126 34.5343 16.126 34.9573 16.126 35.3606C16.126 36.236 16.126 37.0622 16.126 37.8786C16.0707 38.7481 16.2398 39.6172 16.617 40.4026C16.9942 41.188 17.5668 41.8633 18.28 42.3638C19.3115 43.1623 20.4423 43.8235 21.644 44.331C24.2922 45.3526 27.1072 45.8729 29.9456 45.8654C31.7325 45.8553 33.5144 45.6742 35.2668 45.3244C37.5401 44.95 39.699 44.0656 41.5815 42.7376C42.1925 42.3792 42.7189 41.8931 43.1246 41.3125C43.5303 40.732 43.8059 40.0706 43.9323 39.3736C44.0237 38.1661 44.0467 36.9543 44.0012 35.7442C44.0012 35.2524 44.0012 34.7605 44.0012 34.2589V31.0721L41.5717 33.1278C38.7291 35.5376 35.198 36.6097 30.1325 36.6097C25.0669 36.6097 21.4669 35.4982 18.5948 33.0294L16.1555 30.9344L16.126 30.895Z" fill="white"/>
<path d="M30.0928 54.5703C30.8061 54.5649 31.4928 54.8405 32.0045 55.3375C32.5162 55.8345 32.8117 56.5128 32.8272 57.226C32.8272 57.9495 32.5405 58.6435 32.0298 59.156C31.5191 59.6686 30.8261 59.9578 30.1026 59.9604C29.3913 59.9552 28.7108 59.669 28.2096 59.1641C27.7085 58.6592 27.4272 57.9767 27.4273 57.2653C27.4246 56.5548 27.7037 55.8723 28.2033 55.3672C28.7029 54.862 29.3823 54.5755 30.0928 54.5703Z" fill="#F5617A"/>
<path d="M15.2307 54.5702C15.5865 54.565 15.9398 54.631 16.2697 54.7644C16.5996 54.8979 16.8995 55.096 17.1516 55.3472C17.4037 55.5984 17.6029 55.8975 17.7376 56.227C17.8722 56.5564 17.9395 56.9094 17.9356 57.2653C17.9421 57.6179 17.8791 57.9684 17.7501 58.2967C17.6212 58.625 17.4288 58.9247 17.184 59.1786C16.9392 59.4325 16.6468 59.6357 16.3235 59.7766C16.0001 59.9175 15.6522 59.9933 15.2995 59.9997C14.9414 60.0049 14.5857 59.9392 14.2531 59.8063C13.9204 59.6734 13.6174 59.476 13.3614 59.2255C13.1054 58.975 12.9015 58.6763 12.7615 58.3466C12.6214 58.0169 12.548 57.6628 12.5455 57.3046C12.5402 56.9483 12.6058 56.5944 12.7383 56.2635C12.8708 55.9326 13.0676 55.6313 13.3173 55.3769C13.567 55.1226 13.8647 54.9204 14.1932 54.7819C14.5216 54.6434 14.8742 54.5715 15.2307 54.5702Z" fill="#68A4EF"/>
<path d="M47.6897 57.2654C47.6768 57.9768 47.3851 58.6548 46.8774 59.1533C46.3697 59.6518 45.6865 59.9311 44.975 59.9309C44.6168 59.9271 44.2629 59.8524 43.9337 59.7112C43.6045 59.5699 43.3065 59.365 43.0569 59.108C42.8073 58.8511 42.611 58.5473 42.4793 58.2142C42.3477 57.8811 42.2832 57.5252 42.2898 57.167C42.3078 56.4539 42.6078 55.777 43.124 55.2848C43.6403 54.7925 44.3307 54.525 45.0438 54.5408C45.3965 54.546 45.7447 54.6205 46.0685 54.7602C46.3923 54.8999 46.6854 55.102 46.9311 55.355C47.1768 55.608 47.3703 55.907 47.5004 56.2348C47.6306 56.5625 47.6949 56.9127 47.6897 57.2654Z" fill="#68A4EF"/>
<path d="M31.2733 53.2228H28.9619V45.7671H31.2733V53.2228Z" fill="white"/>
<path d="M19.3127 58.4162V56.1244H26.0602V58.4162H19.3127Z" fill="white"/>
<path d="M34.175 58.4063V56.1244H40.9324V58.4063H34.175Z" fill="white"/>
</g>
<defs>
<clipPath id="clip0_307_519">
<rect width="60" height="60" fill="white"/>
</clipPath>
</defs>
</svg>
