<svg width="207" height="120" viewBox="0 0 207 120" fill="none" xmlns="http://www.w3.org/2000/svg">
<path fill-rule="evenodd" clip-rule="evenodd" d="M198.884 22.0135C199.179 21.539 199.467 21.0761 199.751 20.6311C199.92 20.3655 200.088 20.1022 200.254 19.8408C202.623 16.1235 204.748 12.7894 206.23 8.88768C202.842 9.7805 199.538 10.7419 196.311 11.8248C194.567 12.4285 192.812 13.0052 191.054 13.5835C189.065 14.2375 187.07 14.8934 185.077 15.5924C184.603 15.752 184.167 15.9558 183.729 16.1604C183.536 16.2504 183.343 16.3406 183.146 16.4272L183.468 17.0091C186.809 18.2701 190.15 19.5464 193.491 20.8381C195.111 21.4645 196.732 22.1443 198.368 22.8395C198.542 22.5612 198.714 22.2855 198.884 22.0135ZM196.206 26.0859C193.324 24.8806 190.455 23.7254 187.585 22.5701C185.446 21.7088 183.306 20.8474 181.161 19.9651C178.801 18.9925 176.978 18.8394 175.598 19.6817C174.274 20.4812 172.877 21.189 171.478 21.897C170.627 22.3284 169.775 22.7597 168.939 23.212C168.853 23.2579 168.759 23.2973 168.665 23.337C168.254 23.5095 167.831 23.6875 167.974 24.4219C168.494 24.9446 169.154 25.3062 169.874 25.4634C176.474 28.1568 183.089 31.0107 189.781 34.1398C189.922 33.9493 190.063 33.7587 190.205 33.5682C191.122 32.3305 192.039 31.0925 192.962 29.8588C193.036 29.7418 193.123 29.6338 193.222 29.5372C194.337 28.4909 195.317 27.3074 196.206 26.0859ZM187.947 36.6083C180.687 33.3834 173.421 30.133 166.15 26.8571C164.832 26.2674 163.775 26.053 163.008 26.4819C159.535 28.4014 156.071 30.3312 152.618 32.2712C152.55 32.3108 152.561 32.4677 152.572 32.6118C152.576 32.6626 152.58 32.7117 152.58 32.7536C152.663 32.8657 152.758 32.9685 152.863 33.0599L152.868 33.062C154.537 33.8271 156.206 34.5922 157.867 35.3573C165.085 38.6297 172.382 42.3361 179.759 46.4764C178.937 47.2626 178.086 48.0284 177.207 48.7738C173.139 46.821 169.085 44.8836 165.031 42.9921C161.932 41.5472 158.861 40.1547 155.788 38.7607C153.877 37.894 151.964 37.0268 150.043 36.146C148.013 35.2118 146.633 35.2041 145.446 35.8167C143.15 36.9972 140.789 38.0916 138.43 39.1853C137.268 39.7235 136.108 40.2616 134.955 40.8096C134.526 41.0177 134.122 41.2746 133.752 41.5754C133.696 41.6248 133.808 41.8883 133.892 42.0852C133.9 42.1022 133.907 42.1187 133.913 42.1344C133.986 42.2442 134.083 42.3358 134.197 42.4025C134.618 42.6016 135.032 42.7854 135.438 42.9462C137.138 43.6207 138.833 44.2799 140.527 44.9391C144.833 46.6148 149.138 48.2899 153.537 50.2134C157.668 52.036 161.828 54.0041 166.051 56.3397L162.541 58.5681C157.682 56.3239 152.858 54.2121 148.033 52.1003C143.507 50.1193 138.981 48.1381 134.427 46.0476C134.132 45.9182 133.836 45.7903 133.539 45.6621C132.695 45.2973 131.844 44.9297 130.994 44.516C129.66 43.8728 128.649 43.8115 127.883 44.2174C125.865 45.2571 123.84 46.2877 121.816 47.3178C120.159 48.1617 118.501 49.0053 116.848 49.8535C116.616 49.9985 116.416 50.1886 116.258 50.4125C116.113 50.6346 116.458 51.3545 116.879 51.5842C117.615 51.9671 118.35 52.3423 119.063 52.641C128.856 56.7532 138.794 61.4781 148.848 66.7084L149.177 66.8845C148.826 67.0999 148.476 67.3163 148.128 67.5334C148.709 67.1772 149.291 66.8231 149.875 66.4708C157.453 61.8914 164.901 57.1589 172.326 52.3957C177.106 49.3026 181.308 45.3968 184.74 40.8554C185.819 39.45 186.886 38.0319 187.947 36.6083ZM146.336 68.6395L142.028 66.6088C138.33 64.8765 134.634 63.1518 130.938 61.4269C125.549 58.9124 120.159 56.3976 114.764 53.8586C113.04 53.0468 111.53 52.5338 110.488 53.1617C107.231 55.1205 103.974 57.0359 100.691 58.9667C99.6101 59.6023 98.5263 60.2397 97.4388 60.8808C97.3458 60.9295 97.2638 60.9967 97.1979 61.0784C97.132 61.1601 97.0836 61.2544 97.0557 61.3556C97.056 61.5412 97.1086 61.723 97.2075 61.8801C97.3065 62.0372 97.4477 62.1633 97.615 62.2439C99.1303 62.9365 100.637 63.602 102.144 64.2682C102.604 64.4712 103.063 64.6743 103.523 64.8782C112.652 68.9193 121.942 73.6872 131.262 78.6543C136.186 75.1678 141.213 71.8281 146.336 68.6395ZM127.792 81.148C120.939 77.8153 114.093 74.4979 107.255 71.1958C105.382 70.2951 103.519 69.423 101.659 68.552C99.438 67.5125 97.2208 66.4745 94.9944 65.3912C93.1783 64.5029 91.9217 64.457 90.9868 65.1615C88.2888 67.1876 85.5694 69.1815 82.8504 71.175C81.5924 72.0974 80.3346 73.0197 79.079 73.945C79.0546 73.9615 79.03 73.9769 79.0056 73.9922C78.7921 74.1258 78.6007 74.2455 78.8414 74.9329C80.1951 75.7136 81.6221 76.36 83.1019 76.8626C93.278 81.2123 103.508 85.8606 113.937 91.2823C113.298 91.7133 112.658 92.1248 112.013 92.5389C111.513 92.8605 111.01 93.1836 110.504 93.5184C106.683 91.6652 102.872 89.835 99.071 88.0277C94.3174 85.779 89.596 83.6237 84.8734 81.4677C82.3106 80.2978 79.7475 79.1277 77.1786 77.9424C75.9833 77.391 75.0024 77.1383 74.3205 77.6054C71.8721 79.2602 69.4092 80.9092 66.9443 82.5595C65.4054 83.5899 63.8657 84.6207 62.3283 85.6538C62.2691 85.6931 62.2182 85.7439 62.1788 85.803C62.1393 85.8622 62.112 85.9286 62.0985 85.9984C62.094 86.1753 62.1399 86.3498 62.2308 86.5016C62.3216 86.6535 62.4538 86.7764 62.6119 86.8561C63.5697 87.3768 64.5199 87.8593 65.4471 88.2728C72.581 91.4737 79.8376 94.9274 87.1401 98.718C89.1324 99.7595 91.1401 100.862 93.1554 101.98C91.324 102.601 89.416 103.175 87.4926 103.696C78.2897 99.3307 69.0485 94.8126 59.746 89.9958C58.0449 89.1151 56.7576 88.7782 55.8151 89.4061C52.7664 91.4408 49.6957 93.4462 46.6233 95.4527C45.2553 96.346 43.8871 97.2396 42.5203 98.136C42.3349 98.2343 42.1928 98.3981 42.1218 98.5955C42.0375 98.8559 42.3134 99.2388 42.6582 99.4608C43.0582 99.7169 43.4785 99.9397 43.9149 100.127C49.6313 102.754 55.4089 105.687 61.2173 108.834L59.0039 109.18C67.3468 107.974 75.5387 106.551 83.4621 104.722C90.8241 103.139 97.9365 100.563 104.603 97.0638C110.846 93.5508 116.81 89.5647 122.442 85.1406C124.211 83.7901 125.995 82.4591 127.792 81.148ZM55.2561 109.719C50.4872 107.336 45.7183 104.935 40.9494 102.516C39.1257 101.59 37.846 101.314 36.8805 102.08C35.2585 103.312 33.5628 104.457 31.867 105.603C31.0554 106.151 30.2437 106.699 29.4401 107.257C29.2251 107.427 29.0366 107.628 28.8807 107.854C28.7045 108.107 29.0186 108.75 29.4707 108.98L29.5726 109.031C30.1738 109.335 30.7678 109.636 31.3481 109.868C33.2783 110.661 35.2389 111.59 37.2148 112.581C37.2713 112.572 37.3278 112.562 37.3844 112.553C43.3207 111.576 49.2579 110.598 55.2561 109.719ZM30.7879 113.634C30.6005 113.533 30.4132 113.432 30.2258 113.332C29.343 112.857 28.4592 112.382 27.5704 111.882C25.647 110.81 24.4746 110.787 23.5245 111.491C21.4409 113.032 19.3041 114.527 17.099 115.931C17.2519 115.905 17.4049 115.879 17.5579 115.853C21.7919 115.131 26.0402 114.406 30.306 113.712C30.4666 113.686 30.6272 113.66 30.7879 113.634ZM7.05446 118.246C5.94106 118.621 4.84046 119.034 3.75472 119.486C3.01494 119.925 2.14434 120.09 1.29499 119.953C0.951559 119.85 0.641989 119.657 0.398459 119.394C0.170691 119.138 0.0310316 118.816 0 118.475C0.100829 117.88 0.300233 117.305 0.590026 116.775C2.25438 113.835 4.06505 110.98 6.01521 108.221C7.76196 106.112 9.6873 104.157 11.7699 102.378C16.1913 98.312 20.628 94.261 25.1413 90.3019C28.6437 87.2312 31.912 83.9036 34.9189 80.3468C37.6113 77.2171 40.1334 73.945 42.4743 70.5448C45.0792 66.7973 47.8747 63.1857 50.8496 59.7243C53.3783 56.7301 55.999 53.8278 58.7345 51.0556C62.486 47.2672 66.5234 43.7726 70.8109 40.6027C72.9531 39.0067 75.0952 37.3988 77.2396 35.7892C81.999 32.2168 86.7697 28.6359 91.5769 25.1569C101.553 18.138 112.237 12.181 123.454 7.3831C128.921 4.90757 134.654 3.06784 140.541 1.9001C147.632 0.494527 154.854 -0.134576 162.081 0.0239378C164.919 0.0976902 167.734 0.13035 170.55 0.163036C170.951 0.167682 171.351 0.172329 171.752 0.177094C175.436 0.164205 179.116 0.420146 182.763 0.942876C186.15 1.47258 189.538 1.99193 192.921 2.51062C196.043 2.98923 199.161 3.46729 202.272 3.9524C203.276 4.10555 204.295 4.28934 205.337 4.54205C205.38 4.55422 205.423 4.56765 205.465 4.58231C205.438 4.57355 205.411 4.56529 205.383 4.55754C204.326 4.30483 203.307 4.12104 202.318 3.96789L200.64 3.70752L197.399 4.6188C195.384 5.18966 193.446 5.86793 191.509 6.54572C190.094 7.04083 188.681 7.53568 187.238 7.98824C182.982 9.32078 178.822 10.9403 174.786 12.8356C171.377 14.4469 168.182 16.318 164.988 18.1888C163.279 19.19 161.57 20.191 159.828 21.152C157.568 22.3919 155.321 23.6527 153.073 24.9144C146.294 28.7179 139.5 32.5295 132.296 35.8014C123.534 39.8003 115.075 44.1612 106.611 48.5251L105.891 48.8963C95.6994 54.1496 86.2589 60.3524 77.0331 66.8079C76.7352 67.0163 76.4373 67.2248 76.1395 67.4333C69.4126 72.1423 62.6918 76.8468 55.3246 80.8141C48.3203 84.5598 41.5954 88.8055 35.2024 93.5184C28.3596 98.5419 21.8923 104.002 15.5936 109.661C12.6298 112.496 9.43635 115.08 6.04587 117.388C5.28581 117.877 4.56199 118.406 3.83958 118.934C3.62247 119.093 3.40549 119.252 3.18768 119.409C3.00393 119.52 2.85722 119.683 2.76624 119.877C2.93234 119.816 3.09417 119.749 3.25511 119.682C3.39856 119.622 3.54131 119.563 3.68576 119.509C4.79391 119.048 5.91754 118.627 7.05446 118.246Z" fill="#F37316"/>
</svg>
