<svg xmlns="http://www.w3.org/2000/svg" xmlns:xlink="http://www.w3.org/1999/xlink" viewBox="0 0 941.1 699.74"><defs><style>.cls-1,.cls-5{fill:none;}.cls-2{fill:#ffc3b0;}.cls-3{clip-path:url(#clip-path);}.cls-4{fill:#ffd7cc;}.cls-5{stroke:#366bae;stroke-miterlimit:10;stroke-width:4px;}.cls-6{fill:#f29270;}.cls-7{fill:#366bae;}.cls-8{fill:#bbceef;}.cls-9{fill:#234a3d;}.cls-10{fill:#62ae75;}.cls-11{fill:#fff;}</style><clipPath id="clip-path" transform="translate(119.92 64.08)"><rect class="cls-1" width="750" height="500"/></clipPath></defs><g id="BACKGROUND"><rect class="cls-2" x="119.92" y="64.08" width="750" height="500"/></g><g id="OBJECTS"><g class="cls-3"><path class="cls-4" d="M53.33,233.59c5.76,21.77,8.41,44.81,19.25,64.51,5.32,9.66,12.91,18.55,23.17,22.78,19.57,8.05,44.4-5,51.71-25,10.51-28.76-10.29-60.32-3.52-90.1,4.3-18.87,20.45-34.74,39.51-38.82,22.2-4.74,44.21,5.43,66.22,10.27a142.79,142.79,0,0,0,62.76-.45c15.1-3.51,30.71-10.38,38.54-23.72,6.65-11.34,6.4-25.66,1.77-37.76S339.57,93,330.26,84c-14.63-14.19-31.42-26-48.68-36.95C264.14,36,245.1,25.51,224.25,25.33c-11.79-.1-23.4,3.13-34.72,6.61A738.75,738.75,0,0,0,50.45,90.83C31.63,101.18-2,121.41,8.9,146.42c5.8,13.3,17.9,24.87,24.9,37.85A225.18,225.18,0,0,1,53.33,233.59Z" transform="translate(119.92 64.08)"/><path class="cls-5" d="M109.54,172c1.85,8.06,9.36,13.38,16.44,17.67,12.43,7.53,24.85,16.65,39.13,20.33,11.21,2.88,36.3,3.24,30.33-15.59-5.29-16.68-27.62-27.21-41.22-35.73C141.85,150.89,102.85,142.77,109.54,172Z" transform="translate(119.92 64.08)"/><path class="cls-4" d="M681.51,477.88c-10.69-1-24.32-8-38.38-19.85-8.13-6.85-16.44-13.5-24.48-19.93-20.41-16.33-39.7-31.75-53.78-48.37-13.63-16.07-20.88-34-19.4-48,1.45-13.73,12.68-28.24,27.32-35.28,10.68-5.15,23.6-7.22,37.35-6a90.69,90.69,0,0,1,21.3,4.56c21,7.22,41.36,22.06,58.86,42.94,20.82,24.82,32.1,52,31.78,76.62-.29,22.11-12.07,43.59-28,51.07a23.15,23.15,0,0,1-12.56,2.25m-5.12,57a80.33,80.33,0,0,0,42-7.44c37.84-17.75,60.39-60.35,60.93-102.14S761,343.19,734.16,311.16c-22.44-26.76-51.09-48.94-84.13-60.29a148.31,148.31,0,0,0-34.76-7.44c-23.06-2.07-46.52,1.4-67.31,11.41C516.49,270,492.21,301,488.55,335.69c-3.48,33,11.23,65.77,32.66,91.06,24.07,28.4,56.59,51.09,85,75.06,20.38,17.17,44.64,30.79,70.13,33.08Z" transform="translate(119.92 64.08)"/><path class="cls-5" d="M473.76,419c.06-.57.1-1.14.11-1.72.77-23.68-25.66-30.4-44.5-29-15.69,1.2-31.67,6.9-34.66,24.39-1.95,11.43,3.2,25.89,13.49,31.88,9.78,5.71,24.13,4.1,34.85,3.09C457.52,446.36,472.27,434.38,473.76,419Z" transform="translate(119.92 64.08)"/><path class="cls-6" d="M-112.55,577.69q48.33,20.5,96.63,41.1C-8,622.17-.14,625.61,7.8,628.91c6.9,2.86,14.18,6.89,21.84,6.75,16.14-.3,26.38-19.26,35-30.67a728.55,728.55,0,0,0,51.66-78.18c7.94-14,15.47-28.17,22.37-42.67,3.27-6.9,7.5-14.36,6.2-22.25-1.45-8.74-8.24-14-14.71-19.26-28.23-23.08-58.62-46.36-91.49-62.45-6.32-3.1-13.15-1-16.88,4.94-4.69,7.43-5.58,15.1-8.71,23.24a4,4,0,0,0,.84,4.19,15.5,15.5,0,0,0,3.66,7.91c7.24,8.24,16.27,14.37,23,23.31A120.8,120.8,0,0,1,57,472.93c7.95,21,6.25,40.89-9.66,57.47C15.57,563.47-37,557.33-65.85,524.53c-4.14-4.7-11.12-5.48-16.93-3.46a12.59,12.59,0,0,0-7.78,4.37c-8.49,9.87-17,19.76-25.58,29.54C-121.78,561.38-121.54,573.88-112.55,577.69Z" transform="translate(119.92 64.08)"/><path class="cls-4" d="M560.08-37.57c33.29,16,67.6,34.87,86.46,66.63,17.91,30.16,18.74,69.24,4,101.09s-44,56.14-77.38,66.85c-16.55,5.3-34.81,7.39-51.19,1.55s-29.2-19-37.57-34.17-12.64-32.2-15.82-49.21a439.13,439.13,0,0,1-6.08-45.85c-1.88-23.62-1.68-48.23,7.92-69.91s30.59-39.73,54.29-39.48c21.71.22,41.36,15.14,63.07,14.78" transform="translate(119.92 64.08)"/><path class="cls-4" d="M367.57,367.78c35.15,19.78,63.14,51.43,61.55,93.77-1.19,31.75-17.92,61.72-41.81,82.47a92.07,92.07,0,0,1-16.11,14.3c-32.31,22.46-76.11,22.26-109.93,3.12-35.35-20-56-59.48-56.74-99.59-.69-37.64,17.55-76.14,49.56-96.86C289.42,342.12,332.27,347.92,367.57,367.78Z" transform="translate(119.92 64.08)"/><path class="cls-7" d="M-19.69,387c1.54-1.52,3-3,4.63-4.58,1.25-1.21,2.51-2.4,3.77-3.6h0c13.94-13,26.06-22.11,38.14-28.6a92.16,92.16,0,0,1,21.8-8.3,61.51,61.51,0,0,1,14.55-1.41,56,56,0,0,1,12.51,2,49,49,0,0,1,10.85,4.83,42.86,42.86,0,0,1,5,3.74c.06.07.11.15.16.22.29.4.57.8.87,1.18.16.22.33.44.49.67h0a52.14,52.14,0,0,1,3.17,5.24c.39.77.7,1.44,1,2.1l.33.72.21.45c.45.94.88,1.87,1.29,2.82l.46,1.05c.88,2,1.79,4.13,2.58,6.24.14.37.28.72.41,1.08a40.31,40.31,0,0,1,.15,4.12,1.59,1.59,0,0,0,.32.94,2.22,2.22,0,0,0,1.51.89c.69,2.36,1.36,4.91,2,7.55l0-.24.1.43,0,.25a144,144,0,0,1,2.72,18.53,153.92,153.92,0,0,1,.3,17.25v.31h0v.3h0l0,.7,0-.29a194.46,194.46,0,0,1-4.46,34.74L160,489.7c1.51-3.88,2.93-7.8,4.2-11.73a193.59,193.59,0,0,0,7.09-29.18c3.2-20.3,2.78-39.78-1.25-57.89A145.13,145.13,0,0,0,166,376.09c-1.09-3.28-2.35-6.45-3.44-9.11-2.68-6.52-5.84-13.21-9.41-19.9A231.89,231.89,0,0,0,141,326.92c-1.32-2-2.68-3.92-4.05-5.84-3.47-4.85-7.08-9.51-10.73-13.84C114.78,293.76,103.27,283.8,91,276.8a70.73,70.73,0,0,0-19.39-7.63,53.88,53.88,0,0,0-20.67-.63,3.6,3.6,0,0,0-2.31,1.37,92.45,92.45,0,0,0-26.45,4.62A135,135,0,0,0-3.12,285.71a178.5,178.5,0,0,0-23.3,15.67,250.3,250.3,0,0,0-22.33,20,295.53,295.53,0,0,0-20.08,22.2q-4.2,5.13-8.35,10.58Z" transform="translate(119.92 64.08)"/><path class="cls-8" d="M409.08,374.16c6.14-3.78,12.94-8.6,13.51-15.78.64-8-6.79-14.12-13.81-17.94-34.51-18.8-79.07-17.52-112.46,3.2C264.53,363.38,244,400,243.51,437.4c-.11,7.76-.19,20.9,7.72,25.34,6.66,3.74,15.26-1.2,21.06-4.46,21.83-12.28,42.84-26.3,64.17-39.43Z" transform="translate(119.92 64.08)"/><path class="cls-9" d="M677.83,211.19c6.1,0,14.17,3.3,22.73,9.29,5,3.46,10,6.8,14.87,10,12.38,8.2,24.08,16,32.89,24.64,8.53,8.4,13.55,18.2,13.43,26.2-.13,7.84-5.75,16.62-13.67,21.35A40.57,40.57,0,0,1,727.24,308,51.64,51.64,0,0,1,715,306.49c-12.26-3-24.53-10.39-35.5-21.31-13-13-20.81-27.82-21.88-41.75-1-12.53,4.61-25.28,13.25-30.32a13.15,13.15,0,0,1,7-1.92m0-32.52A45.64,45.64,0,0,0,654.44,185c-20.51,12-31.1,37.22-29.29,60.9s14.53,45.54,31.36,62.3c14.06,14,31.41,25.11,50.68,29.85a84.06,84.06,0,0,0,20,2.44,73.16,73.16,0,0,0,37.51-9.88c17-10.18,29.21-28.93,29.52-48.78.29-18.83-9.7-36.65-23.12-49.87-15.07-14.85-34.62-26-51.95-38.15-12.41-8.69-26.83-15.16-41.37-15.16Z" transform="translate(119.92 64.08)"/><path class="cls-10" d="M683.56,275.75c4.71-1.09,9.5-2.4,13.41-5.23s6.84-7.49,6.33-12.3-4.18-8.59-8.44-10.64-9.07-2.57-13.78-3A592.8,592.8,0,0,0,605,242.41c-9.55.35-20.39,1.59-26,9.3-6.33,8.62-2.28,20.06,6.47,25.12,6.52,3.77,13.65,1.41,20.77,1.74C632.79,279.8,657.18,281.85,683.56,275.75Z" transform="translate(119.92 64.08)"/><path class="cls-6" d="M413.7,468.72l-42.91,87.37C338.47,544.07,313,523,299.59,494s-11.64-61,4.52-84Z" transform="translate(119.92 64.08)"/><path class="cls-7" d="M371.15-31.23q-27.93,62.49-55.87,125c-3.89,8.69-7.86,17.74-7.7,27.27s5.67,19.68,14.92,22c6.62,1.65,13.74-1.05,19-5.45s8.9-10.33,12.42-16.19c13.43-22.34,109.68-177.5,54.22-185.22C388.29-66.59,377.85-46.22,371.15-31.23Z" transform="translate(119.92 64.08)"/><path class="cls-6" d="M820,162.09q-22.54-47.4-45-94.86c-3.66-7.77-7.27-15.58-11-23.31-3.27-6.72-6-14.56-11.86-19.54-12.28-10.49-32.52-3.1-46.52-.27a725.64,725.64,0,0,0-90.54,24.2c-15.2,5.17-30.26,10.8-45,17.08-7,3-15.15,5.76-19.41,12.52-4.72,7.51-3.1,15.92-1.77,24.17,5.8,36,13.08,73.58,27,107.44,2.67,6.51,9.19,9.43,15.9,7.5,8.44-2.44,14.19-7.59,21.94-11.6a4,4,0,0,0,2.15-3.69,15.62,15.62,0,0,0,2.52-8.35c0-11-2.64-21.55-1.72-32.68A121,121,0,0,1,623.7,128c8-21,22.47-34.74,45.38-36.58,45.67-3.68,80.92,35.79,80.74,79.48,0,6.26,4.69,11.47,10.37,13.82a12.59,12.59,0,0,0,8.72,1.89c12.9-1.75,25.81-3.52,38.74-5.12C816.12,180.42,824.23,170.92,820,162.09Z" transform="translate(119.92 64.08)"/><path class="cls-9" d="M122.57,409.7c-4.07-4.74-12.64-.94-12.37,5.12.48,10.69,3.09,21.28-8,28C92.9,448.48,80.49,444.47,72,439c-2.3-1.49-5.65,1-4.74,3.65,5.89,17.16,27.56,22.84,43,14.08C125.18,448.28,134.78,423.92,122.57,409.7Z" transform="translate(119.92 64.08)"/><path class="cls-9" d="M140,388.26c-10.18-14.63-30.55-20.94-46.34-11-13.57,8.53-20.6,30.26-9.23,43.28,2.22,2.54,7.25.6,6.93-2.87-.93-10.2-.83-20.77,8.51-27.44,8.64-6.17,21.55-2.93,27.4,5.48C132.69,403.44,145.48,396.08,140,388.26Z" transform="translate(119.92 64.08)"/><path class="cls-9" d="M132.38,341.09C120.44,355.75,104,356,92.73,340a4.58,4.58,0,0,0-8.33,3.51c6,28.3,47.1,31.58,59.88,6.76C148,343.07,138.1,334.06,132.38,341.09Z" transform="translate(119.92 64.08)"/><path class="cls-9" d="M187.66,345.85c-12-4.26-26.28,2-32.39,13-6.66,12-3.72,27.45,5.47,37.15,3.06,3.23,8.9-.09,7.55-4.39-2.29-7.24-4.68-15.94-.75-23.13,3.23-5.9,9.35-8.8,15.8-7C193.5,364.41,197.4,349.3,187.66,345.85Z" transform="translate(119.92 64.08)"/><path class="cls-9" d="M195.38,372.73c-7.12-5.86-19.35,1.6-13.66,10.54,5.36,8.41,8,16.27,2.34,25.6-3.33,5.52-18.29,19.37-25.56,12.9-3.33-3-7.7,0-7.06,4.11,3,19.24,32.76,5.76,40.9-1.38C206.31,412.24,211.23,385.76,195.38,372.73Z" transform="translate(119.92 64.08)"/><path class="cls-9" d="M66.79,374.38c6.77-5.7-.72-14.91-7.9-13.57-28.16,5.26-30.9,50.36-5.8,61.39,5.56,2.45,10.16-3.47,6.37-8.26-5.23-6.61-9.2-14.12-7.12-22.84C54.32,382.77,60.77,379.44,66.79,374.38Z" transform="translate(119.92 64.08)"/><path class="cls-10" d="M427.76,133.4c11.51,20.06,35,31.54,56.41,37.86,11.27,3.31,23.54,4.51,34.88.82,10.27-3.35,19.31-10,27.27-17.11a116.92,116.92,0,0,0,20.83-25c5.5-8.84,12-20.43,12-31.12a3.66,3.66,0,0,0-.61-2,3.47,3.47,0,0,0-1.46-3C566.86,86.73,552.75,83.53,541,80c-12.45-3.75-25.05-7.07-37.67-10.2s-25.33-6-38.08-8.57c-12.55-2.57-25.73-6.16-38.54-6.73a5,5,0,0,0-1.25.1,5.79,5.79,0,0,0-7.43,5C415.84,84.29,415,111.14,427.76,133.4Z" transform="translate(119.92 64.08)"/><path class="cls-8" d="M140.62,203.11c-24.68,31.89-60.07,55-101.73,47.24-31.24-5.8-58.45-26.72-75.5-53.38a92.51,92.51,0,0,1-11.81-18C-65.93,143.72-59.36,100.42-35.5,69.75c25-32.07,67-46.75,106.8-41.64,37.34,4.79,72.77,28.44,88.61,63.13C177.39,129.52,165.42,171.08,140.62,203.11Z" transform="translate(119.92 64.08)"/><path class="cls-7" d="M635.23,509.53a254.51,254.51,0,0,0,12.82-23.83c.37-.77.73-1.54,1.08-2.32a245.57,245.57,0,0,0,12-31.94,197.4,197.4,0,0,0,6.82-32.06,160.93,160.93,0,0,0,.9-32.24,108.32,108.32,0,0,0-1.92-14.09,78.91,78.91,0,0,0-3.22-11,136.41,136.41,0,0,0-29.83-46.41,78.41,78.41,0,0,0-21.81-16c-5.66-2.69-14.45-5.54-24.19-3.89a47.39,47.39,0,0,0-11.49,3.67,32.64,32.64,0,0,0-7.77,4.6,16.56,16.56,0,0,0-4.54,5.59,12.73,12.73,0,0,0-1.13,6.24c.23,4.55,2.79,8.79,5,12a118.8,118.8,0,0,0,8.58,10.57l1.05,1.19.7.8c3.83,4.37,7.79,8.89,10.5,14.07a20.31,20.31,0,0,1,1.55,4.14,13.07,13.07,0,0,1,.26,2.59,11.55,11.55,0,0,1-.35,2c-.13.36-.27.71-.43,1.05s-.36.71-.57,1.06a15.57,15.57,0,0,1-2.11,2.41,12.55,12.55,0,0,1-1.82,1.3,11,11,0,0,1-1.89.67,15.84,15.84,0,0,1-3.4.25,60.52,60.52,0,0,1-8.11-1.22,57.35,57.35,0,0,0-8.7-1.26,19.08,19.08,0,0,0-8.38,1.4,16.92,16.92,0,0,0-7.33,6.42,29,29,0,0,0-2.13,3.73,18.59,18.59,0,0,0-1.75,6,14,14,0,0,0,1.74,8.15c1.78,3.3,4.55,6,7.23,8.51,1.19,1.14,2.41,2.31,3.53,3.52a24,24,0,0,1,3,4.27,15.16,15.16,0,0,1,1,2.74,47.39,47.39,0,0,1,1,10.51,21.67,21.67,0,0,1-.65,4.27c-.13.35-.27.7-.43,1s-.23.48-.36.71a4.21,4.21,0,0,1-1.72,1.55,11.23,11.23,0,0,1-1.6.56,24.56,24.56,0,0,1-5.35.3c-2.11-.1-4.26-.3-6.34-.49a99.62,99.62,0,0,0-10-.56c-4.8.06-11.7,1.09-17.27,5.62a25.42,25.42,0,0,0-7,8.79,22,22,0,0,0-1.8,11A42.18,42.18,0,0,0,511,465.79c.52,1.48,1.07,2.95,1.62,4.41.61,1.62,1.23,3.23,1.78,4.87.45,1.31.8,2.53,1.09,3.72a22,22,0,0,1,.43,4.09,14.89,14.89,0,0,1-.42,2.46c-.13.36-.28.71-.44,1.05s-.38.76-.59,1.13a19.74,19.74,0,0,1-2.24,2.56,29.26,29.26,0,0,1-4,2.81c-.7.32-1.4.59-2.12.86a3.42,3.42,0,0,0-.71,0A94.44,94.44,0,0,0,491,497.27,78.91,78.91,0,0,0,478.09,503a58.33,58.33,0,0,0-10,6.89l-.25.23Z" transform="translate(119.92 64.08)"/><path class="cls-9" d="M74.69,15.27C67.64,34.7,57.83,53,52.38,73,47.88,89.58,44,118.69,57,132.69c4.91,5.27,12.5,7.57,19.67,6.91,27.5-2.56,39.38-35.47,65.62-40.7,41.77-8.33,46.24,61.16,84.72,68.29,9.1,1.69,19,.05,26.47-5.38,24.74-17.93,26.95-69.93,30.36-97.17,1.21-9.67,8-115.46,1.82-115.46H249.05c.38,19-.17,38.05-1.15,57.05-.84,16.12,0,34.8-3.7,50.47C242.34,64.52,237,73.6,228.94,77c-12.46,5.28-19.43-4-26.52-12.92C192.75,51.94,178.23,45.75,163,45.2c-13.65-.5-30.9,6.39-42.62-3.42C101,25.64,113-19.52,113.42-40.94c0-1.56-19.79-6-21.91-5.53-12.19,2.76-9,32.94-11.15,42.71A153.33,153.33,0,0,1,74.69,15.27Z" transform="translate(119.92 64.08)"/><path class="cls-8" d="M647.57,370.51a41,41,0,0,1,3.89,2,38.71,38.71,0,0,1,16.87,19.8c4.42,12,2.37,24.52.08,34.1l-.22.92c-1,4.15-2,8.45-1.08,10.87s4.7,4.15,8.63,4.2c4.91.07,10.26-1.78,15.93-3.73l1.72-.6c7.56-2.58,16.41-5.21,25.86-3.63l-3.19,19.13c-5-.83-10.83,1-16.39,2.85L698,457c-6.67,2.3-14.23,4.91-22.53,4.8-12-.17-22.6-6.8-26.41-16.51-3.19-8.11-1.27-16.08.27-22.49l.21-.89c1.66-6.92,3.21-15.78.59-22.89-3-8.22-12.53-13.8-21.18-12.45-4.18.65-8.58,2.75-13.24,5-6.3,3-13.44,6.39-21.73,6.92l-1.24-19.36c4.57-.29,9.46-2.61,14.64-5.08,5.44-2.58,11.61-5.51,18.58-6.6A38.27,38.27,0,0,1,647.57,370.51Z" transform="translate(119.92 64.08)"/><path class="cls-4" d="M712.26,56.06a4.51,4.51,0,1,1,4.25,4.75A4.55,4.55,0,0,1,712.26,56.06Zm-36.39,10a7,7,0,1,1,7.35-6.58A7,7,0,0,1,675.87,66.08Zm5.45,16.6a6.13,6.13,0,1,1-5.78-6.46A6.18,6.18,0,0,1,681.32,82.68ZM693.4,53.56a4.5,4.5,0,1,1,4.74-4.25A4.56,4.56,0,0,1,693.4,53.56Zm22.91-25.88a7.51,7.51,0,1,1-7.92,7.09A7.59,7.59,0,0,1,716.31,27.68ZM704.55,69.49a5,5,0,1,1-4.71-5.27A5,5,0,0,1,704.55,69.49ZM687,117.16a6.11,6.11,0,1,1,5.77,6.45A6.17,6.17,0,0,1,687,117.16Zm-1.16,25.12a3.83,3.83,0,0,1-5.41.32,3.67,3.67,0,0,1-1.29-2.64,4.18,4.18,0,0,1,1-2.77,3.83,3.83,0,0,1,5.42-.33,3.64,3.64,0,0,1,1.28,2.65A4.13,4.13,0,0,1,685.85,142.28Zm17.31-5a3.89,3.89,0,1,1,4.1-3.67A3.93,3.93,0,0,1,703.16,137.25Zm2.45,18.62a3.92,3.92,0,0,1-2.81-1,3.73,3.73,0,0,1-1.3-2.68,4.22,4.22,0,0,1,1-2.81,3.9,3.9,0,0,1,2.68-1.3,3.85,3.85,0,0,1,2.81,1,3.65,3.65,0,0,1,1.3,2.67,4.22,4.22,0,0,1-1,2.81A3.88,3.88,0,0,1,705.61,155.87Zm7.15-79.33a2.75,2.75,0,1,1,2.6,2.9A2.78,2.78,0,0,1,712.76,76.54Zm-31.37,28.32a3.17,3.17,0,1,1,3.35-3A3.19,3.19,0,0,1,681.39,104.86Zm22.18-9.51a4.09,4.09,0,1,1,4.3-3.85A4.12,4.12,0,0,1,703.57,95.35Z" transform="translate(119.92 64.08)"/><path class="cls-4" d="M215,327.16a4.51,4.51,0,1,1-6.36-.54A4.55,4.55,0,0,1,215,327.16Zm19.57-32.27a7,7,0,1,1-.82,9.83A7,7,0,0,1,234.61,294.89Zm-15.36-8.33a6.13,6.13,0,1,1,8.64.73A6.19,6.19,0,0,1,219.25,286.56ZM230.46,316a4.5,4.5,0,1,1-.53,6.35A4.54,4.54,0,0,1,230.46,316Zm1.11,34.54a7.51,7.51,0,1,1,.89-10.58A7.58,7.58,0,0,1,231.57,350.57Zm-20.15-38.46a5,5,0,1,1,7,.59A5.05,5.05,0,0,1,211.42,312.11Zm-20-46.71a6.11,6.11,0,1,1-8.61-.73A6.17,6.17,0,0,1,191.44,265.4ZM175,246.34a3.84,3.84,0,0,1,3.72-4,3.72,3.72,0,0,1,2.75,1,4.17,4.17,0,0,1,1.2,2.68,3.83,3.83,0,0,1-3.71,4,3.64,3.64,0,0,1-2.75-1A4.16,4.16,0,0,1,175,246.34Zm-9.13,15.54a3.89,3.89,0,1,1-.46,5.48A3.92,3.92,0,0,1,165.91,261.88ZM151.35,250a3.87,3.87,0,0,1,2.71-1.22,3.72,3.72,0,0,1,2.78,1,4.15,4.15,0,0,1,1.22,2.71,3.85,3.85,0,0,1-1.05,2.78,3.9,3.9,0,0,1-2.72,1.23,3.7,3.7,0,0,1-2.78-1.06,4.25,4.25,0,0,1-1.22-2.71A3.86,3.86,0,0,1,151.35,250Zm49.25,62.59a2.75,2.75,0,1,1-3.87-.32A2.77,2.77,0,0,1,200.6,312.61ZM204,270.48a3.18,3.18,0,1,1-.37,4.48A3.21,3.21,0,0,1,204,270.48Zm-9.59,22.14a4.09,4.09,0,1,1-.49,5.76A4.14,4.14,0,0,1,194.38,292.62Z" transform="translate(119.92 64.08)"/><path class="cls-5" d="M536.77,42.81c-.12-1.6-.3-3.35-2.71-3.86a5.21,5.21,0,0,0-2.79.2C519.77,43,509,48.81,498.37,54.57L459,75.81a7.27,7.27,0,0,0-1.46,1c-2.57,2.31-1.37,4.34-.11,6,11.25,14.59,31.53,18,49.85,19.91a149.07,149.07,0,0,0,21.11,1.15c10-.4,12.21.07,12.32-9.68C540.93,77.23,538.08,59.7,536.77,42.81Z" transform="translate(119.92 64.08)"/><path class="cls-10" d="M98.61,103.9c5.2-1.2,10.49-2.65,14.82-5.78s7.56-8.28,7-13.59-4.62-9.5-9.33-11.76-10-2.85-15.24-3.33a653.82,653.82,0,0,0-84.09-2.39C1.22,67.43-10.77,68.81-17,77.33c-7,9.53-2.52,22.17,7.15,27.76,7.21,4.17,15.08,1.56,23,1.93C42.49,108.38,69.45,110.64,98.61,103.9Z" transform="translate(119.92 64.08)"/><path class="cls-6" d="M122.52,266.4a43.18,43.18,0,0,1-4.39-.23,38.77,38.77,0,0,1-23.52-11.1c-9-9.11-12.26-21.37-14.12-31l-.18-.93c-.8-4.19-1.63-8.53-3.49-10.35s-6-1.84-9.6-.27c-4.5,2-8.61,5.84-13,10l-1.33,1.26c-5.82,5.46-12.8,11.5-22.06,14l-5-18.75c4.89-1.29,9.47-5.32,13.75-9.34l1.29-1.22c5.13-4.84,10.94-10.33,18.55-13.65,11-4.78,23.4-3.11,30.87,4.16,6.24,6.08,7.78,14.14,9,20.61l.18.9c1.34,7,3.57,15.7,8.89,21.1,6.14,6.24,17.1,7.42,24.42,2.62,3.55-2.32,6.7-6,10-10,4.51-5.33,9.62-11.36,17-15.26L168.94,236c-4.05,2.15-7.55,6.28-11.26,10.66-3.89,4.6-8.3,9.81-14.2,13.67A38.23,38.23,0,0,1,122.52,266.4Z" transform="translate(119.92 64.08)"/><path class="cls-11" d="M248.14,122.93a10.44,10.44,0,0,1,9.94,13.64,24.07,24.07,0,0,1-11.35,13.94,24.49,24.49,0,0,1-22.44-.3A10.25,10.25,0,0,0,212.22,152a25.55,25.55,0,0,1-36.72,0,10.4,10.4,0,0,0-11.67-2.21,20.55,20.55,0,0,1-12.47,1.47c-6.93-1.37-12.92-6.12-16.69-12.09l-.11-.18a10.43,10.43,0,0,1,8.82-16Z" transform="translate(119.92 64.08)"/><path class="cls-11" d="M500.87,457.46a12,12,0,0,1-11.4-15.63,27.58,27.58,0,0,1,13-16c7.91-4.18,17.85-3.8,25.73.34A11.73,11.73,0,0,0,542,424.14a29.27,29.27,0,0,1,42.1,0,12,12,0,0,0,13.39,2.53,23.62,23.62,0,0,1,14.29-1.69c7.94,1.58,14.82,7,19.14,13.86a2.39,2.39,0,0,0,.13.21A12,12,0,0,1,621,457.31Z" transform="translate(119.92 64.08)"/><path class="cls-6" d="M358.11,61.45A71.14,71.14,0,0,0,335.56,32c-28-21.37-38.18,15.28-20.54,35.58C323.44,77.31,367,83,358.11,61.45Z" transform="translate(119.92 64.08)"/><path class="cls-9" d="M507.48,369.35c6.61-.69,13.55-2.45,18.09-7.3,5.2-5.57,6-13.81,6.47-21.42,1-18.22.72-38.19-10.77-52.38-3.93-4.86-9.25-8.86-15.4-10s-13.1,1-16.57,6.24c-6.05,9.1-.31,23.88-8.81,30.75-8.27,6.68-20.27.81-27.75,9.86-5.68,6.86-5.05,20.66-.44,28.05C462,368.75,491.37,371,507.48,369.35Z" transform="translate(119.92 64.08)"/></g></g></svg>