<svg width="500" height="476" viewBox="0 0 500 476" fill="none" xmlns="http://www.w3.org/2000/svg">
<path opacity="0.1" d="M471.653 204.332C471.653 204.332 403.572 38.2756 279.113 6.25538C154.653 -25.7648 102.454 72.1888 83.3813 140.249C64.3082 208.309 -5.97428 298.223 0.408261 360.052C6.47168 418.818 57.9894 446.605 106.103 458.537C167.259 473.691 236.754 474.84 298.133 462.206C312.727 459.121 327.135 455.216 341.289 450.508C370.128 441.107 398.434 433.823 427.645 426.049C483.216 411.235 505.236 351.608 498.97 294.459C495.438 262.332 483.663 233.577 471.653 204.332Z" fill="#0C8CE9"/>
<path d="M434.166 22.5476H236.839V295.682H434.166V22.5476Z" stroke="#263238" stroke-linecap="round" stroke-linejoin="round"/>
<path d="M335.502 22.707V296.639" stroke="#263238" stroke-linecap="round" stroke-linejoin="round"/>
<path d="M434.325 159.678H236.668" stroke="#263238" stroke-linecap="round" stroke-linejoin="round"/>
<path d="M434.325 91.0864H236.668" stroke="#263238" stroke-linecap="round" stroke-linejoin="round"/>
<path d="M434.325 228.27H236.668" stroke="#263238" stroke-linecap="round" stroke-linejoin="round"/>
<path d="M398.36 122.745L379.127 141.227" stroke="#263238" stroke-linecap="round" stroke-linejoin="round"/>
<path d="M426.964 95.2444L403.987 117.332" stroke="#263238" stroke-linecap="round" stroke-linejoin="round"/>
<path d="M377.733 132.422L371.627 138.292" stroke="#263238" stroke-linecap="round" stroke-linejoin="round"/>
<path d="M403.966 107.198L381.946 128.371" stroke="#263238" stroke-linecap="round" stroke-linejoin="round"/>
<path d="M291.644 60.2039L272.411 78.6865" stroke="#263238" stroke-linecap="round" stroke-linejoin="round"/>
<path d="M320.248 32.7034L297.271 54.8017" stroke="#263238" stroke-linecap="round" stroke-linejoin="round"/>
<path d="M271.017 69.8813L264.911 75.7515" stroke="#263238" stroke-linecap="round" stroke-linejoin="round"/>
<path d="M297.249 44.667L275.23 65.8295" stroke="#263238" stroke-linecap="round" stroke-linejoin="round"/>
<path d="M393.764 195.399L374.531 213.882" stroke="#263238" stroke-linecap="round" stroke-linejoin="round"/>
<path d="M422.369 167.899L399.392 189.997" stroke="#263238" stroke-linecap="round" stroke-linejoin="round"/>
<path d="M373.138 205.077L367.032 210.947" stroke="#263238" stroke-linecap="round" stroke-linejoin="round"/>
<path d="M399.37 179.862L377.34 201.025" stroke="#263238" stroke-linecap="round" stroke-linejoin="round"/>
<path d="M402.434 269.946L401.604 262.843C401.604 262.843 397.828 263.055 396.37 259.769C395.487 257.781 394.594 253.75 395.892 251.762C396.27 251.14 396.821 250.643 397.478 250.33C398.135 250.017 398.868 249.902 399.589 249.999C400.31 250.096 400.987 250.4 401.538 250.876C402.088 251.351 402.488 251.977 402.689 252.676C403.7 255.558 404.2 256.792 404.2 256.792C403.955 252.612 400.806 235.778 410.284 238.341C414.135 239.404 415.188 243.105 415.358 246.04C415.529 248.975 415.135 256.579 415.135 256.579C415.135 256.579 417.677 256.855 417.848 252.634C418.018 248.412 422.103 246.498 423.922 248.497C425.741 250.496 426.56 257.6 424.581 259.822C422.603 262.045 416.337 262.821 416.337 262.821L416.752 269.957L402.434 269.946Z" fill="#F37316" stroke="#263238" stroke-linecap="round" stroke-linejoin="round"/>
<path d="M407.881 239.511C407.881 239.511 406.317 240.936 406.742 245.785C407.168 250.634 407.168 259.312 407.168 259.312" stroke="#263238" stroke-width="0.5" stroke-linecap="round" stroke-linejoin="round"/>
<path d="M412.019 242.786C412.019 242.786 413.87 242.51 413.295 246.923C412.986 250.617 412.986 254.331 413.295 258.025" stroke="#263238" stroke-width="0.5" stroke-linecap="round" stroke-linejoin="round"/>
<path d="M398.615 252.187C398.615 252.187 396.764 252.612 397.626 255.611C398.487 258.61 398.764 260.875 400.753 261.311C401.643 261.532 402.551 261.674 403.466 261.737L403.753 264.863" stroke="#263238" stroke-width="0.5" stroke-linecap="round" stroke-linejoin="round"/>
<path d="M416.571 261.163C416.571 261.163 422.411 261.311 423.55 258.887C424.688 256.462 423.986 252.336 423.986 252.336" stroke="#263238" stroke-width="0.5" stroke-linecap="round" stroke-linejoin="round"/>
<path d="M401.04 252.974C401.04 253.073 401.011 253.169 400.956 253.252C400.901 253.334 400.823 253.398 400.732 253.436C400.64 253.474 400.54 253.483 400.443 253.464C400.346 253.445 400.257 253.397 400.187 253.327C400.117 253.257 400.069 253.168 400.05 253.071C400.031 252.974 400.041 252.874 400.079 252.783C400.116 252.691 400.181 252.613 400.263 252.558C400.345 252.503 400.442 252.474 400.54 252.474C400.606 252.474 400.671 252.487 400.732 252.512C400.792 252.537 400.848 252.574 400.894 252.621C400.94 252.667 400.977 252.722 401.002 252.783C401.028 252.843 401.04 252.908 401.04 252.974Z" stroke="#263238" stroke-width="0.5" stroke-linecap="round" stroke-linejoin="round"/>
<path d="M402.253 259.238C402.529 259.238 402.753 259.014 402.753 258.738C402.753 258.462 402.529 258.238 402.253 258.238C401.977 258.238 401.753 258.462 401.753 258.738C401.753 259.014 401.977 259.238 402.253 259.238Z" stroke="#263238" stroke-width="0.5" stroke-linecap="round" stroke-linejoin="round"/>
<path d="M399.764 256.888C400.04 256.888 400.264 256.664 400.264 256.388C400.264 256.112 400.04 255.888 399.764 255.888C399.488 255.888 399.264 256.112 399.264 256.388C399.264 256.664 399.488 256.888 399.764 256.888Z" stroke="#263238" stroke-width="0.5" stroke-linecap="round" stroke-linejoin="round"/>
<path d="M409.88 250.985C410.156 250.985 410.38 250.762 410.38 250.486C410.38 250.21 410.156 249.986 409.88 249.986C409.604 249.986 409.38 250.21 409.38 250.486C409.38 250.762 409.604 250.985 409.88 250.985Z" stroke="#263238" stroke-width="0.5" stroke-linecap="round" stroke-linejoin="round"/>
<path d="M405.179 246.136C405.455 246.136 405.679 245.912 405.679 245.636C405.679 245.36 405.455 245.136 405.179 245.136C404.903 245.136 404.679 245.36 404.679 245.636C404.679 245.912 404.903 246.136 405.179 246.136Z" stroke="#263238" stroke-width="0.5" stroke-linecap="round" stroke-linejoin="round"/>
<path d="M412.018 263.013C412.018 263.112 411.989 263.209 411.934 263.291C411.879 263.373 411.801 263.437 411.71 263.475C411.619 263.513 411.518 263.523 411.421 263.503C411.324 263.484 411.235 263.436 411.165 263.366C411.095 263.297 411.047 263.207 411.028 263.111C411.009 263.014 411.019 262.913 411.057 262.822C411.094 262.73 411.159 262.652 411.241 262.597C411.323 262.543 411.42 262.513 411.519 262.513C411.651 262.513 411.778 262.566 411.872 262.66C411.966 262.753 412.018 262.88 412.018 263.013Z" stroke="#263238" stroke-width="0.5" stroke-linecap="round" stroke-linejoin="round"/>
<path d="M406.604 262.3C406.604 262.399 406.575 262.496 406.52 262.578C406.465 262.66 406.387 262.724 406.295 262.762C406.204 262.8 406.103 262.81 406.006 262.791C405.909 262.771 405.82 262.724 405.75 262.654C405.681 262.584 405.633 262.495 405.614 262.398C405.594 262.301 405.604 262.2 405.642 262.109C405.68 262.018 405.744 261.94 405.826 261.885C405.908 261.83 406.005 261.801 406.104 261.801C406.237 261.801 406.364 261.853 406.457 261.947C406.551 262.041 406.604 262.168 406.604 262.3Z" stroke="#263238" stroke-width="0.5" stroke-linecap="round" stroke-linejoin="round"/>
<path d="M410.731 241.585C411.008 241.585 411.231 241.361 411.231 241.085C411.231 240.809 411.008 240.585 410.731 240.585C410.455 240.585 410.231 240.809 410.231 241.085C410.231 241.361 410.455 241.585 410.731 241.585Z" stroke="#263238" stroke-width="0.5" stroke-linecap="round" stroke-linejoin="round"/>
<path d="M421.348 250.549C421.348 250.648 421.318 250.745 421.263 250.827C421.208 250.909 421.13 250.973 421.039 251.011C420.948 251.049 420.847 251.059 420.75 251.04C420.653 251.02 420.564 250.973 420.494 250.903C420.424 250.833 420.377 250.744 420.357 250.647C420.338 250.55 420.348 250.449 420.386 250.358C420.424 250.267 420.488 250.189 420.57 250.134C420.652 250.079 420.749 250.05 420.848 250.05C420.98 250.05 421.107 250.102 421.201 250.196C421.295 250.29 421.348 250.417 421.348 250.549Z" stroke="#263238" stroke-width="0.5" stroke-linecap="round" stroke-linejoin="round"/>
<path d="M419.571 257.823C419.847 257.823 420.071 257.6 420.071 257.324C420.071 257.048 419.847 256.824 419.571 256.824C419.295 256.824 419.071 257.048 419.071 257.324C419.071 257.6 419.295 257.823 419.571 257.823Z" stroke="#263238" stroke-width="0.5" stroke-linecap="round" stroke-linejoin="round"/>
<path d="M410.731 257.674C411.008 257.674 411.231 257.451 411.231 257.175C411.231 256.899 411.008 256.675 410.731 256.675C410.455 256.675 410.231 256.899 410.231 257.175C410.231 257.451 410.455 257.674 410.731 257.674Z" stroke="#263238" stroke-width="0.5" stroke-linecap="round" stroke-linejoin="round"/>
<path d="M422.093 265.342H396.445L399.02 286.355H419.529L422.093 265.342Z" fill="white" stroke="#263238" stroke-linecap="round" stroke-linejoin="round"/>
<path d="M307.142 216.934H384.786L366.702 283.527H289.059L307.142 216.934Z" fill="#263238" stroke="#263238" stroke-linecap="round" stroke-linejoin="round"/>
<path d="M309.355 219.412H381.212L364.479 281.049H292.622L309.355 219.412Z" fill="white" stroke="#263238" stroke-linecap="round" stroke-linejoin="round"/>
<path d="M366.702 279.996H257.859V283.537H366.702V279.996Z" fill="#263238" stroke="#263238" stroke-linecap="round" stroke-linejoin="round"/>
<path d="M366.702 279.996H316.685V283.537H366.702V279.996Z" fill="#263238" stroke="#263238" stroke-linecap="round" stroke-linejoin="round"/>
<path d="M228.893 289.174H223.042V474.861H228.893V289.174Z" fill="white" stroke="#263238" stroke-linecap="round" stroke-linejoin="round"/>
<path d="M218.032 474.861H223.031L223.031 289.174H218.032L218.032 474.861Z" fill="#E1E7E9" stroke="#263238" stroke-linecap="round" stroke-linejoin="round"/>
<path d="M378.765 386.33H372.915V474.861H378.765V386.33Z" fill="white" stroke="#263238" stroke-linecap="round" stroke-linejoin="round"/>
<path d="M367.926 474.872H372.925V386.34H367.926V474.872Z" fill="#E1E7E9" stroke="#263238" stroke-linecap="round" stroke-linejoin="round"/>
<path d="M441.421 386.33H435.57V474.861H441.421V386.33Z" fill="white" stroke="#263238" stroke-linecap="round" stroke-linejoin="round"/>
<path d="M430.56 474.872H435.56V386.34H430.56V474.872Z" fill="#E1E7E9" stroke="#263238" stroke-linecap="round" stroke-linejoin="round"/>
<path d="M314.919 391.381H372V290.971H314.919V391.381Z" fill="white" stroke="#263238" stroke-linecap="round" stroke-linejoin="round"/>
<path d="M447.004 291H315.004V391H447.004V291Z" fill="white" stroke="#263238" stroke-linecap="round" stroke-linejoin="round"/>
<path d="M372.01 290.981H314.929V295.873H372.01H447.229V290.981H372.01Z" fill="#263238" stroke="#263238" stroke-linecap="round" stroke-linejoin="round"/>
<path d="M454.983 286.568H209.968V292.406H454.983V286.568Z" fill="white" stroke="#263238" stroke-linecap="round" stroke-linejoin="round"/>
<path d="M230.744 345.993C230.744 345.993 238.041 351.045 248.828 382.267C252.423 392.646 272.645 448.615 273.709 452.454C274.773 456.293 276.9 460.962 280.091 460.962C283.283 460.962 294.984 446.074 293.559 444.308C292.133 442.543 285.41 435.439 285.41 435.439C285.41 435.439 281.389 390.137 280.676 377.375C279.964 364.614 282.868 349.247 276.134 338.964C269.401 328.68 239.605 339.315 239.605 339.315L230.744 345.993Z" fill="white" stroke="#263238" stroke-linecap="round" stroke-linejoin="round"/>
<path d="M288.687 435.492C287.865 435.933 287.191 436.605 286.748 437.426C286.305 438.247 286.114 439.179 286.197 440.108C286.559 443.298 289.75 447.552 289.75 447.552C289.75 447.552 283.006 452.869 279.464 453.22C275.922 453.571 272.018 454.283 272.018 455.347C272.018 456.41 274.858 458.186 276.624 462.078C278.579 466.027 280.834 469.82 283.368 473.425C284.432 474.84 285.134 475.903 289.038 474.84C292.942 473.776 301.452 465.981 306.058 462.791C310.664 459.601 324.493 457.474 326.982 455.698C329.471 453.922 337.258 442.586 333.716 440.459C330.173 438.332 329.109 440.81 324.854 441.873C320.599 442.937 308.185 441.522 301.452 440.108C294.718 438.693 292.58 438.332 292.58 438.332L288.687 435.492Z" fill="#0C8CE9" stroke="#263238" stroke-linecap="round" stroke-linejoin="round"/>
<path d="M282.75 472.617C282.985 472.957 283.176 473.234 283.325 473.425C284.389 474.84 285.091 475.903 288.995 474.84C292.899 473.776 301.409 465.981 306.015 462.791C310.621 459.601 324.45 457.474 326.939 455.698C329.428 453.922 337.215 442.586 333.673 440.459C333.175 440.147 332.633 439.91 332.066 439.757C332.13 439.991 332.194 440.203 332.258 440.459C333.321 444.712 329.769 448.966 326.577 452.157C323.386 455.347 312.748 454.634 301.047 460.664C294.581 464.057 288.455 468.059 282.75 472.617Z" fill="white" stroke="#263238" stroke-linecap="round" stroke-linejoin="round"/>
<path d="M282.41 400.027C281.644 390.7 280.974 381.948 280.719 377.429C280.006 364.667 282.91 349.301 276.177 339.017C269.443 328.734 239.647 339.368 239.647 339.368L230.744 345.993C230.744 345.993 238.041 351.045 248.828 382.267C250.2 386.234 254.008 396.879 258.252 408.715L282.41 400.027Z" fill="#263238" stroke="#263238" stroke-linecap="round" stroke-linejoin="round"/>
<path d="M265.05 164.166C265.97 166.63 266.407 169.247 266.337 171.876C266.018 175.417 262.794 177.023 262.475 176.066C262.2 174.472 262.093 172.854 262.156 171.238V169.951C261.361 171.261 260.388 172.452 259.263 173.492C257.008 175.736 255.72 175.098 254.752 175.098C253.784 175.098 253.465 171.908 255.082 169.632C256.699 167.356 261.837 162.231 265.05 164.166Z" fill="white" stroke="#263238" stroke-linecap="round" stroke-linejoin="round"/>
<path d="M272.453 172.525C269.262 170.589 264.411 177.353 257.008 175.715C256.061 175.513 255.721 174.109 257.327 170.898C258.933 167.686 264.082 165.102 266.656 163.177C269.23 161.252 271.166 159.636 271.166 157.381C271.166 155.127 265.369 158.668 263.72 159.955C261.772 161.168 259.747 162.251 257.657 163.198L256.263 163.273C253.402 163.454 248.987 163.964 247.317 165.4C245.126 167.303 243.87 173.843 243.349 176.364C241.924 178.427 240.647 180.33 239.913 181.479C237.658 185.009 192.299 218.146 192.299 218.146L195.491 246.444L246.966 187.955C248.392 186.79 250.033 185.915 251.795 185.382C255.338 184.095 260.156 183.127 264.348 180.873C267.448 179.216 270.456 177.392 273.358 175.407C275.602 174.013 274.198 173.567 272.453 172.525Z" fill="white" stroke="#263238" stroke-linecap="round" stroke-linejoin="round"/>
<path d="M195.565 246.498L227.18 210.543" stroke="#263238" stroke-linecap="round" stroke-linejoin="round"/>
<path d="M195.555 246.498L192.363 218.199C192.363 218.199 199.81 211 218.372 198.898L227.201 210.596C227.201 210.596 218.596 224.548 195.555 246.498Z" fill="#0C8CE9" stroke="#263238" stroke-linecap="round" stroke-linejoin="round"/>
<path d="M202.522 305.912C202.522 305.912 225.212 304.849 258.188 310.166C291.165 315.483 303.504 321.151 302.515 327.532C298.494 353.416 238.041 438.63 238.041 438.63L239.105 450.679C239.105 450.679 236.977 453.518 229.531 453.869C222.084 454.22 212.862 443.596 212.862 443.596C212.862 443.596 221.191 434.982 224.382 424.709C227.573 414.436 253.231 348.088 253.231 348.088C253.231 348.088 219.542 355.532 182.311 348.801C145.079 342.069 202.522 305.912 202.522 305.912Z" fill="white" stroke="#263238" stroke-linecap="round" stroke-linejoin="round"/>
<path d="M258.188 310.166C225.212 304.849 202.522 305.912 202.522 305.912C202.522 305.912 145.079 342.069 182.311 348.801C219.542 355.532 253.231 348.088 253.231 348.088C253.231 348.088 242.594 375.738 234.084 398.07L259.093 407.641C276.985 380.587 300.079 343.196 302.515 327.532C303.504 321.151 291.165 315.483 258.188 310.166Z" fill="#263238" stroke="#263238" stroke-linecap="round" stroke-linejoin="round"/>
<path d="M238.041 438.63C237.325 438.925 236.674 439.359 236.126 439.906C235.579 440.454 235.145 441.104 234.85 441.82C234.166 443.441 233.573 445.099 233.073 446.786C229.193 445.951 225.397 444.762 221.733 443.234C219.034 442.001 216.425 440.58 213.925 438.981C213.925 438.981 210.734 439.342 210.734 441.469C210.716 444.739 210.118 447.979 208.968 451.04C208.054 453.316 206.107 458.388 204.841 461.674C204.694 462.062 204.632 462.477 204.659 462.891C204.686 463.305 204.802 463.708 204.999 464.073C205.195 464.438 205.468 464.757 205.799 465.007C206.13 465.257 206.51 465.434 206.915 465.524C212.532 466.768 224.372 469.501 234.499 472.617C248.327 476.871 263.571 474.744 265.347 474.393C267.124 474.042 274.209 469.778 271.017 466.949C267.826 464.12 249.029 456.666 245.136 451.699C241.243 446.733 238.041 438.63 238.041 438.63Z" fill="#0C8CE9" stroke="#263238" stroke-linecap="round" stroke-linejoin="round"/>
<path d="M269.592 465.992C269.592 469.512 267.784 473.011 262.146 473.011C256.508 473.011 246.54 472.309 232.361 466.63C223.804 463.277 215.011 460.561 206.054 458.505C205.618 459.643 205.192 460.749 204.83 461.696C204.683 462.083 204.621 462.498 204.648 462.912C204.676 463.326 204.791 463.729 204.988 464.094C205.185 464.459 205.458 464.778 205.789 465.028C206.119 465.279 206.5 465.455 206.905 465.545C212.521 466.79 224.361 469.523 234.488 472.639C248.317 476.892 263.56 474.765 265.337 474.414C267.113 474.064 274.198 469.799 271.007 466.97C270.565 466.604 270.091 466.276 269.592 465.992Z" fill="white" stroke="#263238" stroke-linecap="round" stroke-linejoin="round"/>
<path d="M130.889 223.315C130.889 223.315 127.027 253.878 127.357 259.663C127.687 265.448 131.857 315.302 132.825 326.245C133.793 337.188 138.292 346.823 146.334 348.758C154.376 350.694 175.29 353.576 184.3 351.332C193.31 349.088 202.958 328.819 206.171 321.098C209.383 313.377 211.649 308.549 210.681 306.944C209.713 305.338 205.532 301.797 205.532 301.797C205.532 301.797 197.49 243.307 195.554 228.143C193.618 212.978 194.597 211.744 187.512 205.949C180.428 200.153 143.76 195.357 130.889 223.315Z" fill="#0C8CE9" stroke="#263238" stroke-linecap="round" stroke-linejoin="round"/>
<path d="M182.374 329.989C181.215 330.871 180.002 331.711 178.768 332.498" stroke="#263238" stroke-linecap="round" stroke-linejoin="round"/>
<path d="M203.586 304.136C203.586 304.136 196.756 317.536 185.449 327.468" stroke="#263238" stroke-linecap="round" stroke-linejoin="round"/>
<path d="M198.618 304.849C198.618 304.849 187.629 315.121 176.641 321.502" stroke="#263238" stroke-linecap="round" stroke-linejoin="round"/>
<path d="M207.458 127.169C209.227 130.884 210.631 134.763 211.649 138.75C212.606 143.578 212.936 148.076 215.181 149.044C216.681 149.682 217.861 149.725 218.957 150.99C221.797 154.287 218.404 157.371 216.149 159.657C216.149 159.657 217.117 175.098 216.787 177.991C216.457 180.883 199.416 180.883 198.458 180.883C197.501 180.883 187.821 203.726 187.821 203.726L160.801 190.21L165.95 173.492C165.95 173.492 157.589 157.403 156.94 150.331C156.291 143.259 172.737 130.391 182.045 127.499C191.353 124.606 207.458 127.169 207.458 127.169Z" fill="white" stroke="#263238" stroke-linecap="round" stroke-linejoin="round"/>
<path d="M198.459 180.883L189.874 178.437L193.087 190.996L198.459 180.883Z" fill="#263238" stroke="#263238" stroke-linecap="round" stroke-linejoin="round"/>
<path d="M210.649 145.364C211.075 147.183 210.873 148.789 210.181 148.948C209.49 149.108 208.575 147.778 208.139 145.971C207.703 144.163 207.916 142.546 208.607 142.387C209.298 142.227 210.213 143.557 210.649 145.364Z" fill="#263238"/>
<path d="M205.213 162.55C205.213 162.55 209.075 165.453 212.606 164.166" stroke="#263238" stroke-linecap="round" stroke-linejoin="round"/>
<path d="M208.139 127.754C204.435 126.985 200.596 127.183 196.99 128.328C196.554 128.441 196.147 128.648 195.799 128.934C194.916 129.753 195.171 131.178 195.544 132.316C196.06 133.897 196.671 135.445 197.373 136.953C197.666 137.522 197.898 138.121 198.065 138.739C198.216 139.556 198.116 140.4 197.778 141.16C197.44 141.919 196.88 142.558 196.171 142.993C194.643 143.983 193.248 145.166 192.023 146.513C187.832 151.341 185.64 159.7 183.981 160.338C183.108 160.678 181.853 158.764 181.449 158.264C181.043 157.677 180.521 157.179 179.916 156.8C179.31 156.422 178.634 156.171 177.928 156.063C176.915 156.014 175.912 156.29 175.066 156.85C173.896 157.582 172.914 158.58 172.2 159.762C171.487 160.945 171.062 162.279 170.96 163.656C170.726 166.58 172.279 168.654 174.588 170.323C176.242 171.474 178.151 172.204 180.151 172.45C180.983 172.663 181.852 172.684 182.694 172.514C182.694 172.514 171.109 178.629 168.865 178.629C166.62 178.629 159.855 174.769 156.642 171.185C153.43 167.601 141.888 157.084 141.186 148.406C140.643 141.089 147.122 133.518 152.132 128.785C150.469 128.612 148.844 128.181 147.313 127.509C146.45 127.243 145.647 126.81 144.951 126.233C144.118 125.328 143.651 124.145 143.643 122.915C143.526 121.448 143.473 121.054 144.452 120.108C145.919 118.715 148.26 117.821 150.089 117.024C152.623 115.913 155.241 115.006 157.919 114.312C157.562 112.866 157.604 111.35 158.038 109.926C158.472 108.501 159.284 107.221 160.387 106.219C163.844 103.231 169.854 105.996 173.673 107.059C176.375 107.814 179.056 108.612 181.726 109.484C179.321 108.697 181.555 104.379 182.789 103.539C185.906 101.349 189.044 102.731 192.118 104.305C198.331 107.495 205.139 113.695 205.873 121.065C206.91 123.162 207.628 125.402 208 127.711" fill="#263238"/>
<path d="M208.139 127.754C204.435 126.985 200.596 127.183 196.99 128.328C196.554 128.441 196.147 128.648 195.799 128.934C194.916 129.753 195.171 131.178 195.544 132.316C196.06 133.897 196.671 135.445 197.373 136.953C197.666 137.522 197.898 138.121 198.065 138.739C198.216 139.556 198.116 140.4 197.778 141.16C197.44 141.919 196.88 142.558 196.171 142.993C194.643 143.983 193.248 145.166 192.023 146.513C187.832 151.341 185.64 159.7 183.981 160.338C183.108 160.678 181.853 158.764 181.449 158.264C181.043 157.677 180.521 157.179 179.916 156.8C179.31 156.422 178.634 156.171 177.928 156.063C176.915 156.014 175.912 156.29 175.066 156.85C173.896 157.582 172.914 158.58 172.2 159.762C171.487 160.945 171.062 162.279 170.96 163.656C170.726 166.58 172.279 168.654 174.588 170.323C176.242 171.474 178.151 172.204 180.151 172.45C180.983 172.663 181.852 172.684 182.694 172.514C182.694 172.514 171.109 178.629 168.865 178.629C166.62 178.629 159.855 174.769 156.642 171.185C153.43 167.601 141.888 157.084 141.186 148.406C140.643 141.089 147.122 133.518 152.132 128.785C150.469 128.612 148.844 128.181 147.313 127.509C146.45 127.243 145.647 126.81 144.951 126.233C144.118 125.328 143.651 124.145 143.643 122.915C143.526 121.448 143.473 121.054 144.452 120.108C145.919 118.715 148.26 117.821 150.089 117.024C152.623 115.913 155.241 115.006 157.919 114.312C157.562 112.866 157.604 111.35 158.038 109.926C158.472 108.501 159.284 107.221 160.387 106.219C163.844 103.231 169.854 105.996 173.673 107.059C176.375 107.814 179.056 108.612 181.726 109.484C179.321 108.697 181.555 104.379 182.789 103.539C185.906 101.349 189.044 102.731 192.118 104.305C198.331 107.495 205.139 113.695 205.873 121.065C206.91 123.162 207.628 125.402 208 127.711" stroke="#263238" stroke-linecap="round" stroke-linejoin="round"/>
<path d="M180.258 155.988L221.297 139.398" stroke="#263238" stroke-linecap="round" stroke-linejoin="round"/>
<path d="M210.596 137.07C212.304 136.329 214.232 136.275 215.979 136.917C217.726 137.56 219.159 138.85 219.98 140.52C220.801 142.19 220.947 144.112 220.388 145.888C219.829 147.663 218.609 149.155 216.979 150.054" stroke="#263238" stroke-linecap="round" stroke-linejoin="round"/>
<path d="M195.554 212.68C195.554 212.68 195.235 203.354 192.661 200.78C190.087 198.207 171.109 187.594 162.418 185.35C153.728 183.106 144.728 186.307 138.931 188.242C133.133 190.178 129.282 195.665 126.995 207.586C124.708 219.508 124.421 226.877 129.25 227.526C134.08 228.175 140.835 213.701 155.951 210.798C171.067 207.895 184.906 210.479 188.129 212.085C191.353 213.691 195.554 212.68 195.554 212.68Z" fill="#0C8CE9" stroke="#263238" stroke-linecap="round" stroke-linejoin="round"/>
<path d="M146.696 202.854C143.792 203.917 141.834 204.683 141.834 204.683" stroke="#263238" stroke-linecap="round" stroke-linejoin="round"/>
<path d="M195.555 212.68C195.555 212.68 175.343 201.429 167.897 199.175C164.035 198.005 157.1 199.547 151.355 201.301" stroke="#263238" stroke-linecap="round" stroke-linejoin="round"/>
<path d="M291.091 265.001C291.091 265.001 290.027 271.69 288.803 272.446C287.58 273.201 287.655 266.235 287.655 266.235C287.655 266.235 286.123 270.244 285.176 271.201C284.229 272.158 284.793 267.096 284.793 267.096L285.857 262.322L291.091 265.001Z" fill="white" stroke="#263238" stroke-linecap="round" stroke-linejoin="round"/>
<path d="M277.474 258.408L287.346 258.568C287.346 258.568 289.952 258.94 290.325 260.429C290.853 262.076 291.474 263.691 292.186 265.267L276.911 260.801L277.474 258.408Z" fill="white" stroke="#263238" stroke-linecap="round" stroke-linejoin="round"/>
<path d="M281.006 261.524C281.006 261.524 294.835 259.663 295.165 260.78C295.441 261.62 296.505 269.191 296.739 271.637C296.744 271.721 296.722 271.804 296.676 271.874C296.631 271.944 296.564 271.998 296.486 272.028C296.407 272.057 296.322 272.061 296.241 272.039C296.16 272.016 296.089 271.969 296.037 271.903L292.186 265.246L281.751 265.99C281.751 265.99 278.772 263.385 281.006 261.524Z" fill="white" stroke="#263238" stroke-linecap="round" stroke-linejoin="round"/>
<path d="M166.684 219.827C166.684 219.827 158.11 226.154 161.089 241.797C164.067 257.441 184.927 300.287 186.789 303.966C188.65 307.646 196.841 308.06 200.565 306.944C204.288 305.827 270.602 279.401 270.602 279.401C270.602 279.401 277.676 277.529 278.793 276.04C279.91 274.551 286.995 266.735 286.995 266.735C286.995 266.735 298.164 268.224 300.77 267.479C303.377 266.735 298.164 265.991 295.558 265.246C293.548 264.672 282.463 260.344 277.474 258.387C276.756 258.097 275.967 258.028 275.209 258.19C274.451 258.351 273.758 258.734 273.219 259.291C269.73 262.864 262.294 270.446 260.88 271.574C258.933 273.137 254.423 273.265 252.093 273.701C246.168 274.902 240.221 275.998 234.275 277.082C228.329 278.167 222.233 279.209 216.191 280.273L209.809 281.336C209.164 281.535 208.506 281.692 207.841 281.804C205.554 281.889 206.149 279.932 206.064 278.029C205.437 262.811 203.937 247.274 197.767 233.162C195.714 228.451 193.097 223.868 189.257 220.401C185.417 216.934 180.183 214.807 175.098 215.498" fill="#0C8CE9"/>
<path d="M166.684 219.827C166.684 219.827 158.11 226.154 161.089 241.797C164.067 257.441 184.927 300.287 186.789 303.966C188.65 307.646 196.841 308.06 200.565 306.944C204.288 305.827 270.602 279.401 270.602 279.401C270.602 279.401 277.676 277.529 278.793 276.04C279.91 274.551 286.995 266.735 286.995 266.735C286.995 266.735 298.164 268.224 300.77 267.479C303.377 266.735 298.164 265.991 295.558 265.246C293.548 264.672 282.463 260.344 277.474 258.387C276.756 258.097 275.967 258.028 275.209 258.19C274.451 258.351 273.758 258.734 273.219 259.291C269.73 262.864 262.294 270.446 260.88 271.574C258.933 273.137 254.423 273.265 252.093 273.701C246.168 274.902 240.221 275.998 234.275 277.082C228.329 278.167 222.233 279.209 216.191 280.273L209.809 281.336C209.164 281.535 208.506 281.692 207.841 281.804C205.554 281.889 206.149 279.932 206.064 278.029C205.437 262.811 203.937 247.274 197.767 233.162C195.714 228.451 193.097 223.868 189.257 220.401C185.417 216.934 180.183 214.807 175.098 215.498" stroke="#263238" stroke-linecap="round" stroke-linejoin="round"/>
<path d="M235.945 293.162C253.338 286.27 270.603 279.401 270.603 279.401C270.603 279.401 277.677 277.529 278.793 276.04C279.91 274.551 286.984 266.735 286.984 266.735C286.984 266.735 298.164 268.224 300.813 267.479C303.462 266.735 298.207 265.991 295.601 265.246C293.59 264.672 282.506 260.344 277.517 258.387C276.798 258.097 276.009 258.028 275.251 258.189C274.493 258.351 273.801 258.734 273.262 259.291C269.773 262.864 262.337 270.446 260.922 271.574C259.954 272.35 245.285 275.136 231.424 277.635L235.945 293.162Z" fill="white" stroke="#263238" stroke-linecap="round" stroke-linejoin="round"/>
<path d="M119.549 366.433L103.327 474.202C103.269 474.429 103.304 474.67 103.423 474.871C103.543 475.072 103.738 475.218 103.965 475.276C104.192 475.334 104.433 475.299 104.634 475.179C104.836 475.06 104.981 474.865 105.039 474.638L129.506 368.209L119.549 366.433Z" fill="#E1E7E9" stroke="#263238" stroke-linecap="round" stroke-linejoin="round"/>
<path d="M143.76 367.145L150.813 474C150.813 474.234 150.906 474.458 151.072 474.624C151.237 474.789 151.462 474.882 151.696 474.882C151.93 474.882 152.155 474.789 152.32 474.624C152.486 474.458 152.579 474.234 152.579 474L153.802 366.284L143.76 367.145Z" fill="#E1E7E9" stroke="#263238" stroke-linecap="round" stroke-linejoin="round"/>
<path d="M167.556 368.751L186.917 473.755C186.974 473.965 187.107 474.147 187.29 474.265C187.473 474.384 187.693 474.43 187.908 474.396C188.123 474.361 188.318 474.249 188.455 474.079C188.592 473.91 188.662 473.696 188.651 473.478L177.375 366.464L167.556 368.751Z" fill="#E1E7E9" stroke="#263238" stroke-linecap="round" stroke-linejoin="round"/>
<path d="M204.979 367.868L220.819 473.574C220.866 473.787 220.991 473.975 221.169 474.101C221.347 474.228 221.565 474.284 221.782 474.259C221.999 474.234 222.199 474.129 222.343 473.965C222.487 473.802 222.566 473.59 222.563 473.372L214.883 365.965L204.979 367.868Z" fill="#E1E7E9" stroke="#263238" stroke-linecap="round" stroke-linejoin="round"/>
<path d="M189.842 346.355C189.842 346.355 171.216 340.144 162.525 317.812C153.834 295.48 139.569 257.004 129.633 252.028C119.698 247.051 100.465 256.366 99.2206 292.353C97.976 328.34 100.891 355.096 108.911 363.944C116.007 371.739 128.059 381.672 169.897 382.374C207.266 383.012 222.521 368.772 227.701 363.944C232.882 359.116 241.349 348.801 234.53 348.801C227.712 348.801 198.533 348.801 189.842 346.355Z" fill="#F37316" stroke="#263238" stroke-linecap="round" stroke-linejoin="round"/>
<path d="M275.847 125.478C275.847 125.478 268.581 116.97 258.486 115.386C248.391 113.801 247.71 128.519 260.614 134.974C264.233 136.639 268.244 137.265 272.198 136.782C272.198 136.782 261.89 148.959 268.56 150.905C283.453 155.286 280.261 132.337 280.261 132.337L275.847 125.478Z" fill="#E90C59" stroke="#263238" stroke-linecap="round" stroke-linejoin="round"/>
<path d="M278.294 124.893C278.294 124.893 274.039 114.567 277.23 104.847C280.421 95.1273 293.069 101.731 292.941 116.162C292.893 119.896 291.893 123.556 290.037 126.797C290.037 126.797 306.27 123.34 304.27 129.987C299.728 145.098 282.4 131.954 282.4 131.954L278.294 124.893Z" fill="#E90C59" stroke="#263238" stroke-linecap="round" stroke-linejoin="round"/>
<path d="M283.931 137.793C283.747 137.793 283.565 137.744 283.405 137.653C283.245 137.562 283.111 137.43 283.017 137.271L272.922 120.32C272.777 120.079 272.734 119.79 272.801 119.517C272.869 119.244 273.042 119.009 273.283 118.863C273.404 118.79 273.538 118.742 273.677 118.722C273.816 118.701 273.958 118.708 274.095 118.743C274.232 118.777 274.36 118.839 274.473 118.923C274.585 119.008 274.68 119.114 274.751 119.236L284.836 136.187C284.98 136.428 285.024 136.717 284.956 136.99C284.888 137.263 284.715 137.498 284.474 137.644C284.309 137.738 284.122 137.79 283.931 137.793Z" fill="#263238"/>
<path d="M274.645 121.799C274.645 121.799 271.007 114.131 264.55 113.291" stroke="#263238" stroke-linecap="round" stroke-linejoin="round"/>
<path d="M274.751 119.236C274.751 119.236 272.624 112.919 274.241 108.878" stroke="#263238" stroke-linecap="round" stroke-linejoin="round"/>
<path d="M268.316 126.403C267.933 128.275 265.124 129.296 262.082 128.679C259.04 128.062 256.838 126.031 257.221 124.159C257.603 122.288 260.412 121.256 263.454 121.884C266.496 122.511 268.698 124.521 268.316 126.403Z" fill="white" stroke="#263238" stroke-linecap="round" stroke-linejoin="round"/>
<path d="M275.921 139.59C276.985 140.302 276.985 142.302 275.783 144.078C274.581 145.854 272.73 146.747 271.666 145.981C270.602 145.216 270.602 143.269 271.804 141.493C273.006 139.718 274.783 138.877 275.921 139.59Z" fill="white" stroke="#263238" stroke-linecap="round" stroke-linejoin="round"/>
<path d="M298.037 130.689C298.037 131.986 296.356 133.06 294.239 133.092C292.122 133.124 290.399 132.093 290.378 130.795C290.357 129.498 292.059 128.424 294.176 128.392C296.292 128.36 298.016 129.402 298.037 130.689Z" fill="white" stroke="#263238" stroke-linecap="round" stroke-linejoin="round"/>
<path d="M284.931 119.587C283.027 119.799 281.197 117.46 280.857 114.344C280.517 111.228 281.783 108.559 283.687 108.346C285.591 108.133 287.41 110.473 287.75 113.589C288.091 116.705 286.835 119.374 284.931 119.587Z" fill="white" stroke="#263238" stroke-linecap="round" stroke-linejoin="round"/>
<path d="M470.037 310.266C469.687 314.846 472.207 319.516 473.037 323.946C473.357 325.566 473.967 331.496 476.127 331.236C481.977 330.526 479.037 317.646 478.297 314.456C477.747 312.086 476.877 307.956 474.297 307.156C472.167 306.476 470.827 308.106 470.037 310.266Z" fill="#9E6AD4"/>
<path d="M62.6005 364.837C57.7135 355.024 29.5039 365.866 42.3065 376.811C47.2666 381.063 52.1536 381.063 56.8503 376.811C59.4401 374.575 64.4587 368.573 62.6005 364.837Z" fill="#6FEFD1"/>
<path d="M202.669 41.0647C210.119 32.0647 192.919 28.2447 191.169 36.7547C189.679 43.9947 198.689 45.8847 202.669 41.0647Z" fill="#71F79A"/>
</svg>
