<svg width="133" height="43" viewBox="0 0 133 43" fill="none" xmlns="http://www.w3.org/2000/svg">
<g clip-path="url(#clip0_728_1034)">
<path fill-rule="evenodd" clip-rule="evenodd" d="M21.597 1.47178C21.6119 1.62646 21.5849 1.78151 21.5579 1.93652L21.5579 1.93681C21.5467 2.00082 21.5356 2.06495 21.5274 2.12891C21.5094 2.26831 21.5054 2.40577 21.5013 2.5428L21.5006 2.56968C21.4922 2.9359 21.4626 3.30124 21.412 3.66396C21.3853 3.7786 21.3834 3.89755 21.4063 4.01323C21.4094 4.03087 21.4167 4.04757 21.4276 4.06201C21.4384 4.07646 21.4526 4.08826 21.4689 4.09647C21.4878 4.10187 21.5078 4.10246 21.527 4.09818C21.6945 4.07787 21.856 4.02541 22.0024 3.94379C22.1487 3.86217 22.277 3.753 22.38 3.62253C22.4829 3.49206 22.5584 3.34287 22.6021 3.18348C22.6459 3.0241 22.6571 2.85767 22.635 2.69372C22.6249 2.61711 22.6064 2.54175 22.5797 2.46897C22.5538 2.39762 22.5187 2.3308 22.4834 2.26372C22.4535 2.20668 22.4234 2.14938 22.3986 2.08877C22.3443 1.94731 22.3037 1.80119 22.2775 1.65237C22.241 1.49758 22.217 1.34027 22.2058 1.18191C22.2033 1.11808 22.2049 1.05349 22.2064 0.988962L22.2065 0.98889V0.988869C22.2102 0.837424 22.2139 0.686045 22.1637 0.544119C22.1352 0.517073 22.0974 0.50137 22.0578 0.500086C22.0182 0.498801 21.9797 0.512026 21.9496 0.537173C21.8914 0.58962 21.8479 0.655806 21.8232 0.729464C21.705 0.962373 21.6285 1.21346 21.597 1.47178ZM21.597 1.47178C21.5943 1.49405 21.5919 1.51638 21.5899 1.53875L21.5917 1.42791C21.5939 1.44253 21.5956 1.45715 21.597 1.47178ZM24.0246 1.78998C23.8705 2.40721 23.7728 3.03691 23.7327 3.67164L23.7307 3.72723C23.7275 3.81992 23.7243 3.91261 23.7141 4.00277C23.6955 4.14675 23.6671 4.2893 23.629 4.42945L23.5135 4.89476C23.5501 4.91849 23.5924 4.93227 23.6361 4.93467C23.6798 4.93707 23.7233 4.928 23.7621 4.90841C23.8391 4.86838 23.9065 4.81267 23.9596 4.74501C24.1876 4.47215 24.3881 4.17824 24.5582 3.86737C24.6108 3.78543 24.6558 3.69909 24.6928 3.60932C24.738 3.47929 24.7615 3.34289 24.7625 3.20532C24.7636 2.7884 24.6883 2.37428 24.5401 1.98265C24.5309 1.95581 24.5216 1.92333 24.5116 1.88796C24.4706 1.74416 24.416 1.5522 24.2987 1.4975C24.1171 1.40875 24.0517 1.66681 24.0246 1.78998ZM26.9887 2.50578C27.0966 2.3947 27.2286 2.28099 27.3852 2.2876C27.4125 2.28744 27.4396 2.293 27.4646 2.3039C27.4896 2.31481 27.512 2.33081 27.5302 2.35083C27.5667 2.41012 27.5782 2.48091 27.5622 2.5481C27.4661 3.38856 26.9945 4.15299 26.3871 4.7516C26.2156 4.9329 26.0122 5.08268 25.7867 5.19396C25.6707 5.24583 25.5692 5.28942 25.5675 5.12888C25.5837 4.98946 25.619 4.8529 25.6725 4.7229C25.8348 4.19666 26.0757 3.69717 26.3874 3.2406C26.5655 2.97889 26.7667 2.73302 26.9887 2.50578ZM20.3882 5.10876C21.1133 5.51649 21.87 5.86757 22.6512 6.15872C23.8361 6.6263 25.0378 7.05484 26.2385 7.48301C26.5304 7.59367 26.8282 7.68841 27.1307 7.76679C27.4791 7.85004 27.8833 7.87897 28.1584 7.65553C28.1884 7.63575 28.2098 7.60568 28.2184 7.57119C28.2198 7.55124 28.2166 7.5312 28.2089 7.51262C28.1216 7.25611 27.8391 7.12219 27.5839 7.02057C25.9074 6.35619 24.1772 5.83732 22.4475 5.31859L22.4474 5.31858C21.9345 5.16476 21.4216 5.01094 20.9102 4.85336C20.8782 4.84343 20.8216 4.82095 20.7518 4.79322L20.7518 4.79321C20.5144 4.69897 20.1247 4.5442 20.0329 4.61658C19.8605 4.74956 20.2847 5.04575 20.3882 5.10876ZM28.3366 4.95516L28.3046 4.99868C28.2188 5.11577 28.1323 5.23229 28.0457 5.34896L28.0449 5.35008C27.9089 5.5333 27.7726 5.71706 27.6382 5.90382C27.5569 6.01705 27.5838 6.02893 27.6524 6.05922C27.6761 6.06965 27.7047 6.08228 27.7355 6.10199C27.77 6.12425 27.7503 6.1819 27.7315 6.23729C27.7096 6.30155 27.6888 6.36278 27.7546 6.36219C27.8324 6.35353 27.9061 6.32378 27.9673 6.27629L28.6165 5.85141C28.98 5.6336 29.3155 5.37396 29.6157 5.07798C29.9035 4.77015 30.1195 4.37914 30.1297 3.96166C30.039 3.93254 29.9459 3.9881 29.8731 4.05096L29.8561 4.06571C29.7885 4.12459 29.7178 4.18622 29.6296 4.18889C29.7609 4.01725 29.854 3.82053 29.903 3.61128C29.8019 3.61209 29.7051 3.65073 29.6326 3.71927C29.2858 3.95661 28.9647 4.22781 28.6742 4.52875C28.5512 4.66286 28.4438 4.80912 28.3366 4.95512L28.3366 4.95514L28.3366 4.95516ZM9.22389 24.5733L9.28396 24.6309L14.599 28.9447C14.6922 29.0123 14.8066 29.044 14.9213 29.0339C15.036 29.0239 15.1432 28.9728 15.2232 28.8901L18.6885 25.0502C19.0397 24.6738 19.5178 24.4406 20.0308 24.3958C20.5437 24.3509 21.0551 24.4975 21.4663 24.8073L25.546 27.9873C25.6388 28.0557 25.7535 28.0879 25.8684 28.0778C25.9833 28.0678 26.0906 28.0162 26.1702 27.9327L30.659 22.7615C30.6728 22.7384 30.6879 22.7161 30.7043 22.6947L31.9437 21.2698C32.2027 20.9736 32.3991 20.6281 32.5212 20.2541C32.6433 19.8801 32.6886 19.4853 32.6543 19.0934C32.62 18.7015 32.5068 18.3206 32.3216 17.9735C32.1364 17.6264 31.8829 17.3203 31.5764 17.0735L20.7459 8.26707C20.1301 7.77167 19.3465 7.53349 18.559 7.60236C17.7716 7.67123 17.0413 8.04181 16.5208 8.63658L7.38855 19.1889C7.12966 19.4848 6.93327 19.8299 6.81118 20.2036C6.68909 20.5772 6.64382 20.9717 6.67809 21.3633C6.71237 21.7549 6.82547 22.1355 7.01061 22.4823C7.19575 22.8291 7.44911 23.1349 7.75546 23.3813L9.22389 24.5733ZM31.5349 24.1429L27.3529 28.9571C27.01 29.343 26.534 29.5852 26.0201 29.6352C25.5062 29.6853 24.9924 29.5395 24.5815 29.227L20.5056 26.0467C20.4065 25.9794 20.2871 25.9483 20.1677 25.9588C20.0483 25.9692 19.9362 26.0205 19.8502 26.104L16.3888 29.9435C16.0384 30.3226 15.5577 30.5554 15.0429 30.5953C14.5281 30.6352 14.0173 30.4793 13.6126 30.1588L8.65783 26.1436L8.05771 26.8327C7.80037 27.1293 7.60531 27.4746 7.48415 27.8481C7.36299 28.2215 7.31819 28.6155 7.35242 29.0067C7.38665 29.3978 7.49921 29.778 7.68341 30.1248C7.8676 30.4715 8.11967 30.7777 8.42463 31.0251L19.2516 39.8358C19.8679 40.3297 20.653 40.5629 21.4391 40.4855C22.2254 40.4248 22.9567 40.059 23.4766 39.4663L32.6125 28.9097C32.8714 28.6138 33.0678 28.2687 33.1899 27.8951C33.312 27.5214 33.3572 27.1269 33.323 26.7353C33.2887 26.3437 33.1756 25.9631 32.9904 25.6163C32.8053 25.2695 32.5519 24.9638 32.2456 24.7173L31.5349 24.1429Z" fill="#1182D4"/>
</g>
<path d="M54.648 8.048C54.648 9.488 54.176 10.648 53.232 11.528C52.288 12.408 50.872 12.848 48.984 12.848H45.6V20H43.92V3.224H48.984C50.856 3.224 52.264 3.664 53.208 4.544C54.168 5.424 54.648 6.592 54.648 8.048ZM48.984 11.408C51.608 11.408 52.92 10.288 52.92 8.048C52.92 6.928 52.608 6.08 51.984 5.504C51.36 4.928 50.36 4.64 48.984 4.64H45.6V11.408H48.984ZM58.1869 9.224C58.5549 8.408 59.1149 7.776 59.8669 7.328C60.6349 6.88 61.5709 6.656 62.6749 6.656V8.408H62.2189C61.0029 8.408 60.0269 8.736 59.2909 9.392C58.5549 10.048 58.1869 11.144 58.1869 12.68V20H56.5069V6.896H58.1869V9.224ZM65.0822 4.424C64.7462 4.424 64.4582 4.304 64.2182 4.064C63.9782 3.824 63.8582 3.528 63.8582 3.176C63.8582 2.824 63.9782 2.536 64.2182 2.312C64.4582 2.072 64.7462 1.952 65.0822 1.952C65.4182 1.952 65.7062 2.072 65.9462 2.312C66.1862 2.536 66.3062 2.824 66.3062 3.176C66.3062 3.528 66.1862 3.824 65.9462 4.064C65.7062 4.304 65.4182 4.424 65.0822 4.424ZM65.9222 6.896V20H64.2422V6.896H65.9222ZM73.2786 20.192C71.7746 20.192 70.5426 19.848 69.5826 19.16C68.6386 18.456 68.1106 17.504 67.9986 16.304H69.7266C69.8066 17.04 70.1506 17.64 70.7586 18.104C71.3826 18.552 72.2146 18.776 73.2546 18.776C74.1666 18.776 74.8786 18.56 75.3906 18.128C75.9186 17.696 76.1826 17.16 76.1826 16.52C76.1826 16.072 76.0386 15.704 75.7506 15.416C75.4626 15.128 75.0946 14.904 74.6466 14.744C74.2146 14.568 73.6226 14.384 72.8706 14.192C71.8946 13.936 71.1026 13.68 70.4946 13.424C69.8866 13.168 69.3666 12.792 68.9346 12.296C68.5186 11.784 68.3106 11.104 68.3106 10.256C68.3106 9.616 68.5026 9.024 68.8866 8.48C69.2706 7.936 69.8146 7.504 70.5186 7.184C71.2226 6.864 72.0226 6.704 72.9186 6.704C74.3266 6.704 75.4626 7.064 76.3266 7.784C77.1906 8.488 77.6546 9.464 77.7186 10.712H76.0386C75.9906 9.944 75.6866 9.328 75.1266 8.864C74.5826 8.384 73.8306 8.144 72.8706 8.144C72.0226 8.144 71.3346 8.344 70.8066 8.744C70.2786 9.144 70.0146 9.64 70.0146 10.232C70.0146 10.744 70.1666 11.168 70.4706 11.504C70.7906 11.824 71.1826 12.08 71.6466 12.272C72.1106 12.448 72.7346 12.648 73.5186 12.872C74.4626 13.128 75.2146 13.376 75.7746 13.616C76.3346 13.856 76.8146 14.208 77.2146 14.672C77.6146 15.136 77.8226 15.752 77.8386 16.52C77.8386 17.224 77.6466 17.856 77.2626 18.416C76.8786 18.96 76.3426 19.392 75.6546 19.712C74.9666 20.032 74.1746 20.192 73.2786 20.192ZM86.2809 6.656C87.2729 6.656 88.1609 6.864 88.9449 7.28C89.7449 7.696 90.3689 8.336 90.8169 9.2C91.2809 10.048 91.5129 11.088 91.5129 12.32V20H89.8569V12.512C89.8569 11.088 89.4969 10 88.7769 9.248C88.0729 8.496 87.1049 8.12 85.8729 8.12C84.6089 8.12 83.6009 8.52 82.8489 9.32C82.0969 10.12 81.7209 11.296 81.7209 12.848V20H80.0409V2.24H81.7209V9.128C82.1369 8.344 82.7449 7.736 83.5449 7.304C84.3609 6.872 85.2729 6.656 86.2809 6.656ZM96.4524 8.312V16.448C96.4524 17.248 96.6044 17.8 96.9084 18.104C97.2124 18.408 97.7484 18.56 98.5164 18.56H100.052V20H98.2524C97.0684 20 96.1884 19.728 95.6124 19.184C95.0364 18.624 94.7484 17.712 94.7484 16.448V8.312H92.9244V6.896H94.7484V3.608H96.4524V6.896H100.052V8.312H96.4524ZM102.703 4.424C102.367 4.424 102.079 4.304 101.839 4.064C101.599 3.824 101.479 3.528 101.479 3.176C101.479 2.824 101.599 2.536 101.839 2.312C102.079 2.072 102.367 1.952 102.703 1.952C103.039 1.952 103.327 2.072 103.567 2.312C103.807 2.536 103.927 2.824 103.927 3.176C103.927 3.528 103.807 3.824 103.567 4.064C103.327 4.304 103.039 4.424 102.703 4.424ZM103.543 6.896V20H101.863V6.896H103.543ZM112.531 6.656C114.099 6.656 115.379 7.144 116.371 8.12C117.363 9.08 117.859 10.48 117.859 12.32V20H116.203V12.512C116.203 11.088 115.843 10 115.123 9.248C114.419 8.496 113.451 8.12 112.219 8.12C110.955 8.12 109.947 8.52 109.195 9.32C108.443 10.12 108.067 11.296 108.067 12.848V20H106.387V6.896H108.067V9.128C108.483 8.328 109.083 7.72 109.867 7.304C110.651 6.872 111.539 6.656 112.531 6.656ZM119.847 13.424C119.847 12.08 120.111 10.904 120.639 9.896C121.183 8.872 121.927 8.088 122.871 7.544C123.831 6.984 124.911 6.704 126.111 6.704C127.359 6.704 128.431 6.992 129.327 7.568C130.239 8.144 130.895 8.88 131.295 9.776V6.896H132.975V20H131.295V17.096C130.879 17.992 130.215 18.736 129.303 19.328C128.407 19.904 127.335 20.192 126.087 20.192C124.903 20.192 123.831 19.912 122.871 19.352C121.927 18.792 121.183 18 120.639 16.976C120.111 15.952 119.847 14.768 119.847 13.424ZM131.295 13.448C131.295 12.392 131.079 11.464 130.647 10.664C130.215 9.864 129.623 9.248 128.871 8.816C128.135 8.384 127.319 8.168 126.423 8.168C125.495 8.168 124.663 8.376 123.927 8.792C123.191 9.208 122.607 9.816 122.175 10.616C121.759 11.4 121.551 12.336 121.551 13.424C121.551 14.496 121.759 15.44 122.175 16.256C122.607 17.056 123.191 17.672 123.927 18.104C124.663 18.52 125.495 18.728 126.423 18.728C127.319 18.728 128.135 18.512 128.871 18.08C129.623 17.648 130.215 17.032 130.647 16.232C131.079 15.432 131.295 14.504 131.295 13.448Z" fill="white"/>
<path d="M45.74 39L42.425 27.661H44.941L47.287 36.892H46.862L49.565 27.661H51.435L54.189 37.028H53.696L56.059 27.661H58.575L55.26 39H52.965L50.262 30.296H50.738L48.035 39H45.74ZM62.7773 39.255C61.9273 39.255 61.185 39.085 60.5503 38.745C59.9157 38.3937 59.4227 37.8837 59.0713 37.215C58.72 36.5463 58.5443 35.7417 58.5443 34.801C58.5443 33.305 58.9013 32.166 59.6153 31.384C60.3407 30.5907 61.355 30.194 62.6583 30.194C63.599 30.194 64.3527 30.398 64.9193 30.806C65.4973 31.214 65.9167 31.7977 66.1773 32.557C66.4493 33.305 66.5797 34.2003 66.5683 35.243H59.9383L59.7683 33.781H64.8513L64.4433 34.393C64.4207 33.4977 64.262 32.8573 63.9673 32.472C63.684 32.0753 63.225 31.877 62.5903 31.877C62.205 31.877 61.865 31.9677 61.5703 32.149C61.287 32.319 61.066 32.608 60.9073 33.016C60.76 33.424 60.6863 33.985 60.6863 34.699C60.6863 35.583 60.896 36.263 61.3153 36.739C61.7347 37.2037 62.375 37.436 63.2363 37.436C63.5877 37.436 63.922 37.402 64.2393 37.334C64.568 37.2547 64.8683 37.164 65.1403 37.062C65.4237 36.96 65.6617 36.8637 65.8543 36.773V38.677C65.4577 38.847 65.0043 38.983 64.4943 39.085C63.9957 39.1983 63.4233 39.255 62.7773 39.255ZM71.9002 39.255C71.4242 39.255 70.9595 39.2267 70.5062 39.17C70.0642 39.1133 69.6619 39.0113 69.2992 38.864C68.9479 38.7053 68.6645 38.49 68.4492 38.218C68.2339 37.946 68.1262 37.5947 68.1262 37.164V27.134H70.2512V31.775L69.7752 31.095C69.9905 30.891 70.2569 30.7267 70.5742 30.602C70.8915 30.4773 71.2145 30.3867 71.5432 30.33C71.8832 30.262 72.1665 30.228 72.3932 30.228C73.6739 30.228 74.6372 30.6133 75.2832 31.384C75.9405 32.1433 76.2692 33.2313 76.2692 34.648C76.2692 35.5547 76.1502 36.3083 75.9122 36.909C75.6855 37.4983 75.3682 37.963 74.9602 38.303C74.5522 38.643 74.0875 38.8867 73.5662 39.034C73.0449 39.1813 72.4895 39.255 71.9002 39.255ZM71.8322 37.436C72.4215 37.436 72.8805 37.317 73.2092 37.079C73.5379 36.841 73.7702 36.5237 73.9062 36.127C74.0422 35.7303 74.1102 35.277 74.1102 34.767C74.1102 34.121 74.0252 33.594 73.8552 33.186C73.6852 32.778 73.4415 32.4777 73.1242 32.285C72.8069 32.081 72.4159 31.979 71.9512 31.979C71.6905 31.979 71.4015 32.013 71.0842 32.081C70.7782 32.149 70.5005 32.2567 70.2512 32.404V36.62C70.2512 36.8353 70.3249 37.0053 70.4722 37.13C70.6309 37.2433 70.8292 37.3227 71.0672 37.368C71.3165 37.4133 71.5715 37.436 71.8322 37.436ZM82.3564 39V27.661H86.6234C88.5047 27.661 89.8931 28.137 90.7884 29.089C91.6951 30.041 92.1484 31.452 92.1484 33.322C92.1484 35.192 91.6951 36.6087 90.7884 37.572C89.8931 38.524 88.5047 39 86.6234 39H82.3564ZM84.6684 37.147H86.3684C87.5131 37.147 88.3687 36.8467 88.9354 36.246C89.5021 35.634 89.7854 34.6593 89.7854 33.322C89.7854 31.996 89.5021 31.027 88.9354 30.415C88.3687 29.803 87.5131 29.497 86.3684 29.497H84.6684V37.147ZM97.5755 39.255C96.7255 39.255 95.9832 39.085 95.3485 38.745C94.7139 38.3937 94.2209 37.8837 93.8695 37.215C93.5182 36.5463 93.3425 35.7417 93.3425 34.801C93.3425 33.305 93.6995 32.166 94.4135 31.384C95.1389 30.5907 96.1532 30.194 97.4565 30.194C98.3972 30.194 99.1509 30.398 99.7175 30.806C100.296 31.214 100.715 31.7977 100.976 32.557C101.248 33.305 101.378 34.2003 101.367 35.243H94.7365L94.5665 33.781H99.6495L99.2415 34.393C99.2189 33.4977 99.0602 32.8573 98.7655 32.472C98.4822 32.0753 98.0232 31.877 97.3885 31.877C97.0032 31.877 96.6632 31.9677 96.3685 32.149C96.0852 32.319 95.8642 32.608 95.7055 33.016C95.5582 33.424 95.4845 33.985 95.4845 34.699C95.4845 35.583 95.6942 36.263 96.1135 36.739C96.5329 37.2037 97.1732 37.436 98.0345 37.436C98.3859 37.436 98.7202 37.402 99.0375 37.334C99.3662 37.2547 99.6665 37.164 99.9385 37.062C100.222 36.96 100.46 36.8637 100.653 36.773V38.677C100.256 38.847 99.8025 38.983 99.2925 39.085C98.7939 39.1983 98.2215 39.255 97.5755 39.255ZM105.44 39.255C104.828 39.255 104.307 39.187 103.876 39.051C103.446 38.9263 103.032 38.7733 102.635 38.592V36.654C102.896 36.824 103.168 36.9883 103.451 37.147C103.746 37.2943 104.058 37.4133 104.386 37.504C104.726 37.5947 105.089 37.64 105.474 37.64C105.928 37.64 106.262 37.555 106.477 37.385C106.704 37.2037 106.817 36.9883 106.817 36.739C106.817 36.501 106.732 36.3197 106.562 36.195C106.392 36.059 106.171 35.9457 105.899 35.855C105.627 35.7643 105.338 35.6737 105.032 35.583C104.749 35.515 104.46 35.4243 104.165 35.311C103.882 35.1977 103.621 35.0447 103.383 34.852C103.145 34.6593 102.953 34.4157 102.805 34.121C102.669 33.815 102.601 33.4467 102.601 33.016C102.601 32.506 102.703 32.0753 102.907 31.724C103.111 31.3727 103.378 31.0893 103.706 30.874C104.035 30.6587 104.398 30.5057 104.794 30.415C105.191 30.313 105.576 30.262 105.95 30.262C106.596 30.2847 107.118 30.364 107.514 30.5C107.911 30.6247 108.285 30.789 108.636 30.993L108.653 32.744C108.257 32.5287 107.871 32.336 107.497 32.166C107.123 31.9847 106.698 31.894 106.222 31.894C105.78 31.894 105.435 31.9733 105.185 32.132C104.947 32.2793 104.828 32.489 104.828 32.761C104.828 32.999 104.902 33.1917 105.049 33.339C105.197 33.4863 105.389 33.5997 105.627 33.679C105.865 33.7583 106.126 33.8377 106.409 33.917C106.693 33.9963 106.987 34.087 107.293 34.189C107.599 34.2797 107.883 34.4157 108.143 34.597C108.404 34.7783 108.614 35.022 108.772 35.328C108.942 35.6227 109.027 36.0193 109.027 36.518C109.016 37.1753 108.84 37.708 108.5 38.116C108.16 38.5127 107.713 38.8017 107.157 38.983C106.613 39.1643 106.041 39.255 105.44 39.255ZM110.687 39V30.517H112.846L112.863 39H110.687ZM110.636 29.157V27.389H112.897V29.157H110.636ZM118.294 39.255C117.489 39.2323 116.803 39.0567 116.237 38.728C115.67 38.3993 115.234 37.9233 114.928 37.3C114.633 36.6653 114.486 35.889 114.486 34.971C114.486 34.0077 114.605 33.22 114.843 32.608C115.081 31.9847 115.409 31.503 115.829 31.163C116.259 30.8117 116.758 30.568 117.325 30.432C117.903 30.296 118.515 30.228 119.161 30.228C119.829 30.228 120.419 30.313 120.929 30.483C121.45 30.653 121.858 30.9023 122.153 31.231C122.459 31.5597 122.612 31.979 122.612 32.489V39.187C122.612 39.7083 122.527 40.1787 122.357 40.598C122.187 41.0287 121.926 41.397 121.575 41.703C121.235 42.009 120.804 42.2413 120.283 42.4C119.761 42.57 119.138 42.655 118.413 42.655C117.744 42.655 117.16 42.604 116.662 42.502C116.163 42.4 115.766 42.2867 115.472 42.162V40.241C115.642 40.309 115.874 40.3883 116.169 40.479C116.475 40.581 116.815 40.666 117.189 40.734C117.563 40.802 117.937 40.836 118.311 40.836C118.911 40.836 119.365 40.7567 119.671 40.598C119.988 40.4393 120.203 40.2297 120.317 39.969C120.43 39.7083 120.487 39.425 120.487 39.119V37.776L120.98 38.15C120.787 38.3653 120.549 38.558 120.266 38.728C119.994 38.8867 119.688 39.0113 119.348 39.102C119.019 39.204 118.668 39.255 118.294 39.255ZM118.753 37.589C119.059 37.589 119.359 37.555 119.654 37.487C119.96 37.4077 120.237 37.2943 120.487 37.147V32.931C120.487 32.659 120.413 32.4607 120.266 32.336C120.13 32.2 119.943 32.1093 119.705 32.064C119.478 32.0073 119.229 31.979 118.957 31.979C118.356 31.979 117.886 32.1037 117.546 32.353C117.217 32.6023 116.985 32.948 116.849 33.39C116.713 33.832 116.645 34.325 116.645 34.869C116.645 35.6963 116.826 36.3593 117.189 36.858C117.551 37.3453 118.073 37.589 118.753 37.589ZM124.566 31.146C124.804 31.0327 125.087 30.9193 125.416 30.806C125.744 30.6927 126.101 30.5963 126.487 30.517C126.872 30.4263 127.257 30.3583 127.643 30.313C128.039 30.2563 128.413 30.228 128.765 30.228C129.558 30.228 130.215 30.3357 130.737 30.551C131.269 30.755 131.666 31.0837 131.927 31.537C132.199 31.979 132.335 32.5627 132.335 33.288V39H130.193V33.662C130.193 33.4467 130.164 33.2427 130.108 33.05C130.051 32.846 129.955 32.6703 129.819 32.523C129.683 32.3643 129.496 32.2453 129.258 32.166C129.02 32.0753 128.714 32.03 128.34 32.03C128.056 32.03 127.767 32.0583 127.473 32.115C127.178 32.1717 126.929 32.2453 126.725 32.336V39H124.566V31.146Z" fill="white"/>
<defs>
<clipPath id="clip0_728_1034">
<rect width="40" height="40" fill="white" transform="translate(0 0.5)"/>
</clipPath>
</defs>
</svg>
