<svg width="133" height="43" viewBox="0 0 133 43" fill="none" xmlns="http://www.w3.org/2000/svg">
<g clip-path="url(#clip0_663_976)">
<path d="M33.2337 20.9663C33.167 20.9048 33.1133 20.8308 33.076 20.7484C33.0387 20.6661 33.0184 20.5772 33.0164 20.487C33.0184 20.3968 33.0387 20.3079 33.076 20.2256C33.1133 20.1432 33.167 20.0692 33.2337 20.0077L34.8836 18.4133C35.2355 18.0793 35.5157 17.6785 35.7075 17.2348C35.8993 16.7911 35.9988 16.3136 36 15.831C35.9977 15.3485 35.8977 14.8714 35.7059 14.4279C35.5142 13.9844 35.2346 13.5834 34.8836 13.2487L22.623 1.51087C21.9054 0.860633 20.9679 0.5 19.9951 0.5C19.0223 0.5 18.0847 0.860633 17.3671 1.51087L5.10651 13.2487C4.75867 13.5852 4.48176 13.9868 4.29182 14.43C4.10188 14.8733 4.00269 15.3495 4 15.831C4.00159 16.3127 4.10028 16.7892 4.29029 17.2326C4.48029 17.676 4.75779 18.0775 5.10651 18.4133L6.76629 20.0077C6.8317 20.0696 6.88378 20.144 6.91944 20.2264C6.95509 20.3087 6.97356 20.3974 6.97375 20.487C6.97356 20.5766 6.95509 20.6653 6.91944 20.7476C6.88378 20.83 6.8317 20.9044 6.76629 20.9663L5.10651 22.5509C4.75867 22.8874 4.48176 23.289 4.29182 23.7322C4.10188 24.1755 4.00269 24.6517 4 25.1332C4.00159 25.6149 4.10028 26.0914 4.29029 26.5348C4.48029 26.9783 4.75779 27.3797 5.10651 27.7155L17.3671 39.4533C18.0726 40.1268 19.015 40.5021 19.9951 40.5C20.9755 40.5042 21.9187 40.1286 22.623 39.4533L34.8836 27.7155C35.2349 27.379 35.5146 26.9763 35.7063 26.5312C35.898 26.086 35.9979 25.6074 36 25.1234C35.9977 24.641 35.8977 24.1639 35.7059 23.7203C35.5142 23.2768 35.2346 22.8758 34.8836 22.5411L33.2337 20.9663Z" fill="url(#paint0_linear_663_976)"/>
<path fill-rule="evenodd" clip-rule="evenodd" d="M17.1733 28.0322C17.1734 28.0323 17.1735 28.0324 17.1735 28.0326C17.8731 29.2442 19.4225 29.6594 20.6341 28.9598C21.8458 28.2603 22.261 26.7109 21.5614 25.4992C21.5613 25.4991 21.5613 25.499 21.5612 25.4989L17.1733 28.0322Z" fill="#263238"/>
<mask id="mask0_663_976" style="mask-type:alpha" maskUnits="userSpaceOnUse" x="17" y="25" width="5" height="5">
<path fill-rule="evenodd" clip-rule="evenodd" d="M17.1733 28.0322C17.1734 28.0323 17.1735 28.0324 17.1735 28.0326C17.8731 29.2442 19.4225 29.6594 20.6341 28.9598C21.8458 28.2603 22.261 26.7109 21.5614 25.4992C21.5613 25.4991 21.5613 25.499 21.5612 25.4989L17.1733 28.0322Z" fill="black"/>
</mask>
<g mask="url(#mask0_663_976)">
<circle cx="20.0019" cy="29.8901" r="1.52" fill="#FF4389"/>
</g>
<path d="M15.875 11.9063L14.4688 11.2812H13.5313L12.125 12.375L10.875 15.6563V19.25L11.8125 23.1563L15 25.125L17.5 23.375L19 19.375L18.5 17.125L17.25 12.875L15.875 11.9063Z" fill="white"/>
<path fill-rule="evenodd" clip-rule="evenodd" d="M19.25 18C19.25 22.1421 17.2353 25.5 14.75 25.5C12.2647 25.5 10.25 22.1421 10.25 18C10.25 13.8579 12.2647 10.5 14.75 10.5C17.2353 10.5 19.25 13.8579 19.25 18ZM17.7227 20.5301C17.2176 22.7214 16.0766 24.25 14.75 24.25C12.9551 24.25 11.5 21.4518 11.5 18C11.5 14.5482 12.9551 11.75 14.75 11.75C16.4096 11.75 17.7786 14.1421 17.9756 17.2311C17.61 16.7815 17.0842 16.4996 16.4998 16.4996C15.3952 16.4996 14.4998 17.507 14.4998 18.7496C14.4998 19.9922 15.3952 20.9996 16.4998 20.9996C16.9604 20.9996 17.3846 20.8245 17.7227 20.5301Z" fill="#263238"/>
<path d="M26.3755 11.9063L24.9692 11.2812H24.0317L22.6255 12.375L21.3755 15.6563V19.25L22.313 23.1563L25.5005 25.125L28.0005 23.375L29.5005 19.375L29.0005 17.125L27.7505 12.875L26.3755 11.9063Z" fill="white"/>
<path fill-rule="evenodd" clip-rule="evenodd" d="M29.7505 18C29.7505 22.1421 27.7358 25.5 25.2505 25.5C22.7652 25.5 20.7505 22.1421 20.7505 18C20.7505 13.8579 22.7652 10.5 25.2505 10.5C27.7358 10.5 29.7505 13.8579 29.7505 18ZM28.223 20.5301C27.7179 22.7214 26.5769 24.25 25.2503 24.25C23.4554 24.25 22.0003 21.4518 22.0003 18C22.0003 14.5482 23.4554 11.75 25.2503 11.75C26.9099 11.75 28.2789 14.1421 28.4759 17.2311C28.1103 16.7815 27.5845 16.4996 27.0001 16.4996C25.8955 16.4996 25.0001 17.507 25.0001 18.7496C25.0001 19.9922 25.8955 20.9996 27.0001 20.9996C27.4607 20.9996 27.8849 20.8245 28.223 20.5301Z" fill="#263238"/>
</g>
<path d="M54.648 8.048C54.648 9.488 54.176 10.648 53.232 11.528C52.288 12.408 50.872 12.848 48.984 12.848H45.6V20H43.92V3.224H48.984C50.856 3.224 52.264 3.664 53.208 4.544C54.168 5.424 54.648 6.592 54.648 8.048ZM48.984 11.408C51.608 11.408 52.92 10.288 52.92 8.048C52.92 6.928 52.608 6.08 51.984 5.504C51.36 4.928 50.36 4.64 48.984 4.64H45.6V11.408H48.984ZM58.1869 9.224C58.5549 8.408 59.1149 7.776 59.8669 7.328C60.6349 6.88 61.5709 6.656 62.6749 6.656V8.408H62.2189C61.0029 8.408 60.0269 8.736 59.2909 9.392C58.5549 10.048 58.1869 11.144 58.1869 12.68V20H56.5069V6.896H58.1869V9.224ZM65.0822 4.424C64.7462 4.424 64.4582 4.304 64.2182 4.064C63.9782 3.824 63.8582 3.528 63.8582 3.176C63.8582 2.824 63.9782 2.536 64.2182 2.312C64.4582 2.072 64.7462 1.952 65.0822 1.952C65.4182 1.952 65.7062 2.072 65.9462 2.312C66.1862 2.536 66.3062 2.824 66.3062 3.176C66.3062 3.528 66.1862 3.824 65.9462 4.064C65.7062 4.304 65.4182 4.424 65.0822 4.424ZM65.9222 6.896V20H64.2422V6.896H65.9222ZM73.2786 20.192C71.7746 20.192 70.5426 19.848 69.5826 19.16C68.6386 18.456 68.1106 17.504 67.9986 16.304H69.7266C69.8066 17.04 70.1506 17.64 70.7586 18.104C71.3826 18.552 72.2146 18.776 73.2546 18.776C74.1666 18.776 74.8786 18.56 75.3906 18.128C75.9186 17.696 76.1826 17.16 76.1826 16.52C76.1826 16.072 76.0386 15.704 75.7506 15.416C75.4626 15.128 75.0946 14.904 74.6466 14.744C74.2146 14.568 73.6226 14.384 72.8706 14.192C71.8946 13.936 71.1026 13.68 70.4946 13.424C69.8866 13.168 69.3666 12.792 68.9346 12.296C68.5186 11.784 68.3106 11.104 68.3106 10.256C68.3106 9.616 68.5026 9.024 68.8866 8.48C69.2706 7.936 69.8146 7.504 70.5186 7.184C71.2226 6.864 72.0226 6.704 72.9186 6.704C74.3266 6.704 75.4626 7.064 76.3266 7.784C77.1906 8.488 77.6546 9.464 77.7186 10.712H76.0386C75.9906 9.944 75.6866 9.328 75.1266 8.864C74.5826 8.384 73.8306 8.144 72.8706 8.144C72.0226 8.144 71.3346 8.344 70.8066 8.744C70.2786 9.144 70.0146 9.64 70.0146 10.232C70.0146 10.744 70.1666 11.168 70.4706 11.504C70.7906 11.824 71.1826 12.08 71.6466 12.272C72.1106 12.448 72.7346 12.648 73.5186 12.872C74.4626 13.128 75.2146 13.376 75.7746 13.616C76.3346 13.856 76.8146 14.208 77.2146 14.672C77.6146 15.136 77.8226 15.752 77.8386 16.52C77.8386 17.224 77.6466 17.856 77.2626 18.416C76.8786 18.96 76.3426 19.392 75.6546 19.712C74.9666 20.032 74.1746 20.192 73.2786 20.192ZM86.2809 6.656C87.2729 6.656 88.1609 6.864 88.9449 7.28C89.7449 7.696 90.3689 8.336 90.8169 9.2C91.2809 10.048 91.5129 11.088 91.5129 12.32V20H89.8569V12.512C89.8569 11.088 89.4969 10 88.7769 9.248C88.0729 8.496 87.1049 8.12 85.8729 8.12C84.6089 8.12 83.6009 8.52 82.8489 9.32C82.0969 10.12 81.7209 11.296 81.7209 12.848V20H80.0409V2.24H81.7209V9.128C82.1369 8.344 82.7449 7.736 83.5449 7.304C84.3609 6.872 85.2729 6.656 86.2809 6.656ZM96.4524 8.312V16.448C96.4524 17.248 96.6044 17.8 96.9084 18.104C97.2124 18.408 97.7484 18.56 98.5164 18.56H100.052V20H98.2524C97.0684 20 96.1884 19.728 95.6124 19.184C95.0364 18.624 94.7484 17.712 94.7484 16.448V8.312H92.9244V6.896H94.7484V3.608H96.4524V6.896H100.052V8.312H96.4524ZM102.703 4.424C102.367 4.424 102.079 4.304 101.839 4.064C101.599 3.824 101.479 3.528 101.479 3.176C101.479 2.824 101.599 2.536 101.839 2.312C102.079 2.072 102.367 1.952 102.703 1.952C103.039 1.952 103.327 2.072 103.567 2.312C103.807 2.536 103.927 2.824 103.927 3.176C103.927 3.528 103.807 3.824 103.567 4.064C103.327 4.304 103.039 4.424 102.703 4.424ZM103.543 6.896V20H101.863V6.896H103.543ZM112.531 6.656C114.099 6.656 115.379 7.144 116.371 8.12C117.363 9.08 117.859 10.48 117.859 12.32V20H116.203V12.512C116.203 11.088 115.843 10 115.123 9.248C114.419 8.496 113.451 8.12 112.219 8.12C110.955 8.12 109.947 8.52 109.195 9.32C108.443 10.12 108.067 11.296 108.067 12.848V20H106.387V6.896H108.067V9.128C108.483 8.328 109.083 7.72 109.867 7.304C110.651 6.872 111.539 6.656 112.531 6.656ZM119.847 13.424C119.847 12.08 120.111 10.904 120.639 9.896C121.183 8.872 121.927 8.088 122.871 7.544C123.831 6.984 124.911 6.704 126.111 6.704C127.359 6.704 128.431 6.992 129.327 7.568C130.239 8.144 130.895 8.88 131.295 9.776V6.896H132.975V20H131.295V17.096C130.879 17.992 130.215 18.736 129.303 19.328C128.407 19.904 127.335 20.192 126.087 20.192C124.903 20.192 123.831 19.912 122.871 19.352C121.927 18.792 121.183 18 120.639 16.976C120.111 15.952 119.847 14.768 119.847 13.424ZM131.295 13.448C131.295 12.392 131.079 11.464 130.647 10.664C130.215 9.864 129.623 9.248 128.871 8.816C128.135 8.384 127.319 8.168 126.423 8.168C125.495 8.168 124.663 8.376 123.927 8.792C123.191 9.208 122.607 9.816 122.175 10.616C121.759 11.4 121.551 12.336 121.551 13.424C121.551 14.496 121.759 15.44 122.175 16.256C122.607 17.056 123.191 17.672 123.927 18.104C124.663 18.52 125.495 18.728 126.423 18.728C127.319 18.728 128.135 18.512 128.871 18.08C129.623 17.648 130.215 17.032 130.647 16.232C131.079 15.432 131.295 14.504 131.295 13.448Z" fill="white"/>
<path d="M45.74 39L42.425 27.661H44.941L47.287 36.892H46.862L49.565 27.661H51.435L54.189 37.028H53.696L56.059 27.661H58.575L55.26 39H52.965L50.262 30.296H50.738L48.035 39H45.74ZM62.7773 39.255C61.9273 39.255 61.185 39.085 60.5503 38.745C59.9157 38.3937 59.4227 37.8837 59.0713 37.215C58.72 36.5463 58.5443 35.7417 58.5443 34.801C58.5443 33.305 58.9013 32.166 59.6153 31.384C60.3407 30.5907 61.355 30.194 62.6583 30.194C63.599 30.194 64.3527 30.398 64.9193 30.806C65.4973 31.214 65.9167 31.7977 66.1773 32.557C66.4493 33.305 66.5797 34.2003 66.5683 35.243H59.9383L59.7683 33.781H64.8513L64.4433 34.393C64.4207 33.4977 64.262 32.8573 63.9673 32.472C63.684 32.0753 63.225 31.877 62.5903 31.877C62.205 31.877 61.865 31.9677 61.5703 32.149C61.287 32.319 61.066 32.608 60.9073 33.016C60.76 33.424 60.6863 33.985 60.6863 34.699C60.6863 35.583 60.896 36.263 61.3153 36.739C61.7347 37.2037 62.375 37.436 63.2363 37.436C63.5877 37.436 63.922 37.402 64.2393 37.334C64.568 37.2547 64.8683 37.164 65.1403 37.062C65.4237 36.96 65.6617 36.8637 65.8543 36.773V38.677C65.4577 38.847 65.0043 38.983 64.4943 39.085C63.9957 39.1983 63.4233 39.255 62.7773 39.255ZM71.9002 39.255C71.4242 39.255 70.9595 39.2267 70.5062 39.17C70.0642 39.1133 69.6619 39.0113 69.2992 38.864C68.9479 38.7053 68.6645 38.49 68.4492 38.218C68.2339 37.946 68.1262 37.5947 68.1262 37.164V27.134H70.2512V31.775L69.7752 31.095C69.9905 30.891 70.2569 30.7267 70.5742 30.602C70.8915 30.4773 71.2145 30.3867 71.5432 30.33C71.8832 30.262 72.1665 30.228 72.3932 30.228C73.6739 30.228 74.6372 30.6133 75.2832 31.384C75.9405 32.1433 76.2692 33.2313 76.2692 34.648C76.2692 35.5547 76.1502 36.3083 75.9122 36.909C75.6855 37.4983 75.3682 37.963 74.9602 38.303C74.5522 38.643 74.0875 38.8867 73.5662 39.034C73.0449 39.1813 72.4895 39.255 71.9002 39.255ZM71.8322 37.436C72.4215 37.436 72.8805 37.317 73.2092 37.079C73.5379 36.841 73.7702 36.5237 73.9062 36.127C74.0422 35.7303 74.1102 35.277 74.1102 34.767C74.1102 34.121 74.0252 33.594 73.8552 33.186C73.6852 32.778 73.4415 32.4777 73.1242 32.285C72.8069 32.081 72.4159 31.979 71.9512 31.979C71.6905 31.979 71.4015 32.013 71.0842 32.081C70.7782 32.149 70.5005 32.2567 70.2512 32.404V36.62C70.2512 36.8353 70.3249 37.0053 70.4722 37.13C70.6309 37.2433 70.8292 37.3227 71.0672 37.368C71.3165 37.4133 71.5715 37.436 71.8322 37.436ZM82.3564 39V27.661H86.6234C88.5047 27.661 89.8931 28.137 90.7884 29.089C91.6951 30.041 92.1484 31.452 92.1484 33.322C92.1484 35.192 91.6951 36.6087 90.7884 37.572C89.8931 38.524 88.5047 39 86.6234 39H82.3564ZM84.6684 37.147H86.3684C87.5131 37.147 88.3687 36.8467 88.9354 36.246C89.5021 35.634 89.7854 34.6593 89.7854 33.322C89.7854 31.996 89.5021 31.027 88.9354 30.415C88.3687 29.803 87.5131 29.497 86.3684 29.497H84.6684V37.147ZM97.5755 39.255C96.7255 39.255 95.9832 39.085 95.3485 38.745C94.7139 38.3937 94.2209 37.8837 93.8695 37.215C93.5182 36.5463 93.3425 35.7417 93.3425 34.801C93.3425 33.305 93.6995 32.166 94.4135 31.384C95.1389 30.5907 96.1532 30.194 97.4565 30.194C98.3972 30.194 99.1509 30.398 99.7175 30.806C100.296 31.214 100.715 31.7977 100.976 32.557C101.248 33.305 101.378 34.2003 101.367 35.243H94.7365L94.5665 33.781H99.6495L99.2415 34.393C99.2189 33.4977 99.0602 32.8573 98.7655 32.472C98.4822 32.0753 98.0232 31.877 97.3885 31.877C97.0032 31.877 96.6632 31.9677 96.3685 32.149C96.0852 32.319 95.8642 32.608 95.7055 33.016C95.5582 33.424 95.4845 33.985 95.4845 34.699C95.4845 35.583 95.6942 36.263 96.1135 36.739C96.5329 37.2037 97.1732 37.436 98.0345 37.436C98.3859 37.436 98.7202 37.402 99.0375 37.334C99.3662 37.2547 99.6665 37.164 99.9385 37.062C100.222 36.96 100.46 36.8637 100.653 36.773V38.677C100.256 38.847 99.8025 38.983 99.2925 39.085C98.7939 39.1983 98.2215 39.255 97.5755 39.255ZM105.44 39.255C104.828 39.255 104.307 39.187 103.876 39.051C103.446 38.9263 103.032 38.7733 102.635 38.592V36.654C102.896 36.824 103.168 36.9883 103.451 37.147C103.746 37.2943 104.058 37.4133 104.386 37.504C104.726 37.5947 105.089 37.64 105.474 37.64C105.928 37.64 106.262 37.555 106.477 37.385C106.704 37.2037 106.817 36.9883 106.817 36.739C106.817 36.501 106.732 36.3197 106.562 36.195C106.392 36.059 106.171 35.9457 105.899 35.855C105.627 35.7643 105.338 35.6737 105.032 35.583C104.749 35.515 104.46 35.4243 104.165 35.311C103.882 35.1977 103.621 35.0447 103.383 34.852C103.145 34.6593 102.953 34.4157 102.805 34.121C102.669 33.815 102.601 33.4467 102.601 33.016C102.601 32.506 102.703 32.0753 102.907 31.724C103.111 31.3727 103.378 31.0893 103.706 30.874C104.035 30.6587 104.398 30.5057 104.794 30.415C105.191 30.313 105.576 30.262 105.95 30.262C106.596 30.2847 107.118 30.364 107.514 30.5C107.911 30.6247 108.285 30.789 108.636 30.993L108.653 32.744C108.257 32.5287 107.871 32.336 107.497 32.166C107.123 31.9847 106.698 31.894 106.222 31.894C105.78 31.894 105.435 31.9733 105.185 32.132C104.947 32.2793 104.828 32.489 104.828 32.761C104.828 32.999 104.902 33.1917 105.049 33.339C105.197 33.4863 105.389 33.5997 105.627 33.679C105.865 33.7583 106.126 33.8377 106.409 33.917C106.693 33.9963 106.987 34.087 107.293 34.189C107.599 34.2797 107.883 34.4157 108.143 34.597C108.404 34.7783 108.614 35.022 108.772 35.328C108.942 35.6227 109.027 36.0193 109.027 36.518C109.016 37.1753 108.84 37.708 108.5 38.116C108.16 38.5127 107.713 38.8017 107.157 38.983C106.613 39.1643 106.041 39.255 105.44 39.255ZM110.687 39V30.517H112.846L112.863 39H110.687ZM110.636 29.157V27.389H112.897V29.157H110.636ZM118.294 39.255C117.489 39.2323 116.803 39.0567 116.237 38.728C115.67 38.3993 115.234 37.9233 114.928 37.3C114.633 36.6653 114.486 35.889 114.486 34.971C114.486 34.0077 114.605 33.22 114.843 32.608C115.081 31.9847 115.409 31.503 115.829 31.163C116.259 30.8117 116.758 30.568 117.325 30.432C117.903 30.296 118.515 30.228 119.161 30.228C119.829 30.228 120.419 30.313 120.929 30.483C121.45 30.653 121.858 30.9023 122.153 31.231C122.459 31.5597 122.612 31.979 122.612 32.489V39.187C122.612 39.7083 122.527 40.1787 122.357 40.598C122.187 41.0287 121.926 41.397 121.575 41.703C121.235 42.009 120.804 42.2413 120.283 42.4C119.761 42.57 119.138 42.655 118.413 42.655C117.744 42.655 117.16 42.604 116.662 42.502C116.163 42.4 115.766 42.2867 115.472 42.162V40.241C115.642 40.309 115.874 40.3883 116.169 40.479C116.475 40.581 116.815 40.666 117.189 40.734C117.563 40.802 117.937 40.836 118.311 40.836C118.911 40.836 119.365 40.7567 119.671 40.598C119.988 40.4393 120.203 40.2297 120.317 39.969C120.43 39.7083 120.487 39.425 120.487 39.119V37.776L120.98 38.15C120.787 38.3653 120.549 38.558 120.266 38.728C119.994 38.8867 119.688 39.0113 119.348 39.102C119.019 39.204 118.668 39.255 118.294 39.255ZM118.753 37.589C119.059 37.589 119.359 37.555 119.654 37.487C119.96 37.4077 120.237 37.2943 120.487 37.147V32.931C120.487 32.659 120.413 32.4607 120.266 32.336C120.13 32.2 119.943 32.1093 119.705 32.064C119.478 32.0073 119.229 31.979 118.957 31.979C118.356 31.979 117.886 32.1037 117.546 32.353C117.217 32.6023 116.985 32.948 116.849 33.39C116.713 33.832 116.645 34.325 116.645 34.869C116.645 35.6963 116.826 36.3593 117.189 36.858C117.551 37.3453 118.073 37.589 118.753 37.589ZM124.566 31.146C124.804 31.0327 125.087 30.9193 125.416 30.806C125.744 30.6927 126.101 30.5963 126.487 30.517C126.872 30.4263 127.257 30.3583 127.643 30.313C128.039 30.2563 128.413 30.228 128.765 30.228C129.558 30.228 130.215 30.3357 130.737 30.551C131.269 30.755 131.666 31.0837 131.927 31.537C132.199 31.979 132.335 32.5627 132.335 33.288V39H130.193V33.662C130.193 33.4467 130.164 33.2427 130.108 33.05C130.051 32.846 129.955 32.6703 129.819 32.523C129.683 32.3643 129.496 32.2453 129.258 32.166C129.02 32.0753 128.714 32.03 128.34 32.03C128.056 32.03 127.767 32.0583 127.473 32.115C127.178 32.1717 126.929 32.2453 126.725 32.336V39H124.566V31.146Z" fill="white"/>
<defs>
<linearGradient id="paint0_linear_663_976" x1="36" y1="0.5" x2="5.34574" y2="41.506" gradientUnits="userSpaceOnUse">
<stop stop-color="#74E2FD"/>
<stop offset="0.295" stop-color="#73D4FD"/>
<stop offset="0.78" stop-color="#6A73FF"/>
<stop offset="1" stop-color="#BC8BFF"/>
</linearGradient>
<clipPath id="clip0_663_976">
<rect width="40" height="40" fill="white" transform="translate(0 0.5)"/>
</clipPath>
</defs>
</svg>
