<svg width="173" height="40" viewBox="0 0 173 40" fill="none" xmlns="http://www.w3.org/2000/svg">
<path d="M29.2337 20.4663C29.167 20.4048 29.1133 20.3308 29.076 20.2484C29.0387 20.1661 29.0184 20.0772 29.0164 19.987C29.0184 19.8968 29.0387 19.8079 29.076 19.7256C29.1133 19.6432 29.167 19.5692 29.2337 19.5077L30.8836 17.9133C31.2355 17.5793 31.5157 17.1785 31.7075 16.7348C31.8993 16.2911 31.9988 15.8136 32 15.331C31.9977 14.8485 31.8977 14.3714 31.7059 13.9279C31.5142 13.4844 31.2346 13.0834 30.8836 12.7487L18.623 1.01087C17.9054 0.360633 16.9679 0 15.9951 0C15.0223 0 14.0847 0.360633 13.3671 1.01087L1.10651 12.7487C0.758672 13.0852 0.481764 13.4868 0.291823 13.93C0.101882 14.3733 0.00269082 14.8495 0 15.331C0.00159269 15.8127 0.10028 16.2892 0.290285 16.7326C0.480291 17.176 0.757787 17.5775 1.10651 17.9133L2.76629 19.5077C2.8317 19.5696 2.88378 19.644 2.91944 19.7264C2.95509 19.8087 2.97356 19.8974 2.97375 19.987C2.97356 20.0766 2.95509 20.1653 2.91944 20.2476C2.88378 20.33 2.8317 20.4044 2.76629 20.4663L1.10651 22.0509C0.758672 22.3874 0.481764 22.789 0.291823 23.2322C0.101882 23.6755 0.00269082 24.1517 0 24.6332C0.00159269 25.1149 0.10028 25.5914 0.290285 26.0348C0.480291 26.4783 0.757787 26.8797 1.10651 27.2155L13.3671 38.9533C14.0726 39.6268 15.015 40.0021 15.9951 40C16.9755 40.0042 17.9187 39.6286 18.623 38.9533L30.8836 27.2155C31.2349 26.879 31.5146 26.4763 31.7063 26.0312C31.898 25.586 31.9979 25.1074 32 24.6234C31.9977 24.141 31.8977 23.6639 31.7059 23.2203C31.5142 22.7768 31.2346 22.3758 30.8836 22.0411L29.2337 20.4663Z" fill="url(#paint0_linear_279_1191)"/>
<path fill-rule="evenodd" clip-rule="evenodd" d="M13.1748 27.5334C13.1748 27.5335 13.1748 27.5335 13.1748 27.5335C13.8744 28.7452 15.4238 29.1603 16.6354 28.4608C17.8471 27.7612 18.2623 26.2118 17.5627 25.0002C17.5627 25.0001 17.5627 25.0001 17.5627 25.0001L13.1748 27.5334Z" fill="#263238"/>
<mask id="mask0_279_1191" style="mask-type:alpha" maskUnits="userSpaceOnUse" x="13" y="25" width="5" height="4">
<path fill-rule="evenodd" clip-rule="evenodd" d="M13.1748 27.5334C13.1748 27.5335 13.1748 27.5335 13.1748 27.5335C13.8744 28.7452 15.4238 29.1603 16.6354 28.4608C17.8471 27.7612 18.2623 26.2118 17.5627 25.0002C17.5627 25.0001 17.5627 25.0001 17.5627 25.0001L13.1748 27.5334Z" fill="black"/>
</mask>
<g mask="url(#mask0_279_1191)">
<circle cx="16.0022" cy="29.3901" r="1.52" fill="#FF4389"/>
</g>
<path d="M11.875 11.406L10.4688 10.781H9.53125L8.125 11.8748L6.875 15.156V18.7498L7.8125 22.656L11 24.6248L13.5 22.8748L15 18.8748L14.5 16.6248L13.25 12.3748L11.875 11.406Z" fill="white"/>
<path fill-rule="evenodd" clip-rule="evenodd" d="M15.25 17.5C15.25 21.6421 13.2353 25 10.75 25C8.26472 25 6.25 21.6421 6.25 17.5C6.25 13.3579 8.26472 10 10.75 10C13.2353 10 15.25 13.3579 15.25 17.5ZM13.7227 20.0303C13.2176 22.2214 12.0766 23.7499 10.7501 23.7499C8.95513 23.7499 7.50006 20.9517 7.50006 17.4999C7.50006 14.0482 8.95513 11.2499 10.7501 11.2499C12.4096 11.2499 13.7786 13.642 13.9757 16.7309C13.61 16.2815 13.0843 15.9996 12.5 15.9996C11.3954 15.9996 10.5 17.007 10.5 18.2496C10.5 19.4922 11.3954 20.4996 12.5 20.4996C12.9605 20.4996 13.3846 20.3245 13.7227 20.0303Z" fill="#263238"/>
<path d="M22.3748 11.406L20.9686 10.781H20.0311L18.6248 11.8748L17.3748 15.156V18.7498L18.3123 22.656L21.4998 24.6248L23.9998 22.8748L25.4998 18.8748L24.9998 16.6248L23.7498 12.3748L22.3748 11.406Z" fill="white"/>
<path fill-rule="evenodd" clip-rule="evenodd" d="M25.7499 17.5C25.7499 21.6421 23.7352 25 21.2499 25C18.7647 25 16.7499 21.6421 16.7499 17.5C16.7499 13.3579 18.7647 10 21.2499 10C23.7352 10 25.7499 13.3579 25.7499 17.5ZM24.2226 20.0303C23.7176 22.2214 22.5766 23.7499 21.25 23.7499C19.4551 23.7499 18 20.9517 18 17.4999C18 14.0482 19.4551 11.2499 21.25 11.2499C22.9095 11.2499 24.2786 13.642 24.4757 16.7309C24.11 16.2815 23.5842 15.9996 22.9999 15.9996C21.8954 15.9996 20.9999 17.007 20.9999 18.2496C20.9999 19.4922 21.8954 20.4996 22.9999 20.4996C23.4604 20.4996 23.8846 20.3245 24.2226 20.0303Z" fill="#263238"/>
<path fill-rule="evenodd" clip-rule="evenodd" d="M79.4696 0.6096C79.0172 0.196627 78.4205 -0.0216232 77.8084 0.00207981C77.5066 -0.0107926 77.2052 0.0361848 76.9217 0.140313C76.6382 0.244442 76.378 0.403663 76.1563 0.60879C75.9346 0.813917 75.7557 1.06089 75.6298 1.33549C75.504 1.61009 75.4337 1.90689 75.4231 2.20876C75.4372 2.5069 75.5102 2.79929 75.638 3.06902C75.7658 3.33875 75.9458 3.58045 76.1676 3.78014C76.3895 3.97983 76.6487 4.13354 76.9303 4.23237C77.212 4.3312 77.5104 4.37319 77.8084 4.3559C78.4135 4.39095 79.0078 4.18459 79.4609 3.78207C79.9141 3.37955 80.1891 2.81376 80.2256 2.20876C80.1936 1.59706 79.922 1.02257 79.4696 0.6096ZM75.8169 6.68162V21.4233H79.8365V6.68162H75.8169ZM42.0001 21.4241V1.68763H52.9427C55.7219 1.68763 57.5945 2.47049 58.8948 3.86226C59.9705 5.0137 60.5456 6.54467 60.4941 8.1195C60.4426 9.69432 59.7687 11.1845 58.6201 12.2632C57.3839 13.4398 55.6303 14.1631 52.9427 14.1631H46.3222V21.4149L42.0001 21.4241ZM46.3222 5.35016V10.5189H53.0893C53.9147 10.5754 54.7292 10.304 55.3556 9.76352C55.8493 9.28077 56.1323 8.62261 56.1431 7.93225C56.1431 7.26708 55.8835 6.62816 55.4197 6.15134C55.1099 5.85973 54.7426 5.63618 54.3412 5.49504C53.9399 5.35391 53.5134 5.29831 53.0893 5.33184L46.3222 5.35016ZM67.5341 11.9377V21.4236H63.487V10.8435C63.4775 9.44463 63.3365 8.04978 63.0658 6.67734H66.7284C66.8666 7.40574 66.9675 8.14073 67.0305 8.87944C67.9462 7.36865 68.9946 6.19206 70.8991 6.19206C71.6964 6.17563 72.482 6.38514 73.1653 6.79638L72.0436 10.4818C71.4032 10.2473 70.7326 10.1055 70.0521 10.0606C69.0175 10.0652 68.3445 10.8801 67.5341 11.9377ZM95.5778 10.5781C93.9088 9.79036 92.101 9.3392 90.2576 9.25041C88.7467 9.25041 87.8126 9.73112 87.8126 10.6696C87.8126 11.9058 89.4426 11.9973 90.7108 12.0431C93.3709 12.1667 97.8121 12.4689 97.8121 16.7266C97.8121 20.2334 94.7628 21.9228 90.8024 21.9228C88.1434 21.909 85.544 21.1337 83.312 19.6886L84.7313 16.8181C86.1507 17.6971 88.536 18.8142 90.8619 18.8142C92.7391 18.8142 93.7967 18.1183 93.7967 17.0928C93.7967 15.7194 91.9654 15.55 90.6834 15.4584C87.4784 15.2799 83.8156 15.0647 83.8156 11.0771C83.8156 7.33217 87.1076 6.12354 90.0973 6.12354C92.4747 6.19255 94.8155 6.726 96.988 7.69384L95.5778 10.5781ZM101.31 0.277344V21.4239H105.33V11.5167C106.026 10.6103 107.23 9.61221 108.681 9.61221C110.133 9.61221 111.163 10.5462 111.163 11.6678V21.4239H115.21V11.5167C115.21 8.43105 112.944 6.19691 109.588 6.19691C107.807 6.19691 106.388 7.16289 105.33 8.22045V0.277344H101.31ZM118.031 6.68195H120.599V2.51123H124.619V6.68195H128.24V9.67149H124.619V17.317C124.619 18.2327 125.191 18.6126 126.216 18.6126C126.845 18.5913 127.471 18.5209 128.089 18.402L128.391 21.4236C127.819 21.8814 125.978 22.0005 125.186 22.0005C123.012 22.0005 120.608 20.9109 120.608 17.6192V9.67149H118.04L118.031 6.68195ZM135.524 0.6096C135.072 0.196627 134.475 -0.0216232 133.863 0.00207981C133.561 -0.0107926 133.26 0.0361848 132.976 0.140313C132.693 0.244442 132.433 0.403663 132.211 0.60879C131.989 0.813917 131.81 1.06089 131.685 1.33549C131.559 1.61009 131.488 1.90689 131.478 2.20876C131.492 2.5069 131.565 2.79929 131.693 3.06902C131.82 3.33875 132.001 3.58045 132.222 3.78014C132.444 3.97983 132.703 4.13354 132.985 4.23237C133.267 4.3312 133.565 4.37319 133.863 4.3559C134.468 4.39095 135.062 4.18459 135.516 3.78207C135.969 3.37955 136.244 2.81376 136.28 2.20876C136.248 1.59706 135.977 1.02257 135.524 0.6096ZM131.872 6.68162V21.4233H135.887V6.68162H131.872ZM149.091 6.19664C149.798 6.17804 150.501 6.30248 151.158 6.56248C151.815 6.82248 152.413 7.21268 152.916 7.70961C153.418 8.20654 153.815 8.79993 154.082 9.45414C154.35 10.1083 154.482 10.8098 154.471 11.5165V21.4236H150.424V11.6675C150.424 10.5459 149.426 9.61195 147.974 9.61195C146.523 9.61195 145.438 10.5779 144.591 11.5165V21.4236H140.571V10.8938C140.575 9.48366 140.434 8.0768 140.15 6.69566H143.812C143.952 7.33305 144.052 7.9782 144.114 8.62764C144.7 7.86566 145.454 7.24963 146.317 6.82786C147.181 6.40608 148.13 6.19004 149.091 6.19664ZM165.693 6.19678C163.318 6.22205 160.975 6.75758 158.825 7.76708L160.043 10.7429C161.702 9.92143 163.514 9.45372 165.363 9.36944C167.144 9.36944 168.472 10.0653 168.472 11.6036V13.0869C167.387 12.2399 165.817 11.8783 164.246 11.8783C160.135 11.8783 157.777 14.0254 157.777 16.7723C157.777 19.6428 160.043 21.7854 163.61 21.7854C164.535 21.8215 165.456 21.6568 166.311 21.3027C167.167 20.9487 167.935 20.4137 168.564 19.7344C168.647 20.3049 168.768 20.8693 168.925 21.4237H172.918C172.628 20.4948 172.484 19.5264 172.492 18.5532V10.6696C172.492 7.34589 169.076 6.19678 165.693 6.19678ZM168.49 15.7743V17.1935C167.414 18.2208 165.99 18.8044 164.503 18.8279C162.813 18.8279 161.815 18.0084 161.815 16.7723C161.815 15.6553 162.689 14.7167 165.079 14.7167C166.302 14.6796 167.503 15.0518 168.49 15.7743Z" fill="#263238"/>
<path fill-rule="evenodd" clip-rule="evenodd" d="M134.517 30.1652C133.258 29.1505 131.676 28.6213 130.06 28.6736C128.513 28.6736 126.93 29.226 126.93 30.7361C126.93 32.2441 128.913 32.3564 130.863 32.4667L130.871 32.4672L130.938 32.4719C133.042 32.6192 136.358 32.8513 136.358 36.0398C136.358 38.839 133.872 39.9623 130.981 39.9623C128.63 40.0036 126.357 39.1171 124.655 37.4947L125.631 36.3897C127.06 37.8098 128.994 38.6046 131.009 38.5996C133.053 38.5996 134.747 37.863 134.747 36.2424C134.747 34.4377 132.906 34.1614 130.861 34.0141L130.854 34.0136C128.259 33.848 125.337 33.6615 125.337 30.8834C125.337 28.1027 127.97 27.3108 130.125 27.3108C132.055 27.2901 133.938 27.9048 135.484 29.0603L134.517 30.1652ZM76.2831 27.6238V39.6492H83.4467C85.0489 39.6492 85.896 39.2256 86.5406 38.6179C86.8845 38.3018 87.1588 37.9174 87.3458 37.4894C87.5329 37.0613 87.6287 36.599 87.6271 36.1318C87.6585 35.4329 87.4406 34.7455 87.0123 34.1923C86.5839 33.6391 85.9729 33.2561 85.2883 33.1116C85.8001 32.9151 86.2391 32.5658 86.5455 32.1111C86.8519 31.6564 87.0109 31.1185 87.001 30.5703C87.0005 30.2159 86.9285 29.8652 86.7893 29.5393C86.65 29.2133 86.4464 28.9189 86.1907 28.6735C85.7979 28.3112 85.3362 28.0316 84.8332 27.8513C84.3302 27.671 83.7961 27.5936 83.2626 27.6238H76.2831ZM77.8852 32.7848V29.0602L83.0968 29.0464C83.4129 29.0242 83.7303 29.0648 84.0306 29.166C84.3308 29.2671 84.6081 29.4268 84.8463 29.6357C85.166 29.9668 85.3443 30.4093 85.3436 30.8695C85.3438 31.126 85.2935 31.3799 85.1955 31.6169C85.0976 31.8539 84.9539 32.0693 84.7727 32.2507C84.5778 32.4319 84.3488 32.5725 84.099 32.6642C83.8492 32.7559 83.5837 32.7969 83.3178 32.7848H77.8852ZM77.8852 38.2312V34.0877L83.7414 34.0693C84.0505 34.0687 84.3565 34.1303 84.6413 34.2505C84.926 34.3708 85.1837 34.5471 85.3988 34.7691C85.7596 35.1239 85.9649 35.6074 85.9697 36.1134C85.9687 36.3856 85.9127 36.6547 85.8051 36.9047C85.6975 37.1547 85.5405 37.3804 85.3436 37.5682C84.8407 38.0227 84.1791 38.2609 83.502 38.2312H77.8852ZM68.9895 34.0327H64.1278V38.2314H72.6266V39.6494H62.5256V27.624H72.1938V29.042H64.1278V32.6147H68.9895V34.0327ZM43.7403 27.6241L46.7238 37.237H46.8159L49.8916 27.6241H51.1071L54.1827 37.237H54.2932L57.2768 27.6241H58.9343L55.0667 39.6495H53.4276L50.5269 30.6258H50.4164L47.5066 39.6495H45.8674L41.9999 27.6241H43.7403ZM96.597 39.6494V27.624H101.937C104.184 27.624 105.436 28.2686 106.541 29.2998C107.629 30.5022 108.224 32.0703 108.207 33.6916C108.189 35.3128 107.562 36.868 106.449 38.0473C105.344 39.0417 104.203 39.631 101.956 39.631L96.597 39.6494ZM101.882 38.2314C103.613 38.2314 104.332 37.771 105.179 37.0712C106.064 36.1462 106.548 34.908 106.523 33.6275C106.552 32.3786 106.089 31.1684 105.234 30.2575C104.405 29.5024 103.595 29.042 101.882 29.042H98.1991V38.2498L101.882 38.2314ZM113.798 34.0327H118.669V32.6147H113.798V29.042H121.864V27.624H112.196V39.6494H122.288V38.2314H113.798V34.0327ZM140.153 27.624V39.6494H141.755V27.624H140.153ZM156.562 30.3315C155.374 29.3059 153.859 28.7378 152.289 28.7293C151.64 28.7181 150.994 28.8376 150.392 29.0805C149.789 29.3234 149.242 29.6849 148.781 30.1434C148.321 30.602 147.957 31.1483 147.712 31.7501C147.467 32.3518 147.345 32.9966 147.354 33.6463C147.354 36.2244 149.269 38.5448 152.418 38.5448C153.805 38.569 155.164 38.1567 156.304 37.3662V34.5118H152.418V33.0938H157.777V38.1581C156.207 39.3313 154.305 39.9761 152.345 39.9997C148.569 39.9997 145.678 37.1636 145.678 33.6647C145.678 30.1657 148.597 27.3113 152.28 27.3113C154.26 27.3351 156.169 28.0519 157.676 29.337L156.562 30.3315ZM172.999 39.6494V27.624H171.369V36.8318L163.727 27.624H162.272V39.6494H163.902V30.4416L171.544 39.6494H172.999Z" fill="#263238"/>
<defs>
<linearGradient id="paint0_linear_279_1191" x1="32" y1="2.33756e-07" x2="1.34574" y2="41.006" gradientUnits="userSpaceOnUse">
<stop stop-color="#74E2FD"/>
<stop offset="0.295" stop-color="#73D4FD"/>
<stop offset="0.78" stop-color="#6A73FF"/>
<stop offset="1" stop-color="#BC8BFF"/>
</linearGradient>
</defs>
</svg>
