<svg width="131" height="76" viewBox="0 0 131 76" fill="none" xmlns="http://www.w3.org/2000/svg">
<g clip-path="url(#clip0_1016_1005)">
<path d="M74.1727 1.1531C74.1923 1.33663 74.1565 1.52062 74.1207 1.70455C74.106 1.7805 74.0911 1.85694 74.0802 1.93283C74.0564 2.09824 74.051 2.26132 74.0456 2.42391L74.0446 2.45585C74.0335 2.89039 73.9943 3.32391 73.927 3.7543C73.8916 3.89033 73.889 4.03148 73.9194 4.16873C73.9236 4.18967 73.9333 4.20948 73.9477 4.22662C73.9621 4.24377 73.9809 4.25776 74.0025 4.26751C74.0277 4.27392 74.0542 4.27462 74.0797 4.26953C74.302 4.24544 74.5164 4.18319 74.7107 4.08634C74.905 3.98949 75.0754 3.85995 75.212 3.70514C75.3487 3.55033 75.4489 3.3733 75.507 3.18418C75.5651 2.99506 75.5799 2.79757 75.5506 2.60303C75.5372 2.51212 75.5126 2.4227 75.4772 2.33635C75.4428 2.25169 75.3962 2.17239 75.3494 2.0928C75.3096 2.02511 75.2696 1.95713 75.2368 1.88521C75.1646 1.71735 75.1108 1.54397 75.076 1.36738C75.0275 1.18372 74.9957 0.997048 74.9809 0.809137C74.9775 0.733441 74.9796 0.656849 74.9817 0.580318C74.9866 0.400614 74.9916 0.220761 74.925 0.0523512C74.8871 0.0202581 74.837 0.00162578 74.7844 0.000101485C74.7318 -0.00142284 74.6806 0.01427 74.6407 0.044109C74.5635 0.106342 74.5057 0.184877 74.473 0.272278C74.3159 0.548643 74.2144 0.846577 74.1727 1.1531Z" fill="#3B6AFC"/>
<path d="M74.1727 1.1531C74.1691 1.17952 74.1659 1.20601 74.1632 1.23256L74.1655 1.10104C74.1684 1.11839 74.1708 1.13574 74.1727 1.1531Z" fill="#3B6AFC"/>
<path d="M77.3953 1.53067C77.1908 2.26306 77.0611 3.01025 77.0078 3.76341L77.0052 3.82937C77.001 3.93936 76.9967 4.04935 76.9831 4.15633C76.9585 4.32717 76.9207 4.49631 76.8702 4.66261L76.7169 5.21475C76.7654 5.2429 76.8216 5.25925 76.8796 5.2621C76.9376 5.26495 76.9953 5.25419 77.0468 5.23095C77.1491 5.18344 77.2385 5.11734 77.3091 5.03706C77.6118 4.71328 77.8779 4.36453 78.1037 3.99566C78.1735 3.89844 78.2333 3.79598 78.2824 3.68947C78.3424 3.53517 78.3736 3.37332 78.375 3.21008C78.3764 2.71538 78.2764 2.22399 78.0796 1.75929C78.0675 1.72747 78.0552 1.68898 78.0418 1.64706C77.9875 1.47643 77.915 1.24852 77.7591 1.18361C77.5181 1.07831 77.4313 1.38452 77.3953 1.53067Z" fill="#3B6AFC"/>
<path d="M81.3303 2.38002C81.4735 2.24822 81.6487 2.11329 81.8567 2.12114C81.8929 2.12095 81.9288 2.12754 81.962 2.14048C81.9952 2.15342 82.0249 2.1724 82.0491 2.19616C82.0976 2.26652 82.1128 2.35052 82.0916 2.43024C81.964 3.42752 81.338 4.33457 80.5316 5.04488C80.3039 5.26 80.034 5.43773 79.7345 5.56977C79.5805 5.63132 79.4459 5.68304 79.4435 5.49255C79.4651 5.32711 79.512 5.16508 79.583 5.01081C79.7984 4.38639 80.1182 3.79371 80.5321 3.25195C80.7685 2.94141 81.0356 2.64966 81.3303 2.38002Z" fill="#3B6AFC"/>
<path d="M72.5679 5.46867C73.5306 5.95248 74.5351 6.36906 75.5721 6.71453C77.1451 7.26936 78.7404 7.77786 80.3344 8.28592C80.7219 8.41722 81.1172 8.52964 81.5187 8.62265C81.9813 8.72143 82.5179 8.75576 82.8831 8.49063C82.923 8.46715 82.9513 8.43147 82.9627 8.39055C82.9646 8.36687 82.9603 8.3431 82.9501 8.32105C82.8342 8.01668 82.4592 7.85778 82.1204 7.7372C79.8949 6.94885 77.5979 6.33316 75.3016 5.71764C74.6207 5.53512 73.9398 5.3526 73.2608 5.16562C73.2184 5.15384 73.1432 5.12716 73.0505 5.09426C72.7355 4.98243 72.2181 4.79878 72.0963 4.88466C71.8673 5.04245 72.4305 5.39391 72.5679 5.46867Z" fill="#3B6AFC"/>
<path d="M83.1196 5.28641L83.0771 5.33805C82.9633 5.47687 82.8486 5.61501 82.7338 5.75333L82.7324 5.75502C82.5519 5.97243 82.3709 6.19047 82.1924 6.41208C82.0846 6.54643 82.1203 6.56053 82.2114 6.59647C82.2428 6.60885 82.2808 6.62383 82.3217 6.64722C82.3674 6.67363 82.3414 6.74204 82.3164 6.80777C82.2873 6.88402 82.2596 6.95667 82.347 6.95597C82.4503 6.9457 82.5481 6.9104 82.6294 6.85405L83.4912 6.34989C83.9738 6.09144 84.4192 5.78335 84.8177 5.43215C85.1998 5.06688 85.4865 4.60292 85.5 4.10755C85.3796 4.07299 85.256 4.13892 85.1594 4.21351L85.1368 4.231C85.0471 4.30088 84.9532 4.37401 84.8362 4.37717C85.0104 4.17351 85.134 3.94008 85.1991 3.69179C85.0649 3.69276 84.9364 3.7386 84.8401 3.81993C84.3798 4.10155 83.9535 4.42336 83.5678 4.78044C83.4046 4.93958 83.2619 5.11316 83.1196 5.28641Z" fill="#3B6AFC"/>
<path d="M49.0844 28.3604L49.1686 28.4387L56.6195 34.2998C56.7501 34.3916 56.9106 34.4347 57.0714 34.4211C57.2321 34.4074 57.3824 34.338 57.4946 34.2256L62.3525 29.0084C62.8447 28.4969 63.515 28.1802 64.2341 28.1192C64.9531 28.0583 65.67 28.2574 66.2464 28.6783L71.9656 32.999C72.0958 33.0919 72.2565 33.1357 72.4176 33.122C72.5787 33.1083 72.7291 33.0382 72.8407 32.9248L79.1334 25.8987C79.1528 25.8673 79.1739 25.837 79.1968 25.8079L80.9343 23.872C81.2973 23.4695 81.5727 23.0001 81.7439 22.492C81.9151 21.9839 81.9785 21.4475 81.9304 20.915C81.8823 20.3825 81.7237 19.8649 81.4641 19.3933C81.2044 18.9217 80.8491 18.5058 80.4194 18.1705L65.2366 6.20525C64.3733 5.53215 63.2748 5.20854 62.1709 5.30211C61.067 5.39568 60.0432 5.89919 59.3137 6.70731L46.5115 21.0447C46.1486 21.4467 45.8733 21.9156 45.7021 22.4233C45.531 22.931 45.4675 23.467 45.5156 23.999C45.5636 24.5311 45.7222 25.0482 45.9817 25.5194C46.2412 25.9906 46.5964 26.4061 47.0259 26.7409L49.0844 28.3604Z" fill="#3B6AFC"/>
<path d="M80.3612 27.7756L74.4986 34.3167C74.018 34.841 73.3507 35.1701 72.6303 35.2381C71.9099 35.3061 71.1896 35.1079 70.6135 34.6834L64.8998 30.3623C64.7608 30.2709 64.5935 30.2287 64.4261 30.2429C64.2587 30.2571 64.1015 30.3267 63.981 30.4402L59.1286 35.6569C58.6373 36.1719 57.9635 36.4882 57.2418 36.5425C56.5202 36.5967 55.8041 36.3849 55.2367 35.9494L48.2909 30.494L47.4496 31.4303C47.0888 31.8333 46.8154 32.3024 46.6455 32.8099C46.4757 33.3173 46.4129 33.8526 46.4609 34.384C46.5089 34.9154 46.6667 35.4321 46.9249 35.9032C47.1831 36.3743 47.5365 36.7904 47.964 37.1265L63.1418 49.0975C64.0057 49.7686 65.1064 50.0854 66.2084 49.9802C67.3106 49.8977 68.3358 49.4007 69.0647 48.5955L81.8719 34.2523C82.2348 33.8503 82.5101 33.3814 82.6813 32.8737C82.8524 32.366 82.9159 31.83 82.8678 31.298C82.8198 30.7659 82.6612 30.2488 82.4017 29.7776C82.1421 29.3064 81.787 28.8909 81.3575 28.5561L80.3612 27.7756Z" fill="#3B6AFC"/>
</g>
<path d="M4.00653 71.1672L0 59.0973H2.68701L5.7339 69.412L4.99017 69.5563L7.9171 59.0973H10.0043L12.9073 69.2678H12.3075L15.3544 59.0973H17.9454L13.9149 71.1672H11.5398L8.68481 61.718L9.14065 61.9344L6.38166 71.1672H4.00653Z" fill="white"/>
<path d="M23.9738 71.5279C22.7902 71.5279 21.7586 71.2874 20.8789 70.8066C20.0152 70.3257 19.3435 69.6124 18.8636 68.6667C18.3998 67.7209 18.1679 66.5668 18.1679 65.2044C18.1679 63.1046 18.6557 61.5177 19.6314 60.4437C20.623 59.3537 21.9985 58.8087 23.7578 58.8087C25.0534 58.8087 26.101 59.0973 26.9007 59.6743C27.7004 60.2514 28.2762 61.0608 28.6281 62.1027C28.9959 63.1286 29.1719 64.3308 29.1559 65.7093H19.6793L19.6074 63.8339H27.2366L26.6368 64.435C26.5888 63.2007 26.3329 62.3031 25.8691 61.7421C25.4052 61.165 24.6775 60.8765 23.6859 60.8765C23.0461 60.8765 22.5023 61.0128 22.0545 61.2852C21.6066 61.5417 21.2628 61.9905 21.0229 62.6317C20.7989 63.2568 20.687 64.1224 20.687 65.2284C20.687 66.5749 20.9989 67.6007 21.6226 68.306C22.2464 68.9953 23.1661 69.3399 24.3816 69.3399C24.9254 69.3399 25.4292 69.2918 25.8931 69.1956C26.3729 69.0995 26.8127 68.9792 27.2126 68.835C27.6124 68.6747 27.9563 68.5224 28.2442 68.3781V70.7104C27.6844 70.9508 27.0526 71.1432 26.3489 71.2874C25.6452 71.4477 24.8534 71.5279 23.9738 71.5279Z" fill="white"/>
<path d="M36.1789 71.5279C35.5232 71.5279 34.8914 71.4878 34.2836 71.4076C33.6758 71.3275 33.132 71.1913 32.6522 70.9989C32.1724 70.7905 31.7885 70.51 31.5006 70.1574C31.2287 69.8047 31.0928 69.3479 31.0928 68.7869V54.2645H33.5879V60.7803L32.9401 59.9628C33.244 59.7224 33.6199 59.522 34.0677 59.3617C34.5315 59.2015 34.9953 59.0732 35.4592 58.977C35.939 58.8809 36.3469 58.8328 36.6827 58.8328C38.5061 58.8328 39.8736 59.3778 40.7852 60.4678C41.6969 61.5417 42.1527 63.0565 42.1527 65.012C42.1527 66.3264 41.9768 67.4084 41.6249 68.2579C41.289 69.1075 40.8332 69.7727 40.2574 70.2536C39.6976 70.7184 39.0579 71.047 38.3381 71.2393C37.6344 71.4317 36.9146 71.5279 36.1789 71.5279ZM36.059 69.3399C37.0026 69.3399 37.7303 69.1475 38.2422 68.7628C38.754 68.3781 39.1058 67.8732 39.2978 67.2481C39.4897 66.6069 39.5857 65.8936 39.5857 65.1082C39.5857 64.2106 39.4657 63.4572 39.2258 62.8481C38.9859 62.239 38.626 61.7741 38.1462 61.4536C37.6664 61.133 37.0506 60.9727 36.2989 60.9727C35.883 60.9727 35.4272 61.0288 34.9314 61.141C34.4515 61.2532 34.0037 61.4295 33.5879 61.6699V68.1617C33.5879 68.4823 33.7158 68.7308 33.9717 68.9071C34.2276 69.0834 34.5395 69.2036 34.9074 69.2678C35.2912 69.3158 35.6751 69.3399 36.059 69.3399Z" fill="white"/>
<path d="M49.6142 71.5038C49.3103 71.5038 48.9344 71.4638 48.4866 71.3836C48.0388 71.3195 47.5909 71.2153 47.1431 71.071C46.6952 70.9107 46.3034 70.7024 45.9675 70.4459L46.6153 69.6284V76H44.1202V61.4295C44.1202 60.9326 44.2721 60.5158 44.576 60.1792C44.8959 59.8426 45.3117 59.5781 45.8236 59.3858C46.3354 59.1774 46.8952 59.0332 47.5029 58.953C48.1267 58.8568 48.7425 58.8087 49.3503 58.8087C50.4219 58.8087 51.3975 59.0091 52.2772 59.4098C53.1569 59.8106 53.8606 60.4918 54.3884 61.4536C54.9162 62.3993 55.1801 63.6976 55.1801 65.3486C55.1801 66.5989 54.9642 67.6889 54.5324 68.6186C54.1005 69.5322 53.4688 70.2455 52.6371 70.7585C51.8054 71.2554 50.7977 71.5038 49.6142 71.5038ZM49.1583 69.388C49.9261 69.388 50.5658 69.2277 51.0776 68.9071C51.5894 68.5865 51.9733 68.1217 52.2292 67.5126C52.4851 66.9035 52.6131 66.1661 52.6131 65.3005C52.6131 64.4991 52.5171 63.7698 52.3252 63.1126C52.1492 62.4554 51.8214 61.9424 51.3415 61.5738C50.8617 61.1891 50.174 60.9967 49.2783 60.9967C48.4786 60.9967 47.8308 61.0849 47.335 61.2612C46.8552 61.4215 46.6153 61.6619 46.6153 61.9825V68.6907C47.0311 68.9151 47.455 69.0914 47.8868 69.2197C48.3186 69.3319 48.7425 69.388 49.1583 69.388Z" fill="white"/>
<path d="M57.1242 71.1672V60.2033C57.3321 60.075 57.716 59.8987 58.2757 59.6743C58.8355 59.4499 59.4993 59.2576 60.267 59.0973C61.0347 58.9209 61.8104 58.8328 62.5942 58.8328C62.994 58.8328 63.3219 58.8648 63.5778 58.929C63.8337 58.9931 64.0496 59.0652 64.2256 59.1454V61.165C63.8577 61.1169 63.4738 61.0849 63.074 61.0689C62.6741 61.0368 62.2743 61.0368 61.8744 61.0689C61.4746 61.0849 61.0827 61.1169 60.6989 61.165C60.315 61.2131 59.9631 61.2612 59.6432 61.3093V71.1672H57.1242Z" fill="white"/>
<path d="M65.8189 71.1672V59.1694H68.338L68.362 71.1672H65.8189ZM65.7469 57.1738V54.8896H68.434V57.1738H65.7469Z" fill="white"/>
<path d="M74.4981 71.5279C73.6344 71.5279 72.8987 71.4317 72.2909 71.2393C71.6991 71.063 71.1153 70.8386 70.5396 70.5661V68.1858C70.9554 68.4423 71.3633 68.6747 71.7631 68.8831C72.163 69.0754 72.5788 69.2277 73.0107 69.3399C73.4585 69.4521 73.9543 69.5082 74.4981 69.5082C75.1859 69.5082 75.7217 69.3639 76.1055 69.0754C76.5054 68.7869 76.7053 68.4262 76.7053 67.9934C76.7053 67.6248 76.5773 67.3362 76.3214 67.1279C76.0815 66.9195 75.7696 66.7432 75.3858 66.5989C75.0019 66.4546 74.6021 66.3104 74.1862 66.1661C73.7544 66.0539 73.3225 65.9257 72.8907 65.7814C72.4589 65.6211 72.059 65.4128 71.6911 65.1563C71.3393 64.8838 71.0514 64.5392 70.8274 64.1224C70.6195 63.7056 70.5156 63.1927 70.5156 62.5836C70.5156 61.9104 70.6515 61.3413 70.9234 60.8765C71.1953 60.3956 71.5472 60.0109 71.979 59.7224C72.4269 59.4179 72.9147 59.2015 73.4425 59.0732C73.9863 58.929 74.5141 58.8568 75.0259 58.8568C75.8736 58.8729 76.5613 58.977 77.0892 59.1694C77.633 59.3617 78.1608 59.5942 78.6726 59.8667L78.6966 62.0306C78.1208 61.726 77.577 61.4616 77.0652 61.2372C76.5534 61.0128 75.9616 60.9005 75.2898 60.9005C74.666 60.9005 74.1462 61.0208 73.7304 61.2612C73.3145 61.4856 73.1066 61.8222 73.1066 62.271C73.1066 62.6557 73.2186 62.9603 73.4425 63.1847C73.6824 63.4091 73.9863 63.5854 74.3542 63.7137C74.738 63.8419 75.1459 63.9701 75.5777 64.0984C75.9776 64.2266 76.3934 64.3628 76.8253 64.5071C77.2571 64.6353 77.6569 64.8277 78.0248 65.0842C78.3927 65.3406 78.6886 65.6772 78.9125 66.094C79.1524 66.5107 79.2724 67.0557 79.2724 67.729C79.2564 68.6266 79.0164 69.3559 78.5526 69.9169C78.1048 70.478 77.513 70.8867 76.7773 71.1432C76.0415 71.3996 75.2818 71.5279 74.4981 71.5279Z" fill="white"/>
<path d="M81.2587 71.1672V54H83.7778V60.9005L83.0341 60.2754C83.6579 59.8426 84.3456 59.498 85.0973 59.2415C85.8651 58.969 86.6088 58.8328 87.3285 58.8328C88.2722 58.8328 89.0799 59.0011 89.7516 59.3377C90.4234 59.6583 90.9432 60.1792 91.3111 60.9005C91.6949 61.6058 91.8869 62.5355 91.8869 63.6896V71.1672H89.3678V64.0022C89.3678 63.0244 89.1359 62.2791 88.672 61.7661C88.2082 61.2532 87.5205 60.9967 86.6088 60.9967C86.129 60.9967 85.6411 61.0689 85.1453 61.2131C84.6655 61.3574 84.2097 61.5497 83.7778 61.7902L83.7538 71.1672H81.2587Z" fill="white"/>
<path d="M98.768 71.4798C97.6804 71.4798 96.8167 71.1913 96.177 70.6142C95.5532 70.0372 95.2413 69.1876 95.2413 68.0656V61.1891H93.298V59.0973H95.2413V55.7311H97.8324V59.0973H100.759V61.1891H97.8324V67.5607C97.8324 68.1217 97.9283 68.5464 98.1203 68.835C98.3282 69.1075 98.704 69.2437 99.2478 69.2437C99.5197 69.2437 99.7916 69.2117 100.064 69.1475C100.335 69.0674 100.567 68.9712 100.759 68.859V71.0951C100.471 71.2233 100.144 71.3195 99.7756 71.3836C99.4238 71.4477 99.0879 71.4798 98.768 71.4798Z" fill="white"/>
<path d="M102.793 71.1672V59.1694H105.313L105.337 71.1672H102.793ZM102.721 57.1738V54.8896H105.409V57.1738H102.721Z" fill="white"/>
<path d="M107.994 60.0831C108.346 59.9067 108.738 59.7464 109.17 59.6022C109.617 59.4419 110.089 59.3056 110.585 59.1934C111.081 59.0812 111.585 58.9931 112.096 58.929C112.608 58.8648 113.104 58.8328 113.584 58.8328C114.719 58.8328 115.647 58.9931 116.367 59.3137C117.087 59.6182 117.622 60.0991 117.974 60.7563C118.326 61.3974 118.502 62.2069 118.502 63.1847V71.1672H115.983V63.5213C115.983 63.2168 115.943 62.9202 115.863 62.6317C115.799 62.3271 115.663 62.0546 115.455 61.8142C115.263 61.5577 114.975 61.3574 114.592 61.2131C114.224 61.0689 113.736 60.9967 113.128 60.9967C112.696 60.9967 112.248 61.0368 111.785 61.1169C111.337 61.1971 110.913 61.3093 110.513 61.4536V71.1672H107.994V60.0831Z" fill="white"/>
<path d="M125.458 71.5279C124.834 71.5279 124.234 71.4638 123.659 71.3355C123.083 71.2233 122.555 71.0229 122.075 70.7344C121.611 70.4459 121.236 70.0532 120.948 69.5563C120.676 69.0434 120.54 68.4102 120.54 67.6568C120.54 66.7592 120.716 66.0219 121.068 65.4448C121.42 64.8678 121.923 64.435 122.579 64.1464C123.235 63.8579 124.019 63.7137 124.93 63.7137C125.538 63.7137 126.082 63.7617 126.562 63.8579C127.057 63.9541 127.497 64.0903 127.881 64.2667C128.281 64.427 128.617 64.6113 128.889 64.8197L129.153 66.4787C128.801 66.2383 128.329 66.0379 127.737 65.8776C127.145 65.7013 126.506 65.6131 125.818 65.6131C124.906 65.6131 124.21 65.7734 123.731 66.094C123.267 66.4146 123.035 66.8954 123.035 67.5366C123.035 68.0175 123.171 68.4102 123.443 68.7148C123.715 69.0033 124.051 69.2197 124.45 69.3639C124.866 69.4922 125.298 69.5563 125.746 69.5563C126.69 69.5563 127.385 69.4922 127.833 69.3639C128.281 69.2357 128.505 68.9392 128.505 68.4743V63.4251C128.505 62.5756 128.249 61.9585 127.737 61.5738C127.225 61.173 126.498 60.9727 125.554 60.9727C124.882 60.9727 124.187 61.0849 123.467 61.3093C122.747 61.5177 122.155 61.8142 121.691 62.1989V59.8426C122.139 59.5381 122.787 59.2976 123.635 59.1213C124.498 58.929 125.386 58.8328 126.298 58.8328C126.746 58.8328 127.193 58.8809 127.641 58.977C128.105 59.0572 128.537 59.1934 128.937 59.3858C129.337 59.5621 129.688 59.8106 129.992 60.1311C130.312 60.4357 130.56 60.8124 130.736 61.2612C130.912 61.71 131 62.239 131 62.8481V68.6186C131 69.404 130.752 70.0131 130.256 70.4459C129.776 70.8627 129.121 71.1432 128.289 71.2874C127.457 71.4477 126.514 71.5279 125.458 71.5279Z" fill="white"/>
<defs>
<clipPath id="clip0_1016_1005">
<rect width="50" height="50" fill="white" transform="translate(40.5)"/>
</clipPath>
</defs>
</svg>
