<svg width="81" height="80" viewBox="0 0 81 80" fill="none" xmlns="http://www.w3.org/2000/svg">
<path d="M39.8705 10.646L39.8707 10.6464L39.8708 10.6466L39.8709 10.6467L40.3203 11.5704L40.7698 10.6467L40.7698 10.6466L40.7699 10.6464L40.7701 10.646L40.7721 10.6419L40.7817 10.6228C40.7905 10.6052 40.8043 10.5782 40.8231 10.5422C40.8607 10.4704 40.9182 10.3631 40.996 10.2254C41.1515 9.95007 41.3878 9.55359 41.7072 9.07636C42.3464 8.12116 43.3156 6.84679 44.633 5.57329C47.2666 3.02736 51.2735 0.5 56.8203 0.5C66.2479 0.5 72.8203 8.51697 72.8203 18.1379C72.8203 26.7084 67.3527 33.4599 58.0711 41.8862H22.5695C13.288 33.4599 7.82031 26.7084 7.82031 18.1379C7.82031 8.51697 14.3927 0.5 23.8203 0.5C29.3671 0.5 33.374 3.02736 36.0076 5.57329C37.325 6.84679 38.2942 8.12116 38.9335 9.07636C39.2528 9.55359 39.4891 9.95007 39.6446 10.2254C39.7224 10.3631 39.7799 10.4704 39.8175 10.5422C39.8363 10.5782 39.8501 10.6052 39.859 10.6228L39.8685 10.6419L39.8705 10.646Z" fill="#F5617A" stroke="#263238"/>
<g filter="url(#filter0_d_1102_1092)">
<path d="M29.252 15.6599H26.502C24.2238 15.6599 22.377 17.5125 22.377 19.7979V70.8324C22.3758 71.1764 22.4173 71.5193 22.5007 71.8531C22.6515 72.4712 22.9487 73.0437 23.367 73.522C24.1514 74.4403 25.2964 74.9693 26.502 74.9703H54.1395C56.4177 74.9703 58.2645 73.1177 58.2645 70.8324V19.7979C58.2691 18.8108 57.9174 17.8554 57.2745 17.1082C57.0012 16.7902 56.6813 16.5158 56.3257 16.2944C55.672 15.8787 54.9136 15.6586 54.1395 15.6599H29.252Z" fill="white"/>
<path d="M22.877 70.8341V70.8324V19.7979C22.877 17.7872 24.5014 16.1599 26.502 16.1599H29.252L54.1395 16.1599L54.1404 16.1599C54.819 16.1587 55.484 16.3517 56.0574 16.7163L56.0614 16.7188C56.3739 16.9134 56.6551 17.1546 56.8953 17.4341L56.8955 17.4343C57.4597 18.0901 57.7685 18.9288 57.7645 19.7955V19.7979V70.8324C57.7645 72.843 56.14 74.4703 54.1395 74.4703H26.5024C25.4433 74.4694 24.4369 74.0047 23.7472 73.1973L23.7472 73.1973L23.7434 73.1929C23.3779 72.775 23.1183 72.2748 22.9865 71.7346L22.9858 71.7319C22.9125 71.4383 22.8759 71.1368 22.877 70.8341Z" stroke="#263238"/>
</g>
<path d="M51.3895 15.6599L47.457 19.8668C46.6782 20.7042 45.5873 21.1789 44.4457 21.1772H36.1957C35.0541 21.1789 33.9632 20.7042 33.1845 19.8668L29.252 15.6599H51.3895Z" fill="#263238"/>
<path d="M55 19.1082C54.5028 19.1082 53.4657 19.1378 52 19.1082C50.5 20.0555 48.9339 22.8042 47 23.1082C45.2341 23.0971 35.1229 23.0979 33.5 23.1082C31.8771 23.1184 29.9973 19.8141 29.0029 19.1082C27.5313 19.1322 26.5169 19.1082 25.0247 19.1082C24.9688 21.0525 25.0253 51.9317 25.0253 54.0493C25.1342 54.7079 26.0191 55.1082 27.0138 55.1082C28.2465 55.1082 51.3767 55.1082 52.8686 55.1082C53.863 55.1082 54.8911 54.8175 55 54.1608C55 52.0431 55 21.0029 55 19.1082Z" fill="#EEEEEE"/>
<rect x="25" y="57.1082" width="30" height="6" rx="1.5" fill="#EEEEEE"/>
<rect x="25" y="65.1082" width="30" height="6" rx="1.5" fill="#EEEEEE"/>
<defs>
<filter id="filter0_d_1102_1092" x="22.377" y="15.6599" width="39.8877" height="64.3103" filterUnits="userSpaceOnUse" color-interpolation-filters="sRGB">
<feFlood flood-opacity="0" result="BackgroundImageFix"/>
<feColorMatrix in="SourceAlpha" type="matrix" values="0 0 0 0 0 0 0 0 0 0 0 0 0 0 0 0 0 0 127 0" result="hardAlpha"/>
<feOffset dx="4" dy="5"/>
<feComposite in2="hardAlpha" operator="out"/>
<feColorMatrix type="matrix" values="0 0 0 0 0.0705882 0 0 0 0 0.0784314 0 0 0 0 0.0862745 0 0 0 1 0"/>
<feBlend mode="normal" in2="BackgroundImageFix" result="effect1_dropShadow_1102_1092"/>
<feBlend mode="normal" in="SourceGraphic" in2="effect1_dropShadow_1102_1092" result="shape"/>
</filter>
</defs>
</svg>
