<svg width="40" height="40" viewBox="0 0 40 40" fill="none" xmlns="http://www.w3.org/2000/svg">
<g clip-path="url(#clip0_633_1181)">
<g filter="url(#filter0_d_633_1181)">
<rect x="1" y="1" width="35" height="35" rx="2" fill="white"/>
<rect x="1" y="1" width="35" height="35" rx="2" stroke="#263238" stroke-width="2"/>
</g>
<path d="M38.5197 20.5486C37.8616 20.2698 37.1861 20.0369 36.5106 19.8015C36.4705 19.7909 36.4337 19.7713 36.4031 19.7442C36.3724 19.7172 36.3489 19.6834 36.3345 19.6458C36.2571 19.4479 36.1709 19.2523 36.0848 19.0592C36.067 19.0254 36.0578 18.9879 36.0578 18.95C36.0578 18.912 36.067 18.8746 36.0848 18.8408C36.2221 18.5414 36.3582 18.2373 36.4881 17.9392C36.6812 17.5317 36.8415 17.1104 36.9676 16.6791C36.9963 16.6119 37.004 16.538 36.9898 16.4666C36.9756 16.3952 36.9401 16.3293 36.8877 16.2772C36.4207 15.8427 35.9587 15.4021 35.4954 14.9628C35.4447 14.9125 35.3811 14.8761 35.3112 14.8573C35.2412 14.8384 35.1674 14.8378 35.0971 14.8554C35.0192 14.8731 34.9425 14.8953 34.8673 14.9217C34.1843 15.1511 33.5262 15.4395 32.8694 15.7292C32.818 15.756 32.7607 15.7705 32.7022 15.7715C32.6438 15.7726 32.586 15.7601 32.5335 15.7352C32.3437 15.6508 32.1477 15.5795 31.9517 15.5083C31.9144 15.4963 31.8807 15.4759 31.8531 15.4488C31.8255 15.4218 31.805 15.3888 31.7931 15.3526C31.6844 15.0835 31.5696 14.8167 31.4534 14.55C31.2732 14.1112 31.0668 13.6828 30.8353 13.267C30.7909 13.181 30.721 13.1099 30.6344 13.0626C30.5479 13.0152 30.4487 12.994 30.3496 13.0015C29.7815 13.0123 29.2108 13.0196 28.6427 13.0015C28.3467 12.9918 28.1557 13.092 28.0421 13.3491C28.0046 13.4336 27.9559 13.5132 27.9172 13.5965C27.6782 14.0845 27.4698 14.5859 27.2928 15.098C27.1967 15.384 27.0219 15.5192 26.7497 15.6387C26.604 15.7097 26.4429 15.746 26.2797 15.7445C26.1166 15.743 25.9562 15.7038 25.8119 15.6302C25.1971 15.3532 24.5619 15.1209 23.9114 14.935C23.8192 14.9047 23.7197 14.9019 23.6257 14.9268C23.5318 14.9518 23.4478 15.0034 23.3845 15.075C22.9949 15.4552 22.6141 15.8475 22.1958 16.1963C21.9285 16.4184 21.9036 16.6417 22.0209 16.9205C22.0347 16.9519 22.0459 16.9832 22.0584 17.0146C22.2994 17.6386 22.5978 18.2373 22.8938 18.8383C22.9168 18.8775 22.9295 18.9215 22.9308 18.9666C22.9321 19.0116 22.922 19.0563 22.9013 19.0966C22.8089 19.2881 22.7235 19.4833 22.6453 19.682C22.6335 19.713 22.6146 19.741 22.5899 19.7638C22.5652 19.7866 22.5355 19.8036 22.5029 19.8136C22.1633 19.9343 21.8236 20.0682 21.4865 20.1998C21.0723 20.3537 20.6675 20.5302 20.274 20.7284C20.1859 20.7675 20.1123 20.8319 20.0636 20.913C20.0149 20.994 19.9933 21.0877 20.0018 21.1811C20.0168 21.6735 20.0018 22.1659 20.0018 22.6572C20.0018 23.2281 20.0093 23.2413 20.5525 23.4755C21.1856 23.7495 21.8386 23.9716 22.4904 24.1997C22.528 24.2102 22.5625 24.2291 22.5912 24.2549C22.6198 24.2807 22.6417 24.3126 22.6553 24.3481C22.7352 24.5461 22.8176 24.7416 22.905 24.9347C22.924 24.9701 22.934 25.0095 22.934 25.0494C22.934 25.0893 22.924 25.1286 22.905 25.164C22.7452 25.5128 22.5866 25.8617 22.4355 26.2129C22.2674 26.5726 22.1279 26.9442 22.0184 27.3245C21.9932 27.4002 21.9916 27.4815 22.0138 27.5581C22.036 27.6347 22.0811 27.7033 22.1433 27.7554C22.5791 28.1525 23.0099 28.5556 23.4282 28.9684C23.4985 29.0497 23.5938 29.1072 23.7002 29.1326C23.8067 29.158 23.9187 29.1499 24.0201 29.1096C24.5982 28.9237 25.1539 28.6835 25.7108 28.4494C25.9031 28.3685 26.0854 28.2249 26.2852 28.2201C26.485 28.2152 26.6735 28.3492 26.8683 28.4228C26.9282 28.4458 26.9932 28.4711 27.0494 28.4904C27.0854 28.5003 27.1184 28.5187 27.1452 28.544C27.172 28.5693 27.1919 28.6007 27.2029 28.6353C27.337 28.9627 27.4756 29.2878 27.6188 29.6105C27.7791 29.9951 27.9634 30.3699 28.1707 30.733C28.2105 30.8159 28.2763 30.8848 28.3587 30.9298C28.4411 30.9748 28.5361 30.9938 28.6302 30.984C28.9286 30.9671 29.2283 30.984 29.528 30.984C29.7776 30.969 30.0279 30.9711 30.2772 30.99C30.6868 31.0468 30.9015 30.8573 31.0339 30.5181C31.0339 30.5048 31.0464 30.4916 31.0526 30.4783C31.3173 29.9279 31.5433 29.3619 31.7544 28.7885C31.776 28.7017 31.8215 28.6222 31.8862 28.5585C31.9508 28.4947 32.0321 28.4491 32.1215 28.4265C32.2695 28.3845 32.4129 28.3287 32.5498 28.2599C32.6017 28.2325 32.6599 28.2182 32.719 28.2182C32.7781 28.2182 32.8363 28.2325 32.8882 28.2599C33.0617 28.3432 33.2453 28.4096 33.4251 28.4796C33.987 28.7157 34.5638 28.9172 35.152 29.083C35.2215 29.1033 35.2955 29.1044 35.3656 29.0863C35.4358 29.0682 35.4993 29.0315 35.5491 28.9804C35.9974 28.5544 36.4419 28.1247 36.9002 27.7095C36.9661 27.655 37.0133 27.5824 37.0356 27.5014C37.0579 27.4203 37.0542 27.3347 37.025 27.2557C37.0076 27.1905 36.9863 27.1253 36.9638 27.0626C36.7141 26.4036 36.3994 25.7772 36.0898 25.1459C36.0704 25.1102 36.0603 25.0704 36.0603 25.0301C36.0603 24.9897 36.0704 24.9499 36.0898 24.9142C36.1784 24.7259 36.2633 24.5352 36.3395 24.3421C36.3534 24.304 36.3761 24.2694 36.406 24.2412C36.4359 24.2129 36.4721 24.1917 36.5118 24.1792C36.9164 24.0283 37.3197 23.875 37.7205 23.7157C38.0844 23.5817 38.4368 23.4203 38.7744 23.2329C38.8449 23.1968 38.9029 23.1416 38.9413 23.0741C38.9797 23.0065 38.9968 22.9295 38.9904 22.8527C38.9805 22.3216 38.958 21.7894 38.9967 21.2607C39.0267 20.8733 38.8518 20.6898 38.5197 20.5486ZM29.4993 25.0808C27.8285 25.0808 26.2527 23.8207 26.2465 22.0018C26.2465 20.1612 27.856 18.889 29.5055 18.9204C31.145 18.8951 32.7521 20.1612 32.7521 22.0006C32.7496 23.8002 31.1862 25.0808 29.4993 25.0808Z" fill="#68A4EF" stroke="#263238" stroke-width="2"/>
<rect x="2" y="7" width="33" height="2" fill="#263238"/>
<circle cx="4.5" cy="4.5" r="1.5" fill="#F5617A"/>
<circle cx="8.5" cy="4.5" r="1.5" fill="#F5617A"/>
<circle cx="12.5" cy="4.5" r="1.5" fill="#F5617A"/>
<rect x="5" y="12" width="10" height="10" rx="1" fill="white" stroke="#263238" stroke-width="2"/>
<rect x="4" y="25" width="11" height="2" rx="1" fill="#263238"/>
<rect x="4" y="28" width="8" height="2" rx="1" fill="#263238"/>
</g>
<defs>
<filter id="filter0_d_633_1181" x="0" y="0" width="40" height="40" filterUnits="userSpaceOnUse" color-interpolation-filters="sRGB">
<feFlood flood-opacity="0" result="BackgroundImageFix"/>
<feColorMatrix in="SourceAlpha" type="matrix" values="0 0 0 0 0 0 0 0 0 0 0 0 0 0 0 0 0 0 127 0" result="hardAlpha"/>
<feOffset dx="3" dy="3"/>
<feComposite in2="hardAlpha" operator="out"/>
<feColorMatrix type="matrix" values="0 0 0 0 0.14902 0 0 0 0 0.196078 0 0 0 0 0.219608 0 0 0 1 0"/>
<feBlend mode="normal" in2="BackgroundImageFix" result="effect1_dropShadow_633_1181"/>
<feBlend mode="normal" in="SourceGraphic" in2="effect1_dropShadow_633_1181" result="shape"/>
</filter>
<clipPath id="clip0_633_1181">
<rect width="40" height="40" fill="white"/>
</clipPath>
</defs>
</svg>
