<svg width="48" height="48" viewBox="0 0 48 48" fill="none" xmlns="http://www.w3.org/2000/svg">
<g clip-path="url(#clip0_646_1198)">
<line x1="3" y1="4" x2="45" y2="4" stroke="#263238" stroke-width="2"/>
<circle cx="4" cy="4" r="3" fill="#68A4EF" stroke="#263238" stroke-width="2"/>
<circle cx="44" cy="4" r="3" fill="#68A4EF" stroke="#263238" stroke-width="2"/>
<path d="M24 4.00005C19.3333 3.33338 10 5.20005 10 18.0001" stroke="#263238" stroke-width="2" stroke-linecap="round"/>
<path d="M24 4.1159C28.6667 3.45476 38 5.30597 38 18" stroke="#263238" stroke-width="2" stroke-linecap="round"/>
<rect x="7" y="15" width="6" height="6" rx="1" fill="#E90C59" stroke="#263238" stroke-width="2"/>
<rect x="35" y="15" width="6" height="6" rx="1" fill="#E90C59" stroke="#263238" stroke-width="2"/>
<path d="M14 31L19 37H15V43H18V47H30V43H33V37H29.5L35 31L25 15.5H24L14 31Z" fill="white"/>
<rect x="18" y="41" width="12" height="6" fill="white" stroke="#263238" stroke-width="2"/>
<path d="M20 37.5L14 31C16.8333 27.3333 22.9 18.6 24.5 13" stroke="#263238" stroke-width="2" stroke-linecap="round"/>
<path d="M29 37.5L35 31C32.1667 27.3333 26.1 18.6 24.5 13" stroke="#263238" stroke-width="2" stroke-linecap="round"/>
<path d="M24.5 29.5V13.5" stroke="#263238" stroke-width="2" stroke-linecap="round"/>
<rect x="15" y="37" width="18" height="6" fill="white" stroke="#263238" stroke-width="2"/>
<circle cx="24.5" cy="30" r="3" fill="white" stroke="#263238" stroke-width="2"/>
<rect x="21" y="1" width="6" height="6" rx="1" fill="#E90C59" stroke="#263238" stroke-width="2"/>
</g>
<defs>
<clipPath id="clip0_646_1198">
<rect width="48" height="48" fill="white"/>
</clipPath>
</defs>
</svg>
