<svg width="80" height="80" viewBox="0 0 80 80" fill="none" xmlns="http://www.w3.org/2000/svg">
<g clip-path="url(#clip0_1102_1029)">
<g filter="url(#filter0_d_1102_1029)">
<rect width="72" height="70" rx="3" fill="white"/>
<rect x="0.5" y="0.5" width="71" height="69" rx="2.5" stroke="#263238"/>
</g>
<rect x="1" y="9" width="70" height="1" fill="#263238"/>
<path d="M4 6C4.55228 6 5 5.55228 5 5C5 4.44771 4.55228 4 4 4C3.44772 4 3 4.44771 3 5C3 5.55228 3.44772 6 4 6Z" fill="#263238"/>
<path d="M8 6C8.55228 6 9 5.55228 9 5C9 4.44771 8.55228 4 8 4C7.44772 4 7 4.44771 7 5C7 5.55228 7.44772 6 8 6Z" fill="#263238"/>
<path d="M12 6C12.5523 6 13 5.55228 13 5C13 4.44771 12.5523 4 12 4C11.4477 4 11 4.44771 11 5C11 5.55228 11.4477 6 12 6Z" fill="#263238"/>
<path d="M18.0833 4H67.9167C68.5149 4 69 4.44775 69 5C69 5.55225 68.5149 6 67.9167 6H18.0833C17.4851 6 17 5.55225 17 5C17 4.44775 17.4851 4 18.0833 4Z" fill="#EEEEEE"/>
<path d="M17.5055 22.5027V53.4453C17.5055 54.5514 16.6088 55.448 15.5027 55.448C14.3967 55.448 13.5 54.5514 13.5 53.4453V22.5027C13.5 21.3967 14.3967 20.5 15.5027 20.5C16.6088 20.5 17.5055 21.3967 17.5055 22.5027Z" fill="#68A4EF" stroke="#263238"/>
<path d="M25.8512 29.7557V53.4454C25.8512 54.5515 24.9545 55.4481 23.8484 55.4481C22.7424 55.4481 21.8457 54.5515 21.8457 53.4454V29.7557C21.8457 28.6496 22.7424 27.7529 23.8484 27.7529C24.9545 27.7529 25.8512 28.6496 25.8512 29.7557Z" fill="#F5617A" stroke="#263238"/>
<path d="M34.1969 41.1922V53.3785C34.1969 54.4846 33.3002 55.3813 32.1942 55.3813C31.0881 55.3813 30.1914 54.4846 30.1914 53.3785V41.1922C30.1914 40.0861 31.0881 39.1895 32.1942 39.1895C33.3002 39.1895 34.1969 40.0861 34.1969 41.1922Z" fill="#68A4EF" stroke="#263238"/>
<path d="M42.5416 36.5027V53.3784C42.5416 54.4845 41.645 55.3812 40.5389 55.3812C39.4328 55.3812 38.5361 54.4845 38.5361 53.3784V36.5027C38.5361 35.3967 39.4328 34.5 40.5389 34.5C41.645 34.5 42.5416 35.3967 42.5416 36.5027Z" fill="#F5617A" stroke="#263238"/>
<path d="M50.8873 44.3851V53.4452C50.8873 54.5512 49.9907 55.4479 48.8846 55.4479C47.7785 55.4479 46.8818 54.5512 46.8818 53.4452V44.3851C46.8818 43.279 47.7785 42.3823 48.8846 42.3823C49.9907 42.3823 50.8873 43.279 50.8873 44.3851Z" fill="#68A4EF" stroke="#263238"/>
<path d="M59.233 50.137V53.4454C59.233 54.5515 58.3364 55.4482 57.2303 55.4482C56.1242 55.4482 55.2275 54.5515 55.2275 53.4454V50.137C55.2275 49.0309 56.1242 48.1343 57.2303 48.1343C58.3364 48.1343 59.233 49.0309 59.233 50.137Z" fill="#F5617A" stroke="#263238"/>
<mask id="path-14-inside-1_1102_1029" fill="white">
<path fill-rule="evenodd" clip-rule="evenodd" d="M55.5372 64.5311C57.4884 63.7082 59.3172 62.5 60.9086 60.909C65.8966 55.923 67.1237 48.5986 64.5874 42.4614C63.7623 40.46 62.5354 38.5867 60.9086 36.9597C54.2955 30.3468 43.5742 30.3468 36.9612 36.9597C30.3463 43.5726 30.3463 54.296 36.9612 60.909C41.9831 65.9307 49.3746 67.1388 55.5372 64.5311ZM59.6895 48.9341C59.6895 54.8739 54.8743 59.689 48.9346 59.689C42.9948 59.689 38.1797 54.8739 38.1797 48.9341C38.1797 42.9943 42.9948 38.1792 48.9346 38.1792C54.8743 38.1792 59.6895 42.9943 59.6895 48.9341Z"/>
</mask>
<path fill-rule="evenodd" clip-rule="evenodd" d="M55.5372 64.5311C57.4884 63.7082 59.3172 62.5 60.9086 60.909C65.8966 55.923 67.1237 48.5986 64.5874 42.4614C63.7623 40.46 62.5354 38.5867 60.9086 36.9597C54.2955 30.3468 43.5742 30.3468 36.9612 36.9597C30.3463 43.5726 30.3463 54.296 36.9612 60.909C41.9831 65.9307 49.3746 67.1388 55.5372 64.5311ZM59.6895 48.9341C59.6895 54.8739 54.8743 59.689 48.9346 59.689C42.9948 59.689 38.1797 54.8739 38.1797 48.9341C38.1797 42.9943 42.9948 38.1792 48.9346 38.1792C54.8743 38.1792 59.6895 42.9943 59.6895 48.9341Z" fill="white"/>
<path d="M60.9086 60.909L60.2017 60.2017L60.2016 60.2018L60.9086 60.909ZM55.5372 64.5311L55.1486 63.6097L55.1475 63.6102L55.5372 64.5311ZM64.5874 42.4614L63.6629 42.8426L63.6633 42.8433L64.5874 42.4614ZM60.9086 36.9597L61.6158 36.2526L61.6157 36.2526L60.9086 36.9597ZM36.9612 36.9597L37.6682 37.6669L37.6683 37.6668L36.9612 36.9597ZM36.9612 60.909L37.6683 60.2018L37.6682 60.2017L36.9612 60.909ZM60.2016 60.2018C58.7027 61.7003 56.9825 62.8363 55.1486 63.6097L55.9258 65.4525C57.9944 64.5801 59.9317 63.2997 61.6157 61.6161L60.2016 60.2018ZM63.6633 42.8433C66.0505 48.62 64.8939 55.5114 60.2017 60.2017L61.6156 61.6162C66.8993 56.3346 68.1969 48.5772 65.5116 42.0795L63.6633 42.8433ZM60.2015 37.6668C61.7339 39.1993 62.8874 40.9615 63.6629 42.8426L65.512 42.0803C64.6372 39.9585 63.337 37.974 61.6158 36.2526L60.2015 37.6668ZM37.6683 37.6668C43.8907 31.4444 53.9789 31.4444 60.2015 37.6668L61.6157 36.2526C54.6121 29.2491 43.2576 29.2491 36.2541 36.2526L37.6683 37.6668ZM37.6682 60.2017C31.4439 53.9793 31.4439 43.8893 37.6682 37.6669L36.2542 36.2525C29.2486 43.256 29.2486 54.6127 36.2542 61.6162L37.6682 60.2017ZM55.1475 63.6102C49.3471 66.0646 42.3925 64.9258 37.6683 60.2018L36.2541 61.6161C41.5737 66.9355 49.4021 68.213 55.9269 65.4521L55.1475 63.6102ZM48.9346 60.689C55.4266 60.689 60.6895 55.4261 60.6895 48.9341H58.6895C58.6895 54.3216 54.3221 58.689 48.9346 58.689V60.689ZM37.1797 48.9341C37.1797 55.4261 42.4425 60.689 48.9346 60.689V58.689C43.5471 58.689 39.1797 54.3216 39.1797 48.9341H37.1797ZM48.9346 37.1792C42.4425 37.1792 37.1797 42.442 37.1797 48.9341H39.1797C39.1797 43.5466 43.5471 39.1792 48.9346 39.1792V37.1792ZM60.6895 48.9341C60.6895 42.442 55.4266 37.1792 48.9346 37.1792V39.1792C54.3221 39.1792 58.6895 43.5466 58.6895 48.9341H60.6895Z" fill="#263238" mask="url(#path-14-inside-1_1102_1029)"/>
<path d="M79.0311 77.5432L79.0305 77.5442C78.8645 77.8466 78.6513 78.1311 78.3928 78.3917C76.9147 79.8689 74.5188 79.8687 73.0412 78.391L66.1103 71.4581L66.1101 71.4579C64.6327 69.9821 64.6324 67.5859 66.1103 66.1079L66.1103 66.1079L66.1115 66.1067C66.3687 65.8477 66.6557 65.6363 66.9612 65.4689L66.9612 65.4689L66.9628 65.468C67.5267 65.1564 68.1569 65 68.7856 65C69.7555 65 70.7228 65.3682 71.4603 66.1075L71.4608 66.108L78.3938 73.0386C78.3939 73.0387 78.3939 73.0387 78.3939 73.0387C79.6122 74.2575 79.8251 76.1056 79.0311 77.5432Z" fill="#68A4EF" stroke="#263238"/>
<path d="M62.3291 59.3877L61.9414 59L61.591 59.4216C61.267 59.8114 60.922 60.1901 60.5564 60.5557C60.1912 60.9209 59.8131 61.2652 59.4236 61.5888L59.0019 61.9392L59.3896 62.3269L64.4991 67.4368L65.0198 67.9575L65.3117 67.2815C65.4955 66.8559 65.7613 66.4568 66.1102 66.1077L66.1114 66.1066C66.3686 65.8476 66.6557 65.6362 66.9611 65.4688L66.9626 65.468C67.0681 65.4097 67.1751 65.3571 67.2833 65.3105L67.9604 65.019L67.4391 64.4977L62.3291 59.3877Z" fill="white" stroke="#263238"/>
</g>
<defs>
<filter id="filter0_d_1102_1029" x="0" y="0" width="76" height="75" filterUnits="userSpaceOnUse" color-interpolation-filters="sRGB">
<feFlood flood-opacity="0" result="BackgroundImageFix"/>
<feColorMatrix in="SourceAlpha" type="matrix" values="0 0 0 0 0 0 0 0 0 0 0 0 0 0 0 0 0 0 127 0" result="hardAlpha"/>
<feOffset dx="4" dy="5"/>
<feComposite in2="hardAlpha" operator="out"/>
<feColorMatrix type="matrix" values="0 0 0 0 0.0705882 0 0 0 0 0.0784314 0 0 0 0 0.0862745 0 0 0 1 0"/>
<feBlend mode="normal" in2="BackgroundImageFix" result="effect1_dropShadow_1102_1029"/>
<feBlend mode="normal" in="SourceGraphic" in2="effect1_dropShadow_1102_1029" result="shape"/>
</filter>
<clipPath id="clip0_1102_1029">
<rect width="80" height="80" fill="white"/>
</clipPath>
</defs>
</svg>
