<svg width="781" height="1054" viewBox="0 0 781 1054" fill="none" xmlns="http://www.w3.org/2000/svg">
<path d="M810.594 31.1486C750.23 65.2034 707.654 122.48 656.059 168.459C591.887 225.424 513.781 264.923 429.43 283.067C360.269 297.83 288.008 298.048 221.364 321.27C91.3403 366.267 2.28771 499.812 0.0468667 635.595C-2.19397 771.377 76.1247 903.012 191.237 977.453C230.442 1002.82 273.361 1022.1 318.495 1034.62C403.149 1058.11 492.921 1057.08 580.396 1048.1C731.501 1032.57 889.909 947.928 985.158 828.599C1027.62 775.266 1063.5 717.145 1092.05 655.46C1139.23 554.031 1166.02 444.544 1170.95 333.058C1174.97 237.551 1170.95 131.676 1094.13 62.0653C1017.3 -7.54516 900.643 -19.6881 810.594 31.1486Z" fill="url(#paint0_linear_768_2585)"/>
<defs>
<linearGradient id="paint0_linear_768_2585" x1="1172" y1="1054" x2="0" y2="1054" gradientUnits="userSpaceOnUse">
<stop stop-color="#3B6AFC"/>
<stop offset="1" stop-color="#2A48FD"/>
</linearGradient>
</defs>
</svg>
