<svg width="20" height="20" viewBox="0 0 20 20" fill="none" xmlns="http://www.w3.org/2000/svg">
<path d="M13.125 15C15.8864 15 18.125 12.7614 18.125 10C18.125 7.23858 15.8864 5 13.125 5C10.3636 5 8.125 7.23858 8.125 10C8.125 12.7614 10.3636 15 13.125 15Z" stroke="#C4C4C4" stroke-width="2" stroke-miterlimit="10" stroke-linecap="round" stroke-linejoin="round"/>
<path d="M8.75 3.125V3.75" stroke="#C4C4C4" stroke-width="2" stroke-miterlimit="10" stroke-linecap="round" stroke-linejoin="round"/>
<path d="M3.00586 4.25635L4.33086 5.58135" stroke="#C4C4C4" stroke-width="2" stroke-miterlimit="10" stroke-linecap="round" stroke-linejoin="round"/>
<path d="M1.875 10H2.5" stroke="#C4C4C4" stroke-width="2" stroke-miterlimit="10" stroke-linecap="round" stroke-linejoin="round"/>
<path d="M3.00586 15.7437L4.33086 14.4187" stroke="#C4C4C4" stroke-width="2" stroke-miterlimit="10" stroke-linecap="round" stroke-linejoin="round"/>
<path d="M8.75 16.875V16.25" stroke="#C4C4C4" stroke-width="2" stroke-miterlimit="10" stroke-linecap="round" stroke-linejoin="round"/>
<path d="M10.2688 14.1062C9.79375 14.2812 9.28125 14.375 8.75 14.375C6.33125 14.375 4.375 12.4187 4.375 10C4.375 7.58125 6.33125 5.625 8.75 5.625C9.28125 5.625 9.79375 5.71875 10.2688 5.89375" stroke="#C4C4C4" stroke-width="2" stroke-miterlimit="10" stroke-linecap="round" stroke-linejoin="round"/>
</svg>
