<svg width="40" height="41" viewBox="0 0 40 41" fill="none" xmlns="http://www.w3.org/2000/svg">
<g clip-path="url(#clip0_45_361)">
<g filter="url(#filter0_d_45_361)">
<rect x="1" y="1.56348" width="35" height="35" rx="2" fill="white"/>
<rect x="1" y="1.56348" width="35" height="35" rx="2" stroke="#263238" stroke-width="2"/>
</g>
<path d="M38.5197 21.1121C37.8616 20.8333 37.1861 20.6003 36.5106 20.365C36.4705 20.3544 36.4337 20.3348 36.4031 20.3077C36.3724 20.2806 36.3489 20.2469 36.3345 20.2093C36.2571 20.0113 36.1709 19.8158 36.0848 19.6227C36.067 19.5888 36.0578 19.5514 36.0578 19.5135C36.0578 19.4755 36.067 19.4381 36.0848 19.4042C36.2221 19.1049 36.3582 18.8008 36.4881 18.5026C36.6812 18.0952 36.8415 17.6739 36.9676 17.2426C36.9963 17.1753 37.004 17.1015 36.9898 17.0301C36.9756 16.9587 36.9401 16.8928 36.8877 16.8406C36.4207 16.4061 35.9587 15.9656 35.4954 15.5263C35.4447 15.476 35.3811 15.4396 35.3112 15.4208C35.2412 15.4019 35.1674 15.4012 35.0971 15.4188C35.0192 15.4366 34.9425 15.4587 34.8673 15.4852C34.1843 15.7145 33.5262 16.003 32.8694 16.2927C32.818 16.3195 32.7607 16.334 32.7022 16.335C32.6438 16.3361 32.586 16.3236 32.5335 16.2987C32.3437 16.2142 32.1477 16.143 31.9517 16.0718C31.9144 16.0597 31.8807 16.0393 31.8531 16.0123C31.8255 15.9852 31.805 15.9523 31.7931 15.9161C31.6844 15.647 31.5696 15.3802 31.4534 15.1135C31.2732 14.6747 31.0668 14.2463 30.8353 13.8305C30.7909 13.7445 30.721 13.6733 30.6344 13.626C30.5479 13.5787 30.4487 13.5575 30.3496 13.5649C29.7815 13.5758 29.2108 13.5831 28.6427 13.5649C28.3467 13.5553 28.1557 13.6555 28.0421 13.9126C28.0046 13.997 27.9559 14.0767 27.9172 14.16C27.6782 14.648 27.4698 15.1494 27.2928 15.6614C27.1967 15.9475 27.0219 16.0827 26.7497 16.2022C26.604 16.2732 26.4429 16.3094 26.2797 16.308C26.1166 16.3065 25.9562 16.2673 25.8119 16.1937C25.1971 15.9167 24.5619 15.6843 23.9114 15.4985C23.8192 15.4682 23.7197 15.4654 23.6257 15.4903C23.5318 15.5153 23.4478 15.5669 23.3845 15.6385C22.9949 16.0187 22.6141 16.411 22.1958 16.7598C21.9285 16.9819 21.9036 17.2051 22.0209 17.484C22.0347 17.5153 22.0459 17.5467 22.0584 17.5781C22.2994 18.2021 22.5978 18.8007 22.8938 19.4018C22.9168 19.441 22.9295 19.485 22.9308 19.5301C22.9321 19.5751 22.922 19.6198 22.9013 19.6601C22.8089 19.8516 22.7235 20.0467 22.6453 20.2455C22.6335 20.2765 22.6146 20.3044 22.5899 20.3272C22.5652 20.35 22.5355 20.3671 22.5029 20.377C22.1633 20.4977 21.8236 20.6317 21.4865 20.7633C21.0723 20.9172 20.6675 21.0937 20.274 21.2919C20.1859 21.3309 20.1123 21.3954 20.0636 21.4765C20.0149 21.5575 19.9933 21.6512 20.0018 21.7445C20.0168 22.237 20.0018 22.7294 20.0018 23.2206C20.0018 23.7915 20.0093 23.8048 20.5525 24.039C21.1856 24.313 21.8386 24.535 22.4904 24.7631C22.528 24.7737 22.5625 24.7926 22.5912 24.8184C22.6198 24.8442 22.6417 24.8761 22.6553 24.9116C22.7352 25.1095 22.8176 25.3051 22.905 25.4982C22.924 25.5336 22.934 25.5729 22.934 25.6128C22.934 25.6528 22.924 25.6921 22.905 25.7275C22.7452 26.0763 22.5866 26.4251 22.4355 26.7764C22.2674 27.1361 22.1279 27.5077 22.0184 27.888C21.9932 27.9637 21.9916 28.045 22.0138 28.1216C22.036 28.1982 22.0811 28.2668 22.1433 28.3189C22.5791 28.716 23.0099 29.1191 23.4282 29.5319C23.4985 29.6131 23.5938 29.6707 23.7002 29.6961C23.8067 29.7214 23.9187 29.7134 24.0201 29.6731C24.5982 29.4872 25.1539 29.247 25.7108 29.0129C25.9031 28.932 26.0854 28.7884 26.2852 28.7835C26.485 28.7787 26.6735 28.9127 26.8683 28.9863C26.9282 29.0092 26.9932 29.0346 27.0494 29.0539C27.0854 29.0638 27.1184 29.0822 27.1452 29.1075C27.172 29.1328 27.1919 29.1641 27.2029 29.1987C27.337 29.5262 27.4756 29.8513 27.6188 30.174C27.7791 30.5586 27.9634 30.9334 28.1707 31.2964C28.2105 31.3794 28.2763 31.4483 28.3587 31.4933C28.4411 31.5383 28.5361 31.5573 28.6302 31.5475C28.9286 31.5306 29.2283 31.5475 29.528 31.5475C29.7776 31.5325 30.0279 31.5345 30.2772 31.5535C30.6868 31.6103 30.9015 31.4208 31.0339 31.0816C31.0339 31.0683 31.0464 31.055 31.0526 31.0418C31.3173 30.4914 31.5433 29.9253 31.7544 29.352C31.776 29.2652 31.8215 29.1857 31.8862 29.1219C31.9508 29.0582 32.0321 29.0126 32.1215 28.9899C32.2695 28.948 32.4129 28.8922 32.5498 28.8234C32.6017 28.796 32.6599 28.7817 32.719 28.7817C32.7781 28.7817 32.8363 28.796 32.8882 28.8234C33.0617 28.9067 33.2453 28.973 33.4251 29.043C33.987 29.2792 34.5638 29.4807 35.152 29.6465C35.2215 29.6668 35.2955 29.6679 35.3656 29.6497C35.4358 29.6316 35.4993 29.595 35.5491 29.5439C35.9974 29.1179 36.4419 28.6882 36.9002 28.273C36.9661 28.2185 37.0133 28.1459 37.0356 28.0649C37.0579 27.9838 37.0542 27.8981 37.025 27.8192C37.0076 27.754 36.9863 27.6888 36.9638 27.6261C36.7141 26.9671 36.3994 26.3407 36.0898 25.7094C36.0704 25.6737 36.0603 25.6339 36.0603 25.5935C36.0603 25.5532 36.0704 25.5134 36.0898 25.4777C36.1784 25.2894 36.2633 25.0987 36.3395 24.9056C36.3534 24.8674 36.3761 24.8329 36.406 24.8047C36.4359 24.7764 36.4721 24.7552 36.5118 24.7426C36.9164 24.5918 37.3197 24.4385 37.7205 24.2792C38.0844 24.1452 38.4368 23.9837 38.7744 23.7964C38.8449 23.7603 38.9029 23.7051 38.9413 23.6375C38.9797 23.57 38.9968 23.493 38.9904 23.4162C38.9805 22.8851 38.958 22.3528 38.9967 21.8242C39.0267 21.4368 38.8518 21.2533 38.5197 21.1121ZM29.4993 25.6442C27.8285 25.6442 26.2527 24.3842 26.2465 22.5653C26.2465 20.7247 27.856 19.4525 29.5055 19.4839C31.145 19.4585 32.7521 20.7246 32.7521 22.5641C32.7496 24.3636 31.1862 25.6442 29.4993 25.6442Z" fill="#0C8CE9" stroke="#263238" stroke-width="2"/>
<rect x="2" y="7.56348" width="33" height="2" fill="#263238"/>
<circle cx="4.5" cy="5.06348" r="1.5" fill="#E90C59"/>
<circle cx="8.5" cy="5.06348" r="1.5" fill="#E90C59"/>
<circle cx="12.5" cy="5.06348" r="1.5" fill="#E90C59"/>
<rect x="5" y="12.5635" width="10" height="10" rx="1" fill="white" stroke="#263238" stroke-width="2"/>
<rect x="4" y="25.5635" width="11" height="2" rx="1" fill="#263238"/>
<rect x="4" y="28.5635" width="8" height="2" rx="1" fill="#263238"/>
</g>
<defs>
<filter id="filter0_d_45_361" x="0" y="0.563477" width="40" height="40" filterUnits="userSpaceOnUse" color-interpolation-filters="sRGB">
<feFlood flood-opacity="0" result="BackgroundImageFix"/>
<feColorMatrix in="SourceAlpha" type="matrix" values="0 0 0 0 0 0 0 0 0 0 0 0 0 0 0 0 0 0 127 0" result="hardAlpha"/>
<feOffset dx="3" dy="3"/>
<feComposite in2="hardAlpha" operator="out"/>
<feColorMatrix type="matrix" values="0 0 0 0 0.14902 0 0 0 0 0.196078 0 0 0 0 0.219608 0 0 0 1 0"/>
<feBlend mode="normal" in2="BackgroundImageFix" result="effect1_dropShadow_45_361"/>
<feBlend mode="normal" in="SourceGraphic" in2="effect1_dropShadow_45_361" result="shape"/>
</filter>
<clipPath id="clip0_45_361">
<rect width="40" height="40" fill="white" transform="translate(0 0.563477)"/>
</clipPath>
</defs>
</svg>
