<svg width="501" height="501" viewBox="0 0 501 501" fill="none" xmlns="http://www.w3.org/2000/svg">
<path opacity="0.1" d="M416.72 88.587C456.888 123.657 486.832 168.955 497.056 219.367C507.281 269.779 497.056 324.575 472.955 374.257C448.124 424.67 409.416 469.968 359.754 488.964C310.091 507.96 250.204 501.384 201.271 477.274C152.339 453.894 114.362 412.98 90.2608 366.951C66.1598 320.922 55.2048 268.318 49.3622 203.293C44.2498 137.538 44.2498 58.6318 82.9575 23.5623C121.665 -10.7766 199.08 -2.00919 262.619 14.7949C326.889 30.8685 376.551 54.2481 416.72 88.587Z" fill="#0C8CE9"/>
<g filter="url(#filter0_d_96_392)">
<path d="M413 92.3194V297.681C413 304.394 410.333 310.832 405.585 315.58C400.837 320.328 394.397 322.997 387.681 323H26.3193C19.6031 322.997 13.1631 320.328 8.41515 315.58C3.66719 310.832 0.999999 304.394 1 297.681V92.3194C1 91.715 1 91.1789 1.07987 90.5402C1.52469 84.1519 4.37687 78.17 9.06102 73.8012C13.7452 69.4324 19.9127 67.0019 26.3193 67H387.681C394.095 67.0027 400.268 69.4395 404.954 73.8178C409.639 78.1962 412.486 84.1894 412.92 90.5859C412.977 91.1333 413 91.7264 413 92.3194Z" fill="white"/>
<path d="M413 92.3194V297.681C413 304.394 410.333 310.832 405.585 315.58C400.837 320.328 394.397 322.997 387.681 323H26.3193C19.6031 322.997 13.1631 320.328 8.41515 315.58C3.66719 310.832 0.999999 304.394 1 297.681V92.3194C1 91.715 1 91.1789 1.07987 90.5402C1.52469 84.1519 4.37687 78.17 9.06102 73.8012C13.7452 69.4324 19.9127 67.0019 26.3193 67H387.681C394.095 67.0027 400.268 69.4395 404.954 73.8178C409.639 78.1962 412.486 84.1894 412.92 90.5859C412.977 91.1333 413 91.7264 413 92.3194Z" stroke="#263238" stroke-width="1.1" stroke-linecap="round" stroke-linejoin="round"/>
</g>
<path d="M1 91C1 77.7452 11.7452 67 25 67H293V91H1V91Z" fill="#0C8CE9" stroke="#263238"/>
<path d="M50.9505 78.9716C50.9505 79.856 50.6881 80.7206 50.1963 81.4559C49.7046 82.1913 49.0056 82.7644 48.1879 83.1029C47.3701 83.4413 46.4703 83.5299 45.6022 83.3573C44.7341 83.1848 43.9367 82.7589 43.3108 82.1335C42.6849 81.5082 42.2587 80.7114 42.086 79.844C41.9133 78.9766 42.0019 78.0775 42.3407 77.2604C42.6794 76.4433 43.253 75.745 43.9889 75.2536C44.7249 74.7623 45.5901 74.5 46.4753 74.5C47.6622 74.5 48.8005 74.9711 49.6398 75.8097C50.479 76.6483 50.9505 77.7857 50.9505 78.9716Z" fill="#263238"/>
<path d="M69.8766 78.9716C69.8766 79.856 69.6141 80.7206 69.1223 81.4559C68.6306 82.1913 67.9316 82.7644 67.1139 83.1029C66.2962 83.4413 65.3963 83.5299 64.5282 83.3573C63.6601 83.1848 62.8627 82.7589 62.2368 82.1335C61.6109 81.5082 61.1847 80.7114 61.012 79.844C60.8393 78.9766 60.928 78.0775 61.2667 77.2604C61.6054 76.4433 62.179 75.745 62.915 75.2536C63.6509 74.7623 64.5162 74.5 65.4013 74.5C66.5882 74.5 67.7265 74.9711 68.5658 75.8097C69.4051 76.6483 69.8766 77.7857 69.8766 78.9716Z" fill="#263238"/>
<path d="M84.3273 83.4432C86.7989 83.4432 88.8026 81.4412 88.8026 78.9716C88.8026 76.502 86.7989 74.5 84.3273 74.5C81.8557 74.5 79.8521 76.502 79.8521 78.9716C79.8521 81.4412 81.8557 83.4432 84.3273 83.4432Z" fill="#263238"/>
<rect x="51" y="107" width="174" height="190" fill="white" stroke="#263238" stroke-linecap="round" stroke-dasharray="4 4"/>
<rect x="45" y="101" width="12" height="12" rx="3" fill="white" stroke="#263238"/>
<rect x="219" y="101" width="12" height="12" rx="3" fill="white" stroke="#263238"/>
<rect x="45" y="291" width="12" height="12" rx="3" fill="white" stroke="#263238"/>
<rect x="219" y="291" width="12" height="12" rx="3" fill="white" stroke="#263238"/>
<path d="M293 67H388C401.807 67 413 78.1929 413 92V298C413 311.807 401.807 323 388 323H293V67Z" fill="white" stroke="#263238"/>
<rect x="303" y="101" width="50" height="10" rx="5" fill="#E1E7E9"/>
<rect x="303" y="127" width="87" height="4" rx="2" fill="#E1E7E9"/>
<rect x="303" y="269" width="48" height="6" rx="3" fill="#E1E7E9"/>
<rect x="303" y="285" width="48" height="6" rx="3" fill="#E1E7E9"/>
<rect x="303" y="133" width="32" height="4" rx="2" fill="#E1E7E9"/>
<circle cx="311" cy="149" r="8" fill="#E1E7E9"/>
<circle cx="332" cy="149" r="8" fill="#E1E7E9"/>
<circle cx="353" cy="149" r="8" fill="#E1E7E9"/>
<circle cx="374" cy="149" r="8" fill="#E1E7E9"/>
<circle cx="395" cy="149" r="8" fill="#E1E7E9"/>
<circle cx="311" cy="241" r="8" fill="#E90C59"/>
<circle cx="332" cy="241" r="8" fill="white" stroke="#E1E7E9" stroke-linecap="round" stroke-dasharray="4 4"/>
<circle cx="353" cy="241" r="8" fill="white" stroke="#E1E7E9" stroke-linecap="round" stroke-dasharray="4 4"/>
<circle cx="374" cy="241" r="8" fill="white" stroke="#E1E7E9" stroke-linecap="round" stroke-dasharray="4 4"/>
<circle cx="395" cy="241" r="8" fill="white" stroke="#E1E7E9" stroke-linecap="round" stroke-dasharray="4 4"/>
<rect x="303" y="167" width="100" height="56" rx="3" fill="white" stroke="#1E1E1E" stroke-linecap="round" stroke-dasharray="4 4"/>
<path d="M197 138H79C76.2386 138 74 140.239 74 143V261C74 263.761 76.2386 266 79 266H197C199.761 266 202 263.761 202 261V143C202 140.239 199.761 138 197 138Z" fill="#E1E7E9"/>
<path d="M172.316 181.136L142.46 212.336L119.205 205.827C118.062 205.51 116.862 205.454 115.694 205.664C114.526 205.874 113.421 206.344 112.459 207.039L74 234.892V266H202V200.188L183.686 181.136C182.949 180.373 182.065 179.766 181.089 179.352C180.112 178.937 179.062 178.724 178.001 178.724C176.94 178.724 175.89 178.937 174.913 179.352C173.936 179.766 173.053 180.373 172.316 181.136Z" fill="white"/>
<path d="M136.372 178.559C139.76 170.306 135.817 160.869 127.564 157.481C119.311 154.093 109.874 158.037 106.486 166.289C103.098 174.542 107.042 183.979 115.295 187.367C123.547 190.755 132.984 186.811 136.372 178.559Z" fill="white"/>
<path d="M197 138H79C76.2386 138 74 140.239 74 143V261C74 263.761 76.2386 266 79 266H197C199.761 266 202 263.761 202 261V143C202 140.239 199.761 138 197 138Z" stroke="#263238" stroke-linecap="round" stroke-linejoin="round"/>
<path d="M53.0201 221.85C53.0201 221.85 59.1101 217.12 59.5901 215.33C60.0701 213.54 59.7801 202.48 59.7801 202.48C59.7801 202.48 60.3001 200.85 58.4701 201C56.6401 201.15 56.5201 202.66 56.3401 203.32C56.1601 203.98 55.1401 211.15 55.1401 211.15L53.2301 207.66L52.2301 195.5C52.2301 195.5 50.2301 195.89 49.7801 196.57C49.3301 197.25 45.6401 205.28 45.0401 206.41C44.4401 207.54 43.8501 220.03 43.8501 220.03L44.3101 228.37L50.2301 230.95L53.0201 221.85Z" fill="white" stroke="#263238" stroke-linecap="round" stroke-linejoin="round"/>
<path d="M52.5801 227.47L43.3501 223.19C43.3501 223.19 26.6801 253.5 25.4201 258.04C24.1601 262.58 23.4201 270.92 24.1501 274.71C24.8801 278.5 28.1501 282.29 28.9501 283.05C29.7501 283.81 45.5801 279.26 45.5801 279.26L46.5801 254.26L52.5801 227.47Z" fill="#0C8CE9" stroke="#263238" stroke-miterlimit="10"/>
<path d="M89.2201 219.3C89.2201 219.3 91.4101 223.02 91.6601 224.99C91.9101 226.96 92.4001 231.17 92.4001 231.17C92.4001 231.17 94.1301 235.86 93.8801 237.34C93.6301 238.82 91.1701 240.34 91.1701 240.34C91.1701 240.34 89.4401 247.99 88.4501 250.22C87.4601 252.45 77.8301 249.48 77.8301 249.48L75.3601 255.4L57.3601 250.71L59.8301 239.6L55.8801 220.33C55.8801 220.33 60.5701 212.43 63.7801 211.44C66.9901 210.45 85.5801 210.65 89.2201 219.3Z" fill="white" stroke="#263238" stroke-miterlimit="10"/>
<path d="M89.9701 229.56C89.9701 230.62 89.7301 231.49 89.4401 231.49C89.1501 231.49 88.9001 230.62 88.9001 229.56C88.9001 228.5 89.1401 227.63 89.4401 227.63C89.7401 227.63 89.9701 228.5 89.9701 229.56Z" fill="#263238"/>
<path d="M88.3901 225.93C88.3901 225.93 89.0101 223.46 91.0101 225" stroke="#263238" stroke-miterlimit="10"/>
<path d="M89.4203 241.1C89.4203 241.1 86.4903 242.02 85.2603 238.63" stroke="#263238" stroke-miterlimit="10"/>
<path d="M89.2202 219.3C89.2202 219.3 82.5702 218.97 82.8102 219.68C83.0502 220.39 85.4602 222.36 84.7402 224.25C84.0202 226.14 81.2902 228.7 81.2902 228.7C81.2902 228.7 79.2902 234.13 78.5402 234.84C77.7902 235.55 77.0302 231.84 75.8502 230.16C74.6702 228.48 72.1502 228.45 69.9302 231.42C68.5302 233.28 69.0702 241.24 68.3602 241.95C67.6502 242.66 60.9002 242.36 60.9002 242.36C60.9002 242.36 56.2002 235.66 52.4502 229.45C48.7002 223.24 56.8502 210.45 58.8802 208.79C62.4302 205.94 69.5402 205.71 71.4402 205.71C73.3402 205.71 71.4402 203.57 74.2802 203.57C76.3747 203.733 78.402 204.384 80.2002 205.47C80.2002 205.47 77.8302 201.92 81.8602 203.57C85.8902 205.22 95.1602 214.19 89.2202 219.3Z" fill="#263238" stroke="#263238" stroke-miterlimit="10"/>
<path d="M70.6702 235.86C70.6702 235.86 71.1602 238.86 73.1402 240.06C75.1202 241.26 76.3502 240.31 76.3502 240.31C76.3502 240.31 76.1002 244.01 76.8402 245" stroke="#263238" stroke-miterlimit="10"/>
<path d="M71.5202 485.94C71.2093 485.994 70.9229 486.143 70.7007 486.367C70.4786 486.591 70.3316 486.879 70.2802 487.19C69.9302 489.41 69.1902 494.38 69.6302 495.03C70.1802 495.86 88.2802 498.93 92.7302 498.93C97.1802 498.93 105.54 500.04 106.37 498.37C107.2 496.7 107.76 496.14 106.65 495.59C105.54 495.04 96.0702 490.85 94.1202 489.18C92.3397 487.468 90.6697 485.644 89.1202 483.72C88.9532 483.518 88.7358 483.363 88.49 483.272C88.2442 483.181 87.9786 483.156 87.7202 483.2L71.5202 485.94Z" fill="white" stroke="#263238" stroke-miterlimit="10"/>
<path d="M106.37 498.4L106.59 497.98C103.95 497.87 99.9902 497.72 95.5202 497.57C89.6902 497.36 77.6402 494.57 71.3802 493.01C71.1458 492.954 70.9014 492.954 70.6671 493.01C70.4328 493.067 70.2153 493.179 70.0327 493.336C69.85 493.493 69.7073 493.692 69.6165 493.915C69.5256 494.138 69.4892 494.38 69.5102 494.62C69.5181 494.774 69.559 494.924 69.6302 495.06C70.1802 495.89 88.2802 498.96 92.7302 498.96C97.1802 498.96 105.58 500.04 106.37 498.4Z" fill="white" stroke="#263238" stroke-miterlimit="10"/>
<path d="M16.5801 483.95C16.8593 484.091 17.0919 484.31 17.2501 484.58C18.3456 486.655 19.5714 488.659 20.9201 490.58C21.7501 491.41 24.2601 492.8 24.2601 493.92V494.92C24.2601 495.32 24.1011 495.705 23.8179 495.988C23.5347 496.271 23.1506 496.43 22.7501 496.43H3.01014C2.80271 496.432 2.59713 496.391 2.4064 496.309C2.21566 496.228 2.04391 496.108 1.902 495.956C1.76009 495.805 1.65111 495.626 1.58194 495.43C1.51277 495.235 1.48492 495.027 1.50014 494.82C1.78726 491.519 2.31872 488.243 3.09014 485.02C4.58014 478.59 14.3601 482.89 16.5801 483.95Z" fill="white" stroke="#263238" stroke-miterlimit="10"/>
<path d="M24.2502 493.92C24.2397 493.721 24.1777 493.528 24.0702 493.36H3.01017C2.63136 493.361 2.26689 493.505 1.98904 493.762C1.71119 494.02 1.54027 494.372 1.51017 494.75C1.49071 494.959 1.51501 495.169 1.5815 495.368C1.64799 495.567 1.75522 495.75 1.89635 495.906C2.03748 496.061 2.20942 496.185 2.40119 496.27C2.59296 496.355 2.80036 496.399 3.01017 496.4H22.7402C22.9385 496.4 23.1348 496.361 23.318 496.285C23.5012 496.209 23.6677 496.098 23.8079 495.958C23.9481 495.817 24.0593 495.651 24.1352 495.468C24.2111 495.285 24.2502 495.088 24.2502 494.89V493.92Z" fill="white" stroke="#263238" stroke-miterlimit="10"/>
<path d="M16.2502 326.99C16.2502 326.99 17.5802 354.53 17.5802 365.11V411.88C17.5802 411.88 10.0602 431.88 8.9502 441.39C7.9502 449.75 3.8202 479.98 3.0002 485.54C2.95017 485.871 3.01262 486.21 3.17756 486.502C3.3425 486.794 3.60043 487.022 3.9102 487.15C5.78958 487.978 7.76476 488.57 9.7902 488.91C11.9602 489.12 14.7902 487.65 15.9602 486.99C16.2879 486.8 16.5311 486.493 16.6402 486.13C17.1902 484.39 18.9302 478.93 20.0902 476.38C21.4802 473.32 40.6802 416.89 41.8002 412.38C42.9202 407.87 42.9102 395.68 42.9102 395.68L45.1202 365.4H48.4602L77.1302 413.84C77.1302 413.84 74.3502 430.84 74.3502 439.45C74.3502 447.02 71.0102 480.54 70.3502 487.2C70.3105 487.589 70.4242 487.978 70.667 488.284C70.9098 488.59 71.2626 488.79 71.6502 488.84C74.9602 489.328 78.3051 489.539 81.6502 489.47C84.9202 489.25 88.3602 486.82 89.6502 485.77C89.8328 485.63 89.9808 485.45 90.0831 485.243C90.1853 485.037 90.2391 484.81 90.2402 484.58V480.58C90.2402 478.91 89.6802 477.8 89.6802 476.69C89.6802 475.58 101.36 414.97 100.25 409.96C99.1402 404.95 79.0902 353.96 79.0902 353.96L77.3302 333.96L16.2502 326.99Z" fill="#263238" stroke="#263238" stroke-miterlimit="10"/>
<path d="M79.6601 309.49C81.1208 302.85 83.3351 296.398 86.2601 290.26C87.2601 288.1 88.9501 274.15 88.4301 267.89C88.2508 266.281 87.6571 264.746 86.7071 263.435C85.7571 262.124 84.4833 261.082 83.0101 260.41C79.2801 259.52 76.8301 259.11 76.8301 259.11L46.6901 250.51C46.6901 250.51 39.1101 249.07 34.4101 253.27C29.7101 257.47 26.5301 268.99 26.2801 272.64C26.0301 276.29 27.1401 308.35 17.6901 322.27C12.9401 329.27 20.5801 334.92 20.5801 334.92C20.5801 334.92 33.9301 337.75 45.7701 339.79C86.9201 346.86 78.5701 333.27 78.5701 333.27C77.515 325.342 77.8841 317.289 79.6601 309.49Z" fill="#0C8CE9" stroke="#263238" stroke-miterlimit="10"/>
<path d="M81.3503 259.71C81.3503 259.71 76.5902 254.02 72.1902 252.51C67.7902 251 55.9002 248.74 51.4102 247.92C50.1853 247.662 48.909 247.827 47.7901 248.388C46.6711 248.949 45.7757 249.874 45.2502 251.01C50.0802 253.812 55.321 255.837 60.7802 257.01C67.5815 258.291 74.4488 259.192 81.3503 259.71Z" fill="white" stroke="#263238" stroke-linecap="round" stroke-linejoin="round"/>
<path d="M165.58 297.28C165.58 297.28 169.37 291.9 170.93 291.38C172.49 290.86 182.42 290.33 182.42 290.33C182.42 290.33 183.84 289.79 183.84 291.33C183.84 292.87 182.5 293.06 181.92 293.26C181.34 293.46 175 294.79 175 294.79L178.27 296.14H189.27C189.27 296.14 189.08 297.87 188.51 298.25C187.94 298.63 181.01 302.25 180.05 302.87C179.09 303.49 167.94 304.79 167.94 304.79L160.44 304.98L160.64 298.06L165.58 297.28Z" fill="white" stroke="#263238" stroke-linecap="round" stroke-linejoin="round"/>
<path d="M83.01 260.4C83.01 260.4 88.9 261.4 92.36 264.86C95.82 268.32 111.31 285.66 111.31 285.66L163.19 298.05L163.52 307.14L105.26 307.37L77.78 296.51" fill="#0C8CE9"/>
<path d="M83.01 260.4C83.01 260.4 88.9 261.4 92.36 264.86C95.82 268.32 111.31 285.66 111.31 285.66L163.19 298.05L163.52 307.14L105.26 307.37L77.78 296.51" stroke="#263238" stroke-miterlimit="10"/>
<path d="M167.03 409.135C166.89 405.649 167.247 402.16 168.09 398.775C169.41 394.005 172.34 389.225 177.3 387.645C185.3 385.125 195.3 390.275 198.23 398.175C200.77 404.915 189.07 406.245 183.9 407.705C178.57 409.195 173.4 411.185 168.15 412.905C167.407 411.788 167.017 410.475 167.03 409.135Z" fill="#FFA14D"/>
<rect x="255" y="310" width="130" height="190" rx="15" fill="white" stroke="#263238"/>
<path d="M255 325C255 316.716 261.716 310 270 310H370C378.284 310 385 316.716 385 325V334H255V325Z" fill="#0C8CE9" stroke="#263238"/>
<rect x="303" y="320" width="34" height="4" rx="2" fill="#263238"/>
<rect x="265" y="344" width="51" height="48" rx="5" fill="#E1E7E9"/>
<rect x="265" y="400" width="51" height="48" rx="5" fill="#E1E7E9"/>
<rect x="324" y="344" width="51" height="48" rx="5" fill="#E1E7E9"/>
<rect x="324" y="400" width="51" height="48" rx="5" fill="#E1E7E9"/>
<path d="M441.296 250.443L482.473 290.732C482.473 290.732 486.317 245.536 441.296 250.443Z" fill="#6FEFD1"/>
<path d="M175.4 19H158V36.4H175.4V19Z" fill="#8B53F8"/>
<defs>
<filter id="filter0_d_96_392" x="0.449951" y="66.45" width="419.1" height="263.1" filterUnits="userSpaceOnUse" color-interpolation-filters="sRGB">
<feFlood flood-opacity="0" result="BackgroundImageFix"/>
<feColorMatrix in="SourceAlpha" type="matrix" values="0 0 0 0 0 0 0 0 0 0 0 0 0 0 0 0 0 0 127 0" result="hardAlpha"/>
<feOffset dx="6" dy="6"/>
<feComposite in2="hardAlpha" operator="out"/>
<feColorMatrix type="matrix" values="0 0 0 0 0.14902 0 0 0 0 0.196078 0 0 0 0 0.219608 0 0 0 1 0"/>
<feBlend mode="normal" in2="BackgroundImageFix" result="effect1_dropShadow_96_392"/>
<feBlend mode="normal" in="SourceGraphic" in2="effect1_dropShadow_96_392" result="shape"/>
</filter>
</defs>
</svg>
