<svg width="56" height="56" viewBox="0 0 56 56" fill="none" xmlns="http://www.w3.org/2000/svg">
<g clip-path="url(#clip0_1028_1203)">
<path d="M28 56C22.4621 56 17.0486 54.3578 12.444 51.2812C7.83947 48.2045 4.25064 43.8315 2.13139 38.7151C0.012132 33.5988 -0.542361 27.969 0.538025 22.5375C1.61841 17.106 4.28515 12.1169 8.20102 8.20102C12.1169 4.28515 17.106 1.61841 22.5375 0.538025C27.969 -0.542361 33.5988 0.012132 38.7151 2.13139C43.8315 4.25064 48.2045 7.83947 51.2812 12.444C54.3578 17.0486 56 22.4621 56 28C55.9872 35.4221 53.0331 42.5366 47.7848 47.7848C42.5366 53.0331 35.4221 55.9872 28 56Z" fill="#FAFAFA"/>
<path d="M53.549 28C53.5362 34.7722 50.8402 41.2633 46.0516 46.052C41.2629 50.8406 34.7718 53.5366 27.9996 53.5494C21.2254 53.543 14.7306 50.8491 9.94053 46.0591C5.15049 41.269 2.45662 34.7741 2.4502 28H53.549Z" fill="#121416"/>
<path d="M2.4502 28.0001C2.4502 21.224 5.142 14.7254 9.93344 9.93393C14.7249 5.14249 21.2235 2.45068 27.9996 2.45068C34.7757 2.45068 41.2743 5.14249 46.0657 9.93393C50.8572 14.7254 53.549 21.224 53.549 28.0001H2.4502Z" fill="#4FDB9E"/>
<path d="M27.9999 45.324C24.5735 45.324 21.2241 44.3079 18.3751 42.4043C15.5262 40.5007 13.3057 37.7951 11.9945 34.6295C10.6833 31.464 10.3402 27.9807 11.0087 24.6201C11.6771 21.2596 13.3271 18.1727 15.7499 15.7499C18.1727 13.3271 21.2596 11.6771 24.6201 11.0087C27.9807 10.3402 31.464 10.6833 34.6295 11.9945C37.7951 13.3057 40.5007 15.5262 42.4043 18.3751C44.3079 21.2241 45.324 24.5735 45.324 27.9999C45.324 32.5945 43.4988 37.001 40.2499 40.2499C37.001 43.4988 32.5945 45.324 27.9999 45.324Z" fill="#121416"/>
<path d="M43.0678 28.0002C43.0678 30.9803 42.1841 33.8935 40.5285 36.3713C38.8728 38.8492 36.5196 40.7804 33.7663 41.9208C31.0131 43.0613 27.9835 43.3597 25.0607 42.7783C22.1378 42.1969 19.4531 40.7618 17.3458 38.6546C15.2386 36.5474 13.8035 33.8626 13.2221 30.9397C12.6408 28.0169 12.9391 24.9873 14.0796 22.2341C15.22 19.4808 17.1513 17.1276 19.6291 15.472C22.107 13.8163 25.0201 12.9326 28.0002 12.9326C31.9964 12.9326 35.8289 14.5201 38.6546 17.3458C41.4803 20.1715 43.0678 24.004 43.0678 28.0002Z" fill="#4FDB9E"/>
<path d="M9.82715 40.1317L10.4095 39.7435C10.8048 40.3635 11.2426 40.9553 11.7197 41.5148L10.6278 42.4125C10.2434 42.2344 9.88443 42.0059 9.56025 41.7331C9.25256 41.4455 8.98343 41.1193 8.75955 40.7626C8.46473 40.348 8.25827 39.8773 8.15297 39.3796C8.06496 39.0249 8.09042 38.6515 8.22576 38.312C8.36002 38.009 8.60218 37.7669 8.90513 37.6326C9.19921 37.4649 9.54532 37.413 9.87567 37.487C10.2387 37.5532 10.5754 37.7216 10.8462 37.9723C11.1378 38.2593 11.3981 38.5765 11.6226 38.9186C11.8277 39.2094 12.0063 39.5179 12.1564 39.8406C12.2277 40.0521 12.2686 40.2727 12.2778 40.4957C12.2583 40.7173 12.1921 40.9323 12.0836 41.1265C11.7501 40.8212 11.4342 40.4971 11.1374 40.156C11.1982 40.0362 11.2235 39.9015 11.2102 39.7678C11.1594 39.5557 11.0609 39.358 10.9222 39.1898C10.7834 39.0216 10.608 38.8874 10.4095 38.7973C10.2777 38.7588 10.1388 38.752 10.0039 38.7773C9.86896 38.8026 9.74192 38.8593 9.63304 38.9428C9.50224 38.9972 9.3871 39.0833 9.29811 39.1935C9.20912 39.3037 9.14909 39.4344 9.12351 39.5737C9.11645 39.8784 9.21028 40.177 9.3904 40.4229C9.47598 40.5599 9.5824 40.6827 9.70583 40.7869C9.842 40.9117 9.98806 41.0253 10.1426 41.1265L10.4095 40.9324L9.82715 40.1317Z" fill="#FAFAFA"/>
<path d="M15.2375 43.0675L16.2081 43.8439L15.0434 45.4211C14.9439 45.5796 14.8007 45.706 14.631 45.785C14.4462 45.8873 14.2343 45.9297 14.0244 45.9063C13.8056 45.9075 13.5896 45.8576 13.3935 45.7607C13.0819 45.6119 12.7954 45.4155 12.5443 45.1784C12.3544 45.0042 12.1761 44.8178 12.0105 44.6204C11.8469 44.4462 11.7081 44.2502 11.598 44.038C11.5239 43.8597 11.4749 43.6718 11.4525 43.48C11.4491 43.3073 11.4737 43.1353 11.5252 42.9704C11.5979 42.7969 11.7053 42.6401 11.8407 42.5094L13.2965 41.1992C13.6362 41.5874 13.8303 41.7573 14.1942 42.1212L12.7869 43.5528C12.7297 43.6138 12.6868 43.6869 12.6616 43.7667C12.6364 43.8465 12.6295 43.9309 12.6414 44.0138C12.7011 44.2138 12.8194 44.3913 12.981 44.5233C13.1179 44.6777 13.3092 44.7734 13.5148 44.7902C13.5951 44.802 13.677 44.7898 13.7503 44.7553C13.8237 44.7208 13.8853 44.6654 13.9273 44.5961L15.2375 43.0675Z" fill="#FAFAFA"/>
<path d="M17.5668 47.9202C17.0928 47.6852 16.6312 47.426 16.1838 47.1437L15.6985 47.4834C15.2133 47.168 14.9464 46.9982 14.4854 46.6585C15.5845 46.1147 16.6463 45.4987 17.6639 44.8145C18.1249 45.1056 18.3675 45.2269 18.8285 45.4696C18.7717 46.6907 18.7879 47.9141 18.877 49.1333C18.3432 48.915 18.0763 48.7694 17.5183 48.5025C17.5425 48.2841 17.5425 48.1628 17.5668 47.9202ZM17.6639 47.168C17.7124 46.6585 17.7367 46.3916 17.8094 45.882C17.4212 46.2217 17.2271 46.3673 16.8146 46.6827L17.6639 47.168Z" fill="#FAFAFA"/>
<path d="M19.3379 49.3277L20.5511 46.2705C21.1866 46.5214 21.8345 46.7401 22.4921 46.9256C22.7697 46.9903 23.0385 47.0881 23.2928 47.2168C23.4677 47.2997 23.612 47.4355 23.7053 47.605C23.8009 47.7746 23.827 47.9746 23.7781 48.1631C23.7475 48.3314 23.6623 48.4849 23.5355 48.5998C23.4023 48.7242 23.2316 48.801 23.0502 48.8182C22.8985 48.8481 22.7432 48.8563 22.5892 48.8424L22.8804 49.0365L23.0502 49.2549L23.1958 49.4975C23.3656 49.9343 23.4627 50.1527 23.6568 50.5651C23.0259 50.4438 22.7105 50.3953 22.1039 50.2254C21.9372 49.8455 21.7914 49.4567 21.6672 49.0608C21.622 48.9499 21.5651 48.8441 21.4973 48.7454C21.4191 48.6613 21.3179 48.6022 21.2062 48.5755L21.0849 48.527L20.6724 49.813L19.3379 49.3277ZM21.279 47.9447L21.8128 48.1145L22.1525 48.1631C22.2365 48.1738 22.3217 48.1567 22.3951 48.1145C22.4477 48.0776 22.4895 48.0273 22.5164 47.9689C22.5392 47.8693 22.5218 47.7647 22.4679 47.6778C22.3419 47.5758 22.1912 47.5089 22.0311 47.4837L21.4973 47.3138C21.4354 47.5277 21.3625 47.7383 21.279 47.9447Z" fill="#FAFAFA"/>
<path d="M26.9328 50.395C26.3019 50.3707 25.9865 50.3464 25.3557 50.2737C25.2586 50.492 25.1858 50.5891 25.0888 50.7832C24.608 50.736 24.1302 50.6631 23.6572 50.5648C24.416 49.6127 25.1052 48.6072 25.7196 47.5562L27.0541 47.6532C27.4928 48.7886 28.0117 49.8913 28.607 50.953H27.1269L26.9328 50.395ZM26.6902 49.6671C26.5203 49.2061 26.4475 48.9634 26.3019 48.4782L25.7439 49.5943C26.0569 49.6435 26.3733 49.6679 26.6902 49.6671Z" fill="#FAFAFA"/>
<path d="M28.9219 47.6536C29.2951 47.6527 29.6678 47.6284 30.038 47.5808C30.5909 48.1562 31.1916 48.6838 31.8335 49.1579C31.6879 48.4543 31.6394 48.0903 31.4938 47.3867L32.6342 47.144C32.9253 48.43 33.0952 49.0609 33.3863 50.3468L32.0761 50.6137C31.4165 50.1422 30.7921 49.6232 30.2078 49.0609C30.2806 49.7645 30.3049 50.1284 30.3777 50.8563L29.0675 50.9534C28.9947 49.6432 28.9704 48.9881 28.9219 47.6536Z" fill="#FAFAFA"/>
<path d="M33.1436 47.0223C34.3376 46.7025 35.4992 46.272 36.6132 45.7363L36.9772 46.4885L35.7883 46.998L36.7103 49.3031L35.3758 49.7883C35.0604 48.842 34.9148 48.381 34.5751 47.4348C34.1706 47.5816 33.7573 47.7032 33.3377 47.7987L33.1436 47.0223Z" fill="#FAFAFA"/>
<path d="M37.123 45.4939C38.1184 44.9996 39.0614 44.4062 39.9376 43.7227L40.3501 44.305C39.7763 44.7374 39.1767 45.1344 38.5546 45.4939C38.6526 45.6422 38.7417 45.7961 38.8215 45.9549C39.4158 45.6059 39.9908 45.2253 40.5442 44.8145L40.9324 45.3483C40.3669 45.7806 39.7754 46.1776 39.1612 46.5372C39.2885 46.7143 39.4021 46.9009 39.5009 47.0953C40.1961 46.6789 40.8684 46.2253 41.5147 45.7365C41.6846 45.9792 41.7816 46.0762 41.9757 46.3188C40.9191 47.1127 39.7992 47.8187 38.6274 48.4298L37.123 45.4939Z" fill="#FAFAFA"/>
<path d="M40.4961 43.2859C41.4026 42.5737 42.2321 41.7686 42.971 40.8838L43.4805 41.3448C43.0024 41.9154 42.4921 42.4582 41.9519 42.9704L42.2916 43.3344C42.8271 42.8674 43.3222 42.3561 43.7717 41.8058L44.2812 42.2668C43.6989 42.9219 43.3834 43.2373 42.7526 43.8439L43.1893 44.3049C43.8139 43.749 44.3977 43.149 44.9363 42.5094L45.4944 42.9947C44.6157 44.0309 43.6408 44.9814 42.5828 45.8335L40.4961 43.2859Z" fill="#FAFAFA"/>
<path d="M43.4561 40.2774C43.8772 39.7599 44.2661 39.217 44.6207 38.6518C44.786 38.3734 44.9903 38.1202 45.2273 37.8996C45.3957 37.7238 45.6036 37.5907 45.8339 37.5114C46.0359 37.4394 46.2516 37.4145 46.4647 37.4386C46.6828 37.4609 46.8958 37.5183 47.0956 37.6085C47.3538 37.7205 47.5732 37.9062 47.7264 38.1423C47.853 38.3552 47.92 38.5982 47.9205 38.8459C47.9156 39.1011 47.8748 39.3543 47.7992 39.5981C47.6834 39.8955 47.5371 40.1801 47.3625 40.4473C46.9596 41.1067 46.5138 41.7389 46.028 42.3398L43.4561 40.2774ZM44.8633 39.6223L46.3434 40.6657L46.5375 40.3502C46.6851 40.1731 46.7927 39.9662 46.8529 39.7436C46.8858 39.6047 46.8686 39.4587 46.8044 39.3312C46.701 39.161 46.5488 39.0257 46.3677 38.9429C46.1563 38.7939 45.8953 38.7329 45.6398 38.7731C45.3945 38.8971 45.1918 39.0914 45.0574 39.3312L44.8633 39.6223Z" fill="#FAFAFA"/>
<path d="M8.41905 21.3032C8.55523 20.8098 8.71721 20.3238 8.90432 19.8474C9.03564 19.8711 9.17109 19.8542 9.29253 19.7989C9.46142 19.6796 9.6014 19.5239 9.70218 19.3433C9.80295 19.1628 9.86196 18.9619 9.87486 18.7555C9.87486 18.61 9.82633 18.5129 9.72927 18.4886C9.63222 18.4644 9.55943 18.4644 9.46238 18.5372C9.25086 18.7197 9.07766 18.9424 8.95284 19.1923C8.70318 19.6584 8.38411 20.0838 8.00657 20.454C7.91886 20.5646 7.80182 20.6482 7.66881 20.6954C7.5358 20.7426 7.39219 20.7514 7.2544 20.7209C7.16915 20.6801 7.09298 20.6226 7.03045 20.5517C6.96792 20.4808 6.92031 20.3981 6.89045 20.3084C6.78616 20.038 6.76092 19.7434 6.81766 19.4592C6.89233 18.9973 7.03116 18.5481 7.23014 18.1247C7.43293 17.609 7.74787 17.1449 8.15215 16.7659C8.28404 16.6536 8.4436 16.5786 8.61426 16.5487C8.78493 16.5188 8.96048 16.5352 9.12269 16.5961C8.83153 17.1299 8.71021 17.3968 8.44331 17.9791C8.37547 17.9651 8.30534 17.9665 8.23813 17.9833C8.17092 18.0001 8.10836 18.0319 8.0551 18.0762C7.90109 18.1952 7.78343 18.3548 7.71541 18.5372C7.65571 18.6753 7.62278 18.8235 7.61836 18.9739C7.61431 19.0156 7.62113 19.0576 7.63814 19.0959C7.65514 19.1341 7.68176 19.1674 7.71541 19.1923C7.76394 19.2166 7.83673 19.1923 7.90952 19.1195C8.04252 18.9869 8.1495 18.8305 8.22494 18.6585C8.48964 18.2096 8.80734 17.7941 9.17122 17.4211C9.33588 17.2291 9.55645 17.0933 9.80207 17.0328C9.88714 17.0069 9.97688 16.9999 10.0649 17.0125C10.153 17.0251 10.2372 17.0569 10.3116 17.1056C10.407 17.1604 10.4905 17.2337 10.5572 17.3212C10.6238 17.4087 10.6723 17.5086 10.6998 17.6152C10.773 17.8853 10.773 18.17 10.6998 18.4401C10.6304 18.8194 10.5079 19.1869 10.3359 19.532C9.99617 20.2841 9.70501 20.7937 9.38959 21.0363C9.25902 21.1521 9.10362 21.2364 8.93536 21.2826C8.7671 21.3289 8.59046 21.3359 8.41905 21.3032Z" fill="#121416"/>
<path d="M12.8357 14.4609C12.4233 14.9461 12.2292 15.1888 11.8409 15.7226L12.1564 16.2321C11.8167 16.6931 11.6711 16.9357 11.3557 17.421C10.7126 16.3289 10.1451 15.1939 9.65723 14.0241C10.094 13.4418 10.3123 13.1749 10.7491 12.6411C11.9763 12.8759 13.1846 13.2003 14.3643 13.6117L13.3938 14.6307L12.8357 14.4609ZM12.1078 14.2182L10.8461 13.8785L11.4527 15.0432L12.1078 14.2182Z" fill="#121416"/>
<path d="M11.8164 11.4767C12.9307 10.3645 14.1587 9.37237 15.4802 8.5166L15.9412 9.19598L14.7038 10.0695L16.1838 12.0591C15.7713 12.3745 15.553 12.5443 15.1648 12.884C14.5096 12.1319 14.17 11.7679 13.5391 11.0157C13.1363 11.3378 12.7553 11.6864 12.3987 12.0591L11.8164 11.4767Z" fill="#121416"/>
<path d="M16.1348 8.12814C16.6443 7.81272 16.9112 7.66714 17.4693 7.37598L18.9736 10.3119L17.8332 10.9427L16.1348 8.12814Z" fill="#121416"/>
<path d="M19.1441 9.02584L20.333 8.44352C20.3894 8.57414 20.4935 8.67829 20.6242 8.73468C20.8293 8.81056 21.0563 8.80183 21.255 8.71042C21.4032 8.66445 21.537 8.58085 21.6432 8.46779C21.6765 8.43282 21.7006 8.39013 21.7133 8.34353C21.7261 8.29694 21.727 8.24792 21.716 8.20089C21.6986 8.15533 21.6691 8.11541 21.6306 8.08546C21.5921 8.05552 21.5461 8.0367 21.4976 8.03104C21.2541 8.00384 21.0076 8.02027 20.7697 8.07957C20.3172 8.18791 19.8499 8.22071 19.3867 8.17662C19.2533 8.17477 19.1231 8.13501 19.0114 8.06198C18.8997 7.98894 18.8111 7.88565 18.7559 7.76415C18.7204 7.68388 18.7021 7.59711 18.7021 7.50938C18.7021 7.42165 18.7204 7.33488 18.7559 7.25461C18.8536 7.0221 19.013 6.82073 19.2169 6.67229C19.5388 6.42748 19.8997 6.23881 20.2845 6.11423C20.7418 5.94614 21.2304 5.87989 21.716 5.92012C21.88 5.94665 22.0348 6.01384 22.1662 6.11556C22.2976 6.21728 22.4014 6.35029 22.4682 6.50245L21.1822 6.91493C21.1078 6.80556 20.9954 6.72774 20.8668 6.69656C20.6957 6.66685 20.5197 6.6836 20.3573 6.74508C20.2262 6.78555 20.1088 6.86106 20.0176 6.96345C19.9946 6.9896 19.9782 7.02086 19.9698 7.05462C19.9613 7.08839 19.9611 7.12368 19.9691 7.15756C19.9822 7.18542 20.0027 7.20918 20.0284 7.22628C20.054 7.24337 20.0838 7.25317 20.1146 7.25461C20.286 7.26815 20.4584 7.25173 20.6242 7.20609C21.0697 7.1055 21.5266 7.06471 21.9829 7.08477C22.2139 7.09467 22.4389 7.16134 22.638 7.27888C22.714 7.32767 22.7792 7.39165 22.8293 7.46681C22.8794 7.54197 22.9134 7.62668 22.9292 7.71562C22.9593 7.82037 22.9684 7.93005 22.9559 8.03833C22.9434 8.14661 22.9096 8.25134 22.8564 8.34647C22.7376 8.56587 22.5719 8.75641 22.3711 8.90453C22.0779 9.0782 21.7693 9.2244 21.4491 9.34127C20.7697 9.55964 20.2845 9.65669 19.9448 9.55964C19.6198 9.48971 19.3336 9.2989 19.1441 9.02584Z" fill="#121416"/>
<path d="M23.1475 5.3863C24.3628 5.13585 25.5959 4.9817 26.8355 4.92529C26.8561 5.15924 26.8642 5.39412 26.8598 5.62893C26.1533 5.65749 25.4487 5.72228 24.7488 5.82304C24.7731 6.06567 24.7974 6.16273 24.8216 6.40536C25.5253 6.30831 25.8892 6.25978 26.5929 6.21126C26.6171 6.47815 26.6171 6.62373 26.6414 6.89063C26.0641 6.90997 25.4887 6.9667 24.9187 7.06048C24.9915 7.59427 25.04 7.86117 25.1128 8.39496L23.8511 8.61333C23.5599 7.32737 23.4144 6.67226 23.1475 5.3863Z" fill="#121416"/>
<path d="M29.7469 7.71592C29.1646 7.6674 28.8492 7.64313 28.2426 7.64313L28.0485 8.17693L26.7383 8.22546C27.1882 7.07894 27.7235 5.9678 28.3397 4.90137C28.9948 4.90137 29.3345 4.92563 29.9896 4.97416C30.4963 6.09755 30.918 7.25736 31.2513 8.44383C30.8098 8.36338 30.3643 8.30669 29.9168 8.27398L29.7469 7.71592ZM29.5286 6.98802C29.383 6.50275 29.2859 6.26012 29.1161 5.77485C28.8735 6.23586 28.7764 6.47849 28.558 6.9395L29.5286 6.98802Z" fill="#121416"/>
<path d="M34.6722 7.88572C35.0324 8.09238 35.3808 8.3192 35.7155 8.5651C35.5576 8.75125 35.3603 8.90004 35.1379 9.00074C34.9156 9.10144 34.6736 9.15154 34.4295 9.14742C34.1162 9.15148 33.8044 9.10225 33.5075 9.00184C33.1451 8.90474 32.795 8.76634 32.4642 8.58936C32.1998 8.40962 31.9833 8.16809 31.8333 7.88572C31.6585 7.56757 31.6067 7.19626 31.6878 6.8424C31.7144 6.59672 31.8076 6.36297 31.9572 6.1663C32.1069 5.96964 32.3073 5.8175 32.537 5.72628C32.998 5.50791 33.6531 5.50791 34.4053 5.72628C34.8856 5.84373 35.3334 6.06761 35.7155 6.38139C35.9761 6.64958 36.1312 7.00282 36.1522 7.37619L34.8905 7.13356C34.8731 7.05078 34.8488 6.96961 34.8178 6.89092C34.7646 6.78024 34.6802 6.68748 34.5751 6.62402L34.2354 6.45418C34.1002 6.40936 33.9573 6.3927 33.8154 6.40522C33.6735 6.41774 33.5357 6.45917 33.4105 6.52697C33.2296 6.67279 33.1087 6.88007 33.0708 7.10929C33.0225 7.23372 32.9998 7.36659 33.004 7.49997C33.0082 7.63336 33.0391 7.76455 33.095 7.88572C33.2308 8.07068 33.4291 8.20002 33.6531 8.24967C33.8488 8.32214 34.064 8.32214 34.2597 8.24967C34.4348 8.17912 34.5804 8.05066 34.6722 7.88572Z" fill="#121416"/>
<path d="M36.9043 6.64795C38.3385 7.22526 39.7054 7.95751 40.9805 8.83166L40.5195 9.51103C40.1137 9.22156 39.6926 8.95427 39.2578 8.71034L37.9719 10.8455C37.6049 10.6196 37.224 10.417 36.8315 10.2389L37.9476 8.0067C37.5061 7.77993 37.0525 7.57743 36.5889 7.40012C36.7344 7.08469 36.783 6.93911 36.9043 6.64795Z" fill="#121416"/>
<path d="M41.6118 9.26855C42.0971 9.63251 42.3397 9.82661 42.825 10.2391L40.6898 12.7625L39.6465 11.9375L41.6118 9.26855Z" fill="#121416"/>
<path d="M42.3878 12.0588C42.5515 11.8672 42.7653 11.7248 43.0052 11.6477C43.2452 11.5706 43.5018 11.5617 43.7465 11.6221C44.2803 11.7191 44.8384 12.0831 45.3722 12.7382C45.906 13.3933 46.2214 14.0242 46.2457 14.5822C46.2736 14.8344 46.2291 15.0893 46.1174 15.317C46.0057 15.5448 45.8313 15.736 45.6148 15.8682C45.3431 16.0728 45.0083 16.1758 44.6686 16.1594C44.3406 16.1285 44.0247 16.0204 43.7465 15.8439C43.3977 15.6095 43.0868 15.3231 42.8245 14.9947C42.5472 14.6829 42.3182 14.3312 42.1452 13.9514C41.9939 13.6518 41.9348 13.314 41.9753 12.9808C42.0024 12.6352 42.1481 12.3094 42.3878 12.0588ZM43.4311 13.1022C43.3283 13.1855 43.2432 13.2885 43.1807 13.4052C43.1182 13.5218 43.0796 13.6498 43.0672 13.7815C43.0946 14.0366 43.2055 14.2754 43.3826 14.4609C43.4512 14.5666 43.5401 14.6575 43.6443 14.7283C43.7485 14.7992 43.8657 14.8485 43.9892 14.8734C44.1304 14.8919 44.274 14.8774 44.4087 14.8311C44.5435 14.7848 44.6656 14.7079 44.7656 14.6065C44.8747 14.5408 44.9654 14.4484 45.029 14.3381C45.0927 14.2277 45.1273 14.103 45.1296 13.9756C45.0955 13.6962 44.977 13.4338 44.7899 13.2235C44.6292 13.0106 44.3962 12.8639 44.1348 12.811C44.0035 12.8066 43.8728 12.8303 43.7515 12.8805C43.6301 12.9308 43.5209 13.0063 43.4311 13.1022Z" fill="#121416"/>
<path d="M47.4591 15.7227C47.7745 16.2565 47.9201 16.5476 48.2113 17.1057C48.0026 17.9959 47.7351 18.8713 47.4106 19.7261L49.0847 19.0467C49.3274 19.6533 49.4487 19.993 49.6671 20.6239L46.5371 21.6429L46.0518 20.2842C46.3891 19.4789 46.6728 18.6521 46.901 17.8093L45.2996 18.6585C45.057 18.149 44.9114 17.9306 44.6445 17.4454L47.4591 15.7227Z" fill="#121416"/>
<path d="M29.715 35.9775C36.7184 35.9775 42.3958 33.668 42.3958 30.8191C42.3958 27.9702 36.7184 25.6606 29.715 25.6606C22.7116 25.6606 17.0342 27.9702 17.0342 30.8191C17.0342 33.668 22.7116 35.9775 29.715 35.9775Z" fill="url(#paint0_radial_1028_1203)"/>
<path d="M29.715 35.9775C36.7184 35.9775 42.3958 33.668 42.3958 30.8191C42.3958 27.9702 36.7184 25.6606 29.715 25.6606C22.7116 25.6606 17.0342 27.9702 17.0342 30.8191C17.0342 33.668 22.7116 35.9775 29.715 35.9775Z" fill="url(#paint1_linear_1028_1203)"/>
<path d="M29.715 35.9775C36.7184 35.9775 42.3958 33.668 42.3958 30.8191C42.3958 27.9702 36.7184 25.6606 29.715 25.6606C22.7116 25.6606 17.0342 27.9702 17.0342 30.8191C17.0342 33.668 22.7116 35.9775 29.715 35.9775Z" fill="url(#paint2_radial_1028_1203)"/>
<path d="M17.2247 25.3899C17.0902 24.4877 17.259 23.5664 17.7048 22.77C17.8851 22.4042 18.1716 22.1009 18.5269 21.8995C18.8823 21.6981 19.2901 21.608 19.6975 21.6407C20.1771 21.5971 20.6427 21.4557 21.0652 21.2252C21.6104 20.985 22.0665 20.5807 22.3695 20.0688C22.6414 19.6268 23.0099 19.2518 23.4475 18.9718C23.8851 18.6918 24.3805 18.514 24.8966 18.4517C25.5125 18.3252 26.1285 18.2349 26.7082 18.1626C27.2879 18.0903 27.9762 18.0271 28.6103 18C29.5161 18 30.4218 18 31.2642 18.0542C32.5325 18.1346 33.786 18.3713 34.996 18.7589C35.3673 18.8673 35.7387 18.9937 36.1101 19.1112C36.3394 19.1753 36.5459 19.3025 36.7061 19.4782C36.8663 19.654 36.9737 19.8712 37.0158 20.1049C37.1547 20.789 37.1761 21.4916 37.0793 22.1828L36.9434 23.4837C36.9434 23.5469 36.9434 23.6011 36.9434 23.6553C36.9434 23.7095 36.9434 23.7276 36.9434 23.7728C36.9434 23.8179 36.8709 24.0709 36.8438 24.2154V24.378C36.7532 24.7936 36.6717 25.2092 36.5811 25.6157V25.6699C36.4362 26.4107 36.2822 27.1425 36.1372 27.8833C35.9923 28.6241 35.9289 29.2835 35.7297 29.9611C35.6489 30.3355 35.451 30.6746 35.1645 30.9296C34.878 31.1845 34.5176 31.342 34.1355 31.3794C33.1739 31.5044 32.2064 31.5798 31.237 31.6053C29.5885 31.6053 27.9491 31.6053 26.3006 31.4969C25.7668 31.4985 25.2433 31.3502 24.79 31.0691C24.3367 30.7879 23.9718 30.3851 23.7372 29.9069C23.542 29.541 23.2201 29.2585 22.8315 29.1119C21.8713 28.7054 20.8931 28.3259 19.942 27.9013C18.7464 27.3683 17.6142 26.7721 17.2247 25.3899ZM29.5976 23.032C31.1057 23.0567 32.6096 22.8651 34.063 22.4628C34.7378 22.3309 35.3639 22.0187 35.8746 21.5594C35.9667 21.4885 36.0413 21.3975 36.0926 21.2934C36.1439 21.1892 36.1706 21.0747 36.1706 20.9587C36.1706 20.8426 36.1439 20.7281 36.0926 20.624C36.0413 20.5198 35.9667 20.4288 35.8746 20.3579C35.5807 20.0877 35.244 19.868 34.8782 19.7074C33.848 19.2834 32.7563 19.0272 31.6446 18.9486C29.4751 18.691 27.2761 18.8536 25.1684 19.4274C24.5472 19.578 23.9701 19.872 23.4836 20.2856C23.3448 20.3854 23.2424 20.5275 23.1917 20.6905C23.1411 20.8535 23.145 21.0285 23.2028 21.189C23.2928 21.4324 23.4577 21.6411 23.6738 21.7853C24.1607 22.0786 24.6767 22.3208 25.2136 22.508C26.6409 22.8979 28.1183 23.0745 29.5976 23.032ZM20.8569 22.9868C20.5036 23.041 20.1685 23.0681 19.8424 23.1494C19.5617 23.1953 19.3022 23.3268 19.0994 23.5257C18.8967 23.7247 18.7607 23.9814 18.7102 24.2606C18.6445 24.5488 18.6763 24.8506 18.8008 25.1188C18.9191 25.3869 19.1186 25.6112 19.3714 25.7603C20.029 26.1854 20.7093 26.5744 21.4094 26.9257C21.7813 27.0933 22.1799 27.1943 22.5869 27.2238C23.0398 27.278 23.067 27.2238 22.9492 26.7901C22.553 25.6912 22.25 24.5609 22.0434 23.4114C22.0346 23.357 22.0093 23.3066 21.971 23.2669C21.9362 23.2214 21.889 23.1869 21.8351 23.1675C21.5271 23.0862 21.183 23.041 20.8569 22.9868Z" fill="url(#paint3_radial_1028_1203)"/>
<path d="M17.2247 25.3899C17.0902 24.4877 17.259 23.5664 17.7048 22.77C17.8851 22.4042 18.1716 22.1009 18.5269 21.8995C18.8823 21.6981 19.2901 21.608 19.6975 21.6407C20.1771 21.5971 20.6427 21.4557 21.0652 21.2252C21.6104 20.985 22.0665 20.5807 22.3695 20.0688C22.6414 19.6268 23.0099 19.2518 23.4475 18.9718C23.8851 18.6918 24.3805 18.514 24.8966 18.4517C25.5125 18.3252 26.1285 18.2349 26.7082 18.1626C27.2879 18.0903 27.9762 18.0271 28.6103 18C29.5161 18 30.4218 18 31.2642 18.0542C32.5325 18.1346 33.786 18.3713 34.996 18.7589C35.3673 18.8673 35.7387 18.9937 36.1101 19.1112C36.3394 19.1753 36.5459 19.3025 36.7061 19.4782C36.8663 19.654 36.9737 19.8712 37.0158 20.1049C37.1547 20.789 37.1761 21.4916 37.0793 22.1828L36.9434 23.4837C36.9434 23.5469 36.9434 23.6011 36.9434 23.6553C36.9434 23.7095 36.9434 23.7276 36.9434 23.7728C36.9434 23.8179 36.8709 24.0709 36.8438 24.2154V24.378C36.7532 24.7936 36.6717 25.2092 36.5811 25.6157V25.6699C36.4362 26.4107 36.2822 27.1425 36.1372 27.8833C35.9923 28.6241 35.9289 29.2835 35.7297 29.9611C35.6489 30.3355 35.451 30.6746 35.1645 30.9296C34.878 31.1845 34.5176 31.342 34.1355 31.3794C33.1739 31.5044 32.2064 31.5798 31.237 31.6053C29.5885 31.6053 27.9491 31.6053 26.3006 31.4969C25.7668 31.4985 25.2433 31.3502 24.79 31.0691C24.3367 30.7879 23.9718 30.3851 23.7372 29.9069C23.542 29.541 23.2201 29.2585 22.8315 29.1119C21.8713 28.7054 20.8931 28.3259 19.942 27.9013C18.7464 27.3683 17.6142 26.7721 17.2247 25.3899ZM29.5976 23.032C31.1057 23.0567 32.6096 22.8651 34.063 22.4628C34.7378 22.3309 35.3639 22.0187 35.8746 21.5594C35.9667 21.4885 36.0413 21.3975 36.0926 21.2934C36.1439 21.1892 36.1706 21.0747 36.1706 20.9587C36.1706 20.8426 36.1439 20.7281 36.0926 20.624C36.0413 20.5198 35.9667 20.4288 35.8746 20.3579C35.5807 20.0877 35.244 19.868 34.8782 19.7074C33.848 19.2834 32.7563 19.0272 31.6446 18.9486C29.4751 18.691 27.2761 18.8536 25.1684 19.4274C24.5472 19.578 23.9701 19.872 23.4836 20.2856C23.3448 20.3854 23.2424 20.5275 23.1917 20.6905C23.1411 20.8535 23.145 21.0285 23.2028 21.189C23.2928 21.4324 23.4577 21.6411 23.6738 21.7853C24.1607 22.0786 24.6767 22.3208 25.2136 22.508C26.6409 22.8979 28.1183 23.0745 29.5976 23.032ZM20.8569 22.9868C20.5036 23.041 20.1685 23.0681 19.8424 23.1494C19.5617 23.1953 19.3022 23.3268 19.0994 23.5257C18.8967 23.7247 18.7607 23.9814 18.7102 24.2606C18.6445 24.5488 18.6763 24.8506 18.8008 25.1188C18.9191 25.3869 19.1186 25.6112 19.3714 25.7603C20.029 26.1854 20.7093 26.5744 21.4094 26.9257C21.7813 27.0933 22.1799 27.1943 22.5869 27.2238C23.0398 27.278 23.067 27.2238 22.9492 26.7901C22.553 25.6912 22.25 24.5609 22.0434 23.4114C22.0346 23.357 22.0093 23.3066 21.971 23.2669C21.9362 23.2214 21.889 23.1869 21.8351 23.1675C21.5271 23.0862 21.183 23.041 20.8569 22.9868Z" fill="url(#paint4_linear_1028_1203)"/>
<path d="M17.2247 25.3899C17.0902 24.4877 17.259 23.5664 17.7048 22.77C17.8851 22.4042 18.1716 22.1009 18.5269 21.8995C18.8823 21.6981 19.2901 21.608 19.6975 21.6407C20.1771 21.5971 20.6427 21.4557 21.0652 21.2252C21.6104 20.985 22.0665 20.5807 22.3695 20.0688C22.6414 19.6268 23.0099 19.2518 23.4475 18.9718C23.8851 18.6918 24.3805 18.514 24.8966 18.4517C25.5125 18.3252 26.1285 18.2349 26.7082 18.1626C27.2879 18.0903 27.9762 18.0271 28.6103 18C29.5161 18 30.4218 18 31.2642 18.0542C32.5325 18.1346 33.786 18.3713 34.996 18.7589C35.3673 18.8673 35.7387 18.9937 36.1101 19.1112C36.3394 19.1753 36.5459 19.3025 36.7061 19.4782C36.8663 19.654 36.9737 19.8712 37.0158 20.1049C37.1547 20.789 37.1761 21.4916 37.0793 22.1828L36.9434 23.4837C36.9434 23.5469 36.9434 23.6011 36.9434 23.6553C36.9434 23.7095 36.9434 23.7276 36.9434 23.7728C36.9434 23.8179 36.8709 24.0709 36.8438 24.2154V24.378C36.7532 24.7936 36.6717 25.2092 36.5811 25.6157V25.6699C36.4362 26.4107 36.2822 27.1425 36.1372 27.8833C35.9923 28.6241 35.9289 29.2835 35.7297 29.9611C35.6489 30.3355 35.451 30.6746 35.1645 30.9296C34.878 31.1845 34.5176 31.342 34.1355 31.3794C33.1739 31.5044 32.2064 31.5798 31.237 31.6053C29.5885 31.6053 27.9491 31.6053 26.3006 31.4969C25.7668 31.4985 25.2433 31.3502 24.79 31.0691C24.3367 30.7879 23.9718 30.3851 23.7372 29.9069C23.542 29.541 23.2201 29.2585 22.8315 29.1119C21.8713 28.7054 20.8931 28.3259 19.942 27.9013C18.7464 27.3683 17.6142 26.7721 17.2247 25.3899ZM29.5976 23.032C31.1057 23.0567 32.6096 22.8651 34.063 22.4628C34.7378 22.3309 35.3639 22.0187 35.8746 21.5594C35.9667 21.4885 36.0413 21.3975 36.0926 21.2934C36.1439 21.1892 36.1706 21.0747 36.1706 20.9587C36.1706 20.8426 36.1439 20.7281 36.0926 20.624C36.0413 20.5198 35.9667 20.4288 35.8746 20.3579C35.5807 20.0877 35.244 19.868 34.8782 19.7074C33.848 19.2834 32.7563 19.0272 31.6446 18.9486C29.4751 18.691 27.2761 18.8536 25.1684 19.4274C24.5472 19.578 23.9701 19.872 23.4836 20.2856C23.3448 20.3854 23.2424 20.5275 23.1917 20.6905C23.1411 20.8535 23.145 21.0285 23.2028 21.189C23.2928 21.4324 23.4577 21.6411 23.6738 21.7853C24.1607 22.0786 24.6767 22.3208 25.2136 22.508C26.6409 22.8979 28.1183 23.0745 29.5976 23.032ZM20.8569 22.9868C20.5036 23.041 20.1685 23.0681 19.8424 23.1494C19.5617 23.1953 19.3022 23.3268 19.0994 23.5257C18.8967 23.7247 18.7607 23.9814 18.7102 24.2606C18.6445 24.5488 18.6763 24.8506 18.8008 25.1188C18.9191 25.3869 19.1186 25.6112 19.3714 25.7603C20.029 26.1854 20.7093 26.5744 21.4094 26.9257C21.7813 27.0933 22.1799 27.1943 22.5869 27.2238C23.0398 27.278 23.067 27.2238 22.9492 26.7901C22.553 25.6912 22.25 24.5609 22.0434 23.4114C22.0346 23.357 22.0093 23.3066 21.971 23.2669C21.9362 23.2214 21.889 23.1869 21.8351 23.1675C21.5271 23.0862 21.183 23.041 20.8569 22.9868Z" fill="url(#paint5_radial_1028_1203)"/>
<path d="M16.9438 30.4309C18.0035 30.6748 19.0633 30.9459 20.1411 31.1446C21.8259 31.4518 23.5287 31.7047 25.2316 31.9938C27.333 32.3461 29.4525 32.6714 31.572 33.096C32.4743 33.2716 33.4056 33.2314 34.2893 32.9785C34.9034 32.7954 35.5618 32.8272 36.1552 33.0689C36.4979 33.1905 36.7817 33.4369 36.9497 33.7586C37.1178 34.0804 37.1575 34.4536 37.061 34.8034C37.0567 34.8575 37.0567 34.9119 37.061 34.966L36.6805 35.5171C36.2608 35.849 35.7356 36.0197 35.2004 35.9981C34.6652 35.9766 34.1555 35.7642 33.7639 35.3997C33.4376 35.1404 33.1345 34.8532 32.8582 34.5414C32.7717 34.4308 32.6637 34.3385 32.5408 34.2703C32.4179 34.202 32.2825 34.159 32.1426 34.1439C29.4253 33.9271 26.862 33.2405 24.2171 32.8249C22.0191 32.4937 19.8211 32.1474 17.6231 31.786C16.7173 31.6415 15.8115 31.4518 14.9058 31.2711C14.7045 31.2406 14.5148 31.1577 14.3558 31.0308C14.1967 30.904 14.074 30.7375 14 30.5484C14 30.1689 14.0815 30.0425 14.4438 29.9521C14.8121 29.8838 15.1922 29.9214 15.5398 30.0605C15.9021 30.2051 16.4275 30.3044 16.9438 30.4309Z" fill="#D2244E"/>
<path d="M36.9521 23.6552C36.9521 23.5918 36.9521 23.5374 36.9521 23.4831C36.9521 23.4287 36.9612 23.5827 36.9521 23.6552Z" fill="#E4D6D1"/>
<path d="M22.4505 34.2974L22.3418 34.4151L22.4595 34.3064L22.4505 34.2974Z" fill="#91B8A9"/>
<path d="M29.5977 23.0315C28.1006 23.0609 26.6075 22.866 25.1684 22.4533C24.6317 22.2695 24.1156 22.0303 23.6286 21.7396C23.4161 21.5916 23.2522 21.3841 23.1576 21.1434C23.0982 20.983 23.0935 20.8075 23.1443 20.6442C23.1951 20.4808 23.2985 20.3387 23.4384 20.24C23.9198 19.8092 24.4974 19.4995 25.1231 19.3366C27.2325 18.7722 29.4297 18.6097 31.5994 18.8578C32.7111 18.9364 33.8028 19.1926 34.833 19.6166C35.2015 19.7773 35.5411 19.997 35.8384 20.2671C35.9291 20.3399 36.0023 20.4321 36.0526 20.5368C36.1029 20.6416 36.129 20.7562 36.129 20.8724C36.129 20.9885 36.1029 21.1032 36.0526 21.2079C36.0023 21.3127 35.9291 21.4048 35.8384 21.4776C35.3227 21.9293 34.6987 22.2405 34.0269 22.381C32.588 22.8024 31.0972 23.0213 29.5977 23.0315Z" fill="url(#paint6_linear_1028_1203)"/>
<path d="M29.5977 23.0315C28.1006 23.0609 26.6075 22.866 25.1684 22.4533C24.6317 22.2695 24.1156 22.0303 23.6286 21.7396C23.4161 21.5916 23.2522 21.3841 23.1576 21.1434C23.0982 20.983 23.0935 20.8075 23.1443 20.6442C23.1951 20.4808 23.2985 20.3387 23.4384 20.24C23.9198 19.8092 24.4974 19.4995 25.1231 19.3366C27.2325 18.7722 29.4297 18.6097 31.5994 18.8578C32.7111 18.9364 33.8028 19.1926 34.833 19.6166C35.2015 19.7773 35.5411 19.997 35.8384 20.2671C35.9291 20.3399 36.0023 20.4321 36.0526 20.5368C36.1029 20.6416 36.129 20.7562 36.129 20.8724C36.129 20.9885 36.1029 21.1032 36.0526 21.2079C36.0023 21.3127 35.9291 21.4048 35.8384 21.4776C35.3227 21.9293 34.6987 22.2405 34.0269 22.381C32.588 22.8024 31.0972 23.0213 29.5977 23.0315Z" fill="url(#paint7_radial_1028_1203)"/>
<path d="M34.4615 21.5593C34.6132 21.4012 34.6979 21.1909 34.6979 20.9721C34.6979 20.7533 34.6132 20.5429 34.4615 20.3849C34.3411 20.2007 34.1525 20.0717 33.9369 20.026C33.7213 19.9803 33.4963 20.0216 33.3112 20.141C33.1574 20.2979 33.0713 20.5087 33.0713 20.7282C33.0713 20.9476 33.1574 21.1584 33.3112 21.3154C33.4425 21.4859 33.6304 21.6042 33.8413 21.6489C34.0521 21.6936 34.2721 21.6618 34.4615 21.5593Z" fill="url(#paint8_radial_1028_1203)"/>
</g>
<defs>
<radialGradient id="paint0_radial_1028_1203" cx="0" cy="0" r="1" gradientUnits="userSpaceOnUse" gradientTransform="translate(33.6757 29.6177) rotate(130.897) scale(11.9396 20.1227)">
<stop stop-color="#FAF7FC"/>
<stop offset="0.46" stop-color="#D8D0DD"/>
<stop offset="0.71" stop-color="#D0B3E3"/>
<stop offset="1" stop-color="#CFABE4"/>
</radialGradient>
<linearGradient id="paint1_linear_1028_1203" x1="13.7009" y1="25.5342" x2="28.2854" y2="30.3811" gradientUnits="userSpaceOnUse">
<stop offset="0.21" stop-color="#9B969E"/>
<stop offset="1" stop-color="#9A959E" stop-opacity="0"/>
</linearGradient>
<radialGradient id="paint2_radial_1028_1203" cx="0" cy="0" r="1" gradientUnits="userSpaceOnUse" gradientTransform="translate(39.6989 26.3355) rotate(167.325) scale(4.73482 3.93671)">
<stop stop-color="#F3F2F4"/>
<stop offset="1" stop-color="#F3F2F4" stop-opacity="0"/>
</radialGradient>
<radialGradient id="paint3_radial_1028_1203" cx="0" cy="0" r="1" gradientUnits="userSpaceOnUse" gradientTransform="translate(33.3718 21.5796) rotate(117.386) scale(13.4098 18.6449)">
<stop stop-color="#FAF7FC"/>
<stop offset="0.46" stop-color="#D8D0DD"/>
<stop offset="0.71" stop-color="#D0B3E3"/>
<stop offset="1" stop-color="#CFABE4"/>
</radialGradient>
<linearGradient id="paint4_linear_1028_1203" x1="13.7737" y1="21.7672" x2="26.0626" y2="24.2005" gradientUnits="userSpaceOnUse">
<stop offset="0.21" stop-color="#9B969E"/>
<stop offset="1" stop-color="#9A959E" stop-opacity="0"/>
</linearGradient>
<radialGradient id="paint5_radial_1028_1203" cx="0" cy="0" r="1" gradientUnits="userSpaceOnUse" gradientTransform="translate(36.1493 19.6919) rotate(159.337) scale(1.94576 2.49248)">
<stop stop-color="#F3F2F4"/>
<stop offset="1" stop-color="#F3F2F4" stop-opacity="0"/>
</radialGradient>
<linearGradient id="paint6_linear_1028_1203" x1="29.6158" y1="18.8126" x2="29.6158" y2="23.0315" gradientUnits="userSpaceOnUse">
<stop offset="0.35" stop-color="#232224"/>
<stop offset="1" stop-color="#623C86"/>
</linearGradient>
<radialGradient id="paint7_radial_1028_1203" cx="0" cy="0" r="1" gradientUnits="userSpaceOnUse" gradientTransform="translate(29.4373 20.3336) rotate(90) scale(2.33079 4.03974)">
<stop offset="0.35" stop-color="#443753"/>
<stop offset="1" stop-color="#433750" stop-opacity="0"/>
</radialGradient>
<radialGradient id="paint8_radial_1028_1203" cx="0" cy="0" r="1" gradientUnits="userSpaceOnUse" gradientTransform="translate(32.064 20.473) rotate(87.6405) scale(1.98014 2.08486)">
<stop stop-color="white"/>
<stop offset="1" stop-color="#F4F4F4" stop-opacity="0"/>
</radialGradient>
<clipPath id="clip0_1028_1203">
<rect width="56" height="56" fill="white"/>
</clipPath>
</defs>
</svg>
