<svg width="40" height="41" viewBox="0 0 40 41" fill="none" xmlns="http://www.w3.org/2000/svg">
<g clip-path="url(#clip0_107_360)">
<g filter="url(#filter0_d_107_360)">
<path d="M35.3 19.4612C35.3 18.2203 35.1886 17.0271 34.9818 15.8817H18.5V22.6589H27.9182C27.5045 24.8385 26.2636 26.6839 24.4023 27.9248V32.3317H30.0818C33.3909 29.2771 35.3 24.7907 35.3 19.4612Z" fill="#E90C59" stroke="#263238" stroke-width="2"/>
<path d="M18.4999 36.5635C23.2249 36.5635 27.1863 35.0044 30.0817 32.3317L24.4022 27.9248C22.8431 28.9748 20.8545 29.6112 18.4999 29.6112C13.9499 29.6112 10.084 26.5408 8.69992 22.4044H2.8772V26.9226C5.75674 32.6339 11.659 36.5635 18.4999 36.5635Z" fill="white" stroke="#263238" stroke-width="2"/>
<path d="M8.7 22.3885C8.35 21.3385 8.14318 20.2249 8.14318 19.0635C8.14318 17.9021 8.35 16.7885 8.7 15.7385V11.2203H2.87727C1.68409 13.5749 1 16.2317 1 19.0635C1 21.8953 1.68409 24.5521 2.87727 26.9067L7.41136 23.3749L8.7 22.3885Z" fill="#0C8CE9" stroke="#263238" stroke-width="2"/>
<path d="M18.4999 8.53166C21.0772 8.53166 23.3681 9.42257 25.1976 11.1407L30.209 6.12938C27.1704 3.29757 23.2249 1.56348 18.4999 1.56348C11.659 1.56348 5.75674 5.49302 2.8772 11.2203L8.69992 15.7385C10.084 11.6021 13.9499 8.53166 18.4999 8.53166Z" fill="white" stroke="#263238" stroke-width="2"/>
</g>
</g>
<defs>
<filter id="filter0_d_107_360" x="0" y="0.563477" width="39.3" height="40" filterUnits="userSpaceOnUse" color-interpolation-filters="sRGB">
<feFlood flood-opacity="0" result="BackgroundImageFix"/>
<feColorMatrix in="SourceAlpha" type="matrix" values="0 0 0 0 0 0 0 0 0 0 0 0 0 0 0 0 0 0 127 0" result="hardAlpha"/>
<feOffset dx="3" dy="3"/>
<feComposite in2="hardAlpha" operator="out"/>
<feColorMatrix type="matrix" values="0 0 0 0 0.14902 0 0 0 0 0.196078 0 0 0 0 0.219608 0 0 0 1 0"/>
<feBlend mode="normal" in2="BackgroundImageFix" result="effect1_dropShadow_107_360"/>
<feBlend mode="normal" in="SourceGraphic" in2="effect1_dropShadow_107_360" result="shape"/>
</filter>
<clipPath id="clip0_107_360">
<rect width="40" height="40" fill="white" transform="translate(0 0.563477)"/>
</clipPath>
</defs>
</svg>
