<svg id="Layer_1" data-name="Layer 1" xmlns="http://www.w3.org/2000/svg" viewBox="0 0 32.39 40.96"><defs><style>.cls-1{fill:#fff;}</style></defs><path class="cls-1" d="M-191.91-31.51a.69.69,0,0,1-.22-.49.69.69,0,0,1,.22-.49l1.67-1.63a3.67,3.67,0,0,0,1.13-2.64,3.69,3.69,0,0,0-1.13-2.64l-12.41-12a3.94,3.94,0,0,0-5.32,0l-12.41,12a3.72,3.72,0,0,0-1.12,2.64,3.7,3.7,0,0,0,1.12,2.64l1.68,1.63a.68.68,0,0,1,.21.49.68.68,0,0,1-.21.49l-1.68,1.62a3.72,3.72,0,0,0-1.12,2.64,3.7,3.7,0,0,0,1.12,2.64l12.41,12a3.82,3.82,0,0,0,2.66,1.07,3.8,3.8,0,0,0,2.66-1.07l12.41-12a3.71,3.71,0,0,0,1.13-2.65,3.69,3.69,0,0,0-1.13-2.64Z" transform="translate(221.5 52.46)"/></svg>