<svg width="40" height="41" viewBox="0 0 40 41" fill="none" xmlns="http://www.w3.org/2000/svg">
<g clip-path="url(#clip0_330_955)">
<g filter="url(#filter0_d_330_955)">
<path d="M18.3192 14.8848H20.7182C21.7006 14.8848 22.683 14.8811 23.6659 14.8848C24.4699 14.8848 25.0278 15.4208 25.0251 16.1834C25.0251 16.9311 24.4463 17.4751 23.6477 17.4762C21.987 17.4783 20.3255 17.4783 18.6633 17.4762H18.3342V20.9551C18.4366 20.9604 18.539 20.9701 18.6413 20.9701C20.3918 20.9701 22.1422 20.9738 23.8937 20.9663C23.9802 20.9595 24.0669 20.9763 24.1445 21.015C24.2221 21.0537 24.2877 21.1129 24.3343 21.1861C26.541 24.1806 28.7516 27.1718 30.9662 30.1596C31.5718 30.9796 31.5911 31.9443 31.0305 32.6646C30.8445 32.9088 30.604 33.106 30.3281 33.2404C30.0522 33.3749 29.7486 33.4428 29.4417 33.4388C29.1348 33.4348 28.8331 33.3589 28.5609 33.2173C28.2886 33.0757 28.0532 32.8723 27.8737 32.6234C26.0286 30.1276 24.1846 27.6309 22.3416 25.1334C22.2162 24.9624 22.0849 24.9034 21.8769 24.904C19.0642 24.9109 16.2494 24.9083 13.4383 24.9104C12.979 24.9104 12.5807 24.7727 12.354 24.3557C12.2443 24.1537 12.1844 23.9284 12.1793 23.6986C12.169 19.68 12.1672 15.6614 12.174 11.6428C12.174 10.6851 12.86 10.0194 13.8231 10.014C14.7782 10.0094 15.7336 10.0094 16.6894 10.014C17.6252 10.0173 18.3149 10.7044 18.3187 11.6369C18.3224 12.6102 18.3187 13.5835 18.3187 14.5568L18.3192 14.8848Z" fill="white" stroke="#263238" stroke-width="2"/>
<path d="M18.5414 5.47559C18.5397 6.18759 18.327 6.88311 17.9301 7.47422C17.5331 8.06532 16.9699 8.52548 16.3115 8.79651C15.653 9.06753 14.9291 9.13727 14.231 8.9969C13.533 8.85652 12.8923 8.51234 12.3898 8.00787C11.8874 7.50339 11.5457 6.86127 11.4082 6.16268C11.2706 5.46409 11.3433 4.74039 11.6169 4.08308C11.8906 3.42577 12.353 2.86435 12.9457 2.46981C13.5384 2.07526 14.2348 1.8653 14.9468 1.86646C16.9507 1.86539 18.5414 3.462 18.5414 5.47559Z" fill="#F5617A" stroke="#263238" stroke-width="2"/>
</g>
<path d="M1.99888 24.8435L2.00024 24.7818C2.07034 21.6155 3.16312 19.068 5.37088 17.0326L5.37296 17.0307L5.37297 17.0307C6.33314 16.1505 7.45686 15.4649 8.68093 15.0121C9.77313 14.6034 11.0197 15.0798 11.4634 16.2101C11.9185 17.3684 11.3415 18.5571 10.2287 19.0064L10.2286 19.0064C8.17837 19.8339 6.91082 21.2492 6.459 23.3364L6.45897 23.3366C5.98361 25.5309 6.60305 27.3931 8.26423 28.9697L8.26425 28.9697C9.40701 30.0543 10.7948 30.5776 12.3977 30.5607C14.1165 30.5417 15.5565 29.8954 16.7569 28.6444L16.7575 28.6437C17.2202 28.1624 17.5812 27.5967 17.8729 26.9517C18.295 26.0181 19.2633 25.4917 20.2747 25.7071C21.5746 25.9823 22.4017 27.3665 21.8067 28.6695L21.8062 28.6706C20.3402 31.8714 17.8336 33.9165 14.3512 34.6379C12.1273 35.0997 9.88837 34.8855 7.82194 33.7737L1.99888 24.8435ZM1.99888 24.8435L2.00511 24.9049M1.99888 24.8435L2.00511 24.9049M2.00511 24.9049C2.00837 24.9371 2.01196 24.9894 2.01661 25.0571M2.00511 24.9049L2.01661 25.0571M2.01661 25.0571C2.03509 25.3263 2.07023 25.8382 2.16758 26.287L2.01661 25.0571ZM2.16773 26.2877C2.89078 29.6295 4.81265 32.1553 7.82172 33.7736L2.16773 26.2877Z" fill="#68A4EF" stroke="#263238" stroke-width="2"/>
</g>
<defs>
<filter id="filter0_d_330_955" x="10.3403" y="0.866455" width="25.0962" height="36.5725" filterUnits="userSpaceOnUse" color-interpolation-filters="sRGB">
<feFlood flood-opacity="0" result="BackgroundImageFix"/>
<feColorMatrix in="SourceAlpha" type="matrix" values="0 0 0 0 0 0 0 0 0 0 0 0 0 0 0 0 0 0 127 0" result="hardAlpha"/>
<feOffset dx="3" dy="3"/>
<feComposite in2="hardAlpha" operator="out"/>
<feColorMatrix type="matrix" values="0 0 0 0 0.14902 0 0 0 0 0.196078 0 0 0 0 0.219608 0 0 0 1 0"/>
<feBlend mode="normal" in2="BackgroundImageFix" result="effect1_dropShadow_330_955"/>
<feBlend mode="normal" in="SourceGraphic" in2="effect1_dropShadow_330_955" result="shape"/>
</filter>
<clipPath id="clip0_330_955">
<rect width="40" height="40" fill="white" transform="translate(0 0.866455)"/>
</clipPath>
</defs>
</svg>
