<svg width="40" height="40" viewBox="0 0 40 40" fill="none" xmlns="http://www.w3.org/2000/svg">
<g filter="url(#filter0_d_633_1177)">
<path d="M20.9712 15.4219H23.6288C24.7171 15.4219 25.8054 15.4177 26.8944 15.4219C27.785 15.4219 28.403 16.0156 28.4001 16.8605C28.4001 17.6888 27.7588 18.2914 26.8742 18.2926C25.0344 18.295 23.1938 18.295 21.3524 18.2926H20.9878V22.1465C21.1012 22.1525 21.2146 22.1632 21.328 22.1632C23.2672 22.1632 25.2064 22.1673 27.1467 22.159C27.2425 22.1514 27.3385 22.1701 27.4245 22.213C27.5105 22.2559 27.5832 22.3214 27.6347 22.4024C30.0794 25.7199 32.5283 29.0335 34.9817 32.3434C35.6526 33.2518 35.674 34.3206 35.0529 35.1186C34.8469 35.389 34.5804 35.6075 34.2748 35.7564C33.9691 35.9054 33.6328 35.9806 33.2928 35.9762C32.9529 35.9718 32.6187 35.8877 32.317 35.7309C32.0154 35.574 31.7547 35.3486 31.5558 35.0728C29.5117 32.308 27.4689 29.5422 25.4272 26.7753C25.2883 26.5859 25.1428 26.5206 24.9125 26.5212C21.7965 26.5289 18.6782 26.526 15.564 26.5283C15.0552 26.5283 14.614 26.3757 14.3629 25.9138C14.2413 25.6901 14.175 25.4405 14.1693 25.1859C14.1579 20.734 14.1559 16.2822 14.1634 11.8303C14.1634 10.7693 14.9234 10.0319 15.9903 10.026C17.0484 10.0208 18.1068 10.0208 19.1657 10.026C20.2023 10.0295 20.9665 10.7907 20.9706 11.8238C20.9748 12.902 20.9706 13.9803 20.9706 15.0585L20.9712 15.4219Z" fill="white" stroke="#263238" stroke-width="2"/>
<path d="M21.217 4.99824C21.2151 5.78701 20.9794 6.55752 20.5397 7.21235C20.1 7.86719 19.476 8.37695 18.7466 8.6772C18.0172 8.97745 17.2151 9.0547 16.4419 8.89919C15.6686 8.74369 14.9587 8.3624 14.4021 7.80353C13.8455 7.24467 13.4671 6.53332 13.3147 5.75941C13.1623 4.9855 13.2427 4.18378 13.5459 3.4556C13.8491 2.72743 14.3614 2.10548 15.018 1.6684C15.6745 1.23132 16.446 0.998716 17.2348 1.00001C19.4548 0.998818 21.217 2.76757 21.217 4.99824Z" fill="#E90C59" stroke="#263238" stroke-width="2"/>
</g>
<path d="M2.99888 26.45L3.00024 26.3883C3.07731 22.9075 4.27701 20.1139 6.69957 17.8805L6.70165 17.8786L6.70166 17.8786C7.75507 16.9129 8.98796 16.1607 10.331 15.6639C11.49 15.2301 12.8068 15.7361 13.2754 16.929L2.99888 26.45ZM2.99888 26.45L3.00511 26.5114M2.99888 26.45L3.00511 26.5114M3.00511 26.5114C3.00909 26.5506 3.01334 26.6123 3.01875 26.6909C3.03953 26.9924 3.07747 27.5431 3.18321 28.0306L3.00511 26.5114ZM11.9677 19.8878L11.9676 19.8878C9.66626 20.8167 8.23531 22.4116 7.72656 24.7619L7.72652 24.762C7.19146 27.2319 7.89168 29.3326 9.75757 31.1035L9.75758 31.1035C11.0447 32.3251 12.6094 32.9146 14.4116 32.8957C16.346 32.8743 17.9687 32.1456 19.3178 30.7395L19.3185 30.7389C19.841 30.1953 20.2473 29.5577 20.5746 28.8343L11.9677 19.8878ZM11.9677 19.8878C13.149 19.4109 13.7567 18.1543 13.2755 16.9294L11.9677 19.8878ZM24.7363 30.648L24.7358 30.6491C23.1256 34.1644 20.3767 36.4069 16.5532 37.1991C14.1108 37.7062 11.6569 37.4704 9.39287 36.2522L24.7363 30.648ZM24.7363 30.648C25.3643 29.2724 24.493 27.8081 23.1148 27.5164M24.7363 30.648L23.1148 27.5164M23.1148 27.5164C22.0464 27.2888 21.0225 27.8436 20.5747 28.8341L23.1148 27.5164ZM3.18328 28.0309C3.97746 31.702 6.08645 34.4741 9.39265 36.2521L3.18328 28.0309Z" fill="#0C8CE9" stroke="#263238" stroke-width="2"/>
<defs>
<filter id="filter0_d_633_1177" x="12.2395" y="0" width="27.2632" height="39.9764" filterUnits="userSpaceOnUse" color-interpolation-filters="sRGB">
<feFlood flood-opacity="0" result="BackgroundImageFix"/>
<feColorMatrix in="SourceAlpha" type="matrix" values="0 0 0 0 0 0 0 0 0 0 0 0 0 0 0 0 0 0 127 0" result="hardAlpha"/>
<feOffset dx="3" dy="3"/>
<feComposite in2="hardAlpha" operator="out"/>
<feColorMatrix type="matrix" values="0 0 0 0 0.14902 0 0 0 0 0.196078 0 0 0 0 0.219608 0 0 0 1 0"/>
<feBlend mode="normal" in2="BackgroundImageFix" result="effect1_dropShadow_633_1177"/>
<feBlend mode="normal" in="SourceGraphic" in2="effect1_dropShadow_633_1177" result="shape"/>
</filter>
</defs>
</svg>
