<svg width="708" height="610" viewBox="0 0 708 610" fill="none" xmlns="http://www.w3.org/2000/svg">
<g opacity="0.05">
<path d="M357.821 -39.4612H356.939C356.939 -39.4612 354.588 -39.1673 354.588 -37.3058C354.588 -35.4443 356.939 -35.3464 356.939 -35.3464H357.968C518.877 -35.3464 645.449 94.6145 645.449 255.535C645.449 363.06 589.902 457.505 503.398 508.01C503.398 508.01 501.194 509.529 502.174 511.097C502.437 511.484 502.797 511.797 503.218 512.003C503.638 512.209 504.106 512.302 504.574 512.272C593.135 461.424 650.298 364.97 650.298 255.535C650.004 92.802 520.542 -39.4612 357.821 -39.4612Z" fill="#121416"/>
<g opacity="0.6">
<path opacity="0.02" d="M425.071 602.896L430.055 601.837L425.573 580.754L420.59 581.813L425.071 602.896Z" fill="#121416"/>
<path opacity="0.12" d="M460.937 593.496L465.782 591.921L459.122 571.422L454.276 572.996L460.937 593.496Z" fill="#121416"/>
<path opacity="0.22" d="M495.623 580.426L500.277 578.354L491.511 558.663L486.857 560.735L495.623 580.426Z" fill="#121416"/>
<path opacity="0.32" d="M528.806 563.891L533.218 561.344L522.442 542.677L518.03 545.225L528.806 563.891Z" fill="#121416"/>
<path opacity="0.42" d="M560.002 543.815L564.124 540.821L551.455 523.383L547.333 526.377L560.002 543.815Z" fill="#121416"/>
<path opacity="0.52" d="M588.98 520.812L592.766 517.403L578.344 501.385L574.558 504.794L588.98 520.812Z" fill="#121416"/>
<path opacity="0.52" d="M615.331 494.763L618.74 490.977L602.723 476.554L599.314 480.34L615.331 494.763Z" fill="#121416"/>
<path opacity="0.52" d="M638.802 466.091L641.797 461.97L624.36 449.3L621.365 453.422L638.802 466.091Z" fill="#121416"/>
<path opacity="0.52" d="M659.249 435.199L661.796 430.787L643.13 420.01L640.583 424.422L659.249 435.199Z" fill="#121416"/>
<path opacity="0.52" d="M676.349 402.348L678.421 397.694L658.731 388.927L656.659 393.581L676.349 402.348Z" fill="#121416"/>
<path opacity="0.52" d="M689.771 367.791L691.345 362.946L670.846 356.285L669.272 361.13L689.771 367.791Z" fill="#121416"/>
<path opacity="0.52" d="M699.568 332.017L700.627 327.033L679.544 322.552L678.485 327.535L699.568 332.017Z" fill="#121416"/>
<path opacity="0.52" d="M705.703 295.511L706.235 290.445L684.801 288.192L684.268 293.258L705.703 295.511Z" fill="#121416"/>
<path opacity="0.52" d="M708 258.572V253.477H686.448V258.572H708Z" fill="#121416"/>
<path opacity="0.52" d="M706.346 221.542L705.814 216.475L684.379 218.728L684.912 223.795L706.346 221.542Z" fill="#121416"/>
<path opacity="0.52" d="M700.872 184.915L699.813 179.931L678.73 184.413L679.789 189.396L700.872 184.915Z" fill="#121416"/>
<path opacity="0.52" d="M691.455 149.056L689.881 144.21L669.382 150.871L670.956 155.716L691.455 149.056Z" fill="#121416"/>
<path opacity="0.52" d="M678.36 114.376L676.288 109.722L656.598 118.489L658.67 123.144L678.36 114.376Z" fill="#121416"/>
<path opacity="0.52" d="M662.004 81.1502L659.456 76.738L640.79 87.5156L643.338 91.9277L662.004 81.1502Z" fill="#121416"/>
<path opacity="0.52" d="M641.796 50.0146L638.801 45.893L621.364 58.5627L624.358 62.6843L641.796 50.0146Z" fill="#121416"/>
<path opacity="0.52" d="M618.754 21.0109L615.346 17.2249L599.328 31.6478L602.737 35.4339L618.754 21.0109Z" fill="#121416"/>
<path opacity="0.52" d="M592.773 -5.39499L588.987 -8.80399L574.565 7.21426L578.351 10.6233L592.773 -5.39499Z" fill="#121416"/>
</g>
<path d="M38.9904 362.325L38.2557 359.974L352.531 255.731L353.265 258.033L38.9904 362.325Z" fill="#121416"/>
<path d="M357.429 258.425L349.249 258.523L348.367 19.9592L352.335 19.9103L357.429 258.425Z" fill="#121416"/>
<path style="mix-blend-mode:multiply" opacity="0.2" d="M362.974 275.243C372.207 270.194 375.178 257.845 369.611 247.662C364.043 237.479 352.044 233.317 342.811 238.366C333.577 243.415 330.606 255.763 336.174 265.947C341.742 276.13 353.741 280.292 362.974 275.243Z" fill="url(#paint0_radial_67_469)"/>
<path d="M339.746 242.553L346.849 238.438L482.09 476.561L478.662 478.57L339.746 242.553Z" fill="#121416"/>
<path d="M362.573 256.906C362.573 258.844 361.999 260.738 360.922 262.349C359.846 263.961 358.316 265.216 356.525 265.958C354.735 266.699 352.765 266.893 350.865 266.515C348.964 266.137 347.219 265.204 345.848 263.834C344.478 262.464 343.545 260.718 343.167 258.818C342.789 256.917 342.983 254.947 343.725 253.157C344.466 251.367 345.722 249.837 347.333 248.76C348.944 247.684 350.838 247.109 352.776 247.109C355.374 247.109 357.866 248.141 359.704 249.979C361.541 251.816 362.573 254.308 362.573 256.906Z" fill="#121416"/>
</g>
<defs>
<radialGradient id="paint0_radial_67_469" cx="0" cy="0" r="1" gradientUnits="userSpaceOnUse" gradientTransform="translate(363.139 283.381) rotate(-28.1311) scale(19.1603 20.9685)">
<stop/>
<stop offset="0.6" stop-color="#505050"/>
<stop offset="1" stop-color="white"/>
</radialGradient>
</defs>
</svg>
