<svg width="20" height="20" viewBox="0 0 20 20" fill="none" xmlns="http://www.w3.org/2000/svg">
<path d="M19.375 1.5625H0.625C0.28 1.5625 0 1.8425 0 2.1875V17.8125C0 18.1575 0.28 18.4375 0.625 18.4375H19.375C19.72 18.4375 20 18.1575 20 17.8125V2.1875C20 1.8425 19.72 1.5625 19.375 1.5625ZM18.75 2.8125V5.3125H1.25V2.8125H18.75ZM1.25 17.1875V6.5625H18.75V17.1875H1.25Z" fill="#3B6AFC"/>
<path d="M3.125 4.6876C3.2875 4.6876 3.45 4.62197 3.56562 4.50322C3.68437 4.3876 3.75 4.2251 3.75 4.0626C3.75 3.9001 3.68437 3.7376 3.56562 3.61885C3.33437 3.3876 2.91562 3.3876 2.68125 3.62197C2.56562 3.7376 2.5 3.89697 2.5 4.0626C2.5 4.22822 2.56563 4.3876 2.68438 4.50635C2.8 4.62197 2.96219 4.6876 3.125 4.6876Z" fill="#3B6AFC"/>
<path d="M5 4.6876C5.1625 4.6876 5.325 4.62197 5.44375 4.50322C5.55938 4.3876 5.625 4.2251 5.625 4.0626C5.625 3.9001 5.55937 3.7376 5.44062 3.61885C5.20937 3.3876 4.79062 3.3876 4.55625 3.62197C4.44062 3.7376 4.375 3.9001 4.375 4.0626C4.375 4.2251 4.44063 4.3876 4.55938 4.50635C4.675 4.62197 4.83719 4.6876 5 4.6876Z" fill="#3B6AFC"/>
<path d="M6.875 4.6876C7.04062 4.6876 7.2 4.62197 7.31562 4.50322C7.43437 4.3876 7.5 4.22822 7.5 4.0626C7.5 3.9001 7.43437 3.7376 7.31562 3.61885C7.08437 3.3876 6.66562 3.3876 6.43125 3.62197C6.31562 3.7376 6.25 3.9001 6.25 4.0626C6.25 4.22822 6.31563 4.3876 6.43438 4.50322C6.55 4.62197 6.71219 4.6876 6.875 4.6876Z" fill="#3B6AFC"/>
<path d="M9.6875 7.8125H3.125C2.78 7.8125 2.5 8.0925 2.5 8.4375C2.5 8.7825 2.78 9.0625 3.125 9.0625H9.6875C10.0325 9.0625 10.3125 8.7825 10.3125 8.4375C10.3125 8.0925 10.0325 7.8125 9.6875 7.8125Z" fill="#3B6AFC"/>
<path d="M9.6875 10.3125H3.125C2.78 10.3125 2.5 10.5925 2.5 10.9375C2.5 11.2825 2.78 11.5625 3.125 11.5625H9.6875C10.0325 11.5625 10.3125 11.2825 10.3125 10.9375C10.3125 10.5925 10.0325 10.3125 9.6875 10.3125Z" fill="#3B6AFC"/>
<path d="M9.6875 12.8125H3.125C2.78 12.8125 2.5 13.0925 2.5 13.4375C2.5 13.7825 2.78 14.0625 3.125 14.0625H9.6875C10.0325 14.0625 10.3125 13.7825 10.3125 13.4375C10.3125 13.0925 10.0325 12.8125 9.6875 12.8125Z" fill="#3B6AFC"/>
<path d="M16.875 7.8125H12.1875C11.8425 7.8125 11.5625 8.0925 11.5625 8.4375V13.4375C11.5625 13.7825 11.8425 14.0625 12.1875 14.0625H16.875C17.22 14.0625 17.5 13.7825 17.5 13.4375V8.4375C17.5 8.0925 17.22 7.8125 16.875 7.8125ZM16.25 12.8125H12.8125V9.0625H16.25V12.8125Z" fill="#3B6AFC"/>
</svg>
