<svg width="20" height="20" viewBox="0 0 20 20" fill="none" xmlns="http://www.w3.org/2000/svg">
<g clip-path="url(#clip0_849_1427)">
<path d="M12.624 7.82446C12.624 7.82446 11.2784 11.617 10.639 12.2792C9.99962 12.9413 8.94449 12.9598 8.28237 12.3203C7.6202 11.6809 7.60179 10.6258 8.2412 9.96367C8.88062 9.30155 12.624 7.82446 12.624 7.82446Z" stroke="#3B6AFC" stroke-width="1.5" stroke-linejoin="round"/>
<path d="M16.1872 16.1872C17.7706 14.6038 18.75 12.4162 18.75 10C18.75 5.1675 14.8325 1.25 10 1.25C5.1675 1.25 1.25 5.1675 1.25 10C1.25 12.4162 2.22938 14.6038 3.81282 16.1872" stroke="#3B6AFC" stroke-width="1.5" stroke-linecap="round" stroke-linejoin="round"/>
<path d="M10 1.66675V3.33341" stroke="#3B6AFC" stroke-width="1.5" stroke-linecap="round" stroke-linejoin="round"/>
<path d="M16.1859 4.64258L14.8906 5.69141" stroke="#3B6AFC" stroke-width="1.5" stroke-linecap="round" stroke-linejoin="round"/>
<path d="M17.7177 11.3471L16.0938 10.9722" stroke="#3B6AFC" stroke-width="1.5" stroke-linecap="round" stroke-linejoin="round"/>
<path d="M2.28223 11.3471L3.90618 10.9722" stroke="#3B6AFC" stroke-width="1.5" stroke-linecap="round" stroke-linejoin="round"/>
<path d="M3.81445 4.64258L5.10969 5.69141" stroke="#3B6AFC" stroke-width="1.5" stroke-linecap="round" stroke-linejoin="round"/>
</g>
<defs>
<clipPath id="clip0_849_1427">
<rect width="20" height="20" fill="white"/>
</clipPath>
</defs>
</svg>
