<svg width="60" height="60" viewBox="0 0 60 60" fill="none" xmlns="http://www.w3.org/2000/svg">
<g clip-path="url(#clip0_768_2847)">
<path d="M16.7651 36.3147C15.3573 35.916 14.0006 35.3549 12.7225 34.6425C10.1728 33.1438 8.30402 30.7144 7.50948 27.8655C7.01565 26.2689 6.87858 24.5832 7.10803 22.9277C7.33749 21.2723 7.92784 19.6874 8.83732 18.2853C9.70315 16.8574 10.8713 15.6366 12.2597 14.7088C13.648 13.781 15.2228 13.1686 16.8733 12.9148L17.3258 12.8361C17.3258 12.7083 17.3258 12.541 17.3258 12.3837C17.4157 9.05784 18.8044 5.89945 21.1943 3.58486C23.5843 1.27027 26.7856 -0.0164835 30.1126 0.000159455H30.2011C33.5563 0.00524513 36.7739 1.33499 39.1537 3.70012C41.5336 6.06526 42.8833 9.27444 42.9092 12.6296V12.8361L43.2633 12.8952C45.2732 13.2087 47.168 14.0363 48.7638 15.2978C50.3596 16.5593 51.6024 18.2119 52.3714 20.0951C53.136 21.9572 53.409 23.9845 53.1644 25.9825C52.9198 27.9806 52.1658 29.8822 50.9747 31.5049C49.1957 33.939 46.5782 35.6279 43.6272 36.2458L43.2731 34.2786C45.7217 33.7579 47.8946 32.3582 49.3813 30.3442C50.3764 28.9926 51.0068 27.4076 51.2118 25.7418C51.4168 24.0759 51.1895 22.3853 50.5517 20.8328C49.9046 19.2624 48.8644 17.8847 47.5312 16.8323C46.198 15.7798 44.6165 15.0879 42.9387 14.823C41.542 14.5968 40.9715 14.2427 40.9715 12.6493C40.938 9.81381 39.7928 7.10484 37.7822 5.10527C35.7716 3.1057 33.0563 1.97538 30.2208 1.95753H30.1421C27.3295 1.95618 24.6271 3.05007 22.6073 5.00737C20.5876 6.96466 19.4094 9.63151 19.3225 12.4427C19.2634 14.164 18.9389 14.5476 17.2471 14.8427C15.8663 15.0503 14.548 15.5588 13.3854 16.3321C12.2229 17.1055 11.2444 18.1248 10.5193 19.3181C9.76073 20.4849 9.26716 21.8039 9.07343 23.1821C8.8797 24.5604 8.9905 25.9643 9.39798 27.295C10.0632 29.6706 11.6209 31.697 13.7455 32.9507C14.8701 33.5789 16.061 34.0803 17.2962 34.4458L16.7651 36.3147Z" fill="#121416"/>
<path d="M29.3456 17.1838C33.4374 17.2821 36.6734 17.7247 39.6242 19.3575C40.3833 19.7898 41.0758 20.3298 41.68 20.9608C41.9698 21.2299 42.2027 21.5546 42.3646 21.9155C42.5265 22.2764 42.6142 22.6662 42.6224 23.0617C42.6307 23.4572 42.5593 23.8503 42.4126 24.2176C42.2659 24.585 42.0469 24.9191 41.7684 25.2001C40.6772 26.4053 39.2751 27.2867 37.716 27.7476C35.2593 28.5927 32.6812 29.0312 30.0833 29.046C27.3596 29.0369 24.6602 28.5336 22.1161 27.5607C20.9208 27.1014 19.8154 26.4355 18.8506 25.5935C17.149 24.1083 17.208 22.21 18.8506 20.6755C20.5849 19.1642 22.7139 18.1782 24.9882 17.8329C26.68 17.4985 27.6263 17.318 29.3456 17.1838ZM29.2656 15.7772L29.1836 15.7772L28.2833 15.8559C27.2997 15.9641 26.0014 16.1116 24.703 16.3674C22.149 16.7636 19.7607 17.8793 17.8178 19.5837C17.2903 20.0397 16.8658 20.6026 16.5724 21.2352C16.279 21.8677 16.1236 22.5554 16.1162 23.2526C16.1439 23.9184 16.3145 24.5706 16.6166 25.1646C16.9187 25.7586 17.3452 26.2806 17.867 26.6952C18.9624 27.6687 20.2211 28.4412 21.585 28.9771C24.2964 30.0094 27.1722 30.5426 30.0735 30.5509C32.832 30.5356 35.5696 30.0705 38.1783 29.1738C39.9869 28.641 41.6137 27.62 42.8799 26.223C43.6799 25.3767 44.1132 24.2487 44.0856 23.0845C44.058 21.9203 43.5716 20.8141 42.7324 20.0067C42.0275 19.2663 41.2151 18.6363 40.3226 18.1379C37.0472 16.3182 33.5751 15.8854 29.3751 15.7772H29.2656Z" fill="#121416"/>
<path d="M17.6114 26.4196C20.3163 29.0557 25.254 30.354 30.172 30.354C35.09 30.354 39.8703 29.0655 42.5457 26.4787C42.5777 26.6871 42.5975 26.8973 42.6047 27.1081C42.6047 28.0917 42.5457 29.0753 42.6047 30.0098C42.6655 30.7715 42.5138 31.5352 42.1665 32.2159C41.8192 32.8966 41.29 33.4676 40.6375 33.8655C38.8709 35.075 36.8532 35.8687 34.7359 36.1868C33.1506 36.4907 31.5403 36.6454 29.9261 36.6491C27.1941 36.6607 24.4844 36.1568 21.9393 35.1638C20.6495 34.7088 19.4863 33.9536 18.5459 32.9606C18.2231 32.6291 17.9698 32.2365 17.8009 31.8058C17.632 31.375 17.5508 30.9149 17.5623 30.4524C17.5623 29.1442 17.5623 27.8458 17.5623 26.3901M16.0869 22.8885V26.3901C16.0869 26.8327 16.0869 27.2754 16.0869 27.6983C16.0869 28.6819 16.0869 29.5376 16.0869 30.4229C16.0688 31.0719 16.1795 31.7181 16.4124 32.3242C16.6454 32.9302 16.9961 33.4841 17.4442 33.954C18.5355 35.1119 19.883 35.9979 21.3786 36.5409C24.0971 37.5976 26.9898 38.1347 29.9064 38.1245C31.6092 38.1156 33.3078 37.9543 34.9818 37.6425C37.3012 37.2763 39.5092 36.3958 41.4441 35.0655C42.3079 34.5228 43.006 33.7533 43.4622 32.841C43.9184 31.9286 44.1151 30.9084 44.031 29.8917C44.031 29.3213 44.031 28.7311 44.031 28.1016C44.031 27.7672 44.031 27.4327 44.031 27.118C44.031 26.8032 44.031 26.754 44.031 26.5475V26.3606L44.031 23L41.5326 25.436C39.3293 27.5704 34.9818 28.8983 30.1819 28.8983C25.3819 28.8983 20.8966 27.5409 18.654 25.3475L16.1459 22.9082L16.0869 22.8885Z" fill="#121416"/>
<path d="M17.6107 34.1114C21.2697 37.2589 25.5779 38.0458 30.073 38.0458C34.5582 38.0458 38.8663 37.2687 42.4663 34.2196C42.4663 35.9114 42.5745 37.5737 42.4663 39.1966C42.3507 39.6835 42.1343 40.1408 41.831 40.539C41.5278 40.9371 41.1444 41.2672 40.7057 41.5081C38.9954 42.7026 37.0394 43.4991 34.9811 43.8392C33.3225 44.1689 31.6362 44.3402 29.9451 44.3507C27.2909 44.3644 24.658 43.8772 22.1845 42.9146C21.1011 42.4604 20.0771 41.8758 19.1353 41.1736C18.6215 40.813 18.2101 40.3252 17.9411 39.758C17.6722 39.1909 17.555 38.5636 17.6009 37.9376C17.6599 36.7081 17.6009 35.4687 17.6009 34.1114M16.1255 30.895V34.1114C16.1255 34.5343 16.1255 34.9573 16.1255 35.3606C16.1255 36.236 16.1255 37.0622 16.1255 37.8786C16.0702 38.7481 16.2393 39.6172 16.6165 40.4026C16.9937 41.188 17.5663 41.8633 18.2796 42.3638C19.3111 43.1623 20.4418 43.8235 21.6435 44.331C24.2917 45.3526 27.1067 45.8729 29.9451 45.8654C31.7321 45.8553 33.5139 45.6742 35.2663 45.3244C37.5396 44.95 39.6985 44.0656 41.581 42.7376C42.192 42.3792 42.7184 41.8931 43.1241 41.3125C43.5298 40.732 43.8054 40.0706 43.9319 39.3736C44.0232 38.1661 44.0462 36.9543 44.0007 35.7442C44.0007 35.2524 44.0007 34.7605 44.0007 34.2589V31.0721L41.5712 33.1278C38.7286 35.5376 35.1975 36.6097 30.132 36.6097C25.0664 36.6097 21.4664 35.4982 18.5943 33.0294L16.155 30.9344L16.1255 30.895Z" fill="#121416"/>
<path d="M30.0933 54.5703C30.8066 54.5649 31.4933 54.8405 32.005 55.3375C32.5167 55.8345 32.8122 56.5128 32.8277 57.226C32.8277 57.9495 32.5409 58.6435 32.0303 59.156C31.5196 59.6686 30.8266 59.9578 30.1031 59.9604C29.3918 59.9552 28.7113 59.669 28.2101 59.1641C27.7089 58.6592 27.4277 57.9767 27.4278 57.2653C27.4251 56.5548 27.7041 55.8723 28.2038 55.3672C28.7034 54.862 29.3828 54.5755 30.0933 54.5703Z" fill="#ED305C"/>
<path d="M15.2304 54.5702C15.5863 54.565 15.9396 54.631 16.2695 54.7644C16.5994 54.8979 16.8992 55.096 17.1513 55.3472C17.4034 55.5984 17.6027 55.8975 17.7373 56.227C17.872 56.5564 17.9393 56.9094 17.9353 57.2653C17.9418 57.6179 17.8788 57.9684 17.7499 58.2967C17.6209 58.625 17.4285 58.9247 17.1837 59.1786C16.939 59.4325 16.6466 59.6357 16.3232 59.7766C15.9999 59.9175 15.6519 59.9933 15.2993 59.9997C14.9411 60.0049 14.5855 59.9392 14.2528 59.8063C13.9202 59.6734 13.6171 59.476 13.3611 59.2255C13.1051 58.975 12.9013 58.6763 12.7612 58.3466C12.6212 58.0169 12.5478 57.6628 12.5452 57.3046C12.54 56.9483 12.6055 56.5944 12.738 56.2635C12.8705 55.9326 13.0673 55.6313 13.3171 55.3769C13.5668 55.1226 13.8645 54.9204 14.1929 54.7819C14.5213 54.6434 14.874 54.5715 15.2304 54.5702Z" fill="#3B6AFC"/>
<path d="M47.6895 57.2654C47.6766 57.9768 47.3849 58.6548 46.8771 59.1533C46.3694 59.6518 45.6863 59.9311 44.9747 59.9309C44.6165 59.9271 44.2626 59.8524 43.9334 59.7112C43.6042 59.5699 43.3063 59.365 43.0567 59.108C42.8071 58.8511 42.6108 58.5473 42.4791 58.2142C42.3474 57.8811 42.283 57.5252 42.2895 57.167C42.3076 56.4539 42.6076 55.777 43.1238 55.2848C43.6401 54.7925 44.3304 54.525 45.0436 54.5408C45.3962 54.546 45.7444 54.6205 46.0682 54.7602C46.3921 54.8999 46.6852 55.102 46.9309 55.355C47.1766 55.608 47.37 55.907 47.5002 56.2348C47.6303 56.5625 47.6947 56.9127 47.6895 57.2654Z" fill="#3B6AFC"/>
<path d="M31.2733 53.2227H28.9619V45.767H31.2733V53.2227Z" fill="#121416"/>
<path d="M19.3125 58.4162V56.1244H26.06V58.4162H19.3125Z" fill="#121416"/>
<path d="M34.1748 58.4063V56.1244H40.9321V58.4063H34.1748Z" fill="#121416"/>
</g>
<defs>
<clipPath id="clip0_768_2847">
<rect width="60" height="60" fill="white"/>
</clipPath>
</defs>
</svg>
