<svg width="20" height="20" viewBox="0 0 20 20" fill="none" xmlns="http://www.w3.org/2000/svg">
<g clip-path="url(#clip0_838_2178)">
<path d="M5.83333 5.83341C6.29357 5.83341 6.66667 5.46032 6.66667 5.00008C6.66667 4.53985 6.29357 4.16675 5.83333 4.16675C5.37309 4.16675 5 4.53985 5 5.00008C5 5.46032 5.37309 5.83341 5.83333 5.83341Z" fill="#3B6AFC"/>
<path d="M6.66667 11.6666C6.66667 12.1268 6.29357 12.4999 5.83333 12.4999C5.37309 12.4999 5 12.1268 5 11.6666C5 11.2063 5.37309 10.8333 5.83333 10.8333C6.29357 10.8333 6.66667 11.2063 6.66667 11.6666Z" fill="#3B6AFC"/>
<path fill-rule="evenodd" clip-rule="evenodd" d="M15.833 0.833252C17.2138 0.833252 18.333 1.95254 18.333 3.33325V6.66658C18.333 7.30688 18.0923 7.89096 17.6964 8.33325C18.0923 8.77558 18.333 9.35958 18.333 9.99992V13.3333C18.333 14.714 17.2138 15.8333 15.833 15.8333H10.833V17.4999H18.333C18.7933 17.4999 19.1663 17.873 19.1663 18.3333C19.1663 18.7935 18.7933 19.1666 18.333 19.1666H1.66634C1.20611 19.1666 0.833008 18.7935 0.833008 18.3333C0.833008 17.873 1.20611 17.4999 1.66634 17.4999H9.16634V15.8333H4.16634C2.78563 15.8333 1.66634 14.714 1.66634 13.3333V9.99992C1.66634 9.35958 1.90705 8.77558 2.30292 8.33325C1.90705 7.89096 1.66634 7.30688 1.66634 6.66658V3.33325C1.66634 1.95254 2.78563 0.833252 4.16634 0.833252H15.833ZM4.16634 7.49992H15.833C16.2933 7.49992 16.6663 7.12682 16.6663 6.66658V3.33325C16.6663 2.87302 16.2933 2.49992 15.833 2.49992H4.16634C3.70611 2.49992 3.33301 2.87302 3.33301 3.33325V6.66658C3.33301 7.12682 3.70611 7.49992 4.16634 7.49992ZM4.16634 9.16658C3.70611 9.16658 3.33301 9.53967 3.33301 9.99992V13.3333C3.33301 13.7935 3.70611 14.1666 4.16634 14.1666H15.833C16.2933 14.1666 16.6663 13.7935 16.6663 13.3333V9.99992C16.6663 9.53967 16.2933 9.16658 15.833 9.16658H4.16634Z" fill="#3B6AFC"/>
</g>
<defs>
<clipPath id="clip0_838_2178">
<rect width="20" height="20" fill="white"/>
</clipPath>
</defs>
</svg>
