<svg width="182" height="41" viewBox="0 0 182 41" fill="none" xmlns="http://www.w3.org/2000/svg">
<path d="M27.9912 21.7777L25.3591 16.0536L26.0011 15.7338L25.7604 15.2541L25.1425 15.5579L25.0622 15.374C25.031 15.3117 24.977 15.2637 24.9113 15.2399C24.8456 15.2161 24.7732 15.2183 24.7091 15.2461C24.679 15.2573 24.6513 15.2744 24.6279 15.2963C24.6045 15.3183 24.5857 15.3447 24.5727 15.374L24.5005 15.5339C24.045 15.3264 23.5488 15.2226 23.048 15.2301H20.8012V14.6945H21.3308V14.1589H20.8814L21.074 13.3594C21.1421 13.0775 21.0961 12.7803 20.9459 12.5319C20.7958 12.2836 20.5535 12.1041 20.2715 12.0323C20.1314 11.9976 19.9857 11.9908 19.8429 12.0122C19.7001 12.0336 19.5629 12.0828 19.4392 12.1571C19.3155 12.2313 19.2077 12.3291 19.122 12.4449C19.0362 12.5606 18.9742 12.6921 18.9395 12.8318C18.8912 13.0044 18.8912 13.1868 18.9395 13.3594L19.132 14.1589H18.6666V14.6945H19.2043V15.2301H16.9574C16.4578 15.2266 15.964 15.336 15.513 15.5499L15.4327 15.39C15.4029 15.3263 15.3495 15.2765 15.2837 15.2512C15.2178 15.2258 15.1447 15.2269 15.0796 15.2541C15.0216 15.2823 14.976 15.3307 14.9512 15.39L14.871 15.5739L14.2451 15.2621L14.0043 15.7418L14.6463 16.0616L12.0062 21.7777C11.9979 21.8146 11.9979 21.8528 12.0062 21.8896C12.0062 22.3837 12.2032 22.8575 12.5538 23.2068C12.9045 23.5561 13.3801 23.7524 13.8759 23.7524H16.492C16.9886 23.7524 17.465 23.5564 17.8169 23.2073C18.1688 22.8582 18.3676 22.3844 18.3697 21.8896C18.3743 21.8525 18.3743 21.8149 18.3697 21.7777L15.6895 16.0296C16.0743 15.852 16.4931 15.7593 16.9173 15.7578H19.1641V25.4872L18.2493 26.3986H17.2944C16.9411 26.3986 16.6023 26.5384 16.3525 26.7873C16.1027 27.0362 15.9623 27.3737 15.9623 27.7257C15.9601 27.7613 15.9654 27.797 15.9778 27.8305C15.9903 27.8639 16.0096 27.8944 16.0346 27.92C16.0592 27.946 16.0892 27.9665 16.1223 27.9803C16.1555 27.9941 16.1912 28.0008 16.2271 27.9999H23.7141C23.7864 27.9999 23.8558 27.9713 23.907 27.9203C23.9582 27.8693 23.9869 27.8002 23.9869 27.7281C23.9848 27.3754 23.8427 27.0379 23.5916 26.7892C23.3405 26.5406 23.0008 26.401 22.6468 26.401H21.6839L20.8012 25.4896V15.7338H23.048C23.4721 15.7363 23.8906 15.8289 24.2758 16.0056L21.6277 21.7537C21.6155 21.7901 21.6155 21.8294 21.6277 21.8657C21.6277 22.3597 21.8247 22.8335 22.1753 23.1828C22.526 23.5322 23.0015 23.7284 23.4974 23.7284H26.1215C26.6181 23.7284 27.0945 23.5324 27.4464 23.1833C27.7983 22.8342 27.9971 22.3604 27.9992 21.8657C28.0015 21.8361 27.9988 21.8064 27.9912 21.7777ZM16.492 23.2247H13.8198C13.5109 23.225 13.2115 23.1182 12.9729 22.9228C12.7343 22.7274 12.5713 22.4554 12.5118 22.1535H17.808C17.7454 22.4554 17.5804 22.7267 17.3407 22.9217C17.1011 23.1168 16.8014 23.2238 16.492 23.2247ZM17.6876 21.6258H12.6321L15.0877 16.2854C15.1328 16.2935 15.179 16.2935 15.2241 16.2854L17.6876 21.6258ZM19.5252 12.7758C19.6265 12.6667 19.7653 12.5995 19.9139 12.5877C20.0626 12.5758 20.2103 12.6201 20.3277 12.7118C20.353 12.7289 20.3748 12.7506 20.3919 12.7758C20.4471 12.8429 20.4853 12.9222 20.5035 13.007C20.5216 13.0918 20.5192 13.1798 20.4962 13.2635L20.2715 14.1589H19.6296L19.4049 13.2635C19.3892 13.1766 19.3941 13.0873 19.4192 13.0026C19.4443 12.918 19.4888 12.8403 19.5493 12.7758H19.5252ZM19.7018 15.2301V14.6945H20.2394V15.2301H19.7018ZM20.2394 15.7578V25.3513H19.7018V15.7578H20.2394ZM22.6468 26.9502C22.8127 26.9509 22.9743 27.0028 23.1094 27.0987C23.2445 27.1946 23.3464 27.3299 23.4011 27.4859H16.5401C16.5948 27.3299 16.6968 27.1946 16.8319 27.0987C16.9669 27.0028 17.1285 26.9509 17.2944 26.9502H22.6468ZM20.9376 26.4226H19.0117L19.5493 25.887H20.3999L20.9376 26.4226ZM24.7172 16.2854C24.7612 16.3013 24.8095 16.3013 24.8536 16.2854L27.3091 21.6338H22.2616L24.7172 16.2854ZM26.1215 23.2247H23.4493C23.1404 23.225 22.841 23.1182 22.6024 22.9228C22.3638 22.7274 22.2008 22.4554 22.1413 22.1535H27.4375C27.3749 22.4554 27.2099 22.7267 26.9702 22.9217C26.7306 23.1168 26.4309 23.2238 26.1215 23.2247Z" fill="#E54A35"/>
<path d="M10.8543 4.89036C8.42778 6.67875 6.4626 9.02208 5.12227 11.7253C3.78193 14.4286 3.10521 17.4136 3.14843 20.4318C3.14843 30.6299 10.6464 38.9054 19.895 38.9054C29.1436 38.9054 36.6816 30.6299 36.6816 20.4318C36.7285 17.3221 36.0089 14.2489 34.5866 11.4847C33.1643 8.72056 31.0833 6.3509 28.5281 4.58594C27.409 4.01716 22.381 0.764658 28.5281 5.17075C30.1128 6.26192 31.4997 7.61662 32.6288 9.17628C35.4962 13.1877 36.7258 18.1455 36.0661 23.0354C35.7682 25.491 34.9771 27.8608 33.7407 30.0017C32.5043 32.1427 30.848 34.0105 28.8718 35.4927C27.0173 36.856 24.8763 37.7762 22.6125 38.1831C20.3486 38.5899 18.0219 38.4725 15.8103 37.8399C13.3952 37.089 11.1791 35.8045 9.32528 34.0811C7.47144 32.3577 6.02715 30.2393 5.09887 27.8821C4.04909 25.304 3.55754 22.5318 3.65675 19.749C3.75597 16.9663 4.44369 14.2363 5.67441 11.7398C6.8792 9.27284 8.65521 7.13037 10.8543 5.49119C16.9534 0.684549 12.453 3.76881 10.8543 4.89036Z" fill="#0E1A40"/>
<path d="M12.7498 40.4595C12.7498 40.3874 16.0112 38.689 16.5867 38.4487C17.4139 38.1145 18.3013 37.9563 19.1926 37.984L19.5284 38.0561L19.1527 38.5368C18.9171 38.8331 18.649 39.1018 18.3533 39.3379C17.4973 39.8428 16.5532 40.1799 15.5715 40.3313C14.6284 40.4567 13.6771 40.5103 12.7258 40.4915L12.7498 40.4595ZM25.7154 40.4595C24.7112 40.4579 23.7161 40.2677 22.7818 39.8987C22.1256 39.7189 21.545 39.3311 21.1271 38.7932L20.4077 38.0722L20.7274 37.976C21.5268 37.7357 24.1727 38.5288 25.3237 39.37C25.5338 39.5232 25.762 39.6497 26.0032 39.7465C26.4773 39.9247 26.9261 40.1644 27.3381 40.4595C27.2961 40.4887 27.2453 40.5029 27.1942 40.4995C27.1143 40.4915 26.4588 40.4434 25.7234 40.3954L25.7154 40.4595ZM9.80015 38.4086L8.20143 37.8959L7.72182 37.7517L8.52118 37.6075C8.96883 37.5274 9.82414 37.3512 10.4157 37.223C11.871 36.8526 13.4055 36.9478 14.8042 37.4954L15.0919 37.6396L14.7322 37.976C13.813 38.7932 11.7266 38.9934 9.80015 38.3686V38.4086ZM26.3389 38.5448C25.5396 38.2404 24.8121 37.7437 25.02 37.5755C25.8502 37.2135 26.7379 37.0019 27.6419 36.9506C29.065 37.0702 30.4763 37.3032 31.8625 37.6476C32.1902 37.7197 32.0544 37.7838 30.6315 38.2404C29.7889 38.5829 28.8868 38.7544 27.9776 38.7451C27.4185 38.77 26.8597 38.6884 26.3309 38.5048L26.3389 38.5448ZM17.1303 37.5835C16.4269 37.3672 14.964 35.5887 14.7322 34.6274L14.6523 34.347L15.1319 34.6114C15.5377 34.8207 15.9569 35.0027 16.3869 35.1561C17.7938 35.6688 18.4412 36.2296 18.8489 37.271L19.0168 37.7117H18.2654C17.8945 37.7113 17.5246 37.671 17.1623 37.5915L17.1303 37.5835ZM21.1271 37.5034C21.3984 36.8087 21.8512 36.1999 22.4381 35.7409C22.7943 35.5163 23.1752 35.3335 23.5731 35.1962C24.0048 35.036 24.4205 34.8597 24.8361 34.6594L25.3797 34.371L25.3078 34.6755C24.9149 35.7145 24.2493 36.6279 23.3813 37.3191C22.969 37.5745 22.4908 37.7026 22.0064 37.6876C21.207 37.7357 21.1271 37.6876 21.1271 37.4954V37.5034ZM14.1167 36.9186C13.4825 36.6434 12.9236 36.2196 12.4868 35.6829C12.05 35.1462 11.7482 34.5122 11.6067 33.8343C11.4631 33.3475 11.3483 32.8526 11.263 32.3523L11.191 31.8395L12.6858 33.4418C14.2366 35.084 14.5484 35.5727 14.6523 36.494C14.7082 37.0307 14.6043 37.1108 14.1167 36.9266V36.9186ZM25.3877 36.526C25.5236 35.4686 26.0911 34.6594 28.2094 32.5205L28.8889 31.8315L28.801 32.4484C28.5052 34.4191 27.554 36.1335 26.4029 36.6943C26.1542 36.8341 25.8841 36.9316 25.6035 36.9827C25.3557 36.9827 25.3397 36.9426 25.3957 36.502L25.3877 36.526ZM7.93765 35.813C6.89364 35.5199 5.92548 35.0033 5.09992 34.2989C4.68133 34.0087 4.2809 33.693 3.90088 33.3536C5.42549 33.3846 6.94345 33.5643 8.43325 33.8904L9.32853 34.363C9.74479 34.5838 10.1338 34.8526 10.4876 35.1641L10.9193 35.5727L10.5196 35.757C9.68959 36.0595 8.78473 36.0875 7.93765 35.8371V35.813ZM30.048 35.9092C29.821 35.8725 29.6035 35.7908 29.4085 35.6688C29.2086 35.4926 29.4085 35.2443 30.2078 34.6594C31.2314 33.9688 32.4279 33.5802 33.6611 33.5379C35.6035 33.3616 36.1311 33.3456 36.0591 33.4498C35.1383 34.2114 34.1481 34.8846 33.1015 35.4605C32.1567 35.9572 31.0718 36.1182 30.024 35.9172L30.048 35.9092ZM10.024 34.307C9.31445 33.716 8.80139 32.9223 8.55315 32.0318C8.4652 31.3064 8.43314 30.5752 8.45723 29.8448V28.2906L8.8649 29.1318C9.08873 29.5884 9.40048 30.1732 9.56036 30.4296C10.319 31.5487 10.6716 32.8946 10.5596 34.2429L10.4556 34.6835L9.98402 34.2989L10.024 34.307ZM29.5044 33.5058C29.4725 32.4996 29.767 31.5102 30.3437 30.686C30.6136 30.2459 30.8591 29.7912 31.0791 29.3241L31.5747 28.3387L31.6547 29.3481C31.7567 30.4946 31.6401 31.65 31.3109 32.7528C30.9029 33.4655 30.3598 34.0914 29.7122 34.5954L29.4484 34.7396L29.5044 33.5058ZM5.81135 32.0238C5.4477 31.9384 5.09402 31.8149 4.75619 31.6553C3.86412 31.0745 3.07971 30.3426 2.43805 29.4923C2.16627 29.0998 1.79856 28.6111 1.63869 28.3948C1.26299 27.9542 1.28698 27.9382 1.8785 28.1785C2.21924 28.3067 2.56933 28.4085 2.92566 28.4829C3.88599 28.7531 4.78837 29.1985 5.58753 29.7967C6.22907 30.3447 6.77012 31.0008 7.18625 31.7354C7.33813 32.0478 7.33813 32.0799 7.18625 32.0799C7.04659 32.084 6.90752 32.1001 6.77058 32.1279C6.46603 32.1378 6.16168 32.1027 5.8673 32.0238H5.81135ZM33.1255 32.1119C33.0163 32.1077 32.9107 32.0715 32.8217 32.0078C33.103 31.3389 33.5163 30.734 34.0368 30.2293C34.9398 29.411 36.0128 28.8036 37.1782 28.4509C37.5458 28.3689 37.9087 28.2673 38.2654 28.1464C38.8489 27.9382 38.9688 28.0022 38.5611 28.2826C38.3002 28.5161 38.0741 28.7859 37.8897 29.0837C37.3026 30.0726 36.4783 30.8987 35.4916 31.4871C34.7665 31.9143 33.9339 32.1229 33.0935 32.0879L33.1255 32.1119ZM6.7466 30.5097C6.44371 30.107 6.25085 29.632 6.18705 29.1318C6.08999 28.6834 6.02851 28.228 6.00319 27.7699C6.09254 26.6531 6.31255 25.5507 6.65867 24.4854C6.86651 23.9967 6.8745 23.9887 6.88249 24.3492C6.98023 25.034 7.11364 25.7132 7.28217 26.384C7.489 27.1898 7.62013 28.0132 7.67386 28.8434C7.69342 29.5627 7.54276 30.2765 7.23421 30.9263C7.04028 30.8326 6.87473 30.6888 6.75459 30.5097H6.7466ZM32.7258 30.6539C32.2782 29.4282 32.2942 28.6271 32.8217 26.376C32.9659 25.7978 33.078 25.2121 33.1575 24.6216C33.1575 23.5721 33.6531 24.7578 33.9568 26.5122C34.2606 28.2666 33.8769 30.1732 33.1575 30.718L32.8377 30.9743L32.7178 30.6539H32.7258ZM3.78897 27.2732C2.93281 26.9197 2.20875 26.3062 1.71863 25.5188C1.5028 25.1743 1.02318 24.237 0.663471 23.4439L0 22.002L0.519592 22.3224C0.807361 22.5066 1.31894 22.8671 1.69464 23.1235C2.07034 23.3799 2.494 23.7243 2.73381 23.8685C3.70684 24.6713 4.37325 25.7863 4.6203 27.0249C4.70024 27.5857 4.66826 27.5937 3.82094 27.2572L3.78897 27.2732ZM35.3877 27.3293C35.4732 26.9358 35.5909 26.55 35.7394 26.1757C36.0671 25.1653 36.7228 24.2939 37.6019 23.7003C38.3718 23.1231 39.1723 22.5883 40 22.0981C39.5221 23.3443 38.9447 24.5499 38.2734 25.7031C37.7727 26.402 37.0816 26.9415 36.283 27.2572C35.5875 27.5296 35.4277 27.5376 35.4277 27.2572L35.3877 27.3293ZM4.56435 25.7832C4.26469 24.8152 4.26469 23.779 4.56435 22.8111C4.80416 22.01 6.22702 19.4945 6.22702 19.9111C6.19687 21.4578 6.07408 23.0014 5.85931 24.5334C5.71358 25.1491 5.44133 25.7275 5.05995 26.2318C4.84413 26.4481 4.83613 26.4401 4.60431 25.7832H4.56435ZM35.02 26.2318C34.6274 25.6224 34.3409 24.9506 34.1727 24.245C33.9943 22.7587 33.8956 21.2638 33.8769 19.7669C34.5152 20.6713 35.0514 21.6439 35.4756 22.6669C35.8235 23.7066 35.8235 24.8316 35.4756 25.8713C35.3953 26.067 35.3018 26.257 35.1958 26.4401C35.1172 26.3834 35.0495 26.3128 34.996 26.2318H35.02ZM2.52598 21.9379C1.51079 21.2169 0.927254 19.9992 0.607509 17.8682C0.551342 17.4257 0.468593 16.987 0.35971 16.5544C0.303755 16.3782 0.359717 16.4102 0.679461 16.6826C0.999205 16.955 1.20703 17.1312 1.35891 17.2434C2.16141 18.1255 2.79785 19.1461 3.23741 20.2555C3.48521 21.1047 3.51719 22.3705 3.28537 22.3705C2.99667 22.2648 2.72677 22.1133 2.48601 21.9218L2.52598 21.9379ZM36.6507 21.4812C36.698 20.5361 36.996 19.6208 37.514 18.8296C38.1656 17.9475 38.9136 17.1414 39.7442 16.4262C39.7922 16.4262 39.7442 16.5624 39.7442 16.7387C39.6317 17.1821 39.5437 17.6314 39.4804 18.0845C39.1767 20.0873 38.5452 21.3691 37.53 22.018C36.5148 22.6669 36.5867 22.5707 36.6747 21.5213L36.6507 21.4812ZM3.71703 20.8884C3.66739 20.4186 3.70258 19.9437 3.82094 19.4865C4.05127 18.318 4.66122 17.2588 5.55555 16.4743C5.86858 16.1286 6.20226 15.8022 6.55475 15.497C6.55475 15.497 6.47482 15.8414 6.37889 16.1859C6.08153 17.3052 5.70762 18.4026 5.25979 19.4704C4.85406 20.1988 4.37458 20.8833 3.82894 21.5133C3.72848 21.3143 3.67383 21.0953 3.66906 20.8724L3.71703 20.8884ZM35.7474 20.9525C34.8441 19.7989 34.3565 18.6293 33.5571 15.6652L33.4772 15.3688L33.757 15.6652L34.8681 16.8428C35.3975 17.3045 35.7902 17.9031 36.0032 18.5732C36.3214 19.4323 36.4283 20.3556 36.3149 21.2649C36.219 21.5373 36.195 21.5213 35.7474 20.9525ZM2.86171 16.979C1.97442 16.3942 1.6227 15.1044 1.75859 12.9735C1.80655 12.2445 1.84653 11.4754 1.85452 11.2671C1.85452 10.8986 1.85452 10.9066 2.23022 11.5715C2.39809 11.8679 2.57395 12.1563 2.76579 12.4287C3.13735 13.0948 3.40681 13.8132 3.56515 14.5597C3.70017 15.29 3.66184 16.0419 3.45324 16.7547C3.31735 17.2834 3.29337 17.2914 2.82974 16.987L2.86171 16.979ZM36.5228 16.979C36.3952 16.4824 36.3466 15.9687 36.3789 15.4569C36.2918 14.7578 36.4171 14.0486 36.7386 13.4221C36.9384 12.9895 37.3221 12.2765 37.5859 11.8199L38.0735 11.0188L38.1695 12.1804C38.3373 14.2312 38.2174 15.3848 37.7298 16.3141C37.5073 16.7233 37.156 17.0472 36.7306 17.2354C36.6498 17.157 36.5799 17.0681 36.5228 16.971V16.979ZM3.93285 16.1779C3.97488 15.5974 4.13231 15.0311 4.39588 14.5125C4.65945 13.9938 5.02384 13.5332 5.46762 13.1577C6.25948 12.5237 7.12348 11.9859 8.04156 11.5555C7.95523 11.7128 7.85632 11.8628 7.7458 12.0041C7.55396 12.2525 7.09832 12.9414 6.73061 13.5262C6.16305 14.5123 5.42398 15.3887 4.54836 16.1138C3.98082 16.5384 3.95683 16.5384 3.95683 16.1138L3.93285 16.1779ZM35.4916 16.1779C34.762 15.6379 34.1386 14.967 33.6531 14.1992C33.2983 13.4822 32.8638 12.8077 32.3581 12.1884C32.2042 12.0424 32.0794 11.8684 31.9904 11.6757C32.3874 11.7958 32.7645 11.9739 33.1095 12.2044C33.809 12.5588 34.4312 13.0489 34.94 13.6464C35.5832 14.3126 35.9759 15.1818 36.0512 16.1058C36.1391 16.5785 36.0512 16.5865 35.4916 16.1779ZM4.07674 12.1724C3.35732 10.8585 3.3813 10.0094 4.23661 7.30163L4.55635 6.29224L4.93205 7.51793C5.17993 8.20651 5.30704 8.93288 5.30775 9.6649C5.33173 10.5922 5.0693 11.5043 4.55635 12.2765L4.30855 12.5889L4.08473 12.1724H4.07674ZM35.4676 12.4207C35.3077 12.1563 35.1639 11.876 35.028 11.6196C34.7227 11.011 34.6137 10.3223 34.7162 9.64888C34.6599 8.87358 34.7801 8.09558 35.0679 7.37373C35.2758 6.79693 35.4356 6.4845 35.4756 6.57262C35.9379 7.77579 36.2598 9.0285 36.4348 10.3058C36.3733 11.019 36.152 11.709 35.7874 12.3246C35.6275 12.5329 35.5715 12.5489 35.4676 12.4207ZM5.25979 11.6677C5.64349 10.3699 7.22623 9.12816 9.11272 8.64749C10.2158 8.36711 10.2958 8.40716 9.64028 8.9439C9.29237 9.21437 8.96135 9.50599 8.64909 9.81711C7.72183 10.7544 5.89928 11.932 5.37969 11.94C5.21982 11.94 5.19584 11.884 5.25979 11.6677ZM34.3165 11.8519C33.5259 11.4918 32.7909 11.0197 32.1343 10.45L30.7194 9.22429C30.4277 9.01073 30.1597 8.76632 29.9201 8.49528C30.7251 8.56667 31.5105 8.78382 32.2382 9.13617C33.2118 9.53773 34.0187 10.2615 34.5244 11.187C34.8761 11.932 34.8441 11.9881 34.2766 11.8519H34.3165ZM6.21902 7.95854C6.05215 7.11126 6.13835 6.23348 6.46682 5.43505C6.75367 4.89111 7.08804 4.3737 7.46602 3.88892L8.18545 2.95162L8.26538 3.75273C8.383 4.47742 8.34319 5.21902 8.14868 5.92689C7.95416 6.63476 7.60953 7.29222 7.13829 7.85439C6.93713 8.09755 6.69988 8.3083 6.43485 8.47926C6.3709 8.47926 6.27498 8.25495 6.21902 7.97456V7.95854ZM32.9976 7.95854C32.6642 7.59799 32.3939 7.1836 32.1982 6.73285C31.9016 6.01914 31.7836 5.24359 31.8545 4.47373L31.8145 2.91958L32.2382 3.4483C33.4772 4.97842 33.8369 5.63533 33.9089 6.71682C33.9728 7.43782 33.805 8.48727 33.6371 8.47926C33.4132 8.33247 33.209 8.15746 33.0296 7.95854H32.9976ZM7.88169 7.51793C8.83293 6.54859 9.78417 6.21213 11.5188 6.21213C12.7418 6.21213 12.9576 6.3403 12.2462 6.6287C11.9504 6.74887 11.3109 7.05329 10.8153 7.31765C9.91466 7.81399 8.90912 8.08858 7.88169 8.11876H7.29016L7.88169 7.50992V7.51793ZM30.8553 7.95854C30.2599 7.78258 29.6819 7.55195 29.1287 7.26959C28.5452 6.96517 27.8817 6.65273 27.6579 6.56461C27.0584 6.33229 27.3381 6.21213 28.4972 6.21213C29.2099 6.14608 29.9281 6.24541 30.5963 6.50242C31.2645 6.75944 31.8646 7.16723 32.3501 7.69418L32.7338 8.12677H32.1263C31.6991 8.11213 31.2739 8.06121 30.8553 7.97456V7.95854ZM10.9512 5.49914C10.7808 5.47384 10.6159 5.41966 10.4636 5.33892C10.3357 5.20273 10.6475 4.93035 11.263 4.64997C12.4165 4.23391 13.6823 4.25672 14.8201 4.71406C15.1664 4.81212 15.4954 4.96346 15.7954 5.16267C15.7954 5.21074 15.6035 5.25881 15.3797 5.25881C15.1559 5.25881 14.4125 5.33892 13.733 5.43505C12.8276 5.62048 11.8963 5.64218 10.9832 5.49914H10.9512ZM26.7386 5.49914C26.3709 5.44307 25.6515 5.35494 25.1399 5.30687C24.6283 5.25881 24.2606 5.1787 24.3405 5.12262C25.1229 4.72845 25.9615 4.4582 26.8265 4.32151C27.6828 4.23277 28.5445 4.42688 29.2806 4.87428C29.6563 5.15467 29.6803 5.28284 29.4085 5.395C28.5373 5.54704 27.6487 5.57133 26.7706 5.4671L26.7386 5.49914ZM9.37649 5.06654C9.13669 4.02511 9.86411 2.72731 11.271 1.70189C11.6307 1.43753 12.0703 1.15714 12.1663 1.08504L12.4061 0.948854L12.2142 1.74996C12.0449 2.68597 11.6154 3.55509 10.9752 4.25742C10.5673 4.7222 10.0625 5.09142 9.49641 5.33892C9.43082 5.24656 9.38957 5.13909 9.37649 5.02649V5.06654ZM30.008 5.13864C29.2612 4.57854 28.6516 3.85526 28.2254 3.02372C27.9695 2.37439 27.7924 1.69661 27.6978 1.00493C27.9977 1.15151 28.2816 1.32869 28.5452 1.53366C29.4306 2.1357 30.1375 2.96598 30.5915 3.93698C30.7274 4.42566 30.6795 5.27483 30.5196 5.3229C30.3364 5.29999 30.1611 5.23412 30.008 5.13063V5.13864ZM12.9337 2.95162C13.1655 1.79002 13.733 1.34941 15.4916 0.828687C15.9233 0.708521 16.3629 0.572335 16.4828 0.524268C16.8745 0.348025 16.3629 1.15714 15.4996 2.12648C15.2299 2.49404 14.8819 2.79686 14.481 3.01301C14.08 3.22916 13.6361 3.35322 13.1815 3.37621C12.8777 3.37621 12.8617 3.37621 12.9416 2.98367L12.9337 2.95162ZM25.9073 3.14389C25.5714 3.00064 25.2568 2.81196 24.972 2.58311C24.3501 1.96221 23.8126 1.26189 23.3733 0.50023C23.5708 0.517004 23.7647 0.562899 23.9488 0.636423L25.1958 1.03698C25.6852 1.14803 26.1296 1.40488 26.4706 1.77377C26.8116 2.14267 27.0332 2.60634 27.1063 3.10383C27.1063 3.29609 27.0344 3.34416 26.7466 3.34416C26.4541 3.31451 26.1666 3.2472 25.8913 3.14389H25.9073Z" fill="#0E1A40"/>
<path d="M51.8 29.5V29.02L54.23 27.82V11.38L51.8 10.18V9.7H60.11V10.18L57.38 11.38V27.85H64.49L66.62 22.69H67.1V29.5H51.8ZM69.4742 29.5V29.02L71.3642 28.03L79.0742 9.55H80.7242L88.3442 27.94L90.3542 29.02V29.5H82.4342V29.02L85.0742 27.97L82.8542 22.57H75.6242L73.4342 28L75.9542 29.02V29.5H69.4742ZM76.3142 20.92H82.1942L79.2542 13.69L76.3142 20.92ZM98.2995 29.65L92.7195 11.29L90.4395 10.18V9.7H98.5095V10.18L95.9595 11.29L99.6195 23.95H99.7995L104.99 9.55H106.25L111.53 23.95H111.71L115.34 11.32L112.79 10.18V9.7H119.45V10.18L117.44 11.26L111.8 29.65H110.57L105.17 15.28H104.96L99.4995 29.65H98.2995ZM121.673 29.5V29.02L124.103 27.82V11.38L121.673 10.18V9.7H129.683V10.18L127.253 11.38V27.82L129.683 29.02V29.5H121.673ZM127.253 19.39L135.533 11.2L133.403 10.18V9.7H139.883V10.18L137.993 10.93L130.313 18.46L139.553 28.21L141.443 29.02V29.5H136.553L127.253 19.39ZM152.762 29.8C151.322 29.8 149.982 29.55 148.742 29.05C147.522 28.53 146.452 27.82 145.532 26.92C144.632 26 143.932 24.92 143.432 23.68C142.932 22.44 142.682 21.08 142.682 19.6C142.682 18.12 142.932 16.76 143.432 15.52C143.932 14.28 144.632 13.21 145.532 12.31C146.452 11.39 147.522 10.68 148.742 10.18C149.982 9.66 151.322 9.4 152.762 9.4C154.202 9.4 155.532 9.66 156.752 10.18C157.992 10.68 159.062 11.39 159.962 12.31C160.882 13.21 161.592 14.28 162.092 15.52C162.612 16.76 162.872 18.12 162.872 19.6C162.872 21.08 162.612 22.44 162.092 23.68C161.592 24.92 160.882 26 159.962 26.92C159.062 27.82 157.992 28.53 156.752 29.05C155.532 29.55 154.202 29.8 152.762 29.8ZM153.362 28.3C154.582 28.3 155.652 27.98 156.572 27.34C157.492 26.7 158.212 25.8 158.732 24.64C159.252 23.48 159.512 22.11 159.512 20.53C159.512 18.59 159.192 16.9 158.552 15.46C157.912 14 157.042 12.87 155.942 12.07C154.842 11.27 153.622 10.87 152.282 10.87C151.062 10.87 149.982 11.19 149.042 11.83C148.102 12.45 147.362 13.34 146.822 14.5C146.302 15.66 146.042 17.03 146.042 18.61C146.042 20.55 146.362 22.25 147.002 23.71C147.662 25.17 148.542 26.3 149.642 27.1C150.762 27.9 152.002 28.3 153.362 28.3ZM172.97 29.8C171.71 29.8 170.63 29.68 169.73 29.44C168.85 29.2 167.94 28.85 167 28.39L166.7 23.44H167.18L168.77 26.71C169.47 27.29 170.16 27.71 170.84 27.97C171.52 28.23 172.2 28.36 172.88 28.36C174.04 28.36 174.95 28.06 175.61 27.46C176.29 26.86 176.63 26.04 176.63 25C176.63 24.18 176.44 23.53 176.06 23.05C175.7 22.55 175.15 22.11 174.41 21.73C173.69 21.33 172.8 20.87 171.74 20.35C170.32 19.67 169.23 18.96 168.47 18.22C167.71 17.46 167.33 16.4 167.33 15.04C167.33 14.32 167.5 13.63 167.84 12.97C168.2 12.29 168.68 11.69 169.28 11.17C169.88 10.63 170.55 10.2 171.29 9.88C172.03 9.56 172.8 9.4 173.6 9.4C174.54 9.4 175.42 9.51 176.24 9.73C177.06 9.95 177.87 10.27 178.67 10.69L178.97 15.49H178.49L176.93 12.28C176.29 11.78 175.71 11.42 175.19 11.2C174.67 10.98 174.08 10.87 173.42 10.87C172.56 10.87 171.84 11.16 171.26 11.74C170.7 12.32 170.42 13.05 170.42 13.93C170.42 14.91 170.72 15.68 171.32 16.24C171.94 16.8 172.93 17.4 174.29 18.04C175.49 18.62 176.48 19.18 177.26 19.72C178.06 20.24 178.65 20.83 179.03 21.49C179.41 22.15 179.6 22.99 179.6 24.01C179.6 24.95 179.4 25.78 179 26.5C178.6 27.22 178.07 27.83 177.41 28.33C176.75 28.81 176.03 29.18 175.25 29.44C174.49 29.68 173.73 29.8 172.97 29.8Z" fill="#0E1A40"/>
</svg>
