<svg width="134" height="80" viewBox="0 0 134 80" fill="none" xmlns="http://www.w3.org/2000/svg">
<path d="M83.5421 25.5596C83.4587 25.4858 83.3917 25.3969 83.345 25.2981C83.2983 25.1993 83.273 25.0927 83.2704 24.9844C83.273 24.8761 83.2983 24.7695 83.345 24.6707C83.3917 24.5719 83.4587 24.483 83.5421 24.4092L85.6045 22.496C86.0443 22.0952 86.3946 21.6141 86.6344 21.0817C86.8741 20.5493 86.9985 19.9764 87 19.3972C86.9971 18.8183 86.8721 18.2457 86.6324 17.7135C86.3927 17.1812 86.0432 16.7001 85.6045 16.2984L70.2788 2.21305C69.3818 1.43276 68.2098 1 66.9938 1C65.7778 1 64.6059 1.43276 63.7089 2.21305L48.3831 16.2984C47.9483 16.7023 47.6022 17.1841 47.3648 17.716C47.1274 18.248 47.0034 18.8194 47 19.3972C47.002 19.9752 47.1253 20.547 47.3629 21.0791C47.6004 21.6112 47.9472 22.0929 48.3831 22.496L50.4579 24.4092C50.5396 24.4836 50.6047 24.5728 50.6493 24.6717C50.6939 24.7705 50.717 24.8769 50.7172 24.9844C50.717 25.0919 50.6939 25.1983 50.6493 25.2971C50.6047 25.396 50.5396 25.4852 50.4579 25.5596L48.3831 27.4611C47.9483 27.8649 47.6022 28.3468 47.3648 28.8787C47.1274 29.4106 47.0034 29.982 47 30.5599C47.002 31.1379 47.1253 31.7097 47.3629 32.2418C47.6004 32.7739 47.9472 33.2556 48.3831 33.6586L63.7089 47.744C64.5907 48.5522 65.7688 49.0026 66.9938 49C68.2194 49.0051 69.3984 48.5543 70.2788 47.744L85.6045 33.6586C86.0436 33.2548 86.3932 32.7716 86.6329 32.2374C86.8725 31.7032 86.9974 31.1288 87 30.5481C86.9971 29.9692 86.8721 29.3967 86.6324 28.8644C86.3927 28.3322 86.0432 27.851 85.6045 27.4493L83.5421 25.5596Z" fill="url(#paint0_linear_814_1565)" stroke="#122130" stroke-width="2" stroke-miterlimit="10"/>
<path fill-rule="evenodd" clip-rule="evenodd" d="M63.8066 34.0396C63.8067 34.0397 63.8068 34.0399 63.8069 34.04C64.6464 35.494 66.5056 35.9922 67.9596 35.1527C69.4136 34.3133 69.9118 32.454 69.0723 31C69.0723 30.9999 69.0722 30.9997 69.0721 30.9996L63.8066 34.0396Z" fill="#122130"/>
<mask id="mask0_814_1565" style="mask-type:alpha" maskUnits="userSpaceOnUse" x="63" y="30" width="7" height="6">
<path fill-rule="evenodd" clip-rule="evenodd" d="M63.8066 34.0396C63.8067 34.0397 63.8068 34.0399 63.8069 34.04C64.6464 35.494 66.5056 35.9922 67.9596 35.1527C69.4136 34.3133 69.9118 32.454 69.0723 31C69.0723 30.9999 69.0722 30.9997 69.0721 30.9996L63.8066 34.0396Z" fill="black"/>
</mask>
<g mask="url(#mask0_814_1565)">
<circle cx="67.199" cy="36.2683" r="1.824" fill="#ED305C"/>
</g>
<path d="M62.25 14.6875L60.5625 13.9375H59.4375L57.75 15.25L56.25 19.1875V23.5L57.375 28.1875L61.2 30.55L64.2 28.45L66 23.65L65.4 20.95L63.9 15.85L62.25 14.6875Z" fill="white"/>
<path fill-rule="evenodd" clip-rule="evenodd" d="M66.3 22C66.3 26.9706 63.8823 31 60.9 31C57.9177 31 55.5 26.9706 55.5 22C55.5 17.0294 57.9177 13 60.9 13C63.8823 13 66.3 17.0294 66.3 22ZM64.8001 22.0001C64.8001 26.1423 63.054 29.5001 60.9001 29.5001C59.41 29.5001 58.1151 27.893 57.4585 25.5309C57.6322 25.5759 57.8132 25.5997 57.9991 25.5997C59.3246 25.5997 60.3991 24.3909 60.3991 22.8997C60.3991 21.4085 59.3246 20.1997 57.9991 20.1997C57.677 20.1997 57.3697 20.2711 57.089 20.4006C57.4701 17.0269 59.0317 14.5001 60.9001 14.5001C63.054 14.5001 64.8001 17.858 64.8001 22.0001Z" fill="#122130"/>
<path d="M74.8506 14.6875L73.1631 13.9375H72.0381L70.3506 15.25L68.8506 19.1875V23.5L69.9756 28.1875L73.8006 30.55L76.8006 28.45L78.6006 23.65L78.0006 20.95L76.5006 15.85L74.8506 14.6875Z" fill="white"/>
<path fill-rule="evenodd" clip-rule="evenodd" d="M78.9016 22C78.9016 26.9706 76.4839 31 73.5016 31C70.5192 31 68.1016 26.9706 68.1016 22C68.1016 17.0294 70.5192 13 73.5016 13C76.4839 13 78.9016 17.0294 78.9016 22ZM77.4017 22.0001C77.4017 26.1423 75.6556 29.5001 73.5017 29.5001C72.0115 29.5001 70.7166 27.8929 70.06 25.5307C70.234 25.5759 70.4153 25.5997 70.6015 25.5997C71.927 25.5997 73.0015 24.3909 73.0015 22.8997C73.0015 21.4085 71.927 20.1997 70.6015 20.1997C70.279 20.1997 69.9714 20.2713 69.6905 20.401C70.0715 17.0271 71.6331 14.5001 73.5017 14.5001C75.6556 14.5001 77.4017 17.858 77.4017 22.0001Z" fill="#122130"/>
<path d="M4.752 75L0.744 62.952H3.432L6.48 73.248L5.736 73.392L8.664 62.952H10.752L13.656 73.104H13.056L16.104 62.952H18.696L14.664 75H12.288L9.432 65.568L9.888 65.784L7.128 75H4.752ZM24.7266 75.36C23.5426 75.36 22.5106 75.12 21.6306 74.64C20.7666 74.16 20.0946 73.448 19.6146 72.504C19.1506 71.56 18.9186 70.408 18.9186 69.048C18.9186 66.952 19.4066 65.368 20.3826 64.296C21.3746 63.208 22.7506 62.664 24.5106 62.664C25.8066 62.664 26.8546 62.952 27.6546 63.528C28.4546 64.104 29.0306 64.912 29.3826 65.952C29.7506 66.976 29.9266 68.176 29.9106 69.552H20.4306L20.3586 67.68H27.9906L27.3906 68.28C27.3426 67.048 27.0866 66.152 26.6226 65.592C26.1586 65.016 25.4306 64.728 24.4386 64.728C23.7986 64.728 23.2546 64.864 22.8066 65.136C22.3586 65.392 22.0146 65.84 21.7746 66.48C21.5506 67.104 21.4386 67.968 21.4386 69.072C21.4386 70.416 21.7506 71.44 22.3746 72.144C22.9986 72.832 23.9186 73.176 25.1346 73.176C25.6786 73.176 26.1826 73.128 26.6466 73.032C27.1266 72.936 27.5666 72.816 27.9666 72.672C28.3666 72.512 28.7106 72.36 28.9986 72.216V74.544C28.4386 74.784 27.8066 74.976 27.1026 75.12C26.3986 75.28 25.6066 75.36 24.7266 75.36ZM36.9362 75.36C36.2802 75.36 35.6482 75.32 35.0402 75.24C34.4322 75.16 33.8882 75.024 33.4082 74.832C32.9282 74.624 32.5442 74.344 32.2562 73.992C31.9842 73.64 31.8482 73.184 31.8482 72.624V58.128H34.3442V64.632L33.6962 63.816C34.0002 63.576 34.3762 63.376 34.8242 63.216C35.2882 63.056 35.7522 62.928 36.2162 62.832C36.6962 62.736 37.1042 62.688 37.4402 62.688C39.2642 62.688 40.6322 63.232 41.5442 64.32C42.4562 65.392 42.9122 66.904 42.9122 68.856C42.9122 70.168 42.7362 71.248 42.3842 72.096C42.0482 72.944 41.5922 73.608 41.0162 74.088C40.4562 74.552 39.8162 74.88 39.0962 75.072C38.3922 75.264 37.6722 75.36 36.9362 75.36ZM36.8162 73.176C37.7602 73.176 38.4882 72.984 39.0002 72.6C39.5122 72.216 39.8642 71.712 40.0562 71.088C40.2482 70.448 40.3442 69.736 40.3442 68.952C40.3442 68.056 40.2242 67.304 39.9842 66.696C39.7442 66.088 39.3842 65.624 38.9042 65.304C38.4242 64.984 37.8082 64.824 37.0562 64.824C36.6402 64.824 36.1842 64.88 35.6882 64.992C35.2082 65.104 34.7602 65.28 34.3442 65.52V72C34.3442 72.32 34.4722 72.568 34.7282 72.744C34.9842 72.92 35.2962 73.04 35.6642 73.104C36.0482 73.152 36.4322 73.176 36.8162 73.176ZM50.3764 75.336C50.0724 75.336 49.6964 75.296 49.2484 75.216C48.8004 75.152 48.3524 75.048 47.9044 74.904C47.4564 74.744 47.0644 74.536 46.7284 74.28L47.3764 73.464V79.824H44.8804V65.28C44.8804 64.784 45.0324 64.368 45.3364 64.032C45.6564 63.696 46.0724 63.432 46.5844 63.24C47.0964 63.032 47.6564 62.888 48.2644 62.808C48.8884 62.712 49.5044 62.664 50.1124 62.664C51.1844 62.664 52.1604 62.864 53.0404 63.264C53.9204 63.664 54.6244 64.344 55.1524 65.304C55.6804 66.248 55.9444 67.544 55.9444 69.192C55.9444 70.44 55.7284 71.528 55.2964 72.456C54.8644 73.368 54.2324 74.08 53.4004 74.592C52.5684 75.088 51.5604 75.336 50.3764 75.336ZM49.9204 73.224C50.6884 73.224 51.3284 73.064 51.8404 72.744C52.3524 72.424 52.7364 71.96 52.9924 71.352C53.2484 70.744 53.3764 70.008 53.3764 69.144C53.3764 68.344 53.2804 67.616 53.0884 66.96C52.9124 66.304 52.5844 65.792 52.1044 65.424C51.6244 65.04 50.9364 64.848 50.0404 64.848C49.2404 64.848 48.5924 64.936 48.0964 65.112C47.6164 65.272 47.3764 65.512 47.3764 65.832V72.528C47.7924 72.752 48.2164 72.928 48.6484 73.056C49.0804 73.168 49.5044 73.224 49.9204 73.224ZM57.8891 75V64.056C58.0971 63.928 58.4811 63.752 59.0411 63.528C59.6011 63.304 60.2651 63.112 61.0331 62.952C61.8011 62.776 62.5771 62.688 63.3611 62.688C63.7611 62.688 64.0891 62.72 64.3451 62.784C64.6011 62.848 64.8171 62.92 64.9931 63V65.016C64.6251 64.968 64.2411 64.936 63.8411 64.92C63.4411 64.888 63.0411 64.888 62.6411 64.92C62.2411 64.936 61.8491 64.968 61.4651 65.016C61.0811 65.064 60.7291 65.112 60.4091 65.16V75H57.8891ZM66.5871 75V63.024H69.1071L69.1311 75H66.5871ZM66.5151 61.032V58.752H69.2031V61.032H66.5151ZM75.2694 75.36C74.4054 75.36 73.6694 75.264 73.0614 75.072C72.4694 74.896 71.8854 74.672 71.3094 74.4V72.024C71.7254 72.28 72.1334 72.512 72.5334 72.72C72.9334 72.912 73.3494 73.064 73.7814 73.176C74.2294 73.288 74.7254 73.344 75.2694 73.344C75.9574 73.344 76.4934 73.2 76.8774 72.912C77.2774 72.624 77.4774 72.264 77.4774 71.832C77.4774 71.464 77.3494 71.176 77.0934 70.968C76.8534 70.76 76.5414 70.584 76.1574 70.44C75.7734 70.296 75.3734 70.152 74.9574 70.008C74.5254 69.896 74.0934 69.768 73.6614 69.624C73.2294 69.464 72.8294 69.256 72.4614 69C72.1094 68.728 71.8214 68.384 71.5974 67.968C71.3894 67.552 71.2854 67.04 71.2854 66.432C71.2854 65.76 71.4214 65.192 71.6934 64.728C71.9654 64.248 72.3174 63.864 72.7494 63.576C73.1974 63.272 73.6854 63.056 74.2134 62.928C74.7574 62.784 75.2854 62.712 75.7974 62.712C76.6454 62.728 77.3334 62.832 77.8614 63.024C78.4054 63.216 78.9334 63.448 79.4454 63.72L79.4694 65.88C78.8934 65.576 78.3494 65.312 77.8374 65.088C77.3254 64.864 76.7334 64.752 76.0614 64.752C75.4374 64.752 74.9174 64.872 74.5014 65.112C74.0854 65.336 73.8774 65.672 73.8774 66.12C73.8774 66.504 73.9894 66.808 74.2134 67.032C74.4534 67.256 74.7574 67.432 75.1254 67.56C75.5094 67.688 75.9174 67.816 76.3494 67.944C76.7494 68.072 77.1654 68.208 77.5974 68.352C78.0294 68.48 78.4294 68.672 78.7974 68.928C79.1654 69.184 79.4614 69.52 79.6854 69.936C79.9254 70.352 80.0454 70.896 80.0454 71.568C80.0294 72.464 79.7894 73.192 79.3254 73.752C78.8774 74.312 78.2854 74.72 77.5494 74.976C76.8134 75.232 76.0534 75.36 75.2694 75.36ZM82.0326 75V57.864H84.5526V64.752L83.8086 64.128C84.4326 63.696 85.1206 63.352 85.8726 63.096C86.6406 62.824 87.3846 62.688 88.1046 62.688C89.0486 62.688 89.8566 62.856 90.5286 63.192C91.2006 63.512 91.7206 64.032 92.0886 64.752C92.4726 65.456 92.6646 66.384 92.6646 67.536V75H90.1446V67.848C90.1446 66.872 89.9126 66.128 89.4486 65.616C88.9846 65.104 88.2966 64.848 87.3846 64.848C86.9046 64.848 86.4166 64.92 85.9206 65.064C85.4406 65.208 84.9846 65.4 84.5526 65.64L84.5286 75H82.0326ZM99.5483 75.312C98.4602 75.312 97.5962 75.024 96.9562 74.448C96.3322 73.872 96.0202 73.024 96.0202 71.904V65.04H94.0762V62.952H96.0202V59.592H98.6123V62.952H101.54V65.04H98.6123V71.4C98.6123 71.96 98.7083 72.384 98.9002 72.672C99.1082 72.944 99.4842 73.08 100.028 73.08C100.3 73.08 100.572 73.048 100.844 72.984C101.116 72.904 101.348 72.808 101.54 72.696V74.928C101.252 75.056 100.924 75.152 100.556 75.216C100.204 75.28 99.8682 75.312 99.5483 75.312ZM103.575 75V63.024H106.095L106.119 75H103.575ZM103.503 61.032V58.752H106.191V61.032H103.503ZM108.778 63.936C109.13 63.76 109.522 63.6 109.954 63.456C110.402 63.296 110.874 63.16 111.37 63.048C111.866 62.936 112.37 62.848 112.882 62.784C113.394 62.72 113.89 62.688 114.37 62.688C115.506 62.688 116.434 62.848 117.154 63.168C117.874 63.472 118.41 63.952 118.762 64.608C119.114 65.248 119.29 66.056 119.29 67.032V75H116.77V67.368C116.77 67.064 116.73 66.768 116.65 66.48C116.586 66.176 116.45 65.904 116.242 65.664C116.05 65.408 115.762 65.208 115.378 65.064C115.01 64.92 114.522 64.848 113.914 64.848C113.482 64.848 113.034 64.888 112.57 64.968C112.122 65.048 111.698 65.16 111.298 65.304V75H108.778V63.936ZM126.248 75.36C125.624 75.36 125.024 75.296 124.448 75.168C123.872 75.056 123.344 74.856 122.864 74.568C122.4 74.28 122.024 73.888 121.736 73.392C121.464 72.88 121.328 72.248 121.328 71.496C121.328 70.6 121.504 69.864 121.856 69.288C122.208 68.712 122.712 68.28 123.368 67.992C124.024 67.704 124.808 67.56 125.72 67.56C126.328 67.56 126.872 67.608 127.352 67.704C127.848 67.8 128.288 67.936 128.672 68.112C129.072 68.272 129.408 68.456 129.68 68.664L129.944 70.32C129.592 70.08 129.12 69.88 128.528 69.72C127.936 69.544 127.296 69.456 126.608 69.456C125.696 69.456 125 69.616 124.52 69.936C124.056 70.256 123.824 70.736 123.824 71.376C123.824 71.856 123.96 72.248 124.232 72.552C124.504 72.84 124.84 73.056 125.24 73.2C125.656 73.328 126.088 73.392 126.536 73.392C127.48 73.392 128.176 73.328 128.624 73.2C129.072 73.072 129.296 72.776 129.296 72.312V67.272C129.296 66.424 129.04 65.808 128.528 65.424C128.016 65.024 127.288 64.824 126.344 64.824C125.672 64.824 124.976 64.936 124.256 65.16C123.536 65.368 122.944 65.664 122.48 66.048V63.696C122.928 63.392 123.576 63.152 124.424 62.976C125.288 62.784 126.176 62.688 127.088 62.688C127.536 62.688 127.984 62.736 128.432 62.832C128.896 62.912 129.328 63.048 129.728 63.24C130.128 63.416 130.48 63.664 130.784 63.984C131.104 64.288 131.352 64.664 131.528 65.112C131.704 65.56 131.792 66.088 131.792 66.696V72.456C131.792 73.24 131.544 73.848 131.048 74.28C130.568 74.696 129.912 74.976 129.08 75.12C128.248 75.28 127.304 75.36 126.248 75.36Z" fill="#121416"/>
<defs>
<linearGradient id="paint0_linear_814_1565" x1="87" y1="1" x2="50.6651" y2="51.6302" gradientUnits="userSpaceOnUse">
<stop stop-color="#74E2FD"/>
<stop offset="0.295" stop-color="#73D4FD"/>
<stop offset="0.78" stop-color="#6A73FF"/>
<stop offset="1" stop-color="#BC8BFF"/>
</linearGradient>
</defs>
</svg>
