<svg width="174" height="50" viewBox="0 0 174 50" fill="none" xmlns="http://www.w3.org/2000/svg">
<path fill-rule="evenodd" clip-rule="evenodd" d="M80.0672 9.35911C79.6148 8.94614 79.018 8.72789 78.4059 8.75159C78.1041 8.73872 77.8028 8.7857 77.5193 8.88982C77.2357 8.99395 76.9756 9.15317 76.7539 9.3583C76.5321 9.56342 76.3532 9.81039 76.2274 10.085C76.1016 10.3596 76.0313 10.6564 76.0207 10.9583C76.0347 11.2564 76.1078 11.5488 76.2356 11.8185C76.3633 12.0882 76.5434 12.3299 76.7652 12.5296C76.987 12.7293 77.2462 12.883 77.5279 12.9818C77.8095 13.0807 78.108 13.1227 78.4059 13.1054C79.011 13.1404 79.6053 12.9341 80.0584 12.5315C80.5116 12.129 80.7866 11.5632 80.8232 10.9583C80.7911 10.3466 80.5195 9.77208 80.0672 9.35911ZM76.4144 15.4311V30.1726H80.434V15.4311H76.4144ZM42.6005 30.1732V10.4369H53.5422C56.3211 10.4369 58.1936 11.2197 59.4937 12.6115C60.5693 13.7629 61.1444 15.2939 61.0929 16.8687C61.0414 18.4435 60.3676 19.9336 59.2191 21.0123C57.983 22.1889 56.2295 22.9123 53.5422 22.9123H46.9222V30.164L42.6005 30.1732ZM46.9222 14.0994V19.2681H53.6887C54.5141 19.3246 55.3285 19.0532 55.9549 18.5127C56.4485 18.03 56.7315 17.3718 56.7423 16.6814C56.7422 16.0163 56.4827 15.3774 56.0189 14.9005C55.7092 14.6089 55.3419 14.3854 54.9405 14.2443C54.5392 14.1031 54.1128 14.0475 53.6887 14.0811L46.9222 14.0994ZM68.1327 20.6875V30.1733H64.0856V19.5933C64.0761 18.1945 63.9351 16.7996 63.6644 15.4272H67.3269C67.4651 16.1556 67.566 16.8906 67.6291 17.6293C68.5447 16.1185 69.5931 14.9419 71.4976 14.9419C72.2948 14.9255 73.0805 15.135 73.7637 15.5462L72.6421 19.2316C72.0017 18.9972 71.3311 18.8553 70.6506 18.8104C69.616 18.815 68.943 19.6299 68.1327 20.6875ZM96.1737 19.3273C94.5048 18.5396 92.6971 18.0884 90.8539 17.9996C89.3431 17.9996 88.4092 18.4803 88.4092 19.4189C88.4092 20.655 90.039 20.7465 91.3071 20.7923C93.967 20.9159 98.4078 21.2181 98.4078 25.4757C98.4078 28.9826 95.3587 30.6719 91.3987 30.6719C88.7399 30.6582 86.1407 29.8829 83.9089 28.4378L85.3281 25.5673C86.7473 26.4463 89.1325 27.5633 91.4582 27.5633C93.3352 27.5633 94.3928 26.8675 94.3928 25.842C94.3928 24.4685 92.5615 24.2991 91.2796 24.2076C88.075 24.029 84.4125 23.8139 84.4125 19.8263C84.4125 16.0814 87.7041 14.8728 90.6936 14.8728C93.0708 14.9418 95.4114 15.4752 97.5837 16.4431L96.1737 19.3273ZM101.905 9.02698V30.1733H105.925V20.2663C106.621 19.3598 107.825 18.3618 109.276 18.3618C110.727 18.3618 111.758 19.2957 111.758 20.4173V30.1733H115.805V20.2663C115.805 17.1806 113.538 14.9465 110.183 14.9465C108.402 14.9465 106.983 15.9125 105.925 16.97V9.02698H101.905ZM118.625 15.4314H121.193V11.2607H125.213V15.4314H128.834V18.4209H125.213V26.0664C125.213 26.982 125.785 27.362 126.81 27.362C127.439 27.3407 128.065 27.2703 128.683 27.1514L128.985 30.173C128.413 30.6308 126.572 30.7498 125.78 30.7498C123.606 30.7498 121.202 29.6602 121.202 26.3685V18.4209H118.634L118.625 15.4314ZM136.117 9.35911C135.665 8.94614 135.068 8.72789 134.456 8.75159C134.154 8.73872 133.853 8.7857 133.569 8.88982C133.286 8.99395 133.026 9.15317 132.804 9.3583C132.582 9.56342 132.403 9.81039 132.277 10.085C132.152 10.3596 132.081 10.6564 132.071 10.9583C132.085 11.2564 132.158 11.5488 132.286 11.8185C132.413 12.0882 132.593 12.3299 132.815 12.5296C133.037 12.7293 133.296 12.883 133.578 12.9818C133.86 13.0807 134.158 13.1227 134.456 13.1054C135.061 13.1404 135.655 12.9341 136.108 12.5315C136.562 12.129 136.837 11.5632 136.873 10.9583C136.841 10.3466 136.57 9.77208 136.117 9.35911ZM132.464 15.4311V30.1726H136.479V15.4311H132.464ZM149.683 14.9464C150.389 14.9278 151.092 15.0522 151.749 15.3122C152.406 15.5722 153.004 15.9624 153.507 16.4593C154.009 16.9562 154.406 17.5496 154.673 18.2038C154.94 18.858 155.073 19.5595 155.062 20.2661V30.1732H151.015V20.4172C151.015 19.2956 150.017 18.3616 148.566 18.3616C147.114 18.3616 146.029 19.3276 145.182 20.2661V30.1732H141.163V19.6435C141.167 18.2333 141.026 16.8265 140.742 15.4454H144.404C144.543 16.0827 144.644 16.7279 144.706 17.3773C145.292 16.6154 146.046 15.9993 146.909 15.5776C147.772 15.1558 148.722 14.9397 149.683 14.9464ZM166.283 14.9465C163.908 14.9718 161.566 15.5073 159.416 16.5168L160.634 19.4926C162.293 18.6712 164.104 18.2035 165.953 18.1192C167.734 18.1192 169.062 18.8151 169.062 20.3533V21.8366C167.977 20.9897 166.407 20.628 164.836 20.628C160.725 20.628 158.367 22.7751 158.367 25.522C158.367 28.3925 160.634 30.5351 164.2 30.5351C165.125 30.5711 166.046 30.4064 166.902 30.0524C167.757 29.6983 168.525 29.1633 169.154 28.4841C169.237 29.0546 169.357 29.6189 169.515 30.1734H173.507C173.217 29.2445 173.074 28.276 173.082 27.3029V19.4194C173.082 16.0956 169.666 14.9465 166.283 14.9465ZM169.08 24.524V25.9432C168.004 26.9704 166.58 27.5541 165.093 27.5776C163.403 27.5776 162.405 26.7581 162.405 25.522C162.405 24.405 163.28 23.4664 165.67 23.4664C166.893 23.4293 168.093 23.8015 169.08 24.524Z" fill="#263238"/>
<path fill-rule="evenodd" clip-rule="evenodd" d="M135.11 38.9145C133.851 37.8998 132.27 37.3705 130.654 37.4228C129.107 37.4228 127.523 37.9753 127.523 39.4854C127.523 40.9933 129.507 41.1056 131.456 41.216L131.464 41.2164L131.531 41.2211C133.635 41.3684 136.952 41.6006 136.952 44.789C136.952 47.5882 134.466 48.7115 131.575 48.7115C129.224 48.7528 126.951 47.8662 125.249 46.2438L126.225 45.1389C127.654 46.559 129.588 47.3538 131.602 47.3488C133.646 47.3488 135.341 46.6121 135.341 44.9916C135.341 43.1869 133.499 42.9106 131.455 42.7633L131.447 42.7628C128.853 42.5972 125.93 42.4107 125.93 39.6327C125.93 36.8519 128.564 36.0601 130.718 36.0601C132.648 36.0393 134.531 36.6541 136.077 37.8096L135.11 38.9145ZM76.8807 36.3725V48.3978H84.0443C85.6465 48.3978 86.4936 47.9742 87.1381 47.3665C87.482 47.0504 87.7563 46.666 87.9434 46.238C88.1305 45.8099 88.2262 45.3476 88.2246 44.8804C88.2561 44.1815 88.0382 43.4941 87.6098 42.9409C87.1814 42.3878 86.5704 42.0048 85.8859 41.8603C86.3977 41.6638 86.8366 41.3144 87.143 40.8598C87.4494 40.4051 87.6085 39.8672 87.5985 39.319C87.598 38.9645 87.526 38.6139 87.3868 38.2879C87.2476 37.962 87.044 37.6675 86.7882 37.4222C86.3954 37.0599 85.9338 36.7803 85.4308 36.6C84.9278 36.4197 84.3937 36.3423 83.8602 36.3725H76.8807ZM78.4828 41.5334V37.8089L83.6944 37.7951C84.0105 37.7729 84.3278 37.8135 84.6281 37.9147C84.9284 38.0158 85.2057 38.1755 85.4439 38.3844C85.7635 38.7155 85.9418 39.158 85.9411 39.6182C85.9413 39.8746 85.891 40.1286 85.7931 40.3656C85.6951 40.6026 85.5514 40.8179 85.3702 40.9994C85.1754 41.1806 84.9464 41.3211 84.6966 41.4128C84.4468 41.5045 84.1812 41.5455 83.9154 41.5334H78.4828ZM78.4828 46.9798V42.8363L84.339 42.8179C84.6481 42.8173 84.9541 42.879 85.2388 42.9992C85.5236 43.1194 85.7812 43.2958 85.9963 43.5177C86.3572 43.8725 86.5625 44.356 86.5672 44.862C86.5662 45.1342 86.5102 45.4033 86.4026 45.6533C86.295 45.9033 86.138 46.129 85.9411 46.3169C85.4383 46.7713 84.7767 47.0095 84.0996 46.9798H78.4828ZM44.3406 36.3727L47.3239 45.9855H47.416L50.4914 36.3727H51.7068L54.7822 45.9855H54.8927L57.876 36.3727H59.5334L55.6661 48.398H54.0271L51.1267 39.3744H51.0162L48.1066 48.398H46.4676L42.6003 36.3727H44.3406ZM69.5882 42.7812H64.7265V46.98H73.2252V48.398H63.1243V36.3727H72.7925V37.7906H64.7265V41.3632H69.5882V42.7812ZM97.1929 48.398V36.3727H102.533C104.78 36.3727 106.032 37.0172 107.137 38.0485C108.225 39.2508 108.819 40.8189 108.802 42.4401C108.785 44.0614 108.158 45.6166 107.045 46.7958C105.94 47.7902 104.798 48.3795 102.552 48.3795L97.1929 48.398ZM102.478 46.98C104.209 46.98 104.927 46.5196 105.775 45.8198C106.66 44.8948 107.144 43.6566 107.119 42.3761C107.148 41.1272 106.685 39.917 105.83 39.0061C105.001 38.251 104.191 37.7906 102.478 37.7906H98.795V46.9984L102.478 46.98ZM114.393 42.7812H119.264V41.3632H114.393V37.7906H122.459V36.3727H112.791V48.398H122.882V46.98H114.393V42.7812ZM140.745 36.3727V48.398H142.348V36.3727H140.745ZM157.153 39.0807C155.965 38.0552 154.451 37.4871 152.881 37.4786C152.231 37.4674 151.586 37.5868 150.984 37.8297C150.381 38.0727 149.833 38.4341 149.373 38.8927C148.913 39.3513 148.549 39.8976 148.304 40.4993C148.059 41.101 147.937 41.7458 147.946 42.3955C147.946 44.9737 149.861 47.294 153.01 47.294C154.397 47.3182 155.756 46.9059 156.896 46.1154V43.261H153.01V41.843H158.369V46.9073C156.799 48.0805 154.896 48.7253 152.936 48.7488C149.161 48.7488 146.27 45.9129 146.27 42.4139C146.27 38.915 149.189 36.0606 152.872 36.0606C154.852 36.0844 156.761 36.8012 158.268 38.0863L157.153 39.0807ZM173.589 48.398V36.3727H171.96V45.5804L164.317 36.3727H162.862V48.398H164.492V39.1902L172.135 48.398H173.589Z" fill="#263238"/>
<path fill-rule="evenodd" clip-rule="evenodd" d="M18.3239 1.01227C18.3393 1.17339 18.3113 1.33491 18.2832 1.49637L18.2831 1.49679C18.2715 1.56342 18.2599 1.63019 18.2514 1.69677C18.2327 1.84197 18.2285 1.98514 18.2243 2.12787V2.12791L18.2234 2.15592C18.2148 2.53739 18.184 2.91796 18.1312 3.29579C18.1035 3.4152 18.1014 3.53911 18.1253 3.6596C18.1286 3.67798 18.1362 3.69537 18.1475 3.71042C18.1588 3.72547 18.1735 3.73776 18.1905 3.74631C18.2102 3.75194 18.231 3.75255 18.251 3.74809C18.4254 3.72694 18.5936 3.67229 18.746 3.58727C18.8984 3.50225 19.032 3.38853 19.1392 3.25263C19.2464 3.11673 19.325 2.96131 19.3705 2.79529C19.4161 2.62927 19.4277 2.4559 19.4047 2.28512C19.3943 2.20532 19.375 2.12682 19.3472 2.05101C19.3202 1.97669 19.2836 1.90707 19.2469 1.83721C19.2157 1.77779 19.1844 1.7181 19.1586 1.65497C19.102 1.50761 19.0598 1.3554 19.0325 1.20038C18.9944 1.03915 18.9695 0.875278 18.9579 0.710316C18.9552 0.643864 18.9568 0.576625 18.9585 0.50944V0.509414V0.509388V0.509362V0.509336V0.50931V0.509285V0.50926V0.50923C18.9624 0.351478 18.9663 0.193794 18.914 0.0459575C18.8843 0.017784 18.845 0.00142722 18.8038 8.90905e-05C18.7625 -0.00124906 18.7223 0.0125272 18.6911 0.038722C18.6305 0.0933542 18.5852 0.162298 18.5595 0.239025C18.4363 0.481637 18.3567 0.743184 18.3239 1.01227ZM18.3239 1.01227C18.3211 1.03547 18.3186 1.05872 18.3165 1.08203L18.3183 0.966567C18.3206 0.981797 18.3225 0.997032 18.3239 1.01227ZM20.8517 1.34373C20.6913 1.98668 20.5896 2.64261 20.5478 3.30379L20.5457 3.36169C20.5424 3.45824 20.5391 3.5548 20.5284 3.64871C20.5091 3.79869 20.4795 3.94718 20.4398 4.09316L20.3196 4.57787C20.3576 4.60258 20.4017 4.61693 20.4472 4.61943C20.4927 4.62193 20.538 4.61249 20.5784 4.59209C20.6586 4.55039 20.7287 4.49236 20.7841 4.42188C21.0215 4.13764 21.2303 3.83149 21.4074 3.50767C21.4621 3.42232 21.509 3.33238 21.5475 3.23887C21.5946 3.10342 21.6191 2.96133 21.6202 2.81803C21.6213 2.38375 21.5428 1.95237 21.3885 1.54443C21.3789 1.51647 21.3693 1.48263 21.3588 1.44579L21.3586 1.44512C21.316 1.29533 21.2593 1.09604 21.1371 1.03906C20.948 0.946616 20.8799 1.21543 20.8517 1.34373ZM23.9383 2.08935C24.0506 1.97365 24.188 1.85519 24.3511 1.86208C24.3796 1.86192 24.4078 1.8677 24.4338 1.87906C24.4598 1.89042 24.4831 1.90709 24.5021 1.92794C24.5401 1.9897 24.5521 2.06345 24.5354 2.13343C24.4353 3.00891 23.9443 3.80519 23.3118 4.42874C23.1332 4.61759 22.9215 4.77362 22.6866 4.88953C22.5658 4.94356 22.4602 4.98897 22.4583 4.82174C22.4752 4.67651 22.512 4.53427 22.5677 4.39884C22.7367 3.85068 22.9875 3.33038 23.3122 2.85479C23.4976 2.58217 23.7071 2.32605 23.9383 2.08935ZM17.0651 4.80078C17.8202 5.2255 18.6082 5.5912 19.4216 5.89448C20.6555 6.38155 21.9068 6.82794 23.1571 7.27396C23.461 7.38922 23.7712 7.48791 24.0861 7.56956C24.4489 7.65628 24.8698 7.68642 25.1563 7.45366C25.1875 7.43305 25.2098 7.40173 25.2187 7.36581C25.2202 7.34502 25.2168 7.32415 25.2088 7.30479C25.1179 7.0376 24.8238 6.8981 24.558 6.79225C22.8123 6.10018 21.0107 5.55969 19.2095 5.01935L19.2094 5.01934C18.6753 4.85911 18.1412 4.69889 17.6087 4.53474C17.5754 4.5244 17.5164 4.50098 17.4437 4.47209C17.1966 4.37392 16.7908 4.2127 16.6952 4.2881C16.5156 4.42661 16.9574 4.73515 17.0651 4.80078ZM25.3418 4.64078L25.3085 4.68611C25.2193 4.8078 25.1295 4.9289 25.0396 5.05015L25.0394 5.05031L25.0392 5.05059L25.0389 5.05099L25.0381 5.05216C24.8965 5.24301 24.7545 5.43442 24.6145 5.62897C24.5299 5.74691 24.558 5.75929 24.6294 5.79084C24.654 5.80171 24.6838 5.81486 24.7159 5.83539C24.7518 5.85858 24.7314 5.91863 24.7117 5.97633C24.6889 6.04327 24.6673 6.10705 24.7358 6.10644C24.8168 6.09742 24.8935 6.06643 24.9573 6.01696L25.6333 5.57438C26.0118 5.34749 26.3611 5.07703 26.6738 4.76872C26.9735 4.44806 27.1983 4.04076 27.2089 3.60589C27.1145 3.57555 27.0175 3.63343 26.9417 3.69891L26.9241 3.71427C26.8537 3.77561 26.7801 3.83981 26.6882 3.84259C26.8249 3.6638 26.9219 3.45888 26.9729 3.24091C26.8676 3.24176 26.7669 3.28201 26.6913 3.3534C26.3303 3.60063 25.9959 3.88313 25.6933 4.1966C25.5653 4.3363 25.4535 4.48866 25.3418 4.64075L25.3418 4.64078ZM3.19499 30.0914L3.27006 30.1634L9.91152 35.5555C10.0279 35.6401 10.1709 35.6797 10.3143 35.6671C10.4576 35.6546 10.5915 35.5907 10.6915 35.4873L15.0216 30.6875C15.4604 30.2169 16.0579 29.9255 16.6988 29.8694C17.3397 29.8134 17.9787 29.9966 18.4926 30.3838L23.5904 34.3588C23.7064 34.4443 23.8497 34.4846 23.9933 34.472C24.1369 34.4594 24.271 34.3949 24.3704 34.2906L29.9795 27.8266C29.9967 27.7977 30.0156 27.7698 30.036 27.7431L31.5847 25.962C31.9083 25.5917 32.1538 25.1599 32.3064 24.6924C32.4589 24.2249 32.5155 23.7314 32.4726 23.2416C32.4298 22.7517 32.2884 22.2755 32.0569 21.8416C31.8255 21.4077 31.5088 21.0251 31.1258 20.7166L17.5925 9.70862C16.8229 9.08937 15.8438 8.79165 14.8598 8.87773C13.8758 8.96382 12.9633 9.42704 12.313 10.1705L0.901625 23.3609C0.578127 23.7307 0.332727 24.1622 0.180171 24.6292C0.027614 25.0963 -0.0289513 25.5894 0.0138731 26.0789C0.0566975 26.5684 0.198028 27.0441 0.429373 27.4776C0.660718 27.9111 0.977303 28.2934 1.36011 28.6014L3.19499 30.0914ZM31.0735 29.5532L25.8478 35.571C25.4194 36.0534 24.8246 36.3561 24.1824 36.4187C23.5403 36.4812 22.8983 36.299 22.3848 35.9083L17.2918 31.933C17.1679 31.8489 17.0188 31.8101 16.8696 31.8231C16.7204 31.8362 16.5803 31.9003 16.4728 32.0046L12.1475 36.804C11.7097 37.2778 11.109 37.5688 10.4658 37.6187C9.82257 37.6686 9.18422 37.4738 8.67853 37.0731L2.48726 32.0542L1.73738 32.9156C1.41581 33.2863 1.17208 33.7179 1.02068 34.1847C0.869281 34.6516 0.813303 35.1441 0.856076 35.633C0.898849 36.1219 1.0395 36.5972 1.26966 37.0306C1.49983 37.464 1.8148 37.8468 2.19586 38.156L15.7248 49.1694C16.4948 49.7867 17.476 50.0782 18.4582 49.9814C19.4407 49.9056 20.3545 49.4483 21.0043 48.7075L32.4201 35.5118C32.7436 35.1419 32.989 34.7105 33.1415 34.2434C33.2941 33.7764 33.3506 33.2833 33.3078 32.7938C33.265 32.3043 33.1236 31.8285 32.8923 31.3951C32.661 30.9616 32.3444 30.5793 31.9616 30.2713L31.0735 29.5532Z" fill="#263238"/>
</svg>
