<svg width="81" height="80" viewBox="0 0 81 80" fill="none" xmlns="http://www.w3.org/2000/svg">
<rect width="80" height="80" transform="translate(0.660156)" fill="white"/>
<g filter="url(#filter0_d_892_1163)">
<path d="M52.5388 0.878679C51.9762 0.31607 51.2132 0 50.4175 0H20.6602C19.0033 0 17.6602 1.34315 17.6602 3V63C17.6602 64.6569 19.0033 66 20.6602 66H62.6602C64.317 66 65.6602 64.6569 65.6602 63V15.2426C65.6602 14.447 65.3441 13.6839 64.7815 13.1213L52.5388 0.878679Z" fill="white"/>
<path d="M50.4175 0.5C51.0806 0.5 51.7164 0.763391 52.1853 1.23223L64.4279 13.4749C64.8968 13.9437 65.1602 14.5796 65.1602 15.2426V63C65.1602 64.3807 64.0409 65.5 62.6602 65.5H20.6602C19.2794 65.5 18.1602 64.3807 18.1602 63V3C18.1602 1.61929 19.2794 0.5 20.6602 0.5H50.4175Z" stroke="#121416"/>
</g>
<path d="M50.5 14.5001V0.500052C51.3 0.100052 53.1667 2.00005 54 3.00005L64.5 13.5001L65 14.5001H50.5Z" fill="#3B6AFC"/>
<g filter="url(#filter1_d_892_1163)">
<path d="M50.4175 0.5C51.0806 0.5 51.7164 0.763391 52.1853 1.23223L64.4279 13.4749C64.8968 13.9437 65.1602 14.5796 65.1602 15.2426V63C65.1602 64.3807 64.0409 65.5 62.6602 65.5H20.6602C19.2794 65.5 18.1602 64.3807 18.1602 63V3C18.1602 1.61929 19.2794 0.5 20.6602 0.5H50.4175Z" stroke="#121416" shape-rendering="crispEdges"/>
</g>
<rect x="53.1602" y="21.5" width="23" height="13" rx="2.5" fill="white" stroke="#121416"/>
<path d="M44.97 59.0307C43.3853 59.0307 41.8006 59.0307 40.2159 59.0307C39.3353 59.0307 38.9029 58.7047 38.8825 58.0663C38.8621 57.4279 39.3217 57.0317 40.2408 57.0317C43.4351 57.0317 46.6271 57.0317 49.8214 57.0317C50.3715 57.0317 50.8741 57.1336 51.0688 57.7381C51.2952 58.4444 50.8198 59.0194 49.9618 59.0307C48.2933 59.0579 46.6317 59.0307 44.97 59.0307Z" fill="#121416"/>
<path d="M44.9723 61.9848C46.6068 61.9848 48.2413 61.9848 49.8758 61.9848C50.693 61.9848 51.0983 62.3266 51.1005 62.9582C51.1028 63.5898 50.6998 63.9566 49.8849 63.9589C46.64 63.9755 43.3951 63.9755 40.1503 63.9589C39.2923 63.9589 38.8622 63.5763 38.8825 62.9265C38.9029 62.2768 39.3036 61.987 40.1412 61.9825C41.7531 61.978 43.374 61.9848 44.9723 61.9848Z" fill="#121416"/>
<path d="M44.9853 68.8808C43.378 68.8808 41.7684 68.8808 40.161 68.8808C39.303 68.8808 38.8684 68.5253 38.8842 67.8733C38.8978 67.2644 39.3189 66.9089 40.1384 66.9044C43.3817 66.8938 46.6266 66.8938 49.873 66.9044C50.697 66.9044 51.0999 67.2621 51.1067 67.8892C51.1135 68.5163 50.6857 68.8762 49.8164 68.8808C48.2045 68.8876 46.5949 68.8808 44.9853 68.8808Z" fill="#121416"/>
<g filter="url(#filter2_d_892_1163)">
<rect x="2" y="45" width="56" height="30" rx="3" fill="white"/>
<rect x="2.5" y="45.5" width="55" height="29" rx="2.5" stroke="#121416"/>
</g>
<circle cx="12.6602" cy="59" r="4.5" fill="#ED305C" stroke="#121416"/>
<circle cx="12.6602" cy="59" r="2" fill="#121416"/>
<circle cx="59.6602" cy="28" r="4.5" fill="#ED305C" stroke="#121416"/>
<circle cx="59.6602" cy="28" r="2" fill="#121416"/>
<circle cx="27.6602" cy="10" r="4.5" fill="#ED305C" stroke="#121416"/>
<circle cx="27.6602" cy="10" r="2" fill="#121416"/>
<rect x="38.6602" y="63" width="12" height="2" rx="1" fill="#121416"/>
<rect x="38.6602" y="58" width="12" height="2" rx="1" fill="#121416"/>
<rect x="38.6602" y="53" width="12" height="2" rx="1" fill="#121416"/>
<path fill-rule="evenodd" clip-rule="evenodd" d="M51 1H50V14V15H51H65V14H51V1Z" fill="#121416"/>
<rect x="66.6602" y="25" width="8" height="2" rx="1" fill="#121416"/>
<rect x="66.6602" y="29" width="8" height="2" rx="1" fill="#121416"/>
<path fill-rule="evenodd" clip-rule="evenodd" d="M11.6602 3C11.1079 3 10.6602 3.44772 10.6602 4V37.8377C10.6602 37.9452 10.6775 38.052 10.7115 38.1539L11.7115 41.1539C12.0154 42.0656 13.3049 42.0656 13.6088 41.1539L14.6088 38.1539C14.6428 38.052 14.6602 37.9452 14.6602 37.8377V4C14.6602 3.44772 14.2124 3 13.6602 3H11.6602Z" fill="white"/>
<path d="M14.6088 38.1539L15.0832 38.3121L14.6088 38.1539ZM11.7115 41.1539L11.2371 41.3121L11.7115 41.1539ZM10.7115 38.1539L10.2371 38.3121L10.7115 38.1539ZM11.1602 4C11.1602 3.72386 11.384 3.5 11.6602 3.5V2.5C10.8317 2.5 10.1602 3.17157 10.1602 4H11.1602ZM11.1602 37.8377V4H10.1602V37.8377H11.1602ZM10.2371 38.3121L11.2371 41.3121L12.1858 40.9958L11.1858 37.9958L10.2371 38.3121ZM14.0832 41.3121L15.0832 38.3121L14.1345 37.9958L13.1345 40.9958L14.0832 41.3121ZM14.1602 4V37.8377H15.1602V4H14.1602ZM13.6602 3.5C13.9363 3.5 14.1602 3.72386 14.1602 4H15.1602C15.1602 3.17157 14.4886 2.5 13.6602 2.5V3.5ZM11.6602 3.5H13.6602V2.5H11.6602V3.5ZM15.0832 38.3121C15.1342 38.1591 15.1602 37.9989 15.1602 37.8377H14.1602C14.1602 37.8915 14.1515 37.9449 14.1345 37.9958L15.0832 38.3121ZM11.2371 41.3121C11.693 42.6796 13.6273 42.6796 14.0832 41.3121L13.1345 40.9958C12.9825 41.4517 12.3378 41.4517 12.1858 40.9958L11.2371 41.3121ZM10.1602 37.8377C10.1602 37.9989 10.1861 38.1591 10.2371 38.3121L11.1858 37.9958C11.1688 37.9449 11.1602 37.8915 11.1602 37.8377H10.1602Z" fill="#121416"/>
<path fill-rule="evenodd" clip-rule="evenodd" d="M4.66016 41.8379C5.21244 41.8379 5.66016 41.3902 5.66016 40.8379L5.66016 7.00017C5.66016 6.89268 5.64283 6.78591 5.60884 6.68394L4.60884 3.68394C4.30494 2.77224 3.01537 2.77224 2.71148 3.68394L1.71148 6.68394C1.67749 6.78591 1.66016 6.89268 1.66016 7.00017L1.66016 40.8379C1.66016 41.3902 2.10787 41.8379 2.66016 41.8379L4.66016 41.8379Z" fill="white"/>
<path d="M4.66016 41.8379L4.66016 42.3379L4.66016 41.8379ZM2.66016 41.8379L2.66016 41.3379L2.66016 41.8379ZM1.71148 6.68394L1.23713 6.52583L1.71148 6.68394ZM4.60884 3.68394L5.08318 3.52583L4.60884 3.68394ZM5.60884 6.68394L6.08318 6.52583L5.60884 6.68394ZM5.16016 40.8379C5.16016 41.114 4.9363 41.3379 4.66016 41.3379L4.66016 42.3379C5.48858 42.3379 6.16016 41.6663 6.16016 40.8379L5.16016 40.8379ZM5.16016 7.00017L5.16016 40.8379L6.16016 40.8379L6.16016 7.00017L5.16016 7.00017ZM6.08318 6.52583L5.08318 3.52583L4.1345 3.84206L5.1345 6.84206L6.08318 6.52583ZM2.23713 3.52583L1.23713 6.52583L2.18582 6.84205L3.18582 3.84206L2.23713 3.52583ZM2.16016 40.8379L2.16016 7.00017L1.16016 7.00017L1.16016 40.8379L2.16016 40.8379ZM2.66016 41.3379C2.38401 41.3379 2.16016 41.114 2.16016 40.8379L1.16016 40.8379C1.16016 41.6663 1.83173 42.3379 2.66016 42.3379L2.66016 41.3379ZM4.66016 41.3379L2.66016 41.3379L2.66016 42.3379L4.66016 42.3379L4.66016 41.3379ZM1.23713 6.52583C1.18615 6.67878 1.16016 6.83894 1.16016 7.00017L2.16016 7.00017C2.16016 6.94643 2.16882 6.89304 2.18582 6.84205L1.23713 6.52583ZM5.08318 3.52583C4.62734 2.15828 2.69298 2.15828 2.23713 3.52583L3.18582 3.84206C3.33777 3.38621 3.98255 3.38621 4.1345 3.84206L5.08318 3.52583ZM6.16016 7.00017C6.16016 6.83894 6.13417 6.67878 6.08318 6.52583L5.1345 6.84206C5.1515 6.89304 5.16016 6.94643 5.16016 7.00017L6.16016 7.00017Z" fill="#121416"/>
<defs>
<filter id="filter0_d_892_1163" x="17.6602" y="0" width="52" height="71" filterUnits="userSpaceOnUse" color-interpolation-filters="sRGB">
<feFlood flood-opacity="0" result="BackgroundImageFix"/>
<feColorMatrix in="SourceAlpha" type="matrix" values="0 0 0 0 0 0 0 0 0 0 0 0 0 0 0 0 0 0 127 0" result="hardAlpha"/>
<feOffset dx="4" dy="5"/>
<feComposite in2="hardAlpha" operator="out"/>
<feColorMatrix type="matrix" values="0 0 0 0 0 0 0 0 0 0 0 0 0 0 0 0 0 0 1 0"/>
<feBlend mode="normal" in2="BackgroundImageFix" result="effect1_dropShadow_892_1163"/>
<feBlend mode="normal" in="SourceGraphic" in2="effect1_dropShadow_892_1163" result="shape"/>
</filter>
<filter id="filter1_d_892_1163" x="17.6602" y="0" width="52" height="71" filterUnits="userSpaceOnUse" color-interpolation-filters="sRGB">
<feFlood flood-opacity="0" result="BackgroundImageFix"/>
<feColorMatrix in="SourceAlpha" type="matrix" values="0 0 0 0 0 0 0 0 0 0 0 0 0 0 0 0 0 0 127 0" result="hardAlpha"/>
<feOffset dx="4" dy="5"/>
<feComposite in2="hardAlpha" operator="out"/>
<feColorMatrix type="matrix" values="0 0 0 0 0 0 0 0 0 0 0 0 0 0 0 0 0 0 1 0"/>
<feBlend mode="normal" in2="BackgroundImageFix" result="effect1_dropShadow_892_1163"/>
<feBlend mode="normal" in="SourceGraphic" in2="effect1_dropShadow_892_1163" result="shape"/>
</filter>
<filter id="filter2_d_892_1163" x="2" y="45" width="60" height="35" filterUnits="userSpaceOnUse" color-interpolation-filters="sRGB">
<feFlood flood-opacity="0" result="BackgroundImageFix"/>
<feColorMatrix in="SourceAlpha" type="matrix" values="0 0 0 0 0 0 0 0 0 0 0 0 0 0 0 0 0 0 127 0" result="hardAlpha"/>
<feOffset dx="4" dy="5"/>
<feComposite in2="hardAlpha" operator="out"/>
<feColorMatrix type="matrix" values="0 0 0 0 0.0705882 0 0 0 0 0.0784314 0 0 0 0 0.0862745 0 0 0 1 0"/>
<feBlend mode="normal" in2="BackgroundImageFix" result="effect1_dropShadow_892_1163"/>
<feBlend mode="normal" in="SourceGraphic" in2="effect1_dropShadow_892_1163" result="shape"/>
</filter>
</defs>
</svg>
