<svg width="182" height="48" viewBox="0 0 182 48" fill="none" xmlns="http://www.w3.org/2000/svg">
<path d="M35.0805 24.5596C35.0004 24.4858 34.936 24.3969 34.8912 24.2981C34.8464 24.1993 34.8221 24.0927 34.8196 23.9844C34.8221 23.8761 34.8464 23.7695 34.8912 23.6707C34.936 23.5719 35.0004 23.483 35.0805 23.4092L37.0603 21.496C37.4826 21.0952 37.8188 20.6141 38.049 20.0817C38.2792 19.5493 38.3986 18.9764 38.4 18.3972C38.3972 17.8183 38.2772 17.2457 38.0471 16.7135C37.817 16.1812 37.4815 15.7001 37.0603 15.2984L22.3476 1.21305C21.4865 0.43276 20.3614 0 19.1941 0C18.0267 0 16.9017 0.43276 16.0405 1.21305L1.32781 15.2984C0.910407 15.7023 0.578117 16.1841 0.350188 16.716C0.122258 17.248 0.00322899 17.8194 0 18.3972C0.00191123 18.9752 0.120336 19.547 0.348342 20.0791C0.576349 20.6112 0.909344 21.0929 1.32781 21.496L3.31955 23.4092C3.39804 23.4836 3.46054 23.5728 3.50332 23.6717C3.54611 23.7705 3.56827 23.8769 3.5685 23.9844C3.56827 24.0919 3.54611 24.1983 3.50332 24.2971C3.46054 24.396 3.39804 24.4852 3.31955 24.5596L1.32781 26.4611C0.910407 26.8649 0.578117 27.3468 0.350188 27.8787C0.122258 28.4106 0.00322899 28.982 0 29.5599C0.00191123 30.1379 0.120336 30.7097 0.348342 31.2418C0.576349 31.7739 0.909344 32.2556 1.32781 32.6586L16.0405 46.744C16.8871 47.5522 18.0181 48.0026 19.1941 48C20.3706 48.0051 21.5024 47.5543 22.3476 46.744L37.0603 32.6586C37.4818 32.2548 37.8175 31.7716 38.0476 31.2374C38.2776 30.7032 38.3975 30.1288 38.4 29.5481C38.3972 28.9692 38.2772 28.3967 38.0471 27.8644C37.817 27.3322 37.4815 26.851 37.0603 26.4493L35.0805 24.5596Z" fill="url(#paint0_linear_291_1160)"/>
<path fill-rule="evenodd" clip-rule="evenodd" d="M15.8098 33.0403C16.6493 34.4943 18.5085 34.9924 19.9625 34.153C21.4165 33.3135 21.9147 31.4543 21.0752 30.0003L15.8098 33.0403Z" fill="#263238"/>
<mask id="mask0_291_1160" style="mask-type:alpha" maskUnits="userSpaceOnUse" x="15" y="30" width="7" height="5">
<path fill-rule="evenodd" clip-rule="evenodd" d="M15.8098 33.0403C16.6493 34.4943 18.5085 34.9924 19.9625 34.153C21.4165 33.3135 21.9147 31.4543 21.0752 30.0003L15.8098 33.0403Z" fill="black"/>
</mask>
<g mask="url(#mask0_291_1160)">
<circle cx="19.2029" cy="35.2681" r="1.824" fill="#FF4389"/>
</g>
<path d="M14.25 13.687L12.5625 12.937H11.4375L9.75 14.2495L8.25 18.187V22.4995L9.375 27.187L13.2 29.5495L16.2 27.4495L18 22.6495L17.4 19.9495L15.9 14.8495L14.25 13.687Z" fill="white"/>
<path fill-rule="evenodd" clip-rule="evenodd" d="M18.3 21C18.3 25.9706 15.8823 30 12.9 30C9.91766 30 7.5 25.9706 7.5 21C7.5 16.0294 9.91766 12 12.9 12C15.8823 12 18.3 16.0294 18.3 21ZM16.4672 24.0363C15.8611 26.6658 14.4919 28.5 12.9 28.5C10.7461 28.5 9 25.1421 9 21C9 16.8579 10.7461 13.5 12.9 13.5C14.8914 13.5 16.5341 16.3702 16.7707 20.0768C16.332 19.5375 15.7011 19.1994 15 19.1994C13.6746 19.1994 12.6 20.4082 12.6 21.8994C12.6 23.3905 13.6746 24.5994 15 24.5994C15.5526 24.5994 16.0615 24.3893 16.4672 24.0363Z" fill="#263238"/>
<path d="M26.8496 13.687L25.1621 12.937H24.0371L22.3496 14.2495L20.8496 18.187V22.4995L21.9746 27.187L25.7996 29.5495L28.7996 27.4495L30.5996 22.6495L29.9996 19.9495L28.4996 14.8495L26.8496 13.687Z" fill="white"/>
<path fill-rule="evenodd" clip-rule="evenodd" d="M30.9001 21C30.9001 25.9706 28.4824 30 25.5001 30C22.5178 30 20.1001 25.9706 20.1001 21C20.1001 16.0294 22.5178 12 25.5001 12C28.4824 12 30.9001 16.0294 30.9001 21ZM29.0672 24.0363C28.4611 26.6658 27.092 28.5 25.5 28.5C23.3461 28.5 21.6 25.1421 21.6 21C21.6 16.8579 23.3461 13.5 25.5 13.5C27.4914 13.5 29.1342 16.3702 29.3708 20.0768C28.932 19.5375 28.3011 19.1994 27.6001 19.1994C26.2746 19.1994 25.2001 20.4082 25.2001 21.8994C25.2001 23.3905 26.2746 24.5994 27.6001 24.5994C28.1526 24.5994 28.6616 24.3893 29.0672 24.0363Z" fill="#263238"/>
<path fill-rule="evenodd" clip-rule="evenodd" d="M86.2086 4.00208C86.8207 3.97838 87.4175 4.19663 87.8699 4.60961C88.3222 5.02258 88.5939 5.59707 88.6259 6.20878C88.5893 6.81379 88.3143 7.37958 87.8611 7.7821C87.408 8.18462 86.8137 8.39099 86.2086 8.35594C85.9106 8.37322 85.6122 8.33124 85.3305 8.2324C85.0489 8.13357 84.7897 7.97986 84.5678 7.78017C84.346 7.58048 84.166 7.33878 84.0382 7.06905C83.9104 6.79932 83.8374 6.50692 83.8233 6.20878C83.8339 5.9069 83.9042 5.6101 84.03 5.3355C84.1559 5.0609 84.3348 4.81392 84.5565 4.6088C84.7782 4.40367 85.0384 4.24444 85.3219 4.14031C85.6055 4.03619 85.9068 3.98921 86.2086 4.00208ZM84.2171 25.4235V10.6817H88.2367V25.4235H84.2171ZM50.3999 5.68783V25.4245L54.722 25.4153V18.1634H61.3426C64.0302 18.1634 65.7838 17.4401 67.02 16.2635C68.1686 15.1848 68.8426 13.6946 68.8941 12.1198C68.9456 10.5449 68.3704 9.01393 67.2947 7.86248C65.9944 6.4707 64.1218 5.68783 61.3426 5.68783H50.3999ZM54.722 14.5192V9.35039L61.4891 9.33208C61.9133 9.29855 62.3397 9.35414 62.7411 9.49528C63.1425 9.63642 63.5098 9.85997 63.8196 10.1516C64.2834 10.6284 64.543 11.2673 64.543 11.9325C64.5322 12.6229 64.2492 13.281 63.7555 13.7638C63.1291 14.3043 62.3146 14.5757 61.4891 14.5192H54.722ZM75.9344 25.4237V15.9377C76.7448 14.8801 77.4178 14.0652 78.4524 14.0606C79.1329 14.1055 79.8035 14.2474 80.4439 14.4818L81.5656 10.7964C80.8824 10.3851 80.0967 10.1756 79.2994 10.192C77.3948 10.192 76.3464 11.3686 75.4308 12.8794C75.3677 12.1407 75.2669 11.4057 75.1286 10.6773H71.4661C71.7368 12.0498 71.8778 13.4446 71.8873 14.8435V25.4237H75.9344ZM98.6579 13.2505C100.501 13.3393 102.309 13.7904 103.978 14.5782L105.388 11.6939C103.216 10.7261 100.875 10.1926 98.4977 10.1236C95.5079 10.1236 92.2159 11.3322 92.2159 15.0772C92.2159 19.0648 95.8788 19.28 99.0837 19.4585C100.366 19.5501 102.197 19.7195 102.197 21.093C102.197 22.1185 101.139 22.8144 99.2623 22.8144C96.9364 22.8144 94.551 21.6973 93.1316 20.8183L91.7123 23.6888C93.9443 25.1339 96.5437 25.9092 99.2028 25.923C103.163 25.923 106.213 24.2336 106.213 20.7267C106.213 16.469 101.771 16.1668 99.1112 16.0432C97.843 15.9974 96.213 15.9059 96.213 14.6697C96.213 13.7312 97.147 13.2505 98.6579 13.2505ZM109.71 25.424V4.2773H113.73V12.2205C114.788 11.1629 116.207 10.1969 117.988 10.1969C121.345 10.1969 123.611 12.4311 123.611 15.5168V25.424H119.563V15.6679C119.563 14.5462 118.533 13.6122 117.082 13.6122C115.631 13.6122 114.426 14.6103 113.73 15.5168V25.424H109.71ZM129 10.682H126.431L126.44 13.6715H129.009V21.6193C129.009 24.911 131.412 26.0006 133.587 26.0006C134.379 26.0006 136.22 25.8816 136.792 25.4238L136.49 22.4022C135.872 22.521 135.246 22.5914 134.617 22.6128C133.592 22.6128 133.019 22.2328 133.019 21.3171V13.6715H136.641V10.682H133.019V6.51121H129V10.682ZM142.264 4.00208C142.876 3.97838 143.472 4.19663 143.925 4.60961C144.377 5.02258 144.649 5.59707 144.681 6.20878C144.644 6.81379 144.369 7.37958 143.916 7.7821C143.463 8.18462 142.869 8.39099 142.264 8.35594C141.966 8.37322 141.667 8.33124 141.385 8.2324C141.104 8.13357 140.845 7.97986 140.623 7.78017C140.401 7.58048 140.221 7.33878 140.093 7.06905C139.965 6.79932 139.892 6.50692 139.878 6.20878C139.889 5.9069 139.959 5.6101 140.085 5.3355C140.211 5.0609 140.39 4.81392 140.611 4.6088C140.833 4.40367 141.093 4.24444 141.377 4.14031C141.66 4.03619 141.962 3.98921 142.264 4.00208ZM140.272 25.4235V10.6817H144.287V25.4235H140.272ZM159.559 10.5625C158.901 10.3024 158.198 10.178 157.492 10.1966C156.531 10.19 155.582 10.4061 154.718 10.8278C153.855 11.2496 153.101 11.8656 152.515 12.6276C152.453 11.9782 152.352 11.333 152.213 10.6956H148.55C148.835 12.0768 148.976 13.4837 148.971 14.8938V25.4237H152.991V15.5165C153.838 14.5779 154.923 13.6119 156.375 13.6119C157.826 13.6119 158.824 14.5459 158.824 15.6676V25.4237H162.872V15.5165C162.882 14.8098 162.75 14.1083 162.483 13.4541C162.216 12.7999 161.819 12.2065 161.316 11.7096C160.814 11.2127 160.216 10.8225 159.559 10.5625ZM167.226 11.7671C169.376 10.7575 171.719 10.222 174.094 10.1967C177.477 10.1967 180.893 11.3459 180.893 14.6696V22.5533C180.885 23.5264 181.029 24.4949 181.319 25.4238H177.326C177.169 24.8693 177.048 24.305 176.965 23.7345C176.336 24.4137 175.568 24.9488 174.712 25.3028C173.857 25.6569 172.936 25.8216 172.011 25.7855C168.444 25.7855 166.178 23.6429 166.178 20.7724C166.178 18.0255 168.536 15.8783 172.647 15.8783C174.218 15.8783 175.788 16.24 176.873 17.0869V15.6036C176.873 14.0653 175.545 13.3694 173.764 13.3694C171.915 13.4537 170.103 13.9214 168.444 14.7429L167.226 11.7671ZM176.891 21.1936V19.7743C175.904 19.0518 174.703 18.6796 173.48 18.7168C171.09 18.7168 170.216 19.6553 170.216 20.7724C170.216 22.0085 171.214 22.828 172.903 22.828C174.391 22.8045 175.815 22.2208 176.891 21.1936ZM138.461 32.6738C140.077 32.6215 141.659 33.1508 142.918 34.1655L143.885 33.0606C142.339 31.9051 140.456 31.2903 138.526 31.3111C136.371 31.3111 133.738 32.1029 133.738 34.8837C133.738 37.6618 136.66 37.8483 139.255 38.0139L139.262 38.0144C141.307 38.1617 143.148 38.438 143.148 40.2427C143.148 41.8633 141.454 42.5999 139.41 42.5999C137.395 42.605 135.461 41.8101 134.032 40.39L133.056 41.495C134.758 43.1174 137.031 44.004 139.382 43.9627C142.273 43.9627 144.759 42.8393 144.759 40.0401C144.759 36.8516 141.443 36.6194 139.339 36.4722L139.272 36.4675L139.264 36.467C137.314 36.3567 135.331 36.2444 135.331 34.7364C135.331 33.2263 136.914 32.6738 138.461 32.6738ZM84.6834 43.6496V31.6241H91.663C92.1965 31.5939 92.7306 31.6713 93.2337 31.8516C93.7367 32.0319 94.1983 32.3115 94.5911 32.6738C94.8469 32.9192 95.0505 33.2136 95.1897 33.5396C95.3289 33.8655 95.4009 34.2162 95.4014 34.5706C95.4114 35.1188 95.2523 35.6568 94.9459 36.1115C94.6395 36.5661 94.2006 36.9155 93.6887 37.112C94.3733 37.2565 94.9843 37.6395 95.4127 38.1926C95.8411 38.7458 96.059 39.4332 96.0275 40.1322C96.0292 40.5993 95.9334 41.0617 95.7463 41.4898C95.5592 41.9178 95.285 42.3022 94.941 42.6183C94.2965 43.226 93.4493 43.6496 91.8472 43.6496H84.6834ZM86.2856 33.0605V36.7851H91.7182C91.9841 36.7972 92.2496 36.7562 92.4994 36.6645C92.7492 36.5728 92.9782 36.4323 93.1731 36.2511C93.3543 36.0696 93.498 35.8543 93.5959 35.6173C93.6939 35.3803 93.7442 35.1263 93.744 34.8699C93.7447 34.4096 93.5664 33.9672 93.2468 33.636C93.0085 33.4271 92.7312 33.2675 92.431 33.1663C92.1307 33.0652 91.8133 33.0245 91.4972 33.0467L86.2856 33.0605ZM86.2856 38.088V42.2316H91.9024C92.5795 42.2612 93.2411 42.0231 93.744 41.5686C93.9409 41.3808 94.0979 41.1551 94.2055 40.9051C94.3131 40.6551 94.3691 40.3859 94.3701 40.1138C94.3654 39.6077 94.16 39.1242 93.7992 38.7694C93.5841 38.5475 93.3265 38.3711 93.0417 38.2509C92.757 38.1307 92.4509 38.069 92.1418 38.0696L86.2856 38.088ZM55.1239 41.2373L52.1403 31.6243H50.3999L54.2675 43.6498H55.9066L58.8165 34.6261H58.927L61.8277 43.6498H63.4669L67.3345 31.6243H65.6769L62.6933 41.2373H62.5828L59.5072 31.6243H58.2916L55.216 41.2373H55.1239ZM72.528 38.033H77.3898V36.615H72.528V33.0423H80.5941V31.6243H70.9258V43.6498H81.0269V42.2318H72.528V38.033ZM104.998 31.6243V43.6498L110.357 43.6314C112.603 43.6314 113.745 43.0421 114.85 42.0476C115.963 40.8684 116.59 39.3131 116.607 37.6919C116.624 36.0706 116.03 34.5025 114.942 33.3001C113.837 32.2688 112.585 31.6243 110.338 31.6243H104.998ZM113.579 41.0716C112.732 41.7714 112.014 42.2318 110.283 42.2318L106.6 42.2502V33.0423H110.283C111.996 33.0423 112.806 33.5027 113.635 34.2578C114.49 35.1687 114.952 36.3789 114.924 37.6278C114.949 38.9083 114.465 40.1466 113.579 41.0716ZM127.07 38.033H122.199V42.2318H130.689V43.6498H120.597V31.6243H130.265V33.0423H122.199V36.615H127.07V38.033ZM148.554 43.6498V31.6243H150.156V43.6498H148.554ZM160.69 32.7295C162.26 32.738 163.775 33.3061 164.963 34.3317L166.077 33.3373C164.57 32.0521 162.661 31.3353 160.681 31.3115C156.998 31.3115 154.079 34.166 154.079 37.665C154.079 41.164 156.97 44 160.745 44C162.706 43.9764 164.608 43.3316 166.178 42.1584V37.0941H160.819V38.5121H164.705V41.3665C163.565 42.157 162.206 42.5693 160.819 42.5452C157.67 42.5452 155.755 40.2248 155.755 37.6465C155.746 36.9969 155.868 36.352 156.113 35.7503C156.358 35.1486 156.722 34.6023 157.182 34.1437C157.642 33.6851 158.19 33.3236 158.793 33.0807C159.395 32.8378 160.041 32.7184 160.69 32.7295ZM181.4 31.6243V43.6498H179.945L172.303 34.4419V43.6498H170.673V31.6243H172.128L179.771 40.8322V31.6243H181.4Z" fill="white"/>
<defs>
<linearGradient id="paint0_linear_291_1160" x1="38.4" y1="2.80507e-07" x2="1.61488" y2="49.2072" gradientUnits="userSpaceOnUse">
<stop stop-color="#74E2FD"/>
<stop offset="0.295" stop-color="#73D4FD"/>
<stop offset="0.78" stop-color="#6A73FF"/>
<stop offset="1" stop-color="#BC8BFF"/>
</linearGradient>
</defs>
</svg>
