<svg width="500" height="476" viewBox="0 0 500 476" fill="none" xmlns="http://www.w3.org/2000/svg">
<path opacity="0.1" d="M471.649 204.332C471.649 204.332 403.568 38.2756 279.109 6.25538C154.649 -25.7648 102.451 72.1888 83.3774 140.249C64.3043 208.309 -5.97819 298.223 0.404355 360.052C6.46777 418.818 57.9855 446.605 106.099 458.537C167.255 473.691 236.75 474.84 298.129 462.206C312.723 459.121 327.131 455.216 341.285 450.508C370.124 441.107 398.43 433.823 427.641 426.049C483.212 411.235 505.232 351.608 498.966 294.459C495.434 262.332 483.659 233.577 471.649 204.332Z" fill="#0C8CE9"/>
<path d="M434.162 22.5476H236.835V295.682H434.162V22.5476Z" stroke="#263238" stroke-linecap="round" stroke-linejoin="round"/>
<path d="M335.499 22.707V296.639" stroke="#263238" stroke-linecap="round" stroke-linejoin="round"/>
<path d="M434.321 159.678H236.665" stroke="#263238" stroke-linecap="round" stroke-linejoin="round"/>
<path d="M434.321 91.0864H236.665" stroke="#263238" stroke-linecap="round" stroke-linejoin="round"/>
<path d="M434.321 228.27H236.665" stroke="#263238" stroke-linecap="round" stroke-linejoin="round"/>
<path d="M398.356 122.745L379.123 141.227" stroke="#263238" stroke-linecap="round" stroke-linejoin="round"/>
<path d="M426.96 95.2444L403.983 117.332" stroke="#263238" stroke-linecap="round" stroke-linejoin="round"/>
<path d="M377.73 132.422L371.624 138.292" stroke="#263238" stroke-linecap="round" stroke-linejoin="round"/>
<path d="M403.962 107.198L381.942 128.371" stroke="#263238" stroke-linecap="round" stroke-linejoin="round"/>
<path d="M291.64 60.2039L272.407 78.6865" stroke="#263238" stroke-linecap="round" stroke-linejoin="round"/>
<path d="M320.244 32.7034L297.267 54.8017" stroke="#263238" stroke-linecap="round" stroke-linejoin="round"/>
<path d="M271.013 69.8813L264.907 75.7515" stroke="#263238" stroke-linecap="round" stroke-linejoin="round"/>
<path d="M297.246 44.667L275.226 65.8295" stroke="#263238" stroke-linecap="round" stroke-linejoin="round"/>
<path d="M393.76 195.399L374.528 213.882" stroke="#263238" stroke-linecap="round" stroke-linejoin="round"/>
<path d="M422.365 167.899L399.388 189.997" stroke="#263238" stroke-linecap="round" stroke-linejoin="round"/>
<path d="M373.134 205.077L367.028 210.947" stroke="#263238" stroke-linecap="round" stroke-linejoin="round"/>
<path d="M399.366 179.862L377.336 201.025" stroke="#263238" stroke-linecap="round" stroke-linejoin="round"/>
<path d="M402.43 269.946L401.6 262.843C401.6 262.843 397.824 263.055 396.367 259.769C395.484 257.781 394.59 253.75 395.888 251.762C396.266 251.14 396.818 250.643 397.474 250.33C398.131 250.017 398.865 249.902 399.586 249.999C400.307 250.096 400.984 250.4 401.534 250.876C402.085 251.351 402.485 251.977 402.685 252.676C403.696 255.558 404.196 256.792 404.196 256.792C403.951 252.612 400.803 235.778 410.281 238.341C414.131 239.404 415.184 243.105 415.355 246.04C415.525 248.975 415.131 256.579 415.131 256.579C415.131 256.579 417.674 256.855 417.844 252.634C418.014 248.412 422.099 246.498 423.918 248.497C425.737 250.496 426.556 257.6 424.577 259.822C422.599 262.045 416.333 262.821 416.333 262.821L416.748 269.957L402.43 269.946Z" fill="#F37316" stroke="#263238" stroke-linecap="round" stroke-linejoin="round"/>
<path d="M407.876 239.511C407.876 239.511 406.313 240.936 406.738 245.785C407.164 250.634 407.164 259.312 407.164 259.312" stroke="#263238" stroke-width="0.5" stroke-linecap="round" stroke-linejoin="round"/>
<path d="M412.014 242.786C412.014 242.786 413.865 242.51 413.291 246.923C412.982 250.617 412.982 254.331 413.291 258.025" stroke="#263238" stroke-width="0.5" stroke-linecap="round" stroke-linejoin="round"/>
<path d="M398.611 252.187C398.611 252.187 396.76 252.612 397.622 255.611C398.484 258.61 398.76 260.875 400.749 261.311C401.639 261.532 402.547 261.674 403.462 261.737L403.749 264.863" stroke="#263238" stroke-width="0.5" stroke-linecap="round" stroke-linejoin="round"/>
<path d="M416.567 261.163C416.567 261.163 422.407 261.311 423.546 258.887C424.684 256.462 423.982 252.336 423.982 252.336" stroke="#263238" stroke-width="0.5" stroke-linecap="round" stroke-linejoin="round"/>
<path d="M401.036 252.974C401.036 253.073 401.007 253.169 400.952 253.252C400.897 253.334 400.819 253.398 400.728 253.436C400.636 253.474 400.536 253.483 400.439 253.464C400.342 253.445 400.253 253.397 400.183 253.327C400.113 253.257 400.065 253.168 400.046 253.071C400.027 252.974 400.037 252.874 400.075 252.783C400.112 252.691 400.176 252.613 400.259 252.558C400.341 252.503 400.438 252.474 400.536 252.474C400.602 252.474 400.667 252.487 400.728 252.512C400.788 252.537 400.844 252.574 400.89 252.621C400.936 252.667 400.973 252.722 400.998 252.783C401.024 252.843 401.036 252.908 401.036 252.974Z" stroke="#263238" stroke-width="0.5" stroke-linecap="round" stroke-linejoin="round"/>
<path d="M402.249 259.238C402.525 259.238 402.749 259.014 402.749 258.738C402.749 258.462 402.525 258.238 402.249 258.238C401.973 258.238 401.749 258.462 401.749 258.738C401.749 259.014 401.973 259.238 402.249 259.238Z" stroke="#263238" stroke-width="0.5" stroke-linecap="round" stroke-linejoin="round"/>
<path d="M399.76 256.888C400.036 256.888 400.26 256.664 400.26 256.388C400.26 256.112 400.036 255.888 399.76 255.888C399.484 255.888 399.26 256.112 399.26 256.388C399.26 256.664 399.484 256.888 399.76 256.888Z" stroke="#263238" stroke-width="0.5" stroke-linecap="round" stroke-linejoin="round"/>
<path d="M409.876 250.985C410.152 250.985 410.376 250.762 410.376 250.486C410.376 250.21 410.152 249.986 409.876 249.986C409.6 249.986 409.376 250.21 409.376 250.486C409.376 250.762 409.6 250.985 409.876 250.985Z" stroke="#263238" stroke-width="0.5" stroke-linecap="round" stroke-linejoin="round"/>
<path d="M405.175 246.136C405.451 246.136 405.674 245.912 405.674 245.636C405.674 245.36 405.451 245.136 405.175 245.136C404.898 245.136 404.675 245.36 404.675 245.636C404.675 245.912 404.898 246.136 405.175 246.136Z" stroke="#263238" stroke-width="0.5" stroke-linecap="round" stroke-linejoin="round"/>
<path d="M412.015 263.013C412.015 263.112 411.985 263.209 411.93 263.291C411.875 263.373 411.797 263.437 411.706 263.475C411.615 263.513 411.514 263.523 411.417 263.503C411.32 263.484 411.231 263.436 411.161 263.366C411.091 263.297 411.044 263.207 411.024 263.111C411.005 263.014 411.015 262.913 411.053 262.822C411.091 262.73 411.155 262.652 411.237 262.597C411.319 262.543 411.416 262.513 411.515 262.513C411.647 262.513 411.774 262.566 411.868 262.66C411.962 262.753 412.015 262.88 412.015 263.013Z" stroke="#263238" stroke-width="0.5" stroke-linecap="round" stroke-linejoin="round"/>
<path d="M406.6 262.3C406.6 262.399 406.571 262.496 406.516 262.578C406.461 262.66 406.383 262.724 406.291 262.762C406.2 262.8 406.099 262.81 406.003 262.791C405.906 262.771 405.816 262.724 405.747 262.654C405.677 262.584 405.629 262.495 405.61 262.398C405.59 262.301 405.6 262.2 405.638 262.109C405.676 262.018 405.74 261.94 405.822 261.885C405.905 261.83 406.001 261.801 406.1 261.801C406.233 261.801 406.36 261.853 406.454 261.947C406.547 262.041 406.6 262.168 406.6 262.3Z" stroke="#263238" stroke-width="0.5" stroke-linecap="round" stroke-linejoin="round"/>
<path d="M410.727 241.585C411.003 241.585 411.227 241.361 411.227 241.085C411.227 240.809 411.003 240.585 410.727 240.585C410.451 240.585 410.227 240.809 410.227 241.085C410.227 241.361 410.451 241.585 410.727 241.585Z" stroke="#263238" stroke-width="0.5" stroke-linecap="round" stroke-linejoin="round"/>
<path d="M421.344 250.549C421.344 250.648 421.314 250.745 421.259 250.827C421.204 250.909 421.126 250.973 421.035 251.011C420.944 251.049 420.843 251.059 420.746 251.04C420.649 251.02 420.56 250.973 420.49 250.903C420.42 250.833 420.373 250.744 420.353 250.647C420.334 250.55 420.344 250.449 420.382 250.358C420.42 250.267 420.484 250.189 420.566 250.134C420.648 250.079 420.745 250.05 420.844 250.05C420.976 250.05 421.103 250.102 421.197 250.196C421.291 250.29 421.344 250.417 421.344 250.549Z" stroke="#263238" stroke-width="0.5" stroke-linecap="round" stroke-linejoin="round"/>
<path d="M419.567 257.823C419.843 257.823 420.067 257.6 420.067 257.324C420.067 257.048 419.843 256.824 419.567 256.824C419.291 256.824 419.067 257.048 419.067 257.324C419.067 257.6 419.291 257.823 419.567 257.823Z" stroke="#263238" stroke-width="0.5" stroke-linecap="round" stroke-linejoin="round"/>
<path d="M410.727 257.674C411.003 257.674 411.227 257.451 411.227 257.175C411.227 256.899 411.003 256.675 410.727 256.675C410.451 256.675 410.227 256.899 410.227 257.175C410.227 257.451 410.451 257.674 410.727 257.674Z" stroke="#263238" stroke-width="0.5" stroke-linecap="round" stroke-linejoin="round"/>
<path d="M422.088 265.342H396.441L399.015 286.355H419.525L422.088 265.342Z" fill="white" stroke="#263238" stroke-linecap="round" stroke-linejoin="round"/>
<path d="M307.139 216.934H384.782L366.698 283.527H289.055L307.139 216.934Z" fill="#263238" stroke="#263238" stroke-linecap="round" stroke-linejoin="round"/>
<path d="M309.351 219.412H381.208L364.475 281.049H292.618L309.351 219.412Z" fill="white" stroke="#263238" stroke-linecap="round" stroke-linejoin="round"/>
<path d="M366.698 279.996H257.855V283.537H366.698V279.996Z" fill="#263238" stroke="#263238" stroke-linecap="round" stroke-linejoin="round"/>
<path d="M366.698 279.996H316.681V283.537H366.698V279.996Z" fill="#263238" stroke="#263238" stroke-linecap="round" stroke-linejoin="round"/>
<path d="M228.889 289.174H223.038V474.861H228.889V289.174Z" fill="white" stroke="#263238" stroke-linecap="round" stroke-linejoin="round"/>
<path d="M218.028 474.861H223.027L223.027 289.174H218.028L218.028 474.861Z" fill="#E1E7E9" stroke="#263238" stroke-linecap="round" stroke-linejoin="round"/>
<path d="M378.761 386.33H372.911V474.861H378.761V386.33Z" fill="white" stroke="#263238" stroke-linecap="round" stroke-linejoin="round"/>
<path d="M367.922 474.872H372.921V386.34H367.922V474.872Z" fill="#E1E7E9" stroke="#263238" stroke-linecap="round" stroke-linejoin="round"/>
<path d="M441.417 386.33H435.566V474.861H441.417V386.33Z" fill="white" stroke="#263238" stroke-linecap="round" stroke-linejoin="round"/>
<path d="M430.556 474.872H435.555V386.34H430.556V474.872Z" fill="#E1E7E9" stroke="#263238" stroke-linecap="round" stroke-linejoin="round"/>
<path d="M314.915 391.381H371.996V290.971H314.915V391.381Z" fill="white" stroke="#263238" stroke-linecap="round" stroke-linejoin="round"/>
<path d="M447 291H315V391H447V291Z" fill="white" stroke="#263238" stroke-linecap="round" stroke-linejoin="round"/>
<path d="M372.007 290.981H314.925V295.873H372.007H447.225V290.981H372.007Z" fill="#263238" stroke="#263238" stroke-linecap="round" stroke-linejoin="round"/>
<path d="M454.98 286.568H209.964V292.406H454.98V286.568Z" fill="white" stroke="#263238" stroke-linecap="round" stroke-linejoin="round"/>
<path d="M230.74 345.993C230.74 345.993 238.037 351.045 248.824 382.267C252.419 392.646 272.641 448.615 273.705 452.454C274.769 456.293 276.896 460.962 280.087 460.962C283.279 460.962 294.98 446.074 293.555 444.308C292.129 442.543 285.406 435.439 285.406 435.439C285.406 435.439 281.385 390.137 280.673 377.375C279.96 364.614 282.864 349.247 276.13 338.964C269.397 328.68 239.601 339.315 239.601 339.315L230.74 345.993Z" fill="white" stroke="#263238" stroke-linecap="round" stroke-linejoin="round"/>
<path d="M288.683 435.492C287.861 435.933 287.187 436.605 286.744 437.426C286.301 438.247 286.11 439.179 286.193 440.108C286.555 443.298 289.746 447.552 289.746 447.552C289.746 447.552 283.002 452.869 279.46 453.22C275.918 453.571 272.014 454.283 272.014 455.347C272.014 456.41 274.854 458.186 276.62 462.078C278.575 466.027 280.83 469.82 283.364 473.425C284.428 474.84 285.13 475.903 289.034 474.84C292.938 473.776 301.448 465.981 306.054 462.791C310.66 459.601 324.489 457.474 326.978 455.698C329.467 453.922 337.254 442.586 333.711 440.459C330.169 438.332 329.105 440.81 324.85 441.873C320.595 442.937 308.181 441.522 301.448 440.108C294.714 438.693 292.576 438.332 292.576 438.332L288.683 435.492Z" fill="#0C8CE9" stroke="#263238" stroke-linecap="round" stroke-linejoin="round"/>
<path d="M282.747 472.617C282.981 472.957 283.172 473.234 283.321 473.425C284.385 474.84 285.087 475.903 288.991 474.84C292.895 473.776 301.405 465.981 306.011 462.791C310.617 459.601 324.446 457.474 326.935 455.698C329.424 453.922 337.211 442.586 333.669 440.459C333.171 440.147 332.63 439.91 332.062 439.757C332.126 439.991 332.19 440.203 332.254 440.459C333.318 444.712 329.765 448.966 326.573 452.157C323.382 455.347 312.745 454.634 301.043 460.664C294.577 464.057 288.451 468.059 282.747 472.617Z" fill="white" stroke="#263238" stroke-linecap="round" stroke-linejoin="round"/>
<path d="M282.406 400.027C281.641 390.7 280.97 381.948 280.715 377.429C280.002 364.667 282.906 349.301 276.173 339.017C269.439 328.734 239.643 339.368 239.643 339.368L230.74 345.993C230.74 345.993 238.037 351.045 248.824 382.267C250.196 386.234 254.004 396.879 258.249 408.715L282.406 400.027Z" fill="#263238" stroke="#263238" stroke-linecap="round" stroke-linejoin="round"/>
<path d="M265.046 164.166C265.966 166.63 266.403 169.247 266.333 171.876C266.014 175.417 262.791 177.023 262.471 176.066C262.196 174.472 262.089 172.854 262.152 171.238V169.951C261.358 171.261 260.384 172.452 259.259 173.492C257.004 175.736 255.717 175.098 254.749 175.098C253.781 175.098 253.461 171.908 255.078 169.632C256.695 167.356 261.833 162.231 265.046 164.166Z" fill="white" stroke="#263238" stroke-linecap="round" stroke-linejoin="round"/>
<path d="M272.45 172.525C269.258 170.589 264.408 177.353 257.004 175.715C256.057 175.513 255.717 174.109 257.323 170.898C258.929 167.686 264.078 165.102 266.652 163.177C269.226 161.252 271.162 159.636 271.162 157.381C271.162 155.127 265.365 158.668 263.716 159.955C261.768 161.168 259.743 162.251 257.653 163.198L256.259 163.273C253.398 163.454 248.983 163.964 247.313 165.4C245.122 167.303 243.866 173.843 243.345 176.364C241.92 178.427 240.643 180.33 239.909 181.479C237.654 185.009 192.295 218.146 192.295 218.146L195.487 246.444L246.962 187.955C248.388 186.79 250.029 185.915 251.791 185.382C255.334 184.095 260.152 183.127 264.344 180.873C267.444 179.216 270.452 177.392 273.354 175.407C275.598 174.013 274.194 173.567 272.45 172.525Z" fill="white" stroke="#263238" stroke-linecap="round" stroke-linejoin="round"/>
<path d="M195.561 246.498L227.176 210.543" stroke="#263238" stroke-linecap="round" stroke-linejoin="round"/>
<path d="M195.551 246.498L192.359 218.199C192.359 218.199 199.806 211 218.368 198.898L227.197 210.596C227.197 210.596 218.592 224.548 195.551 246.498Z" fill="#0C8CE9" stroke="#263238" stroke-linecap="round" stroke-linejoin="round"/>
<path d="M202.518 305.912C202.518 305.912 225.208 304.849 258.184 310.166C291.161 315.483 303.501 321.151 302.511 327.532C298.49 353.416 238.037 438.63 238.037 438.63L239.101 450.679C239.101 450.679 236.973 453.518 229.527 453.869C222.081 454.22 212.858 443.596 212.858 443.596C212.858 443.596 221.187 434.982 224.378 424.709C227.57 414.436 253.227 348.088 253.227 348.088C253.227 348.088 219.538 355.532 182.307 348.801C145.075 342.069 202.518 305.912 202.518 305.912Z" fill="white" stroke="#263238" stroke-linecap="round" stroke-linejoin="round"/>
<path d="M258.184 310.166C225.208 304.849 202.518 305.912 202.518 305.912C202.518 305.912 145.075 342.069 182.307 348.801C219.538 355.532 253.227 348.088 253.227 348.088C253.227 348.088 242.59 375.738 234.08 398.07L259.089 407.641C276.981 380.587 300.075 343.196 302.511 327.532C303.501 321.151 291.161 315.483 258.184 310.166Z" fill="#263238" stroke="#263238" stroke-linecap="round" stroke-linejoin="round"/>
<path d="M238.037 438.63C237.321 438.925 236.67 439.359 236.122 439.906C235.575 440.454 235.141 441.104 234.846 441.82C234.162 443.441 233.569 445.099 233.069 446.786C229.189 445.951 225.393 444.762 221.73 443.234C219.03 442.001 216.421 440.58 213.922 438.981C213.922 438.981 210.73 439.342 210.73 441.469C210.712 444.739 210.114 447.979 208.964 451.04C208.05 453.316 206.103 458.388 204.837 461.674C204.69 462.062 204.628 462.477 204.655 462.891C204.682 463.305 204.798 463.708 204.995 464.073C205.192 464.438 205.464 464.757 205.795 465.007C206.126 465.257 206.507 465.434 206.911 465.524C212.528 466.768 224.368 469.501 234.495 472.617C248.323 476.871 263.567 474.744 265.344 474.393C267.12 474.042 274.205 469.778 271.013 466.949C267.822 464.12 249.026 456.666 245.132 451.699C241.239 446.733 238.037 438.63 238.037 438.63Z" fill="#0C8CE9" stroke="#263238" stroke-linecap="round" stroke-linejoin="round"/>
<path d="M269.588 465.992C269.588 469.512 267.78 473.011 262.142 473.011C256.504 473.011 246.536 472.309 232.357 466.63C223.8 463.277 215.007 460.561 206.05 458.505C205.614 459.643 205.188 460.749 204.827 461.696C204.679 462.083 204.617 462.498 204.644 462.912C204.672 463.326 204.788 463.729 204.984 464.094C205.181 464.459 205.454 464.778 205.785 465.028C206.115 465.279 206.496 465.455 206.901 465.545C212.518 466.79 224.357 469.523 234.484 472.639C248.313 476.892 263.557 474.765 265.333 474.414C267.11 474.064 274.194 469.799 271.003 466.97C270.561 466.604 270.087 466.276 269.588 465.992Z" fill="white" stroke="#263238" stroke-linecap="round" stroke-linejoin="round"/>
<path d="M130.885 223.315C130.885 223.315 127.023 253.878 127.353 259.663C127.683 265.448 131.853 315.302 132.821 326.245C133.789 337.188 138.288 346.823 146.33 348.758C154.372 350.694 175.286 353.576 184.296 351.332C193.306 349.088 202.954 328.819 206.167 321.098C209.379 313.377 211.645 308.549 210.677 306.944C209.709 305.338 205.529 301.797 205.529 301.797C205.529 301.797 197.487 243.307 195.55 228.143C193.614 212.978 194.593 211.744 187.508 205.949C180.424 200.153 143.756 195.357 130.885 223.315Z" fill="#0C8CE9" stroke="#263238" stroke-linecap="round" stroke-linejoin="round"/>
<path d="M182.371 329.989C181.211 330.871 179.998 331.711 178.764 332.498" stroke="#263238" stroke-linecap="round" stroke-linejoin="round"/>
<path d="M203.582 304.136C203.582 304.136 196.753 317.536 185.445 327.468" stroke="#263238" stroke-linecap="round" stroke-linejoin="round"/>
<path d="M198.614 304.849C198.614 304.849 187.626 315.121 176.637 321.502" stroke="#263238" stroke-linecap="round" stroke-linejoin="round"/>
<path d="M207.454 127.169C209.223 130.884 210.627 134.763 211.645 138.75C212.603 143.578 212.932 148.076 215.177 149.044C216.677 149.682 217.858 149.725 218.953 150.99C221.793 154.287 218.4 157.371 216.145 159.657C216.145 159.657 217.113 175.098 216.783 177.991C216.453 180.883 199.412 180.883 198.455 180.883C197.497 180.883 187.817 203.726 187.817 203.726L160.798 190.21L165.946 173.492C165.946 173.492 157.585 157.403 156.936 150.331C156.287 143.259 172.733 130.391 182.041 127.499C191.349 124.606 207.454 127.169 207.454 127.169Z" fill="white" stroke="#263238" stroke-linecap="round" stroke-linejoin="round"/>
<path d="M198.455 180.883L189.87 178.437L193.083 190.996L198.455 180.883Z" fill="#263238" stroke="#263238" stroke-linecap="round" stroke-linejoin="round"/>
<path d="M210.645 145.364C211.071 147.183 210.869 148.789 210.177 148.948C209.486 149.108 208.571 147.778 208.135 145.971C207.699 144.163 207.911 142.546 208.603 142.387C209.294 142.227 210.209 143.557 210.645 145.364Z" fill="#263238"/>
<path d="M205.209 162.55C205.209 162.55 209.071 165.453 212.603 164.166" stroke="#263238" stroke-linecap="round" stroke-linejoin="round"/>
<path d="M208.135 127.754C204.431 126.985 200.592 127.183 196.987 128.328C196.55 128.441 196.143 128.648 195.795 128.934C194.912 129.753 195.168 131.178 195.54 132.316C196.056 133.897 196.667 135.445 197.37 136.953C197.662 137.522 197.894 138.121 198.061 138.739C198.212 139.556 198.112 140.4 197.774 141.16C197.436 141.919 196.876 142.558 196.167 142.993C194.639 143.983 193.244 145.166 192.019 146.513C187.828 151.341 185.636 159.7 183.977 160.338C183.105 160.678 181.849 158.764 181.445 158.264C181.039 157.677 180.517 157.179 179.912 156.8C179.306 156.422 178.63 156.171 177.924 156.063C176.911 156.014 175.908 156.29 175.063 156.85C173.892 157.582 172.91 158.58 172.197 159.762C171.483 160.945 171.058 162.279 170.956 163.656C170.722 166.58 172.275 168.654 174.584 170.323C176.238 171.474 178.147 172.204 180.147 172.45C180.979 172.663 181.848 172.684 182.69 172.514C182.69 172.514 171.105 178.629 168.861 178.629C166.616 178.629 159.851 174.769 156.638 171.185C153.426 167.601 141.884 157.084 141.182 148.406C140.639 141.089 147.118 133.518 152.128 128.785C150.465 128.612 148.84 128.181 147.309 127.509C146.446 127.243 145.643 126.81 144.948 126.233C144.114 125.328 143.647 124.145 143.639 122.915C143.522 121.448 143.469 121.054 144.448 120.108C145.916 118.715 148.256 117.821 150.086 117.024C152.619 115.913 155.237 115.006 157.915 114.312C157.558 112.866 157.6 111.35 158.034 109.926C158.468 108.501 159.28 107.221 160.383 106.219C163.84 103.231 169.85 105.996 173.669 107.059C176.371 107.814 179.052 108.612 181.722 109.484C179.318 108.697 181.551 104.379 182.785 103.539C185.902 101.349 189.04 102.731 192.115 104.305C198.327 107.495 205.135 113.695 205.869 121.065C206.906 123.162 207.624 125.402 207.996 127.711" fill="#263238"/>
<path d="M208.135 127.754C204.431 126.985 200.592 127.183 196.987 128.328C196.55 128.441 196.143 128.648 195.795 128.934C194.912 129.753 195.168 131.178 195.54 132.316C196.056 133.897 196.667 135.445 197.37 136.953C197.662 137.522 197.894 138.121 198.061 138.739C198.212 139.556 198.112 140.4 197.774 141.16C197.436 141.919 196.876 142.558 196.167 142.993C194.639 143.983 193.244 145.166 192.019 146.513C187.828 151.341 185.636 159.7 183.977 160.338C183.105 160.678 181.849 158.764 181.445 158.264C181.039 157.677 180.517 157.179 179.912 156.8C179.306 156.422 178.63 156.171 177.924 156.063C176.911 156.014 175.908 156.29 175.063 156.85C173.892 157.582 172.91 158.58 172.197 159.762C171.483 160.945 171.058 162.279 170.956 163.656C170.722 166.58 172.275 168.654 174.584 170.323C176.238 171.474 178.147 172.204 180.147 172.45C180.979 172.663 181.848 172.684 182.69 172.514C182.69 172.514 171.105 178.629 168.861 178.629C166.616 178.629 159.851 174.769 156.638 171.185C153.426 167.601 141.884 157.084 141.182 148.406C140.639 141.089 147.118 133.518 152.128 128.785C150.465 128.612 148.84 128.181 147.309 127.509C146.446 127.243 145.643 126.81 144.948 126.233C144.114 125.328 143.647 124.145 143.639 122.915C143.522 121.448 143.469 121.054 144.448 120.108C145.916 118.715 148.256 117.821 150.086 117.024C152.619 115.913 155.237 115.006 157.915 114.312C157.558 112.866 157.6 111.35 158.034 109.926C158.468 108.501 159.28 107.221 160.383 106.219C163.84 103.231 169.85 105.996 173.669 107.059C176.371 107.814 179.052 108.612 181.722 109.484C179.318 108.697 181.551 104.379 182.785 103.539C185.902 101.349 189.04 102.731 192.115 104.305C198.327 107.495 205.135 113.695 205.869 121.065C206.906 123.162 207.624 125.402 207.996 127.711" stroke="#263238" stroke-linecap="round" stroke-linejoin="round"/>
<path d="M180.254 155.988L221.293 139.398" stroke="#263238" stroke-linecap="round" stroke-linejoin="round"/>
<path d="M210.592 137.07C212.3 136.329 214.228 136.275 215.975 136.917C217.722 137.56 219.155 138.85 219.976 140.52C220.797 142.19 220.943 144.112 220.384 145.888C219.825 147.663 218.604 149.155 216.975 150.054" stroke="#263238" stroke-linecap="round" stroke-linejoin="round"/>
<path d="M195.551 212.68C195.551 212.68 195.231 203.354 192.657 200.78C190.083 198.207 171.105 187.594 162.415 185.35C153.724 183.106 144.724 186.307 138.927 188.242C133.129 190.178 129.278 195.665 126.991 207.586C124.704 219.508 124.417 226.877 129.247 227.526C134.076 228.175 140.831 213.701 155.947 210.798C171.063 207.895 184.902 210.479 188.126 212.085C191.349 213.691 195.551 212.68 195.551 212.68Z" fill="#0C8CE9" stroke="#263238" stroke-linecap="round" stroke-linejoin="round"/>
<path d="M146.692 202.854C143.788 203.917 141.831 204.683 141.831 204.683" stroke="#263238" stroke-linecap="round" stroke-linejoin="round"/>
<path d="M195.551 212.68C195.551 212.68 175.339 201.429 167.893 199.175C164.031 198.005 157.096 199.547 151.351 201.301" stroke="#263238" stroke-linecap="round" stroke-linejoin="round"/>
<path d="M291.086 265.001C291.086 265.001 290.023 271.69 288.799 272.446C287.576 273.201 287.651 266.235 287.651 266.235C287.651 266.235 286.119 270.244 285.172 271.201C284.225 272.158 284.789 267.096 284.789 267.096L285.853 262.322L291.086 265.001Z" fill="white" stroke="#263238" stroke-linecap="round" stroke-linejoin="round"/>
<path d="M277.471 258.408L287.342 258.568C287.342 258.568 289.948 258.94 290.321 260.429C290.849 262.076 291.471 263.691 292.182 265.267L276.907 260.801L277.471 258.408Z" fill="white" stroke="#263238" stroke-linecap="round" stroke-linejoin="round"/>
<path d="M281.002 261.524C281.002 261.524 294.831 259.663 295.161 260.78C295.437 261.62 296.501 269.191 296.735 271.637C296.74 271.721 296.718 271.804 296.672 271.874C296.627 271.944 296.56 271.998 296.482 272.028C296.403 272.057 296.318 272.061 296.237 272.039C296.156 272.016 296.085 271.969 296.033 271.903L292.182 265.246L281.747 265.99C281.747 265.99 278.768 263.385 281.002 261.524Z" fill="white" stroke="#263238" stroke-linecap="round" stroke-linejoin="round"/>
<path d="M166.68 219.827C166.68 219.827 158.106 226.154 161.085 241.797C164.063 257.441 184.924 300.287 186.785 303.966C188.647 307.646 196.838 308.06 200.561 306.944C204.284 305.827 270.599 279.401 270.599 279.401C270.599 279.401 277.673 277.529 278.79 276.04C279.906 274.551 286.991 266.735 286.991 266.735C286.991 266.735 298.16 268.224 300.767 267.479C303.373 266.735 298.161 265.991 295.554 265.246C293.544 264.672 282.459 260.344 277.47 258.387C276.752 258.097 275.963 258.028 275.205 258.19C274.447 258.351 273.754 258.734 273.215 259.291C269.726 262.864 262.291 270.446 260.876 271.574C258.929 273.137 254.419 273.265 252.089 273.701C246.164 274.902 240.218 275.998 234.271 277.082C228.325 278.167 222.23 279.209 216.187 280.273L209.805 281.336C209.16 281.535 208.502 281.692 207.837 281.804C205.55 281.889 206.146 279.932 206.06 278.029C205.433 262.811 203.933 247.274 197.763 233.162C195.71 228.451 193.093 223.868 189.253 220.401C185.413 216.934 180.179 214.807 175.094 215.498" fill="#0C8CE9"/>
<path d="M166.68 219.827C166.68 219.827 158.106 226.154 161.085 241.797C164.063 257.441 184.924 300.287 186.785 303.966C188.647 307.646 196.838 308.06 200.561 306.944C204.284 305.827 270.599 279.401 270.599 279.401C270.599 279.401 277.673 277.529 278.79 276.04C279.906 274.551 286.991 266.735 286.991 266.735C286.991 266.735 298.16 268.224 300.767 267.479C303.373 266.735 298.161 265.991 295.554 265.246C293.544 264.672 282.459 260.344 277.47 258.387C276.752 258.097 275.963 258.028 275.205 258.19C274.447 258.351 273.754 258.734 273.215 259.291C269.726 262.864 262.291 270.446 260.876 271.574C258.929 273.137 254.419 273.265 252.089 273.701C246.164 274.902 240.218 275.998 234.271 277.082C228.325 278.167 222.23 279.209 216.187 280.273L209.805 281.336C209.16 281.535 208.502 281.692 207.837 281.804C205.55 281.889 206.146 279.932 206.06 278.029C205.433 262.811 203.933 247.274 197.763 233.162C195.71 228.451 193.093 223.868 189.253 220.401C185.413 216.934 180.179 214.807 175.094 215.498" stroke="#263238" stroke-linecap="round" stroke-linejoin="round"/>
<path d="M235.941 293.162C253.334 286.27 270.599 279.401 270.599 279.401C270.599 279.401 277.673 277.529 278.79 276.04C279.906 274.551 286.98 266.735 286.98 266.735C286.98 266.735 298.161 268.224 300.809 267.479C303.458 266.735 298.203 265.991 295.597 265.246C293.586 264.672 282.502 260.344 277.513 258.387C276.794 258.097 276.005 258.028 275.247 258.189C274.489 258.351 273.797 258.734 273.258 259.291C269.769 262.864 262.333 270.446 260.918 271.574C259.95 272.35 245.281 275.136 231.42 277.635L235.941 293.162Z" fill="white" stroke="#263238" stroke-linecap="round" stroke-linejoin="round"/>
<path d="M119.545 366.433L103.323 474.202C103.265 474.429 103.3 474.67 103.419 474.871C103.539 475.072 103.734 475.218 103.961 475.276C104.188 475.334 104.429 475.299 104.63 475.179C104.832 475.06 104.978 474.865 105.035 474.638L129.502 368.209L119.545 366.433Z" fill="#E1E7E9" stroke="#263238" stroke-linecap="round" stroke-linejoin="round"/>
<path d="M143.756 367.145L150.809 474C150.809 474.234 150.902 474.458 151.068 474.624C151.233 474.789 151.458 474.882 151.692 474.882C151.926 474.882 152.151 474.789 152.316 474.624C152.482 474.458 152.575 474.234 152.575 474L153.798 366.284L143.756 367.145Z" fill="#E1E7E9" stroke="#263238" stroke-linecap="round" stroke-linejoin="round"/>
<path d="M167.552 368.751L186.913 473.755C186.97 473.965 187.103 474.147 187.286 474.265C187.469 474.384 187.689 474.43 187.904 474.396C188.119 474.361 188.314 474.249 188.451 474.079C188.588 473.91 188.658 473.696 188.647 473.478L177.371 366.464L167.552 368.751Z" fill="#E1E7E9" stroke="#263238" stroke-linecap="round" stroke-linejoin="round"/>
<path d="M204.975 367.868L220.815 473.574C220.862 473.787 220.987 473.975 221.165 474.101C221.343 474.228 221.561 474.284 221.778 474.259C221.995 474.234 222.195 474.129 222.339 473.965C222.483 473.802 222.562 473.59 222.559 473.372L214.879 365.965L204.975 367.868Z" fill="#E1E7E9" stroke="#263238" stroke-linecap="round" stroke-linejoin="round"/>
<path d="M189.838 346.355C189.838 346.355 171.212 340.144 162.521 317.812C153.83 295.48 139.565 257.004 129.629 252.028C119.694 247.051 100.461 256.366 99.2167 292.353C97.9721 328.34 100.887 355.096 108.907 363.944C116.003 371.739 128.055 381.672 169.893 382.374C207.262 383.012 222.517 368.772 227.697 363.944C232.878 359.116 241.345 348.801 234.527 348.801C227.708 348.801 198.529 348.801 189.838 346.355Z" fill="#F37316" stroke="#263238" stroke-linecap="round" stroke-linejoin="round"/>
<path d="M275.843 125.478C275.843 125.478 268.577 116.97 258.482 115.386C248.387 113.801 247.707 128.519 260.61 134.974C264.229 136.639 268.24 137.265 272.194 136.782C272.194 136.782 261.886 148.959 268.556 150.905C283.449 155.286 280.258 132.337 280.258 132.337L275.843 125.478Z" fill="#E90C59" stroke="#263238" stroke-linecap="round" stroke-linejoin="round"/>
<path d="M278.29 124.893C278.29 124.893 274.035 114.567 277.226 104.847C280.417 95.1273 293.065 101.731 292.937 116.162C292.889 119.896 291.889 123.556 290.033 126.797C290.033 126.797 306.266 123.34 304.266 129.987C299.724 145.098 282.396 131.954 282.396 131.954L278.29 124.893Z" fill="#E90C59" stroke="#263238" stroke-linecap="round" stroke-linejoin="round"/>
<path d="M283.928 137.793C283.743 137.793 283.561 137.744 283.401 137.653C283.241 137.562 283.107 137.43 283.013 137.271L272.918 120.32C272.773 120.079 272.73 119.79 272.797 119.517C272.865 119.244 273.038 119.009 273.279 118.863C273.4 118.79 273.534 118.742 273.673 118.722C273.812 118.701 273.955 118.708 274.091 118.743C274.228 118.777 274.356 118.839 274.469 118.923C274.581 119.008 274.676 119.114 274.747 119.236L284.832 136.187C284.976 136.428 285.02 136.717 284.952 136.99C284.884 137.263 284.711 137.498 284.47 137.644C284.305 137.738 284.118 137.79 283.928 137.793Z" fill="#263238"/>
<path d="M274.641 121.799C274.641 121.799 271.003 114.131 264.546 113.291" stroke="#263238" stroke-linecap="round" stroke-linejoin="round"/>
<path d="M274.747 119.236C274.747 119.236 272.62 112.919 274.237 108.878" stroke="#263238" stroke-linecap="round" stroke-linejoin="round"/>
<path d="M268.311 126.403C267.929 128.275 265.12 129.296 262.078 128.679C259.036 128.062 256.834 126.031 257.217 124.159C257.599 122.288 260.408 121.256 263.45 121.884C266.492 122.511 268.694 124.521 268.311 126.403Z" fill="white" stroke="#263238" stroke-linecap="round" stroke-linejoin="round"/>
<path d="M275.917 139.59C276.981 140.302 276.981 142.302 275.779 144.078C274.577 145.854 272.726 146.747 271.662 145.981C270.599 145.216 270.599 143.269 271.801 141.493C273.003 139.718 274.779 138.877 275.917 139.59Z" fill="white" stroke="#263238" stroke-linecap="round" stroke-linejoin="round"/>
<path d="M298.033 130.689C298.033 131.986 296.352 133.06 294.235 133.092C292.119 133.124 290.395 132.093 290.374 130.795C290.353 129.498 292.055 128.424 294.172 128.392C296.288 128.36 298.012 129.402 298.033 130.689Z" fill="white" stroke="#263238" stroke-linecap="round" stroke-linejoin="round"/>
<path d="M284.927 119.587C283.023 119.799 281.194 117.46 280.853 114.344C280.513 111.228 281.779 108.559 283.683 108.346C285.587 108.133 287.406 110.473 287.746 113.589C288.087 116.705 286.831 119.374 284.927 119.587Z" fill="white" stroke="#263238" stroke-linecap="round" stroke-linejoin="round"/>
<path d="M470.033 310.266C469.683 314.846 472.203 319.516 473.033 323.946C473.353 325.566 473.963 331.496 476.123 331.236C481.973 330.526 479.033 317.646 478.293 314.456C477.743 312.086 476.873 307.956 474.293 307.156C472.163 306.476 470.823 308.106 470.033 310.266Z" fill="#7F40C7"/>
<path d="M62.5966 364.837C57.7096 355.024 29.5 365.866 42.3026 376.811C47.2627 381.063 52.1497 381.063 56.8464 376.811C59.4362 374.575 64.4548 368.573 62.5966 364.837Z" fill="#0CE9C4"/>
<path d="M202.665 41.0647C210.115 32.0647 192.915 28.2447 191.165 36.7547C189.675 43.9947 198.685 45.8847 202.665 41.0647Z" fill="#16F37D"/>
</svg>
