<svg width="24" height="24" viewBox="0 0 24 24" fill="none" xmlns="http://www.w3.org/2000/svg">
<path d="M12.3302 15.7998H2.92345L8.94324 9.8368L11.2954 11.6298L13.6476 9.8358L15.2659 11.4388C15.5892 11.2692 15.9287 11.1318 16.2795 11.0288L14.4542 9.2208L20.3811 4.6998V11.4198C20.7399 11.5965 21.0784 11.8111 21.3907 12.0598V4.2998C21.3896 3.9023 21.2297 3.52139 20.946 3.24031C20.6622 2.95923 20.2777 2.80086 19.8764 2.7998H2.71448C2.31319 2.80086 1.92865 2.95923 1.6449 3.24031C1.36114 3.52139 1.20126 3.9023 1.2002 4.2998V15.2998C1.2002 15.6976 1.35974 16.0792 1.64372 16.3605C1.9277 16.6418 2.31287 16.7998 2.71448 16.7998H12.3302C12.3151 16.6348 12.305 16.4688 12.305 16.2998C12.305 16.1308 12.3151 15.9648 12.3302 15.7998ZM2.20972 15.0928V4.7008L8.13663 9.2208L2.20972 15.0928ZM19.8764 3.7998C19.8855 3.7998 19.8925 3.8048 19.9016 3.8048L11.2954 10.3698L2.68924 3.8048C2.69833 3.8048 2.7054 3.7998 2.71448 3.7998H19.8764ZM17.8573 11.7998C16.6529 11.8011 15.4982 12.2757 14.6465 13.1193C13.7949 13.9629 13.3158 15.1067 13.3145 16.2998C13.3217 16.4673 13.3385 16.6342 13.365 16.7998C13.4865 17.8969 14.0118 18.9112 14.8405 19.6491C15.6691 20.3869 16.7431 20.7966 17.8573 20.7998H18.3621V19.7998H17.8573C17.0099 19.7975 16.1915 19.493 15.552 18.9422C14.9125 18.3913 14.4945 17.6308 14.3745 16.7998C14.3454 16.6346 14.3286 16.4675 14.324 16.2998C14.3235 15.6107 14.5286 14.9368 14.9133 14.3627C15.2981 13.7886 15.8455 13.3399 16.4868 13.0728C17.1281 12.8058 17.8348 12.7323 18.5181 12.8616C19.2014 12.991 19.8309 13.3174 20.3276 13.7998H19.3716V14.3128C18.9373 13.982 18.4052 13.8018 17.8573 13.7998C17.4436 13.7986 17.036 13.8982 16.6703 14.0898C16.3046 14.2814 15.9921 14.559 15.7602 14.8984C15.5283 15.2377 15.3841 15.6284 15.3405 16.0359C15.2968 16.4433 15.3549 16.8552 15.5097 17.2352C15.6645 17.6153 15.9112 17.9518 16.2282 18.2151C16.5451 18.4785 16.9225 18.6606 17.3272 18.7455C17.732 18.8304 18.1515 18.8155 18.549 18.702C18.9466 18.5886 19.3098 18.38 19.6068 18.0948C19.7807 18.3708 20.0407 18.5832 20.3473 18.6998C20.6539 18.8164 20.9906 18.8309 21.3063 18.7411C21.6219 18.6512 21.8995 18.4619 22.0969 18.2019C22.2943 17.9418 22.4007 17.6252 22.4002 17.2998V16.2998C22.3858 15.1108 21.9025 13.9744 21.0537 13.1336C20.2048 12.2928 19.0577 11.8141 17.8573 11.7998ZM17.8573 17.7998C17.5452 17.7988 17.241 17.7022 16.9865 17.5231C16.732 17.3441 16.5397 17.0914 16.4359 16.7998C16.3761 16.6397 16.3447 16.4705 16.3431 16.2998C16.3431 15.902 16.5026 15.5204 16.7866 15.2391C17.0706 14.9578 17.4557 14.7998 17.8573 14.7998C18.2589 14.7998 18.6441 14.9578 18.9281 15.2391C19.2121 15.5204 19.3716 15.902 19.3716 16.2998C19.3699 16.4705 19.3385 16.6397 19.2787 16.7998C19.175 17.0914 18.9826 17.3441 18.7282 17.5231C18.4737 17.7022 18.1695 17.7988 17.8573 17.7998ZM21.3907 17.2998C21.3907 17.4324 21.3375 17.5596 21.2428 17.6534C21.1482 17.7471 21.0198 17.7998 20.8859 17.7998C20.752 17.7998 20.6236 17.7471 20.529 17.6534C20.4343 17.5596 20.3811 17.4324 20.3811 17.2998V13.8528C21.0154 14.5143 21.3757 15.3876 21.3907 16.2998V17.2998Z" fill="#121416"/>
</svg>
