<svg width="120" height="41" viewBox="0 0 120 41" fill="none" xmlns="http://www.w3.org/2000/svg">
<path fill-rule="evenodd" clip-rule="evenodd" d="M8.19128 11.168L14.8326 17.8093V0.5L20.2873 5.95332V35.0453L14.8326 40.5V23.192L13.6633 24.3587L8.18197 29.84H0.472656L9.80866 20.504L0.472656 11.168H8.19128ZM42.7965 11.1587L33.4591 20.4947L42.7965 29.8307H35.0778L28.4698 23.2227V40.5L23.0151 35.0453V5.95332L28.4698 0.5V17.7733L29.6045 16.64L35.0871 11.1587H42.7965Z" fill="#02826B"/>
<path fill-rule="evenodd" clip-rule="evenodd" d="M50.7969 13.4187V27.58H53.1022V16.6813L57.0368 27.58H59.0582L62.9742 16.6613V27.58H65.3182V13.4187H61.9009L58.0822 24.532L54.2436 13.4187H50.7969ZM71.5533 13.4187L66.2026 27.58H68.7146L70.0226 23.8587H75.6573L76.8987 27.58H79.5547L74.2026 13.4187H71.5533ZM74.952 21.9733H70.7133L72.852 15.9L74.952 21.9733ZM76.8223 15.5973V13.4187H88.1556V15.5973H83.693V27.58H81.2809L81.2716 15.5973H76.8223ZM89.4893 13.4187V27.58L91.8973 27.5813V21.7414H95.5399C96.2812 21.7405 96.8528 21.8706 97.2546 22.132C97.6715 22.4151 97.9688 22.8426 98.0893 23.332C98.2457 23.8724 98.324 24.6014 98.324 25.5187C98.3248 26.5018 98.4417 27.1889 98.6746 27.58H101.341C100.827 27.0654 100.569 25.8511 100.569 23.9373V23.8587C100.569 22.8498 100.358 22.1173 99.9346 21.6613C99.5539 21.231 99.0299 20.9534 98.46 20.88C98.5213 20.88 98.7297 20.7693 99.0853 20.548C99.4298 20.3325 99.7476 20.077 100.032 19.7867C100.547 19.2596 100.804 18.4231 100.804 17.2774C100.802 16.0471 100.405 15.0965 99.6119 14.4253C98.819 13.7542 97.667 13.4187 96.1559 13.4187H89.4893ZM91.8893 19.88V15.48L95.9133 15.4854C96.6679 15.4836 97.2635 15.6347 97.6999 15.9387C98.1364 16.2427 98.3546 16.8111 98.3546 17.644C98.3546 18.3667 98.1462 18.92 97.7293 19.304C97.3124 19.688 96.72 19.88 95.952 19.88H91.8893ZM103.014 27.58V13.4187H105.414V27.58H103.014ZM109.967 13.4187H107.067L111.688 20.2747L106.747 27.58H109.547L113.063 22.2187L116.549 27.58H119.528L114.587 20.2747L119.235 13.4187H116.461L113.141 18.4187L109.967 13.4187Z" fill="#262B2A"/>
</svg>
