<svg width="106" height="65" viewBox="0 0 106 65" fill="none" xmlns="http://www.w3.org/2000/svg">
<g clip-path="url(#clip0_892_1579)">
<path d="M74.1101 5.99477C74.1101 5.99477 101.385 10.2862 90.0427 34.8086C86.2099 43.0972 78.1607 57.0539 56.8271 59.2434C56.8271 59.2434 84.1017 59.331 93.4633 34.2831C102.452 10.2319 79.601 4.85623 74.1101 5.99477Z" fill="#121212"/>
<path d="M84.3896 50.6168L84.4419 50.5748L87.6032 54.698C89.1107 53.5595 90.6439 52.3013 92.203 50.9233C93.435 49.8313 94.6085 48.6784 95.719 47.4692L90.4585 44.4109C88.6642 46.6804 86.6301 48.7604 84.3896 50.6168Z" fill="url(#paint0_linear_892_1579)"/>
<path d="M90.4945 1.63672L87.4609 6.83722C89.585 7.79175 91.4921 9.14886 93.0707 10.8291L98.1115 5.78626C95.894 3.90653 93.3006 2.49371 90.4945 1.63672Z" fill="url(#paint1_linear_892_1579)"/>
<path d="M79.1633 0.687492L78.0615 4.3098C79.4001 4.39246 80.7269 4.60487 82.0222 4.94388C83.3557 5.28794 84.6679 5.70609 85.9523 6.19627L88.8687 1.19545C85.9666 0.51233 82.7171 0.310897 79.1633 0.687492Z" fill="url(#paint2_linear_892_1579)"/>
<path d="M97.4289 28.5484C97.0936 30.6803 96.551 32.7764 95.8086 34.8086H103.683C104.87 31.6977 105.584 28.7988 105.788 25.7878L97.4235 28.5484H97.4289Z" fill="url(#paint3_linear_892_1579)"/>
<path d="M105.828 23.6474C105.846 20.8071 105.394 17.9825 104.49 15.2817L97.3896 19.8359C97.7767 21.9816 97.8801 24.1666 97.6975 26.3378L105.828 23.6474Z" fill="url(#paint4_linear_892_1579)"/>
<path d="M103.824 13.5827C102.757 11.0843 101.215 8.80461 99.278 6.86353L94.1094 12.078C95.3906 13.831 96.3393 15.7927 96.9106 17.8706L103.824 13.5827Z" fill="url(#paint5_linear_892_1579)"/>
<path d="M94.4529 38.0492C93.7006 39.5968 92.8304 41.0874 91.8496 42.5087L97.3333 45.4059C99.8286 42.4071 101.569 39.7132 102.97 36.5603H95.128C94.9119 37.0648 94.6887 37.5622 94.4529 38.0492Z" fill="url(#paint6_linear_892_1579)"/>
<path d="M51.6963 12.5634C51.6963 12.5634 64.3128 4.33086 76.2776 4.25729L77.1778 0.957275C69.8073 2.15012 61.2343 5.75315 51.6963 12.5634Z" fill="url(#paint7_linear_892_1579)"/>
<path d="M73.633 57.2764C63.1246 61.9129 51.0014 62.4751 41.4346 56.3533C41.4346 56.3533 54.2167 69.8949 74.6862 62.0617L73.6312 57.2799L73.633 57.2764Z" fill="url(#paint8_linear_892_1579)"/>
<path d="M83.0194 51.7117C80.6679 53.5171 78.1395 55.093 75.4707 56.4165L76.6283 61.1686C79.9267 59.742 83.0575 57.9737 85.9665 55.8945L82.906 51.7922L83.0194 51.7117Z" fill="url(#paint9_linear_892_1579)"/>
<path d="M28.044 43.3949L31.8606 25.5286H31.7886L22.5764 43.3949H14.8711L13.2869 25.5286H13.2149L9.39821 43.3949H0.180664L5.50956 18.3821H19.804L20.9202 32.9204H20.9922L28.3014 18.3821H42.5958L37.2669 43.3949H28.044Z" fill="#121212"/>
<path d="M62.7529 43.3949C62.6723 43.1822 62.6356 42.956 62.6449 42.7293C62.6544 42.3421 62.6905 41.9559 62.7529 41.5733L63.185 38.7007C63.2431 38.3881 63.2792 38.0721 63.293 37.7548C63.293 37.032 63.113 36.5065 62.7529 36.1783C62.3929 35.8502 61.9008 35.6867 61.2767 35.6879H54.0035L52.3832 43.3949H42.2295L47.5584 18.3821H69.5635C72.6108 18.3821 74.6452 18.89 75.6665 19.906C76.6879 20.9219 77.198 22.2473 77.1968 23.8821C77.1824 25.5364 76.6415 27.1458 75.6485 28.4888C74.6403 29.8773 73.3801 30.7355 71.8679 31.0637L71.8319 31.1337C73.2481 31.5775 73.9562 32.6051 73.9562 34.2166C73.9417 34.6268 73.9056 35.036 73.8482 35.4427L73.3081 39.6115C73.2361 40.4289 73.2001 41.0478 73.2001 41.4682C73.2033 41.8587 73.2827 42.2451 73.4341 42.6067C73.5332 42.8872 73.6726 43.1526 73.8482 43.3949H62.7529ZM56.3799 24.6878L55.3717 29.3821H62.7529C63.8571 29.3821 64.6673 29.1019 65.1834 28.5414C65.6994 27.9809 65.9575 27.2452 65.9575 26.3343C65.9575 25.726 65.7414 25.2997 65.3094 25.0557C64.8773 24.8116 64.3012 24.689 63.5811 24.6878H56.3799Z" fill="#121212"/>
<path d="M1.29438 46.9875H3.63478C3.74999 46.9875 3.90302 46.9875 4.09566 47.0156C4.2919 47.0371 4.48268 47.0922 4.65915 47.1785C4.84915 47.272 5.01243 47.4098 5.13443 47.5796C5.28159 47.8011 5.35224 48.0625 5.33606 48.3258C5.3581 48.6794 5.24167 49.028 5.01021 49.3014C4.77089 49.5462 4.45378 49.7054 4.11006 49.7533V49.7673C4.20869 49.7962 4.30042 49.8439 4.37986 49.9076C4.45931 49.9714 4.52488 50.0499 4.57273 50.1387C4.65561 50.3205 4.69618 50.5179 4.69156 50.7167C4.69117 50.8992 4.67552 51.0814 4.64475 51.2614C4.61425 51.4414 4.60159 51.6239 4.60694 51.8062C4.60728 51.8802 4.6139 51.954 4.62674 52.0269C4.6396 52.1022 4.66644 52.1746 4.70596 52.2406H3.71579C3.69201 52.1759 3.67512 52.109 3.66538 52.0409C3.65791 51.9728 3.6543 51.9044 3.65458 51.836C3.65407 51.6425 3.66912 51.4492 3.69959 51.258C3.73052 51.0691 3.74617 50.8782 3.7464 50.6869C3.75299 50.5643 3.72231 50.4424 3.65818 50.3366C3.60175 50.2565 3.52127 50.1953 3.42774 50.1614C3.32347 50.1225 3.21346 50.1 3.10189 50.0949C2.98127 50.0949 2.85885 50.0844 2.73282 50.0844H1.60584L1.14496 52.2476H0.183594L1.29438 46.9875ZM1.74806 49.3785H3.13249C3.46236 49.3993 3.78994 49.3124 4.06325 49.1315C4.1723 49.0474 4.2591 48.9391 4.31641 48.8157C4.37371 48.6923 4.39988 48.5573 4.3927 48.4221C4.39734 48.3007 4.37008 48.1801 4.31349 48.0718C4.26256 47.9843 4.1878 47.9122 4.09745 47.8633C4.00104 47.8127 3.89623 47.7789 3.7878 47.7635C3.66864 47.7459 3.54827 47.7371 3.42774 47.7372H2.10452L1.74806 49.3785Z" fill="#121212"/>
<path d="M7.37421 46.9875H11.3061L11.1386 47.781H8.13754L7.84229 49.1578H10.6256L10.4653 49.9075H7.67667L7.35081 51.4454H10.3753L10.2097 52.2406H6.24902L7.37421 46.9875Z" fill="#121212"/>
<path d="M12.8942 46.9875H13.9348L15.5911 50.9076H15.6055L16.43 46.9875H17.3752L16.2554 52.2424H15.2202L13.5567 48.3433H13.5423L12.725 52.2424H11.7744L12.8942 46.9875Z" fill="#121212"/>
<path d="M18.5797 46.9875H23.0264L22.8464 47.781H21.1361L20.182 52.2406H19.2368L20.191 47.781H18.4141L18.5797 46.9875Z" fill="#121212"/>
<path d="M28.8629 46.9875H29.8603L30.7982 52.2424H29.8387L29.619 50.8516H27.4713L26.6395 52.2424H25.626L28.8629 46.9875ZM29.1888 47.9141H29.1726L27.8728 50.1509H29.52L29.1888 47.9141Z" fill="#121212"/>
<path d="M39.1905 48.7374C39.2015 48.584 39.179 48.43 39.1244 48.2857C39.0697 48.1414 38.9843 48.0099 38.8736 47.9001C38.6229 47.6951 38.3004 47.5922 37.9735 47.6129C37.6776 47.6055 37.3855 47.6795 37.131 47.8265C36.8918 47.9676 36.6877 48.1584 36.5333 48.3853C36.3703 48.6243 36.2487 48.8876 36.1732 49.1648C36.093 49.4502 36.0525 49.7447 36.0526 50.0406C36.0271 50.4588 36.1646 50.871 36.4378 51.1949C36.5781 51.3383 36.7489 51.4501 36.9383 51.5224C37.1277 51.5948 37.3311 51.6258 37.5342 51.6135C37.7468 51.621 37.9578 51.5745 38.1463 51.4786C38.3043 51.395 38.4442 51.2826 38.5586 51.1476C38.6622 51.0269 38.7466 50.8916 38.8088 50.7465C38.8567 50.6361 38.8981 50.5233 38.9331 50.4084H39.8782C39.8146 50.7164 39.6996 51.0122 39.538 51.2842C39.3967 51.5176 39.2138 51.7246 38.9979 51.8955C38.7918 52.0555 38.5575 52.1778 38.3066 52.2563C38.0466 52.3351 37.7759 52.3747 37.5036 52.3737C37.1526 52.3804 36.8035 52.3209 36.4756 52.1985C36.1931 52.0911 35.9376 51.9256 35.7267 51.7134C35.5234 51.5038 35.3665 51.2558 35.2658 50.9847C35.1583 50.695 35.1046 50.3889 35.1074 50.0809C35.0962 49.5924 35.1824 49.1064 35.3613 48.6498C35.5102 48.2753 35.7363 47.9343 36.0256 47.6479C36.2909 47.3924 36.6078 47.1932 36.9563 47.0629C37.2903 46.9352 37.6453 46.8675 38.0041 46.8632C38.3013 46.8604 38.5972 46.9029 38.8809 46.9893C39.1316 47.0634 39.3643 47.1861 39.565 47.3501C39.7558 47.5091 39.9046 47.7103 39.9988 47.9369C40.1034 48.1916 40.1501 48.4653 40.1357 48.7391L39.1905 48.7374Z" fill="#121212"/>
<path d="M43.8717 46.9875H44.8691L45.807 52.2424H44.8475L44.6278 50.8516H42.4801L41.6483 52.2424H40.6348L43.8717 46.9875ZM44.1958 47.9141H44.1796L42.8797 50.1509H44.527L44.1958 47.9141Z" fill="#121212"/>
<path d="M48.1513 46.9875H50.4917C50.607 46.9875 50.7618 46.9875 50.9526 47.0156C51.1489 47.0371 51.3396 47.0922 51.5161 47.1785C51.7064 47.2723 51.8701 47.4101 51.9932 47.5796C52.1389 47.8016 52.2089 48.0628 52.193 48.3258C52.2151 48.6794 52.0986 49.028 51.8672 49.3014C51.6279 49.5462 51.3108 49.7054 50.967 49.7533V49.7673C51.1644 49.8273 51.3295 49.9608 51.4261 50.1387C51.5075 50.3209 51.5474 50.5181 51.5431 50.7167C51.5427 50.8992 51.5271 51.0814 51.4963 51.2614C51.4676 51.4416 51.455 51.6239 51.4585 51.8062C51.4588 51.8802 51.4655 51.954 51.4783 52.0269C51.492 52.102 51.5188 52.1743 51.5575 52.2406H50.5674C50.5433 52.1761 50.527 52.1091 50.5187 52.0409C50.5097 51.973 50.5055 51.9045 50.5061 51.836C50.5065 51.6425 50.5216 51.4493 50.5512 51.258C50.5821 51.0691 50.5977 50.8782 50.598 50.6869C50.6046 50.5643 50.5739 50.4424 50.5097 50.3366C50.4533 50.2565 50.3728 50.1953 50.2793 50.1614C50.1756 50.1226 50.0662 50.1002 49.9552 50.0949C49.8328 50.0949 49.7104 50.0844 49.5844 50.0844H48.4574L47.9965 52.2476H47.0352L48.1513 46.9875ZM48.605 49.3785H49.9895C50.3188 49.3994 50.6458 49.3124 50.9184 49.1315C51.0271 49.0473 51.1135 48.9389 51.1702 48.8155C51.2269 48.692 51.2523 48.5571 51.2443 48.4221C51.2489 48.3007 51.2216 48.1801 51.1651 48.0718C51.1141 47.9843 51.0394 47.9122 50.949 47.8633C50.8527 47.8125 50.7479 47.7786 50.6394 47.7635C50.5202 47.7459 50.3998 47.7371 50.2793 47.7372H48.9561L48.605 49.3785Z" fill="#121212"/>
<path d="M68.2591 28.2086C67.725 28.2086 67.2028 28.3627 66.7588 28.6514C66.3147 28.9401 65.9685 29.3504 65.7642 29.8305C65.5598 30.3106 65.5063 30.8389 65.6105 31.3485C65.7147 31.8582 65.9719 32.3264 66.3495 32.6938C66.7272 33.0613 67.2084 33.3115 67.7322 33.4129C68.2561 33.5143 68.799 33.4622 69.2925 33.2634C69.7859 33.0645 70.2077 32.7277 70.5044 32.2957C70.8011 31.8636 70.9595 31.3556 70.9595 30.836L87.5223 13.4951L68.2591 28.2086Z" fill="white"/>
<path d="M87.5216 13.4951L68.4834 29.0984C68.4112 29.0892 68.3384 29.0846 68.2656 29.0844C67.8829 29.0841 67.5101 29.2024 67.2012 29.4223C66.8924 29.6421 66.6635 29.952 66.5479 30.3069C66.4324 30.6619 66.436 31.0434 66.5584 31.3962C66.6808 31.749 66.9156 32.0546 67.2286 32.2688C67.5417 32.483 67.9167 32.5945 68.2993 32.5872C68.6819 32.58 69.0522 32.4543 69.3564 32.2284C69.6606 32.0025 69.8829 31.6882 69.9911 31.331C70.0992 30.9739 70.0876 30.5925 69.9579 30.2422L87.5216 13.4951Z" fill="#121212"/>
</g>
<defs>
<linearGradient id="paint0_linear_892_1579" x1="113.664" y1="16.2364" x2="71.89" y2="77.5559" gradientUnits="userSpaceOnUse">
<stop stop-color="#E60001"/>
<stop offset="1" stop-color="#FE5A21"/>
</linearGradient>
<linearGradient id="paint1_linear_892_1579" x1="94.6243" y1="3.26571" x2="52.8499" y2="64.587" gradientUnits="userSpaceOnUse">
<stop stop-color="#E60001"/>
<stop offset="1" stop-color="#FE5A21"/>
</linearGradient>
<linearGradient id="paint2_linear_892_1579" x1="86.6166" y1="-2.19039" x2="44.8404" y2="59.1291" gradientUnits="userSpaceOnUse">
<stop stop-color="#E60001"/>
<stop offset="1" stop-color="#FE5A21"/>
</linearGradient>
<linearGradient id="paint3_linear_892_1579" x1="112.152" y1="15.5708" x2="70.8716" y2="76.1629" gradientUnits="userSpaceOnUse">
<stop stop-color="#E60001"/>
<stop offset="1" stop-color="#FE5A21"/>
</linearGradient>
<linearGradient id="paint4_linear_892_1579" x1="108.231" y1="12.5335" x2="66.4549" y2="73.8548" gradientUnits="userSpaceOnUse">
<stop stop-color="#E60001"/>
<stop offset="1" stop-color="#FE5A21"/>
</linearGradient>
<linearGradient id="paint5_linear_892_1579" x1="102.157" y1="8.39618" x2="60.3823" y2="69.7174" gradientUnits="userSpaceOnUse">
<stop stop-color="#E60001"/>
<stop offset="1" stop-color="#FE5A21"/>
</linearGradient>
<linearGradient id="paint6_linear_892_1579" x1="113.968" y1="16.4432" x2="72.192" y2="77.7645" gradientUnits="userSpaceOnUse">
<stop stop-color="#E60001"/>
<stop offset="1" stop-color="#FE5A21"/>
</linearGradient>
<linearGradient id="paint7_linear_892_1579" x1="76.5513" y1="-9.04787" x2="34.7751" y2="52.2717" gradientUnits="userSpaceOnUse">
<stop stop-color="#E60001"/>
<stop offset="0.99" stop-color="#FE5A21"/>
</linearGradient>
<linearGradient id="paint8_linear_892_1579" x1="97.1054" y1="4.95427" x2="55.3291" y2="66.2739" gradientUnits="userSpaceOnUse">
<stop stop-color="#E60001"/>
<stop offset="1" stop-color="#FE5A21"/>
</linearGradient>
<linearGradient id="paint9_linear_892_1579" x1="110.274" y1="15.0892" x2="69.3601" y2="75.1446" gradientUnits="userSpaceOnUse">
<stop stop-color="#E60001"/>
<stop offset="1" stop-color="#FE5A21"/>
</linearGradient>
<clipPath id="clip0_892_1579">
<rect width="105.651" height="64" fill="white" transform="translate(0.174805 0.5)"/>
</clipPath>
</defs>
</svg>
