<svg width="200" height="156" viewBox="0 0 200 156" fill="none" xmlns="http://www.w3.org/2000/svg">
<path d="M183.631 133.75C181.955 136.204 180.061 138.638 177.438 140.041C174.814 141.444 171.315 141.553 169.087 139.57C165.587 136.43 167.278 130.69 169.487 126.542C173.759 118.515 179.038 111.065 185.195 104.374C186.843 102.584 188.596 100.772 189.434 98.4786C190.272 96.1855 189.815 93.2379 187.767 91.9242C184.55 89.8666 180.57 93.0119 178.219 96.0207C170.585 105.805 164.829 116.917 157.533 126.961C150.237 137.004 140.921 146.266 129.08 149.971C124.191 151.511 117.885 151.587 114.993 147.358C112.915 144.321 113.514 140.06 115.464 136.938C117.414 133.816 120.466 131.58 123.447 129.404L161.598 101.76C165.107 99.2178 169.021 95.7947 168.465 91.5005C167.971 87.7336 163.901 85.2239 160.095 85.2757C156.29 85.3275 152.795 87.3051 149.677 89.4852C136.578 98.6433 127.182 112.016 117.131 124.442C107.08 136.868 95.465 149.011 80.3035 154.106C74.9294 155.904 69.0419 156.742 63.5972 155.174C58.1524 153.606 53.2635 149.289 52.2273 143.714C51.2853 138.614 53.6403 133.355 57.1681 129.55C60.6958 125.746 65.3116 123.161 69.8379 120.632C89.444 109.668 109.052 98.703 128.661 87.7383C131.016 86.4246 133.409 85.0685 135.1 82.9873C136.79 80.9061 137.634 77.8974 136.461 75.4866C134.501 71.4467 128.769 71.4985 124.394 72.4967C105.818 76.7344 89.1583 86.9567 73.8979 98.3609C58.6376 109.765 44.3616 122.521 28.39 132.912C21.4428 137.433 12.0134 141.421 5.38172 136.448C0.144214 132.522 -0.378595 124.442 2.55573 118.584C5.49005 112.727 10.9819 108.644 16.4549 105.028C41.611 88.4776 69.9321 77.483 97.8718 66.239C100.698 65.0948 103.613 63.8847 105.803 61.7753C107.994 59.6658 109.317 56.3274 108.238 53.4693C106.468 48.7608 100.053 48.2899 95.1117 49.1281C68.2224 53.8366 45.7039 74.8698 18.4661 76.6496C11.6225 77.0922 3.02673 74.8462 1.76916 68.1083C1.0344 64.1766 3.35642 60.1791 6.55922 57.7871C9.76201 55.3952 13.7278 54.3075 17.5994 53.3093C34.7144 48.8989 52.0552 45.4158 69.5459 42.8751C73.5777 42.2912 77.7648 41.7026 81.1937 39.499C84.6226 37.2954 87.0623 32.9635 85.7341 29.1119C83.803 23.504 76.2671 22.8354 70.3466 23.1744C54.229 24.1161 38.1099 25.0453 21.9891 25.9619C16.8741 26.2585 11.5141 26.5081 6.87478 24.3374C2.23544 22.1668 -1.30647 16.7142 0.464488 11.9068C2.02349 7.66908 6.78058 5.66794 11.1138 4.42017C39.4915 -3.74921 71.3263 1.02057 96.0631 17.1333C115.577 29.8464 130.281 48.8267 149.286 62.3355C162.173 71.4843 176.75 77.7185 192.123 81.2452C197.95 82.5824 200.907 84.3387 199.754 90.7141C198.6 97.0895 196.673 103.696 194.883 109.873C192.424 118.379 188.626 126.439 183.631 133.75Z" fill="#F5617A"/>
</svg>
