<svg width="20" height="21" viewBox="0 0 20 21" fill="none" xmlns="http://www.w3.org/2000/svg">
<path fill-rule="evenodd" clip-rule="evenodd" d="M11.026 5.732C11.1269 5.64784 11.2434 5.58438 11.3688 5.54527C11.4942 5.50615 11.6262 5.49213 11.757 5.50402C11.8879 5.5159 12.0151 5.55346 12.1314 5.61454C12.2477 5.67563 12.3509 5.75903 12.435 5.86L15.768 9.86C15.9302 10.0645 16.0061 10.3244 15.9793 10.584C15.9526 10.8437 15.8254 11.0827 15.6248 11.2498C15.4242 11.4169 15.1663 11.499 14.906 11.4785C14.6458 11.458 14.4039 11.3365 14.232 11.14L10.898 7.14C10.7283 6.93629 10.6465 6.67353 10.6705 6.4095C10.6945 6.14548 10.8224 5.90178 11.026 5.732Z" fill="#211A20"/>
<path fill-rule="evenodd" clip-rule="evenodd" d="M11.026 15.268C10.8224 15.0982 10.6945 14.8545 10.6705 14.5905C10.6465 14.3265 10.7283 14.0637 10.898 13.86L14.232 9.86C14.4039 9.66352 14.6458 9.54205 14.906 9.52153C15.1663 9.50102 15.4242 9.58309 15.6248 9.75022C15.8254 9.91735 15.9526 10.1563 15.9793 10.416C16.0061 10.6756 15.9302 10.9355 15.768 11.14L12.435 15.14C12.3509 15.241 12.2477 15.3244 12.1314 15.3855C12.0151 15.4465 11.8879 15.4841 11.757 15.496C11.6262 15.5079 11.4942 15.4939 11.3688 15.4547C11.2434 15.4156 11.1269 15.3522 11.026 15.268Z" fill="#211A20"/>
<path fill-rule="evenodd" clip-rule="evenodd" d="M14 10.5C14 10.7652 13.8946 11.0196 13.7071 11.2071C13.5196 11.3946 13.2652 11.5 13 11.5H5C4.73478 11.5 4.48043 11.3946 4.29289 11.2071C4.10536 11.0196 4 10.7652 4 10.5C4 10.2348 4.10536 9.98043 4.29289 9.79289C4.48043 9.60536 4.73478 9.5 5 9.5H13C13.2652 9.5 13.5196 9.60536 13.7071 9.79289C13.8946 9.98043 14 10.2348 14 10.5Z" fill="#211A20"/>
</svg>
