<svg width="24" height="24" viewBox="0 0 24 24" fill="none" xmlns="http://www.w3.org/2000/svg">
<path d="M6.40048 4.76001C7.8908 3.2995 9.89728 2.48614 11.9839 2.49668C14.0705 2.50722 16.0687 3.34081 17.5442 4.8163C19.0197 6.29179 19.8533 8.28995 19.8638 10.3766C19.8744 12.4632 19.061 14.4697 17.6005 15.96L13.4145 20.146C13.0394 20.521 12.5308 20.7316 12.0005 20.7316C11.4702 20.7316 10.9615 20.521 10.5865 20.146L6.40048 15.96C4.91537 14.4747 4.08105 12.4604 4.08105 10.36C4.08105 8.25964 4.91537 6.24528 6.40048 4.76001Z" stroke="black" stroke-width="1.5" stroke-linejoin="round"/>
<path d="M12 13.36C13.6569 13.36 15 12.0168 15 10.36C15 8.70313 13.6569 7.35999 12 7.35999C10.3431 7.35999 9 8.70313 9 10.36C9 12.0168 10.3431 13.36 12 13.36Z" stroke="black" stroke-width="1.5" stroke-linecap="round" stroke-linejoin="round"/>
</svg>
