<svg width="60" height="60" viewBox="0 0 60 60" fill="none" xmlns="http://www.w3.org/2000/svg">
<path d="M31.1019 27.425C31.6594 27.425 32.1944 27.51 32.7269 27.5875C32.5544 27.0075 32.3769 26.4175 32.0919 25.8875C31.8069 25.1175 31.3619 24.45 30.9194 23.7775C30.5494 23.05 29.8969 22.5575 29.4169 21.935C28.9144 21.33 28.2294 20.9275 27.6869 20.425C27.1544 19.9 26.4569 19.6375 25.9019 19.2675C25.3219 18.935 24.8169 18.5675 24.2769 18.3925L22.9294 17.8375L21.7444 17.345L22.9569 12.5L24.4494 12.86C24.9269 12.98 25.5094 13.12 26.1719 13.2875C26.8494 13.4125 27.5719 13.755 28.3769 14.0675C29.1694 14.425 30.0919 14.6625 30.9469 15.235C31.8069 15.78 32.7994 16.235 33.6744 16.965C34.5219 17.7175 35.5444 18.37 36.2994 19.325C37.1244 20.22 37.9394 21.16 38.5719 22.23C39.3044 23.25 39.8019 24.37 40.3269 25.4775C40.8019 26.585 41.1844 27.7175 41.4969 28.8175C42.0894 31.0225 42.3544 33.1175 42.4569 34.91C42.5419 36.705 42.4919 38.1975 42.3869 39.2775C42.3494 39.7875 42.2794 40.2825 42.2294 40.625L42.1669 41.045L42.1019 41.03C41.6573 43.1071 40.6337 45.0158 39.1495 46.5354C37.6654 48.0551 35.7813 49.1235 33.7153 49.6171C31.6493 50.1106 29.4858 50.0092 27.475 49.3246C25.4643 48.6399 23.6884 47.4 22.3529 45.7482C21.0174 44.0964 20.1768 42.1003 19.9284 39.9907C19.68 37.8812 20.0338 35.7444 20.9491 33.8276C21.8644 31.9107 23.3036 30.2922 25.1003 29.1591C26.897 28.0261 28.9778 27.4249 31.1019 27.425Z" fill="#3B6AFC"/>
</svg>
