<svg width="20" height="20" viewBox="0 0 20 20" fill="none" xmlns="http://www.w3.org/2000/svg">
<path d="M1.91116 15.5892C1.75493 15.433 1.66717 15.2211 1.66717 15.0001C1.66717 14.7791 1.75493 14.5672 1.91116 14.4109L4.41116 11.9109C4.54738 11.7746 4.72662 11.6898 4.91837 11.6708C5.11011 11.6518 5.30251 11.6999 5.46283 11.8067L7.39449 13.0942L9.41116 11.0776C9.56833 10.9258 9.77883 10.8418 9.99733 10.8437C10.2158 10.8456 10.4248 10.9332 10.5793 11.0877C10.7338 11.2422 10.8215 11.4513 10.8234 11.6697C10.8253 11.8882 10.7413 12.0987 10.5895 12.2559L8.08949 14.7559C7.95327 14.8922 7.77403 14.977 7.58228 14.996C7.39054 15.015 7.19814 14.967 7.03783 14.8601L5.10616 13.5726L3.08949 15.5892C2.93322 15.7455 2.7213 15.8332 2.50033 15.8332C2.27936 15.8332 2.06743 15.7455 1.91116 15.5892ZM18.3337 2.50008V17.5001C18.3337 17.7211 18.2459 17.9331 18.0896 18.0893C17.9333 18.2456 17.7213 18.3334 17.5003 18.3334H2.50033C2.27931 18.3334 2.06735 18.2456 1.91107 18.0893C1.75479 17.9331 1.66699 17.7211 1.66699 17.5001C1.66699 17.2791 1.75479 17.0671 1.91107 16.9108C2.06735 16.7545 2.27931 16.6667 2.50033 16.6667H16.667V6.66675H3.33366V10.0001C3.33366 10.2211 3.24586 10.4331 3.08958 10.5893C2.9333 10.7456 2.72134 10.8334 2.50033 10.8334C2.27931 10.8334 2.06735 10.7456 1.91107 10.5893C1.75479 10.4331 1.66699 10.2211 1.66699 10.0001V2.50008C1.66699 2.27907 1.75479 2.06711 1.91107 1.91083C2.06735 1.75455 2.27931 1.66675 2.50033 1.66675H17.5003C17.7213 1.66675 17.9333 1.75455 18.0896 1.91083C18.2459 2.06711 18.3337 2.27907 18.3337 2.50008ZM3.33366 5.00008H16.667V3.33341H3.33366V5.00008ZM12.2562 10.5892L13.0895 9.75591C13.2413 9.59875 13.3253 9.38824 13.3234 9.16975C13.3215 8.95125 13.2338 8.74224 13.0793 8.58773C12.9248 8.43323 12.7158 8.34558 12.4973 8.34369C12.2788 8.34179 12.0683 8.42578 11.9112 8.57758L11.0778 9.41091C10.9982 9.48779 10.9347 9.57974 10.8911 9.68141C10.8474 9.78308 10.8244 9.89243 10.8234 10.0031C10.8225 10.1137 10.8436 10.2235 10.8855 10.3259C10.9274 10.4283 10.9893 10.5213 11.0675 10.5996C11.1457 10.6778 11.2388 10.7397 11.3412 10.7816C11.4436 10.8235 11.5533 10.8446 11.664 10.8436C11.7746 10.8427 11.884 10.8197 11.9857 10.776C12.0873 10.7323 12.1793 10.6688 12.2562 10.5892Z" fill="#3B6AFC"/>
</svg>
