<svg width="21" height="20" viewBox="0 0 21 20" fill="none" xmlns="http://www.w3.org/2000/svg">
<path d="M13.4551 15C16.2165 15 18.4551 12.7614 18.4551 10C18.4551 7.23858 16.2165 5 13.4551 5C10.6937 5 8.45508 7.23858 8.45508 10C8.45508 12.7614 10.6937 15 13.4551 15Z" stroke="#3B6AFC" stroke-width="2" stroke-miterlimit="10" stroke-linecap="round" stroke-linejoin="round"/>
<path d="M9.08008 3.125V3.75" stroke="#3B6AFC" stroke-width="2" stroke-miterlimit="10" stroke-linecap="round" stroke-linejoin="round"/>
<path d="M3.33594 4.25635L4.66094 5.58135" stroke="#3B6AFC" stroke-width="2" stroke-miterlimit="10" stroke-linecap="round" stroke-linejoin="round"/>
<path d="M2.20508 10H2.83008" stroke="#3B6AFC" stroke-width="2" stroke-miterlimit="10" stroke-linecap="round" stroke-linejoin="round"/>
<path d="M3.33594 15.7437L4.66094 14.4187" stroke="#3B6AFC" stroke-width="2" stroke-miterlimit="10" stroke-linecap="round" stroke-linejoin="round"/>
<path d="M9.08008 16.875V16.25" stroke="#3B6AFC" stroke-width="2" stroke-miterlimit="10" stroke-linecap="round" stroke-linejoin="round"/>
<path d="M10.5988 14.1062C10.1238 14.2812 9.61133 14.375 9.08008 14.375C6.66133 14.375 4.70508 12.4187 4.70508 10C4.70508 7.58125 6.66133 5.625 9.08008 5.625C9.61133 5.625 10.1238 5.71875 10.5988 5.89375" stroke="#3B6AFC" stroke-width="2" stroke-miterlimit="10" stroke-linecap="round" stroke-linejoin="round"/>
</svg>
