<svg width="50" height="50" viewBox="0 0 50 50" fill="none" xmlns="http://www.w3.org/2000/svg">
<g filter="url(#filter0_d_417_996)">
<path d="M1 6C1 3.23858 3.23858 1 6 1H32C34.7614 1 37 3.23858 37 6V19V32C37 34.7614 34.7614 37 32 37H19H6C3.23858 37 1 34.7614 1 32V6Z" fill="white"/>
<path d="M1 6C1 3.23858 3.23858 1 6 1H32C34.7614 1 37 3.23858 37 6V19V32C37 34.7614 34.7614 37 32 37H19H6C3.23858 37 1 34.7614 1 32V6Z" stroke="#263238" stroke-width="2"/>
</g>
<circle cx="37" cy="37" r="12" fill="white"/>
<circle cx="37" cy="37" r="12" fill="white" stroke="#263238" stroke-width="2"/>
<path d="M37 29V36V37L32.5 41.5" stroke="#E90C59" stroke-width="2" stroke-linecap="round"/>
<line x1="6" y1="32" x2="10" y2="32" stroke="#263238" stroke-width="2" stroke-linecap="round"/>
<rect x="15" y="1" width="8" height="8" rx="1" fill="#0C8CE9" stroke="#263238" stroke-width="1.5"/>
<defs>
<filter id="filter0_d_417_996" x="0" y="0" width="44" height="44" filterUnits="userSpaceOnUse" color-interpolation-filters="sRGB">
<feFlood flood-opacity="0" result="BackgroundImageFix"/>
<feColorMatrix in="SourceAlpha" type="matrix" values="0 0 0 0 0 0 0 0 0 0 0 0 0 0 0 0 0 0 127 0" result="hardAlpha"/>
<feOffset dx="6" dy="6"/>
<feComposite in2="hardAlpha" operator="out"/>
<feColorMatrix type="matrix" values="0 0 0 0 0.14902 0 0 0 0 0.196078 0 0 0 0 0.219608 0 0 0 1 0"/>
<feBlend mode="normal" in2="BackgroundImageFix" result="effect1_dropShadow_417_996"/>
<feBlend mode="normal" in="SourceGraphic" in2="effect1_dropShadow_417_996" result="shape"/>
</filter>
</defs>
</svg>
