<svg width="84" height="85" viewBox="0 0 84 85" fill="none" xmlns="http://www.w3.org/2000/svg">
<g clip-path="url(#clip0_884_1558)">
<path d="M54.492 31.0175C52.7829 21.5559 53.2974 11.8821 55.9996 2.50733L41.7969 0C38.6728 10.8352 38.0818 22.0287 40.0536 32.9642L54.492 31.0175Z" fill="#121416"/>
<path d="M53.1524 2.66659L44.2714 1.1604C43.9961 2.14542 42.9292 2.8233 41.857 2.6648C39.5786 11.6969 39.0825 21.0834 40.3962 30.3036C41.4828 30.1872 42.4759 30.9036 42.645 31.8994L51.6673 30.746C51.5108 29.829 52.288 28.99 53.3764 28.8735C52.2234 20.7779 52.6593 12.5365 54.6601 4.60619C53.5869 4.44411 52.8997 3.5755 53.1524 2.66659Z" fill="#3B6AFC"/>
<path d="M49.1406 21.5219C51.2995 20.5368 52.1613 17.9543 51.2024 15.6914C50.2435 13.4286 47.7239 12.1221 45.4408 12.8259C43.1578 13.5298 42.0604 16.201 43.1443 18.745C44.2283 21.289 46.9817 22.5042 49.1406 21.5219Z" fill="#121416"/>
<path d="M50.7174 16.5134L49.933 16.7883C50.1525 17.7635 49.7909 18.4897 49.1117 18.7422C48.4326 18.9948 47.8344 18.7655 47.1093 17.8906C46.5768 17.2701 46.2998 17.0301 46.0461 17.1169C45.8302 17.1895 45.6863 17.4411 45.9013 17.99C46.0014 18.2416 46.1345 18.4788 46.2971 18.6957C46.477 18.933 46.4482 19.2598 46.235 19.4174C46.0281 19.5696 45.7232 19.507 45.5532 19.2688C45.3889 19.0368 45.2484 18.789 45.134 18.5291L44.4566 18.7673C44.3433 18.4867 44.2314 18.2058 44.1211 17.9247L44.8551 17.6748C44.6581 16.7041 45.0008 16.0021 45.6845 15.7827C46.4401 15.5409 47.0536 16.0271 47.6787 16.8143C48.1132 17.3587 48.4056 17.553 48.697 17.4492C49.0047 17.339 49.0442 16.9629 48.8607 16.5C48.7398 16.1992 48.5753 15.9177 48.3723 15.6645C48.3283 15.6134 48.2954 15.5539 48.2757 15.4895C48.256 15.4252 48.2499 15.3575 48.2578 15.2907C48.2656 15.224 48.2873 15.1595 48.3214 15.1015C48.3555 15.0434 48.4013 14.993 48.4559 14.9535L48.4802 14.9365C48.5862 14.8723 48.7125 14.8504 48.834 14.8752C48.9554 14.8999 49.063 14.9695 49.1351 15.0699C49.3505 15.3515 49.5316 15.6575 49.6748 15.9815L50.4079 15.729C50.5093 15.9922 50.6124 16.2537 50.7174 16.5134Z" fill="white"/>
<path d="M55.5447 27.8242C48.904 20.0139 43.7837 11.04 40.446 1.36206L28.3086 4.96814C32.1681 16.1568 38.0882 26.5316 45.7658 35.5611L55.5447 27.8242Z" fill="#121416"/>
<path d="M38.3896 2.68457L30.8335 4.994C31.1888 6.0032 30.7688 7.05359 29.8701 7.35626C33.3709 16.6171 38.31 25.2737 44.5073 33.0098C45.2611 32.4546 46.417 32.6928 47.116 33.5256L53.2616 28.7474C52.622 27.9808 52.73 26.8982 53.4829 26.3439C48.0404 19.5503 43.7028 11.9483 40.6285 3.81556C39.729 4.11554 38.7134 3.61318 38.3896 2.68457Z" fill="#3B6AFC"/>
<path d="M43.7909 22.8705C45.8148 21.6293 46.3456 18.959 45.1123 16.8305C43.879 14.7019 41.2173 13.7169 39.0387 14.693C36.86 15.6691 36.1035 18.454 37.4951 20.8494C38.8866 23.2448 41.7723 24.1107 43.7909 22.8705Z" fill="#121416"/>
<path d="M44.7312 17.7063L43.9882 18.0788C44.3273 19.0208 44.0584 19.7802 43.4152 20.1196C42.772 20.459 42.1559 20.2987 41.3229 19.5214C40.7175 18.9707 40.4144 18.7656 40.1715 18.8838C39.9664 18.9823 39.8504 19.2501 40.1364 19.7677C40.2669 20.0054 40.4288 20.2246 40.6177 20.4196C40.8246 20.6336 40.8371 20.9569 40.6446 21.1431C40.4584 21.3222 40.1481 21.2936 39.9502 21.0795C39.7579 20.8699 39.5876 20.6412 39.442 20.3972L38.8033 20.7169C38.6558 20.4524 38.5098 20.1876 38.3652 19.9226L39.0633 19.5841C38.7475 18.6456 38.9994 17.906 39.6516 17.6051C40.3712 17.272 41.0395 17.6785 41.7583 18.3824C42.2566 18.8686 42.5679 19.0262 42.8476 18.8874C43.1391 18.7406 43.1319 18.3618 42.8917 17.9248C42.7341 17.6413 42.5359 17.3822 42.3034 17.1556C42.2534 17.1102 42.2135 17.0551 42.1859 16.9937C42.1584 16.9323 42.1439 16.8658 42.1434 16.7986C42.1429 16.7313 42.1564 16.6646 42.183 16.6028C42.2096 16.541 42.2487 16.4852 42.298 16.4392L42.3205 16.4195C42.4175 16.3428 42.5401 16.3056 42.6636 16.3152C42.7871 16.3248 42.9023 16.3807 42.9861 16.4714C43.2344 16.7245 43.4518 17.0058 43.6338 17.3096L44.33 16.9693C44.4596 17.2165 44.5954 17.4618 44.7312 17.7063Z" fill="white"/>
<path d="M52.5602 29.3536C44.53 25.6248 37.0288 20.3093 30.4524 13.6765L24 21.8737C31.6029 29.5389 40.2762 35.6891 49.5611 39.9999C50.5614 36.4508 51.5611 32.9021 52.5602 29.3536Z" fill="#121416"/>
<path d="M29.6841 15.6609L25.6982 20.8179C26.3945 21.5101 26.5933 22.5695 26.1309 23.2044C32.6354 29.4225 39.8704 34.5527 47.5623 38.4024C47.8124 37.6161 48.6912 37.3206 49.5341 37.72C50.1751 35.5112 50.8162 33.3041 51.4573 31.0989C50.6819 30.7317 50.2609 29.7807 50.511 28.9954C43.7555 25.615 37.4021 21.1099 31.69 15.6528C31.2277 16.2859 30.3245 16.2976 29.6841 15.6609Z" fill="#ED305C"/>
<path d="M42.4693 30.233C43.2546 28.3302 42.3928 25.8703 40.6027 24.6184C38.8127 23.3665 36.589 23.6782 35.5806 25.4243C34.5723 27.1705 35.3369 29.8265 37.3527 31.2324C39.3686 32.6383 41.6867 32.1323 42.4693 30.233Z" fill="#121416"/>
<path d="M40.7472 25.5121L40.4206 26.1389C41.0755 26.781 41.2428 27.5323 40.9675 28.0893C40.6923 28.6463 40.2065 28.7806 39.2998 28.4833C38.6458 28.2818 38.3508 28.2397 38.2429 28.4421C38.1529 28.6131 38.1952 28.8898 38.6216 29.197C38.8112 29.3369 39.0187 29.4511 39.2386 29.5364C39.3547 29.5827 39.4518 29.6663 39.5147 29.7738C39.5776 29.8814 39.6027 30.0068 39.5859 30.1301C39.5427 30.3566 39.3232 30.4677 39.0938 30.3736C38.8661 30.2763 38.6488 30.1563 38.4453 30.0155L38.1619 30.5527C37.9436 30.3945 37.7259 30.2351 37.5088 30.0746L37.8192 29.4943C37.1823 28.8442 37.0141 28.1179 37.3109 27.5878C37.6393 27.0022 38.2707 27.0559 39.0695 27.338C39.6236 27.5314 39.9052 27.5287 40.0257 27.295C40.1535 27.0478 39.9763 26.7344 39.6173 26.4712C39.3906 26.3052 39.1405 26.1734 38.8752 26.0798C38.7588 26.0347 38.662 25.9502 38.6018 25.8412C38.5416 25.7322 38.5219 25.6055 38.546 25.4835C38.546 25.4745 38.546 25.4664 38.5523 25.4575C38.5626 25.4084 38.5837 25.3622 38.6141 25.3223C38.6445 25.2824 38.6835 25.2497 38.7282 25.2266C38.7729 25.2036 38.8222 25.1907 38.8726 25.189C38.9229 25.1872 38.973 25.1967 39.0192 25.2166C39.3047 25.3259 39.5764 25.468 39.8287 25.6402C39.9322 25.4467 40.0347 25.2524 40.1382 25.0581C40.3421 25.2163 40.5451 25.3676 40.7472 25.5121Z" fill="white"/>
<path d="M48.9679 33.6653C47.1089 32.7328 45.2798 31.7218 43.4808 30.6323C43.3482 30.9565 43.2163 31.2806 43.085 31.6048C44.9074 32.708 46.7617 33.7331 48.6477 34.6799L48.9679 33.6653Z" fill="#50BFA5"/>
<path d="M33.9826 23.8509C32.4678 22.4557 31.0109 20.9991 29.6118 19.481L28.876 20.2412C30.2942 21.7796 31.7716 23.2563 33.308 24.6711L33.9826 23.8509Z" fill="#121416"/>
<path d="M38.4378 13.4025C37.5221 11.6599 36.6885 9.88123 35.9371 8.06641L34.9062 8.47922C35.6685 10.3167 36.5137 12.1205 37.442 13.8906L38.4378 13.4025Z" fill="#121416"/>
<path d="M48.5505 11.4289C48.6071 9.60952 48.759 7.79431 49.0056 5.99068L47.8147 5.86353C47.5633 7.69352 47.408 9.53533 47.3496 11.3814L48.5505 11.4289Z" fill="#121416"/>
</g>
<g filter="url(#filter0_d_884_1558)">
<path d="M5 29.6668C5 28.0099 6.34315 26.6667 8 26.6667H72C73.6569 26.6667 75 28.0099 75 29.6667V71.9498H5V29.6668Z" fill="white"/>
<path d="M5.5 29.6668C5.5 28.286 6.61929 27.1667 8 27.1667H72C73.3807 27.1667 74.5 28.286 74.5 29.6667V71.4498H5.5V29.6668Z" stroke="#121416"/>
</g>
<g filter="url(#filter1_d_884_1558)">
<path d="M0 70.9434H80V77C80 78.6568 78.6569 80 77 80H3C1.34315 80 0 78.6568 0 77V70.9434Z" fill="white"/>
<path d="M0.5 71.4434H79.5V77C79.5 78.3807 78.3807 79.5 77 79.5H3C1.61929 79.5 0.5 78.3807 0.5 77V71.4434Z" stroke="#121416"/>
</g>
<path d="M31.5 71.4434H48.5V72.9748C48.5 74.3555 47.3807 75.4748 46 75.4748H34C32.6193 75.4748 31.5 74.3555 31.5 72.9748V71.4434Z" fill="#ED305C" stroke="#121416"/>
<rect x="8" y="29.6667" width="64" height="39" stroke="#121416"/>
<path d="M2.36713 44.6394C1.49292 45.3074 1.04292 47.173 0.949166 49.8121C0.855416 52.4511 1.35229 53.8855 1.52573 54.3191C1.69917 54.7527 3.00229 55.3996 4.46948 56.5339C5.54526 57.366 13.9921 63.2464 14.9929 63.7035C16.5843 64.4277 17.5968 62.9628 17.5968 62.9628C17.5968 62.9628 18.4406 63.4457 19.2562 62.9628C20.2523 62.3722 20.1351 61.6386 20.1351 61.6386C20.1351 61.6386 21.1617 61.8753 21.6843 61.4136C22.207 60.9519 22.439 59.8433 22.439 59.8433C22.439 59.8433 23.1304 60.1574 23.7164 59.6347C24.3023 59.1121 24.7476 58.4042 24.1265 57.4386C23.5054 56.473 20.9789 53.4308 20.3226 52.5777C19.6664 51.7246 17.9789 46.8589 16.3546 46.3738C14.7304 45.8886 13.1273 46.0128 11.4304 46.5144C9.73354 47.016 8.14682 46.9691 6.26245 46.4347C4.37807 45.9003 2.36713 44.6394 2.36713 44.6394Z" fill="white"/>
<path d="M28.901 48.7762C28.5541 46.4676 28.097 44.8973 27.7572 44.5176C27.3681 44.0864 26.7002 44.9442 25.2869 45.4458C23.8736 45.9473 21.3283 46.1372 21.3283 46.1372C21.3283 46.1372 17.2338 46.0176 15.701 46.5333C15.1244 46.7255 9.43611 49.1231 9.26502 50.1286C9.19236 50.5551 9.6658 51.509 10.8424 51.6051C12.7525 51.7622 15.1408 50.0981 15.1408 50.0981C15.1689 50.0512 15.4525 49.9715 16.758 49.9715C18.0635 49.9715 19.5799 50.827 19.676 50.9864C20.651 52.5919 21.5767 53.7169 22.4697 54.8044C23.1236 55.5989 24.6611 57.7012 24.6611 57.7012C24.6611 57.7012 26.3885 55.6598 26.8291 55.1887C27.2697 54.7176 28.9033 53.5247 28.9033 53.5247C28.9033 53.5247 29.2642 51.1903 28.901 48.7762Z" fill="white"/>
<path d="M6.23163 59.2831C6.23163 59.2831 5.6082 59.5035 5.03866 58.6855C4.46913 57.8675 4.94491 57.305 5.52616 56.848C6.10741 56.391 6.87616 56.1706 7.3332 56.5175C7.78788 56.862 7.97773 57.4597 7.97773 57.4597C7.97773 57.4597 8.91991 56.691 9.76835 57.162C10.6168 57.6331 10.5629 58.491 10.5629 58.491C10.5629 58.491 11.3855 57.9917 12.2504 58.491C13.1152 58.9902 12.691 60.4292 12.691 60.4292C12.691 60.4292 13.6965 60.4597 13.884 61.4511C14.0715 62.4402 13.8371 63.4925 12.7051 63.6824C11.5754 63.8699 10.9144 62.8105 10.9144 62.8105C10.9144 62.8105 9.78476 63.4925 8.95038 62.93C8.11601 62.3675 8.2121 61.1863 8.2121 61.1863C8.2121 61.1863 7.19257 61.355 6.61835 60.8206C6.04413 60.2863 6.23163 59.2831 6.23163 59.2831Z" fill="white"/>
<path d="M14.1299 62.8995C14.4159 62.3698 14.4862 61.7604 14.2987 61.2589C14.1628 60.8933 13.837 60.4339 13.0776 60.2112C13.0846 60.1972 13.0917 60.1854 13.0987 60.1737L13.0776 60.162C13.1784 59.855 13.2018 59.562 13.1549 59.2104C13.0799 58.6573 12.7612 58.2425 12.2573 58.0479C11.8307 57.8815 11.3151 57.8956 10.9026 58.0643C10.8581 57.5839 10.6284 57.2417 10.1854 56.9722C9.29947 56.4331 8.63854 56.7847 8.23307 57.019C8.0526 56.5011 7.60494 56.2456 7.32135 56.1308C6.98385 55.9948 6.15885 55.819 5.17682 56.6956L5.67838 57.155C6.35572 56.5784 6.86197 56.6722 7.07057 56.7565C7.60963 56.9722 7.59088 57.3729 7.58854 57.5581C7.58619 57.7409 7.55807 57.9354 7.11041 58.3503C6.55729 58.8636 6.16588 58.8659 6.16588 58.8659C5.76979 58.9128 5.41588 58.6128 5.25416 58.3151C5.19791 58.2097 5.03151 57.8487 5.25182 57.5886C5.30338 57.53 5.40885 57.3659 5.76744 57.0847L5.27291 56.6159C5.05729 56.794 4.78776 57.094 4.73619 57.1526C4.40572 57.5417 4.3776 58.1112 4.66119 58.6362C4.89557 59.0745 5.36901 59.487 5.94791 59.5433C5.90572 60.1058 6.10494 60.6261 6.52916 61.0362C6.98385 61.4768 7.54869 61.5237 7.94244 61.4886C7.94713 61.8823 8.03385 62.4354 8.41822 62.8315C9.18229 63.6167 10.1362 63.4175 10.7549 63.087C10.9776 63.5393 11.3784 63.8628 11.887 63.9823C12.0299 64.0151 12.1753 64.0315 12.3182 64.0315C12.8526 64.0315 13.544 64.0315 14.2237 62.7026C14.0128 62.5714 13.8112 62.4683 13.6331 62.3628C13.1151 63.3893 12.4284 63.4151 12.0393 63.3237C11.6854 63.2393 11.4253 63.0003 11.3057 62.6558C11.8706 62.0229 12.269 61.5237 12.712 60.8183C13.2135 60.9237 13.5346 61.1511 13.6635 61.4979C13.776 61.8003 13.7315 62.1893 13.5581 62.5362L14.1299 62.8995ZM8.19557 60.7479C8.18854 60.7503 7.46666 60.9987 6.99791 60.5464C6.68619 60.244 6.56432 59.8784 6.63697 59.4612C7.48541 58.8589 8.21901 57.9167 8.37135 57.7128C8.42526 57.6847 9.14479 57.1151 9.83385 57.5464C10.1526 57.7456 10.2815 58.205 10.2159 58.5284C10.1503 58.8518 10.0003 59.2433 9.3815 59.9042C8.77682 60.5487 8.19557 60.7479 8.19557 60.7479ZM12.3604 60.1456C12.2034 60.455 11.7159 61.4815 10.7034 62.3159C10.5885 62.4097 9.62057 63.0893 8.90338 62.3534C8.64557 62.0886 8.60572 61.6339 8.61979 61.3386C9.10025 60.9612 10.0565 60.1175 10.7971 58.9104C11.0854 58.5847 11.6456 58.5308 12.0135 58.6737C12.2854 58.7792 12.4448 58.9878 12.4846 59.2972C12.5245 59.5831 12.5174 59.8362 12.3604 60.1456Z" fill="#121416"/>
<path d="M18.3632 63.4667C18.1382 63.4667 17.9179 63.4316 17.7116 63.3589C17.1819 63.1738 15.1311 61.6128 14.7796 61.0714C14.6788 60.9144 14.7233 60.7058 14.878 60.605C15.035 60.5042 15.2436 60.5488 15.3444 60.7035C15.5882 61.0785 17.5007 62.5691 17.9343 62.7214C18.3233 62.8574 18.8225 62.787 19.2022 62.5433C19.4436 62.3863 19.7436 62.091 19.7882 61.573C19.8046 61.3878 19.9686 61.2495 20.1538 61.266C20.3389 61.2824 20.4772 61.4464 20.4608 61.6316C20.4069 62.248 20.0905 62.773 19.5702 63.1105C19.2102 63.3422 18.7913 63.4659 18.3632 63.4667Z" fill="#121416"/>
<path d="M20.8214 61.9386C20.3596 61.9386 19.8628 61.7933 19.2628 61.4862C18.5245 61.1112 17.5518 60.1479 16.8417 59.4472C16.6987 59.3065 16.5698 59.1776 16.4596 59.0722C16.326 58.9433 16.3214 58.73 16.4503 58.594C16.5792 58.4581 16.7925 58.4558 16.9284 58.5847C17.0409 58.6925 17.1721 58.8214 17.3175 58.9667C17.9573 59.5995 18.9253 60.5558 19.5698 60.8839C20.3831 61.2987 20.8003 61.294 21.105 61.2355C21.6628 61.1253 22.0096 60.6026 22.0073 59.8667C22.0073 59.7772 22.0429 59.6913 22.1061 59.6281C22.1694 59.5648 22.2553 59.5292 22.3448 59.5292C22.4343 59.5292 22.5202 59.5648 22.5834 59.6281C22.6467 59.6913 22.6823 59.7772 22.6823 59.8667C22.6846 60.9284 22.1151 61.7276 21.2339 61.9011C21.0979 61.9269 20.9596 61.9386 20.8214 61.9386Z" fill="#121416"/>
<path d="M22.7601 60.2817C22.5797 60.2817 22.3969 60.2512 22.2211 60.1832C21.2719 59.8129 20.0062 58.6457 18.3516 56.6137C18.2987 56.5437 18.2751 56.456 18.2857 56.369C18.2962 56.2819 18.3402 56.2024 18.4082 56.1471C18.4763 56.0918 18.5631 56.0651 18.6505 56.0726C18.7378 56.08 18.8189 56.1211 18.8766 56.1871C20.4328 58.0996 21.6398 59.2317 22.4672 59.5528C22.882 59.7145 23.4984 59.4801 23.8687 59.0207C24.0422 58.8051 24.2906 58.3762 23.9906 57.9192C23.3273 56.909 22.657 56.0934 21.9469 55.2309C21.0375 54.1246 20.0976 52.9809 19.0969 51.3356C19.0008 51.1762 19.05 50.9676 19.2094 50.8715C19.3687 50.7754 19.5773 50.8246 19.6734 50.984C20.6484 52.5895 21.5742 53.7145 22.4672 54.802C23.1891 55.6786 23.8687 56.5082 24.5531 57.5489C24.9398 58.1348 24.8789 58.845 24.3914 59.4473C24.0164 59.909 23.3906 60.2817 22.7601 60.2817Z" fill="#121416"/>
<path d="M23.348 52.9597C23.334 52.9597 23.3223 52.9597 23.3082 52.9574C20.8285 52.6691 19.584 51.7082 18.7613 51.073C18.3559 50.7613 18.0371 50.5129 17.7324 50.4683C16.8699 50.3371 16.0168 50.2433 15.098 50.5105C15.0113 50.5363 14.7535 50.6582 14.477 50.7894C13.6309 51.1902 12.3535 51.7972 11.4137 51.8957C10.6824 51.973 10.0285 51.7879 9.57148 51.3777C9.20117 51.0449 8.99023 50.5855 8.99023 50.1168C8.99023 49.2941 10.0309 48.809 10.7176 48.4902C11.0949 48.3144 11.6082 48.0261 12.1496 47.7215C13.0965 47.1894 14.1699 46.5847 14.9574 46.3363C16.2512 45.9285 19.6613 45.8066 20.7535 45.7949C23.2027 45.7715 25.216 45.0847 26.7465 44.2972C26.8098 44.2644 27.0887 44.1191 27.3324 44.18C27.6723 44.2644 27.7566 44.5199 27.7566 44.5199C26.0855 45.516 23.8027 46.4441 20.7629 46.4746C19.4223 46.4863 16.291 46.6293 15.166 46.9832C14.4441 47.2105 13.4035 47.7965 12.4848 48.3144C11.9316 48.6261 11.409 48.9215 11.0059 49.1066C10.6051 49.2918 9.66758 49.7277 9.66758 50.1215C9.66758 50.398 9.79883 50.6746 10.0238 50.8808C10.3355 51.1621 10.8066 51.2863 11.3434 51.23C12.1684 51.1433 13.4316 50.5433 14.1887 50.1847C14.5707 50.0019 14.777 49.9058 14.9105 49.8683C16.0473 49.5355 17.123 49.6972 17.8332 49.805C18.309 49.8777 18.7098 50.1871 19.1738 50.5433C19.9848 51.1691 21.0934 52.0246 23.3879 52.2918C23.573 52.3129 23.7066 52.4816 23.6855 52.6668C23.6645 52.8332 23.5191 52.9597 23.348 52.9597Z" fill="#121416"/>
<path d="M24.5223 57.5042L24.1777 56.998C24.4402 57.1386 25.0379 57.0308 25.7949 55.9644C26.2754 55.287 27.173 53.9206 28.8793 53.2104C28.8793 53.2104 29.0082 53.8573 28.6238 54.1198C27.466 54.9167 26.7371 55.8026 26.3457 56.3558C25.7035 57.2628 25.1129 57.8065 24.7754 58.0784C24.7754 58.0784 24.7332 57.8065 24.5223 57.5042Z" fill="#121416"/>
<path d="M15.9887 64.17C15.1473 64.17 14.334 63.7294 13.9238 63.5067C13.8559 63.4692 13.7973 63.4388 13.748 63.413L14.2473 62.2739C14.2473 62.2739 14.3691 62.9536 14.8848 63.2208C15.7332 63.6638 16.4949 63.7271 17.1137 62.9067L17.6527 63.3146C17.1676 63.9591 16.5699 64.17 15.9887 64.17Z" fill="#121416"/>
<path d="M4.84446 57.345C4.07102 56.5293 3.1218 55.7559 2.07649 55.0809C2.02493 55.0481 1.74133 54.8653 1.60305 54.6192C1.38743 54.2372 1.43899 53.9114 1.43899 53.9114C2.92258 54.7364 4.28196 55.77 5.3343 56.8809L4.84446 57.345Z" fill="#121416"/>
<path d="M9.27852 47.2175C6.49883 47.2175 3.93242 46.1534 2.08789 44.9159C2.08789 44.9159 2.18398 44.7214 2.3668 44.6394C2.62227 44.5245 2.81914 44.5878 2.84727 44.6042C4.56055 45.6683 6.83164 46.5401 9.27617 46.5401H9.29258C9.99336 46.5401 10.9355 46.2589 11.498 46.0925C11.6035 46.062 11.6973 46.0339 11.7793 46.0104C13.1621 45.619 14.6504 45.6237 16.7551 46.0222L16.6285 46.6854C14.634 46.3081 13.2371 46.3011 11.9621 46.6597C11.8848 46.6808 11.7934 46.7089 11.6902 46.7394C11.0926 46.9175 10.0918 47.2151 9.29492 47.2151C9.29023 47.2175 9.2832 47.2175 9.27852 47.2175Z" fill="#121416"/>
<path d="M21.7199 53.8832C21.7199 53.8832 21.5324 53.3886 21.8465 53.1097C22.2145 52.7816 22.627 52.8988 22.9129 52.9035C22.9129 52.9035 22.3574 52.7582 21.6496 52.4746C20.7707 52.1207 20.166 51.6824 20.166 51.6824C20.166 51.6824 20.323 51.9964 20.8105 52.7347C21.2957 53.473 21.7199 53.8832 21.7199 53.8832Z" fill="#121416"/>
<rect x="40" y="35" width="23.3333" height="2.5" rx="1.25" fill="#EEEEEE"/>
<rect x="40" y="39.1667" width="18.3333" height="2.5" rx="1.25" fill="#EEEEEE"/>
<rect x="40" y="64.1667" width="25" height="1.66666" rx="0.833332" fill="#EEEEEE"/>
<rect x="40.5" y="45.5" width="25.6667" height="15.6667" fill="white" stroke="#121416"/>
<path d="M50 61.2501L57.5 49.1667L66.25 61.2501" stroke="#121416" stroke-linejoin="round"/>
<path d="M45.417 61.2501L50.0003 54.1667L52.5003 57.5001" stroke="#121416" stroke-linejoin="round"/>
<circle cx="45.4167" cy="50.4167" r="2.41667" fill="#3B6AFC" stroke="#121416"/>
<defs>
<filter id="filter0_d_884_1558" x="5" y="26.6667" width="74" height="50.283" filterUnits="userSpaceOnUse" color-interpolation-filters="sRGB">
<feFlood flood-opacity="0" result="BackgroundImageFix"/>
<feColorMatrix in="SourceAlpha" type="matrix" values="0 0 0 0 0 0 0 0 0 0 0 0 0 0 0 0 0 0 127 0" result="hardAlpha"/>
<feOffset dx="4" dy="5"/>
<feComposite in2="hardAlpha" operator="out"/>
<feColorMatrix type="matrix" values="0 0 0 0 0.0705882 0 0 0 0 0.0784314 0 0 0 0 0.0862745 0 0 0 1 0"/>
<feBlend mode="normal" in2="BackgroundImageFix" result="effect1_dropShadow_884_1558"/>
<feBlend mode="normal" in="SourceGraphic" in2="effect1_dropShadow_884_1558" result="shape"/>
</filter>
<filter id="filter1_d_884_1558" x="0" y="70.9434" width="84" height="14.0566" filterUnits="userSpaceOnUse" color-interpolation-filters="sRGB">
<feFlood flood-opacity="0" result="BackgroundImageFix"/>
<feColorMatrix in="SourceAlpha" type="matrix" values="0 0 0 0 0 0 0 0 0 0 0 0 0 0 0 0 0 0 127 0" result="hardAlpha"/>
<feOffset dx="4" dy="5"/>
<feComposite in2="hardAlpha" operator="out"/>
<feColorMatrix type="matrix" values="0 0 0 0 0.0705882 0 0 0 0 0.0784314 0 0 0 0 0.0862745 0 0 0 1 0"/>
<feBlend mode="normal" in2="BackgroundImageFix" result="effect1_dropShadow_884_1558"/>
<feBlend mode="normal" in="SourceGraphic" in2="effect1_dropShadow_884_1558" result="shape"/>
</filter>
<clipPath id="clip0_884_1558">
<rect width="40" height="40" fill="white" transform="translate(20)"/>
</clipPath>
</defs>
</svg>
