<svg width="21" height="20" viewBox="0 0 21 20" fill="none" xmlns="http://www.w3.org/2000/svg">
<g clip-path="url(#clip0_838_2272)">
<path d="M17.8298 5.83325H16.1631V2.49992C16.1631 1.57909 15.4173 0.833252 14.4964 0.833252H6.16309C5.24225 0.833252 4.49642 1.57909 4.49642 2.49992V4.16659H2.82975C1.90892 4.16659 1.16309 4.91242 1.16309 5.83325V9.16659C1.16309 10.0874 1.90892 10.8333 2.82975 10.8333H4.49642V17.4999C4.49642 18.4208 5.24225 19.1666 6.16309 19.1666H14.4964C15.4173 19.1666 16.1631 18.4208 16.1631 17.4999V15.8333H17.8298C18.7506 15.8333 19.4964 15.0874 19.4964 14.1666V7.49992C19.4964 6.57909 18.7506 5.83325 17.8298 5.83325ZM14.4964 17.4999H6.16309V10.8333H7.82975C8.75059 10.8333 9.49642 10.0874 9.49642 9.16659V5.83325C9.49642 4.91242 8.75059 4.16659 7.82975 4.16659H6.16309V2.49992H14.4964V5.83325H12.8298C11.9089 5.83325 11.1631 6.57909 11.1631 7.49992V14.1666C11.1631 15.0874 11.9089 15.8333 12.8298 15.8333H14.4964V17.4999ZM17.8298 14.1666H12.8298V7.49992H17.8298V14.1666Z" fill="#3B6AFC"/>
</g>
<defs>
<clipPath id="clip0_838_2272">
<rect width="20" height="20" fill="white" transform="translate(0.330078)"/>
</clipPath>
</defs>
</svg>
