<svg width="20" height="20" viewBox="0 0 20 20" fill="none" xmlns="http://www.w3.org/2000/svg">
<g clip-path="url(#clip0_838_2185)">
<path d="M17.4997 5.83325H15.833V2.49992C15.833 1.57909 15.0872 0.833252 14.1663 0.833252H5.83301C4.91217 0.833252 4.16634 1.57909 4.16634 2.49992V4.16659H2.49967C1.57884 4.16659 0.833008 4.91242 0.833008 5.83325V9.16659C0.833008 10.0874 1.57884 10.8333 2.49967 10.8333H4.16634V17.4999C4.16634 18.4208 4.91217 19.1666 5.83301 19.1666H14.1663C15.0872 19.1666 15.833 18.4208 15.833 17.4999V15.8333H17.4997C18.4205 15.8333 19.1663 15.0874 19.1663 14.1666V7.49992C19.1663 6.57909 18.4205 5.83325 17.4997 5.83325ZM14.1663 17.4999H5.83301V10.8333H7.49967C8.42051 10.8333 9.16634 10.0874 9.16634 9.16659V5.83325C9.16634 4.91242 8.42051 4.16659 7.49967 4.16659H5.83301V2.49992H14.1663V5.83325H12.4997C11.5788 5.83325 10.833 6.57909 10.833 7.49992V14.1666C10.833 15.0874 11.5788 15.8333 12.4997 15.8333H14.1663V17.4999ZM17.4997 14.1666H12.4997V7.49992H17.4997V14.1666Z" fill="#C4C4C4"/>
</g>
<defs>
<clipPath id="clip0_838_2185">
<rect width="20" height="20" fill="white"/>
</clipPath>
</defs>
</svg>
