<svg width="60" height="60" viewBox="0 0 60 60" fill="none" xmlns="http://www.w3.org/2000/svg">
<g clip-path="url(#clip0_768_2864)">
<rect x="20.75" y="20.75" width="38.5" height="38.5" stroke="#121416" stroke-width="1.5" stroke-dasharray="3 3"/>
<path d="M7.7781 1.11108H1.66699V8.88886L7.7781 7.77775V1.11108Z" fill="#3B6AFC"/>
<path d="M31.1112 8.33329L30.5557 1.66663H38.3334V8.33329H31.1112Z" fill="#ED305C"/>
<path d="M38.889 31.6666H30.5557L31.1112 38.3333H38.889V31.6666Z" fill="#3B6AFC"/>
<path d="M8.88911 38.3333V31.6666H1.11133V38.8888L8.88911 38.3333Z" fill="#ED305C"/>
<mask id="mask0_768_2864" style="mask-type:luminance" maskUnits="userSpaceOnUse" x="0" y="0" width="40" height="40">
<path d="M40 0H0V40H40V0Z" fill="white"/>
</mask>
<g mask="url(#mask0_768_2864)">
<path d="M2.04372 39.9771C2.11945 39.9771 2.19783 39.9753 2.27881 39.9718C3.63554 39.9134 5.01131 39.8005 6.34146 39.691C6.91736 39.6437 7.49344 39.5962 8.06952 39.5529C9.58754 39.4387 10.1611 38.7756 10.0494 37.2636C10.0245 36.9263 10.0073 36.5904 9.99076 36.2659C9.98673 36.1861 9.98273 36.1076 9.97868 36.0304H30.0926C30.1047 36.0963 30.1121 36.1632 30.1144 36.2304V36.3801C30.1204 36.5738 30.1121 36.7675 30.0898 36.9602C29.9346 38.0448 30.0257 38.7154 30.385 39.1351C30.8159 39.6387 31.5921 39.7514 32.7047 39.7703C32.9802 39.7753 33.1911 39.7736 33.388 39.7653C33.8832 39.7449 34.3782 39.7215 34.8736 39.6983C35.8716 39.6518 36.9032 39.6032 37.9179 39.5786C39.2913 39.5451 39.8868 38.9685 39.909 37.6505C39.942 35.7099 39.9526 33.7736 39.9602 31.9564C39.9657 30.6908 39.5176 30.2352 38.2495 30.2166C37.7217 30.209 37.1898 30.2108 36.6265 30.2126C36.4136 30.2126 36.1941 30.2141 35.9675 30.2143V9.64281C36.0987 9.63366 36.2303 9.62462 36.3625 9.61569C36.7764 9.58744 37.2045 9.55823 37.629 9.52035C38.8845 9.40769 39.6369 9.04686 39.768 7.54057C39.9245 5.73635 39.9123 3.89177 39.9004 2.10794L39.8992 1.93062C39.8997 1.53457 39.7597 1.15111 39.5032 0.848196C39.247 0.545285 38.8916 0.3425 38.4997 0.275771C37.7214 0.120844 36.9275 0.0584647 36.1349 0.0899646C35.0587 0.119189 33.9668 0.180097 32.9108 0.239199C32.2485 0.276095 31.5865 0.312996 30.924 0.342873C29.8113 0.392833 29.4966 0.710048 29.4592 1.81862C29.4452 2.23397 29.4263 2.64918 29.4065 3.0562L29.3888 3.45144C25.7776 3.85959 11.4408 3.9853 9.26402 3.63232C9.25238 3.4854 9.24124 3.33766 9.22977 3.18893C9.19698 2.76002 9.16306 2.31676 9.12027 1.87676C8.99635 0.601162 8.57174 0.209643 7.30291 0.201153C5.73027 0.190541 4.01802 0.190221 1.91508 0.200017C1.33491 0.202629 0.947825 0.330626 0.697496 0.600666C0.440448 0.878219 0.342899 1.29324 0.39044 1.90582L0.403089 2.06695C0.443197 2.47872 0.461623 2.8923 0.458319 3.30596C0.435205 4.19169 0.402235 5.09225 0.370268 5.96311C0.343711 6.69486 0.316825 7.42661 0.295185 8.15871C0.280104 8.66988 0.386549 9.03544 0.620813 9.2769C0.852124 9.51511 1.20652 9.6322 1.70455 9.63449C2.18176 9.63449 2.66896 9.60002 3.18438 9.56118C3.37668 9.54681 3.57587 9.53177 3.78503 9.51806L3.34967 30.4931L3.34263 30.8266L2.93278 30.8795C2.45868 30.9403 1.94785 31.0058 1.43784 31.0764C0.787187 31.1663 0.470648 31.5409 0.439828 32.2553C0.352615 34.321 0.243056 36.0173 0.0969923 37.5942C0.012729 38.5014 0.142595 39.1009 0.505547 39.4807C0.826367 39.8173 1.31879 39.9771 2.04372 39.9771ZM2.18603 7.3961L1.92124 2.19201H7.06731V6.98432L2.18603 7.3961ZM9.35 5.94304C9.33982 5.81896 9.33007 5.69617 9.32078 5.57471H29.4171C29.4349 5.80573 29.4511 6.03625 29.4673 6.26661C29.5113 6.88898 29.5569 7.53242 29.6303 8.16279C29.7746 9.40359 30.3232 9.86712 31.5857 9.83449C32.0764 9.81962 32.5675 9.79642 33.0873 9.77192C33.2731 9.76311 33.4632 9.75423 33.6574 9.7453C33.2354 17.662 33.2265 24.2141 33.6295 30.3341L33.0521 30.3879C32.5095 30.4387 31.9916 30.487 31.4736 30.5348C30.7184 30.6037 30.3151 31.0186 30.2749 31.7675C30.2518 32.2 30.2093 32.6377 30.1642 33.1011C30.148 33.2709 30.1316 33.4453 30.1144 33.6256L9.89455 34.1356C9.86686 33.8998 9.84141 33.6767 9.81683 33.4626C9.75405 32.9134 9.7 32.4395 9.63392 31.9572C9.49179 30.9182 9.06751 30.5014 8.10159 30.5014C8.00992 30.5014 7.91339 30.5051 7.81207 30.5127C7.65503 30.5237 7.49797 30.53 7.34093 30.5363C7.1606 30.5439 6.98179 30.5509 6.80278 30.5653C6.57769 30.5831 6.35574 30.6093 6.0746 30.6425C5.98607 30.6525 5.89174 30.6639 5.78995 30.6749V9.3169C5.92108 9.30498 6.05653 9.29227 6.1962 9.27904C6.65225 9.23642 7.16949 9.18777 7.67736 9.15202C8.87638 9.06777 9.44903 8.44784 9.42838 7.25665C9.4205 6.8121 9.38476 6.37013 9.35 5.94304ZM37.4037 7.18893L32.1974 7.40294L31.7128 2.24688H33.1404C34.5083 2.24688 35.8313 2.24687 37.1541 2.24784C37.5782 2.24784 37.7311 2.40392 37.7379 2.84246C37.7607 4.30711 37.7518 5.74256 37.4037 7.18893ZM2.14785 37.6508V32.9014L7.54126 32.5564V37.1939L2.14785 37.6508ZM32.0063 32.363H37.9382L37.5736 37.2674H32.2599L32.0063 32.363Z" fill="#121416"/>
</g>
<path d="M53 4.94118C51.8652 4.94118 50.9412 5.86518 50.9412 7C50.9412 8.13482 51.8652 9.05882 53 9.05882C54.1348 9.05882 55.0588 8.13482 55.0588 7C55.0588 5.86518 54.1348 4.94118 53 4.94118ZM53 8.23529C52.3189 8.23529 51.7647 7.68106 51.7647 7C51.7647 6.31894 52.3189 5.76471 53 5.76471C53.6811 5.76471 54.2353 6.31894 54.2353 7C54.2353 7.68106 53.6811 8.23529 53 8.23529ZM59.9506 7.80212C59.9811 7.53776 60 7.27094 60 7C60 6.72906 59.9811 6.46224 59.9506 6.19788L57.8193 5.55718C57.7213 5.22612 57.5904 4.90906 57.4289 4.61094L58.4822 2.65341C58.1479 2.23341 57.7666 1.85212 57.3458 1.51694L55.3882 2.57106C55.0893 2.40965 54.7722 2.27953 54.4412 2.18071L53.8021 0.0494118C53.5386 0.0189412 53.2718 0 53 0C52.7282 0 52.4614 0.0189412 52.1979 0.0494118L51.5588 2.18071C51.2269 2.27871 50.9091 2.40965 50.6118 2.57188L48.6542 1.51776C48.2334 1.85212 47.8521 2.23341 47.5186 2.65424L48.5719 4.61012C48.4105 4.90824 48.2804 5.22612 48.1815 5.55718L46.0494 6.19788C46.0189 6.46141 46 6.72824 46 7C46 7.27176 46.0189 7.53859 46.0494 7.80212L48.1807 8.44118C48.2795 8.77306 48.4096 9.09094 48.5711 9.38906L47.5178 11.3458C47.8521 11.7666 48.2334 12.1479 48.6542 12.4822L50.6118 11.4289C50.9099 11.5904 51.2278 11.7205 51.5588 11.8193L52.1979 13.9506C52.4622 13.9811 52.7291 14 53 14C53.2709 14 53.5386 13.9811 53.8021 13.9506L54.4412 11.8193C54.7722 11.7205 55.0901 11.5904 55.3882 11.4289L57.3449 12.4822C57.7658 12.1471 58.1471 11.7658 58.4814 11.3449L57.4289 9.38824C57.5904 9.09012 57.7205 8.77224 57.8193 8.44118L59.9506 7.80212ZM57.1572 7.77988L57.0304 8.20647C56.948 8.484 56.8385 8.75 56.7042 8.99623L56.4934 9.38741L56.7034 9.77859L57.4874 11.2362C57.4059 11.3227 57.3219 11.4067 57.2354 11.4882L55.3882 10.4926L54.9971 10.7034C54.7492 10.8376 54.4832 10.9464 54.2065 11.0295L53.7799 11.1564L53.6522 11.5829L53.1754 13.174C53.1161 13.1756 53.0576 13.1765 53 13.1765C52.9424 13.1765 52.8839 13.1756 52.8246 13.174L52.3478 11.5829L52.2201 11.1564L51.7935 11.0295C51.5168 10.9472 51.2508 10.8376 51.0038 10.7034L50.6126 10.4926L48.7638 11.4866C48.6781 11.4051 48.5933 11.3211 48.5118 11.2346L49.5066 9.38659L49.2958 8.99541C49.1624 8.74835 49.0528 8.48235 48.9696 8.20482L48.8436 7.77906L46.8268 7.17459C46.8244 7.11529 46.8235 7.05682 46.8235 7C46.8235 6.94235 46.8244 6.88388 46.8268 6.82459L48.8428 6.22012L48.9696 5.79353C49.052 5.516 49.1615 5.25 49.2958 5.00376L49.5066 4.61259L48.5118 2.76376C48.5933 2.67812 48.6773 2.59329 48.7629 2.51177L50.6134 3.50824L51.0054 3.29494C51.25 3.16153 51.5152 3.052 51.7927 2.96965L52.2193 2.84282L52.3469 2.41624L52.8238 0.825176C52.8839 0.824353 52.9424 0.823529 53 0.823529C53.0576 0.823529 53.1161 0.824353 53.1754 0.826L53.6522 2.41706L53.7799 2.84365L54.2065 2.97047C54.4824 3.05282 54.7492 3.16235 54.9971 3.29659L55.3882 3.50659L57.2362 2.51177C57.3219 2.59329 57.4067 2.67729 57.4882 2.76376L56.7034 4.22141L56.4934 4.61259L56.7051 5.00376C56.8393 5.25082 56.948 5.516 57.0304 5.79188L57.1572 6.21847L57.5838 6.34612L59.1748 6.82459C59.1756 6.88388 59.1765 6.94235 59.1765 7C59.1765 7.05765 59.1756 7.11612 59.1732 7.17541L57.1572 7.77988Z" fill="#121416"/>
</g>
<defs>
<clipPath id="clip0_768_2864">
<rect width="60" height="60" fill="white"/>
</clipPath>
</defs>
</svg>
