<svg width="60" height="60" viewBox="0 0 60 60" fill="none" xmlns="http://www.w3.org/2000/svg">
<g clip-path="url(#clip0_279_174)">
<rect x="20.75" y="20.75" width="38.5" height="38.5" stroke="white" stroke-width="1.5" stroke-dasharray="3 3"/>
<path d="M7.77786 1.11108H1.66675V8.88886L7.77786 7.77775V1.11108Z" fill="#68A4EF"/>
<path d="M31.1112 8.33329L30.5557 1.66663H38.3334V8.33329H31.1112Z" fill="#F5617A"/>
<path d="M38.889 31.6666H30.5557L31.1112 38.3333H38.889V31.6666Z" fill="#68A4EF"/>
<path d="M8.88886 38.3333V31.6666H1.11108V38.8888L8.88886 38.3333Z" fill="#F5617A"/>
<mask id="mask0_279_174" style="mask-type:luminance" maskUnits="userSpaceOnUse" x="0" y="0" width="40" height="40">
<path d="M40 0H0V40H40V0Z" fill="white"/>
</mask>
<g mask="url(#mask0_279_174)">
<path d="M2.04323 39.9771C2.11897 39.9771 2.19734 39.9753 2.27832 39.9718C3.63505 39.9134 5.01082 39.8005 6.34098 39.691C6.91687 39.6437 7.49295 39.5962 8.06903 39.5529C9.58705 39.4387 10.1606 38.7756 10.049 37.2636C10.024 36.9263 10.0068 36.5904 9.99027 36.2659C9.98624 36.1861 9.98224 36.1076 9.97819 36.0304H30.0921C30.1042 36.0963 30.1116 36.1632 30.1139 36.2304V36.3801C30.1199 36.5738 30.1116 36.7675 30.0893 36.9602C29.9341 38.0448 30.0253 38.7154 30.3845 39.1351C30.8154 39.6387 31.5916 39.7514 32.7042 39.7703C32.9797 39.7753 33.1906 39.7736 33.3875 39.7653C33.8827 39.7449 34.3777 39.7215 34.8731 39.6983C35.8711 39.6518 36.9027 39.6032 37.9174 39.5786C39.2908 39.5451 39.8863 38.9685 39.9086 37.6505C39.9415 35.7099 39.9521 33.7736 39.9597 31.9564C39.9653 30.6908 39.5172 30.2352 38.2491 30.2166C37.7212 30.209 37.1893 30.2108 36.626 30.2126C36.4131 30.2126 36.1936 30.2141 35.967 30.2143V9.64281C36.0982 9.63366 36.2298 9.62462 36.362 9.61569C36.7759 9.58744 37.204 9.55823 37.6285 9.52035C38.884 9.40769 39.6364 9.04686 39.7675 7.54057C39.924 5.73635 39.9118 3.89177 39.8999 2.10794L39.8987 1.93062C39.8992 1.53457 39.7592 1.15111 39.5027 0.848196C39.2465 0.545285 38.8911 0.3425 38.4992 0.275771C37.721 0.120844 36.927 0.0584647 36.1344 0.0899646C35.0582 0.119189 33.9663 0.180097 32.9103 0.239199C32.248 0.276095 31.586 0.312996 30.9235 0.342873C29.8108 0.392833 29.4961 0.710048 29.4587 1.81862C29.4448 2.23397 29.4258 2.64918 29.406 3.0562L29.3883 3.45144C25.7772 3.85959 11.4403 3.9853 9.26353 3.63232C9.25189 3.4854 9.24075 3.33766 9.22928 3.18893C9.19649 2.76002 9.16257 2.31676 9.11979 1.87676C8.99586 0.601162 8.57125 0.209643 7.30242 0.201153C5.72979 0.190541 4.01753 0.190221 1.91459 0.200017C1.33443 0.202629 0.947337 0.330626 0.697008 0.600666C0.43996 0.878219 0.34241 1.29324 0.389952 1.90582L0.4026 2.06695C0.442709 2.47872 0.461134 2.8923 0.457831 3.30596C0.434717 4.19169 0.401747 5.09225 0.36978 5.96311C0.343223 6.69486 0.316337 7.42661 0.294696 8.15871C0.279615 8.66988 0.386061 9.03544 0.620324 9.2769C0.851636 9.51511 1.20604 9.6322 1.70406 9.63449C2.18128 9.63449 2.66847 9.60002 3.18389 9.56118C3.37619 9.54681 3.57538 9.53177 3.78454 9.51806L3.34918 30.4931L3.34214 30.8266L2.93229 30.8795C2.45819 30.9403 1.94736 31.0058 1.43735 31.0764C0.786699 31.1663 0.47016 31.5409 0.439339 32.2553C0.352127 34.321 0.242567 36.0173 0.096504 37.5942C0.0122407 38.5014 0.142107 39.1009 0.505059 39.4807C0.825879 39.8173 1.31831 39.9771 2.04323 39.9771ZM2.18554 7.3961L1.92075 2.19201H7.06682V6.98432L2.18554 7.3961ZM9.34951 5.94304C9.33933 5.81896 9.32958 5.69617 9.32029 5.57471H29.4167C29.4344 5.80573 29.4506 6.03625 29.4668 6.26661C29.5108 6.88898 29.5564 7.53242 29.6298 8.16279C29.7741 9.40359 30.3227 9.86712 31.5853 9.83449C32.0759 9.81962 32.567 9.79642 33.0868 9.77192C33.2726 9.76311 33.4627 9.75423 33.6569 9.7453C33.2349 17.662 33.226 24.2141 33.6291 30.3341L33.0516 30.3879C32.5091 30.4387 31.9911 30.487 31.4731 30.5348C30.7179 30.6037 30.3146 31.0186 30.2744 31.7675C30.2513 32.2 30.2088 32.6377 30.1637 33.1011C30.1475 33.2709 30.1311 33.4453 30.1139 33.6256L9.89406 34.1356C9.86637 33.8998 9.84093 33.6767 9.81634 33.4626C9.75356 32.9134 9.69951 32.4395 9.63343 31.9572C9.4913 30.9182 9.06703 30.5014 8.1011 30.5014C8.00943 30.5014 7.9129 30.5051 7.81158 30.5127C7.65455 30.5237 7.49748 30.53 7.34044 30.5363C7.16012 30.5439 6.98131 30.5509 6.80229 30.5653C6.5772 30.5831 6.35525 30.6093 6.07411 30.6425C5.98558 30.6525 5.89125 30.6639 5.78946 30.6749V9.3169C5.9206 9.30498 6.05604 9.29227 6.19571 9.27904C6.65176 9.23642 7.169 9.18777 7.67687 9.15202C8.87589 9.06777 9.44854 8.44784 9.42789 7.25665C9.42001 6.8121 9.38427 6.37013 9.34951 5.94304ZM37.4032 7.18893L32.1969 7.40294L31.7123 2.24688H33.1399C34.5078 2.24688 35.8308 2.24687 37.1536 2.24784C37.5777 2.24784 37.7306 2.40392 37.7374 2.84246C37.7602 4.30711 37.7513 5.74256 37.4032 7.18893ZM2.14736 37.6508V32.9014L7.54077 32.5564V37.1939L2.14736 37.6508ZM32.0058 32.363H37.9377L37.5731 37.2674H32.2594L32.0058 32.363Z" fill="white"/>
</g>
<path d="M53 4.94118C51.8652 4.94118 50.9412 5.86518 50.9412 7C50.9412 8.13482 51.8652 9.05882 53 9.05882C54.1348 9.05882 55.0588 8.13482 55.0588 7C55.0588 5.86518 54.1348 4.94118 53 4.94118ZM53 8.23529C52.3189 8.23529 51.7647 7.68106 51.7647 7C51.7647 6.31894 52.3189 5.76471 53 5.76471C53.6811 5.76471 54.2353 6.31894 54.2353 7C54.2353 7.68106 53.6811 8.23529 53 8.23529ZM59.9506 7.80212C59.9811 7.53776 60 7.27094 60 7C60 6.72906 59.9811 6.46224 59.9506 6.19788L57.8193 5.55718C57.7213 5.22612 57.5904 4.90906 57.4289 4.61094L58.4822 2.65341C58.1479 2.23341 57.7666 1.85212 57.3458 1.51694L55.3882 2.57106C55.0893 2.40965 54.7722 2.27953 54.4412 2.18071L53.8021 0.0494118C53.5386 0.0189412 53.2718 0 53 0C52.7282 0 52.4614 0.0189412 52.1979 0.0494118L51.5588 2.18071C51.2269 2.27871 50.9091 2.40965 50.6118 2.57188L48.6542 1.51776C48.2334 1.85212 47.8521 2.23341 47.5186 2.65424L48.5719 4.61012C48.4105 4.90824 48.2804 5.22612 48.1815 5.55718L46.0494 6.19788C46.0189 6.46141 46 6.72824 46 7C46 7.27176 46.0189 7.53859 46.0494 7.80212L48.1807 8.44118C48.2795 8.77306 48.4096 9.09094 48.5711 9.38906L47.5178 11.3458C47.8521 11.7666 48.2334 12.1479 48.6542 12.4822L50.6118 11.4289C50.9099 11.5904 51.2278 11.7205 51.5588 11.8193L52.1979 13.9506C52.4622 13.9811 52.7291 14 53 14C53.2709 14 53.5386 13.9811 53.8021 13.9506L54.4412 11.8193C54.7722 11.7205 55.0901 11.5904 55.3882 11.4289L57.3449 12.4822C57.7658 12.1471 58.1471 11.7658 58.4814 11.3449L57.4289 9.38824C57.5904 9.09012 57.7205 8.77224 57.8193 8.44118L59.9506 7.80212ZM57.1572 7.77988L57.0304 8.20647C56.948 8.484 56.8385 8.75 56.7042 8.99623L56.4934 9.38741L56.7034 9.77859L57.4874 11.2362C57.4059 11.3227 57.3219 11.4067 57.2354 11.4882L55.3882 10.4926L54.9971 10.7034C54.7492 10.8376 54.4832 10.9464 54.2065 11.0295L53.7799 11.1564L53.6522 11.5829L53.1754 13.174C53.1161 13.1756 53.0576 13.1765 53 13.1765C52.9424 13.1765 52.8839 13.1756 52.8246 13.174L52.3478 11.5829L52.2201 11.1564L51.7935 11.0295C51.5168 10.9472 51.2508 10.8376 51.0038 10.7034L50.6126 10.4926L48.7638 11.4866C48.6781 11.4051 48.5933 11.3211 48.5118 11.2346L49.5066 9.38659L49.2958 8.99541C49.1624 8.74835 49.0528 8.48235 48.9696 8.20482L48.8436 7.77906L46.8268 7.17459C46.8244 7.11529 46.8235 7.05682 46.8235 7C46.8235 6.94235 46.8244 6.88388 46.8268 6.82459L48.8428 6.22012L48.9696 5.79353C49.052 5.516 49.1615 5.25 49.2958 5.00376L49.5066 4.61259L48.5118 2.76376C48.5933 2.67812 48.6773 2.59329 48.7629 2.51177L50.6134 3.50824L51.0054 3.29494C51.25 3.16153 51.5152 3.052 51.7927 2.96965L52.2193 2.84282L52.3469 2.41624L52.8238 0.825176C52.8839 0.824353 52.9424 0.823529 53 0.823529C53.0576 0.823529 53.1161 0.824353 53.1754 0.826L53.6522 2.41706L53.7799 2.84365L54.2065 2.97047C54.4824 3.05282 54.7492 3.16235 54.9971 3.29659L55.3882 3.50659L57.2362 2.51177C57.3219 2.59329 57.4067 2.67729 57.4882 2.76376L56.7034 4.22141L56.4934 4.61259L56.7051 5.00376C56.8393 5.25082 56.948 5.516 57.0304 5.79188L57.1572 6.21847L57.5838 6.34612L59.1748 6.82459C59.1756 6.88388 59.1765 6.94235 59.1765 7C59.1765 7.05765 59.1756 7.11612 59.1732 7.17541L57.1572 7.77988Z" fill="white"/>
</g>
<defs>
<clipPath id="clip0_279_174">
<rect width="60" height="60" fill="white"/>
</clipPath>
</defs>
</svg>
