<svg width="60" height="60" viewBox="0 0 60 60" fill="none" xmlns="http://www.w3.org/2000/svg">
<rect x="1" y="7" width="56" height="44" rx="2" stroke="#121416" stroke-width="2"/>
<rect y="13" width="57" height="1" fill="#121416"/>
<path d="M57.2718 43.9327C49.874 43.9327 43.8213 37.8799 43.8213 30.4821C43.8213 23.0843 49.874 17.0316 57.2718 17.0316" stroke="#121416" stroke-miterlimit="10" stroke-linecap="round" stroke-linejoin="round"/>
<path d="M43.8213 43.8393L43.8213 16.9382" stroke="#121416" stroke-miterlimit="10" stroke-linecap="round" stroke-linejoin="round"/>
<path d="M46.2998 43.6607C46.2998 42.28 45.1805 41.1607 43.7998 41.1607C42.4191 41.1607 41.2998 42.28 41.2998 43.6607C41.2998 45.0414 42.4191 46.1607 43.7998 46.1607C45.1805 46.1607 46.2998 45.0414 46.2998 43.6607Z" fill="#ED305C" stroke="#121416" stroke-miterlimit="10" stroke-linecap="round" stroke-linejoin="round"/>
<path d="M46.2998 16.6428C46.2998 15.2621 45.1805 14.1428 43.7998 14.1428C42.4191 14.1428 41.2998 15.2621 41.2998 16.6428C41.2998 18.0235 42.4191 19.1428 43.7998 19.1428C45.1805 19.1428 46.2998 18.0235 46.2998 16.6428Z" fill="#ED305C" stroke="#121416" stroke-miterlimit="10" stroke-linecap="round" stroke-linejoin="round"/>
<path d="M41.7998 27.1964C41.5237 27.1964 41.2998 27.4203 41.2998 27.6964L41.2998 31.6964C41.2998 31.9726 41.5237 32.1964 41.7998 32.1964L45.7998 32.1964C46.0759 32.1964 46.2998 31.9726 46.2998 31.6964L46.2998 27.6964C46.2998 27.4203 46.0759 27.1964 45.7998 27.1964L41.7998 27.1964Z" fill="#3B6AFC" stroke="#121416" stroke-miterlimit="10" stroke-linecap="round" stroke-linejoin="round"/>
<path d="M55 41.1607C54.7239 41.1607 54.5 41.3846 54.5 41.6607L54.5 45.6607C54.5 45.9368 54.7239 46.1607 55 46.1607L59 46.1607C59.2761 46.1607 59.5 45.9368 59.5 45.6607L59.5 41.6607C59.5 41.3846 59.2761 41.1607 59 41.1607L55 41.1607Z" fill="#3B6AFC" stroke="#121416" stroke-miterlimit="10" stroke-linecap="round" stroke-linejoin="round"/>
<path d="M55 14.4464C54.7239 14.4464 54.5 14.6703 54.5 14.9464L54.5 18.9464C54.5 19.2226 54.7239 19.4464 55 19.4464L59 19.4464C59.2761 19.4464 59.5 19.2226 59.5 18.9464L59.5 14.9464C59.5 14.6703 59.2761 14.4464 59 14.4464L55 14.4464Z" fill="#3B6AFC" stroke="#121416" stroke-miterlimit="10" stroke-linecap="round" stroke-linejoin="round"/>
<circle cx="5.5" cy="10.5" r="1" stroke="#121416"/>
<circle cx="9.5" cy="10.5" r="1" stroke="#121416"/>
<circle cx="13.5" cy="10.5" r="1" stroke="#121416"/>
<rect x="8.5" y="18.5" width="23" height="23" fill="white" stroke="#959595" stroke-dasharray="2 2"/>
<mask id="path-14-inside-1_768_2785" fill="white">
<path fill-rule="evenodd" clip-rule="evenodd" d="M4.09295 41.9385L12.6071 36.0384C12.6795 35.9885 12.7721 35.9885 12.8428 36.0312C12.9131 36.0687 12.9596 36.1442 12.9569 36.2295L12.5925 46.5824C12.5888 46.6724 12.5304 46.7512 12.4441 46.78C12.3588 46.8087 12.2642 46.7809 12.2077 46.7113L10.4009 44.481L8.52826 47.8881C8.47077 47.992 8.33909 48.0309 8.23431 47.9734L6.82704 47.2008L5.27612 46.357C5.17134 46.2995 5.13239 46.1687 5.18989 46.0639L7.04447 42.6476L4.19217 42.3317C4.10223 42.3215 4.02804 42.2575 4.00579 42.1694C3.98446 42.0822 4.01877 41.9904 4.09295 41.9385Z"/>
</mask>
<path fill-rule="evenodd" clip-rule="evenodd" d="M4.09295 41.9385L12.6071 36.0384C12.6795 35.9885 12.7721 35.9885 12.8428 36.0312C12.9131 36.0687 12.9596 36.1442 12.9569 36.2295L12.5925 46.5824C12.5888 46.6724 12.5304 46.7512 12.4441 46.78C12.3588 46.8087 12.2642 46.7809 12.2077 46.7113L10.4009 44.481L8.52826 47.8881C8.47077 47.992 8.33909 48.0309 8.23431 47.9734L6.82704 47.2008L5.27612 46.357C5.17134 46.2995 5.13239 46.1687 5.18989 46.0639L7.04447 42.6476L4.19217 42.3317C4.10223 42.3215 4.02804 42.2575 4.00579 42.1694C3.98446 42.0822 4.01877 41.9904 4.09295 41.9385Z" fill="white"/>
<path d="M12.6071 36.0384L12.0375 35.2164L12.0399 35.2148L12.6071 36.0384ZM4.09295 41.9385L3.51948 41.1193L3.52337 41.1166L4.09295 41.9385ZM12.8428 36.0312L12.3715 36.9131L12.3485 36.9008L12.3261 36.8873L12.8428 36.0312ZM12.9569 36.2295L13.9565 36.2605L13.9563 36.2647L12.9569 36.2295ZM12.5925 46.5824L13.5919 46.6176L13.5916 46.6236L12.5925 46.5824ZM12.4441 46.78L12.1248 45.8323L12.1279 45.8313L12.4441 46.78ZM12.2077 46.7113L11.4319 47.3423L11.4307 47.3408L12.2077 46.7113ZM10.4009 44.481L9.52455 43.9994L10.2413 42.6954L11.1779 43.8516L10.4009 44.481ZM8.52826 47.8881L9.40461 48.3698L9.40315 48.3724L8.52826 47.8881ZM8.23431 47.9734L7.75331 48.8501L7.75304 48.85L8.23431 47.9734ZM6.82704 47.2008L7.30496 46.3224L7.3083 46.3242L6.82704 47.2008ZM5.27612 46.357L4.7982 47.2354L4.79506 47.2337L5.27612 46.357ZM5.18989 46.0639L6.06875 46.541L6.06659 46.545L5.18989 46.0639ZM7.04447 42.6476L7.15455 41.6536L8.63298 41.8174L7.92333 43.1247L7.04447 42.6476ZM4.19217 42.3317L4.08209 43.3256L4.07952 43.3253L4.19217 42.3317ZM4.00579 42.1694L3.03623 42.4143L3.03444 42.407L4.00579 42.1694ZM13.1767 36.8603L4.66254 42.7604L3.52337 41.1166L12.0376 35.2164L13.1767 36.8603ZM12.3261 36.8873C12.5807 37.041 12.9128 37.0421 13.1743 36.8619L12.0399 35.2148C12.4463 34.9349 12.9634 34.9359 13.3596 35.175L12.3261 36.8873ZM11.9574 36.1985C11.948 36.5023 12.1147 36.7759 12.3715 36.9131L13.3142 35.1492C13.7116 35.3616 13.9712 35.786 13.9564 36.2605L11.9574 36.1985ZM11.5931 46.5473L11.9575 36.1943L13.9563 36.2647L13.5919 46.6176L11.5931 46.5473ZM12.1279 45.8313C11.816 45.9352 11.6066 46.2206 11.5933 46.5412L13.5916 46.6236C13.571 47.1242 13.2447 47.5672 12.7604 47.7286L12.1279 45.8313ZM12.9835 46.0804C12.7788 45.8287 12.4379 45.7268 12.1248 45.8323L12.7634 47.7276C12.2797 47.8906 11.7497 47.733 11.4319 47.3423L12.9835 46.0804ZM11.1779 43.8516L12.9847 46.0819L11.4307 47.3408L9.62388 45.1105L11.1779 43.8516ZM7.65191 47.4064L9.52455 43.9994L11.2773 44.9627L9.40461 48.3698L7.65191 47.4064ZM8.71531 47.0967C8.33334 46.8871 7.86051 47.0296 7.65337 47.4038L9.40315 48.3724C9.08102 48.9543 8.34485 49.1747 7.75331 48.8501L8.71531 47.0967ZM7.3083 46.3242L8.71557 47.0968L7.75304 48.85L6.34578 48.0774L7.3083 46.3242ZM5.75404 45.4786L7.30496 46.3224L6.34912 48.0792L4.7982 47.2354L5.75404 45.4786ZM6.06659 46.545C6.27808 46.1595 6.13048 45.6851 5.75718 45.4803L4.79506 47.2337C4.2122 46.9138 3.98671 46.1779 4.31318 45.5829L6.06659 46.545ZM7.92333 43.1247L6.06874 46.541L4.31103 45.5869L6.16561 42.1705L7.92333 43.1247ZM4.30226 41.3377L7.15455 41.6536L6.93439 43.6415L4.08209 43.3256L4.30226 41.3377ZM4.97533 41.9244C4.8944 41.6041 4.62352 41.3742 4.30483 41.338L4.07952 43.3253C3.58093 43.2688 3.16169 42.9108 3.03625 42.4143L4.97533 41.9244ZM4.66642 42.7577C4.93017 42.5731 5.05382 42.2452 4.97714 41.9317L3.03444 42.407C2.9151 41.9193 3.10737 41.4077 3.51949 41.1193L4.66642 42.7577Z" fill="#121416" mask="url(#path-14-inside-1_768_2785)"/>
</svg>
