<svg width="500" height="482" viewBox="0 0 500 482" fill="none" xmlns="http://www.w3.org/2000/svg">
<path d="M485.208 189.939C429.706 94.9541 279.152 128.781 248.406 82.586C232.657 58.9649 215.041 31.5094 189.488 17.2525C165.13 3.59871 136.889 -1.19151 112.269 0.606245C24.3469 7.03492 -12.9242 85.6354 3.96338 171.95C26.5105 287.086 128.656 404.702 250.001 405.522C313.474 405.999 374.124 383.243 421.609 351.236L422.668 350.519C470.154 318.217 527.592 262.452 485.208 189.939Z" fill="#0C8CE9" fill-opacity="0.1"/>
<g filter="url(#filter0_d_96_461)">
<path d="M455.59 103.931V308.807C455.59 315.504 452.928 321.927 448.189 326.664C443.451 331.401 437.024 334.063 430.321 334.066H69.6804C62.9776 334.063 56.5505 331.401 51.812 326.664C47.0735 321.927 44.4116 315.504 44.4116 308.807V103.931C44.4116 103.328 44.4116 102.794 44.4913 102.156C44.9353 95.7832 47.7818 89.8154 52.4566 85.457C57.1314 81.0985 63.2865 78.6737 69.6804 78.6719H430.321C436.722 78.6745 442.883 81.1056 447.559 85.4736C452.235 89.8416 455.077 95.8206 455.51 102.202C455.567 102.748 455.59 103.34 455.59 103.931Z" fill="white"/>
<path d="M455.59 103.931V308.807C455.59 315.504 452.928 321.927 448.189 326.664C443.451 331.401 437.024 334.063 430.321 334.066H69.6804C62.9776 334.063 56.5505 331.401 51.812 326.664C47.0735 321.927 44.4116 315.504 44.4116 308.807V103.931C44.4116 103.328 44.4116 102.794 44.4913 102.156C44.9353 95.7832 47.7818 89.8154 52.4566 85.457C57.1314 81.0985 63.2865 78.6737 69.6804 78.6719H430.321C436.722 78.6745 442.883 81.1056 447.559 85.4736C452.235 89.8416 455.077 95.8206 455.51 102.202C455.567 102.748 455.59 103.34 455.59 103.931Z" stroke="#263238" stroke-width="1.1" stroke-linecap="round" stroke-linejoin="round"/>
</g>
<path d="M56.7101 111.623H444.578V300.876C444.578 307.153 442.082 313.173 437.64 317.611C433.199 322.049 427.174 324.543 420.892 324.543H80.396C74.1141 324.543 68.0895 322.049 63.6475 317.611C59.2056 313.173 56.7101 307.153 56.7101 300.876V111.623Z" fill="#F6F7F9"/>
<path d="M221.691 224.988C223.044 212.32 226.52 200.313 231.904 189.714C235.836 182.02 240.71 175.124 247.8 171.636C250.638 170.225 253.86 169.523 256.76 171.05C258.267 171.918 259.583 173.256 260.571 174.923C261.861 176.995 262.347 179.654 262.759 182.104C263.203 184.88 263.501 187.679 264.023 190.433C264.708 194.085 265.332 197.73 265.731 201.419C266.601 208.486 266.529 215.601 265.519 222.479C264.568 228.384 262.677 233.888 260.91 239.406C259.101 245.083 257.189 250.878 259.191 257.242C261.084 263.217 266.286 266.02 271.04 265.124C276.178 264.167 279.833 259.415 282.639 254.493C285.672 249.137 288.184 243.336 290.13 237.199C292.064 230.924 293.464 224.38 294.308 217.665C295.998 205.255 296.945 191.379 304.634 182.508C307.839 178.802 312.09 176.123 316.764 176.638C318.758 176.912 320.716 177.664 322.526 178.853C324.335 180.042 325.962 181.644 327.312 183.568C330.239 187.605 332.258 192.486 333.147 197.672C334.279 204.158 333.723 210.88 332.559 217.107C331.481 222.873 330.067 228.509 328.328 233.973C327.305 237.177 326.12 240.256 325.027 243.446C322.397 251.042 319.627 259.203 319.354 267.735C319.267 271.443 319.682 275.307 321.444 278.601C322.369 280.22 323.548 281.602 324.905 282.655C326.262 283.709 327.765 284.41 329.315 284.713C332.678 285.437 336.057 284.058 338.884 282.2C342.297 279.861 345.421 276.967 348.177 273.589C353.254 267.576 358.04 260.635 361.145 252.743C364.634 243.934 365.597 233.648 369.588 225.131C371.686 220.531 374.712 216.724 378.398 214.048C379.767 213.047 381.349 212.52 382.989 212.518C384.404 212.611 385.798 213.179 387.021 214.16C389.866 216.45 391.806 220.173 393.041 224.033C393.663 226.021 394.074 228.082 394.266 230.165C394.506 232.77 394.232 235.771 394.164 238.535C393.811 253.061 394.299 268.012 397.877 282.316C398.951 286.617 400.329 291.243 402.858 294.651C404.135 296.477 405.822 297.794 407.677 298.413C408.851 298.722 410.047 298.745 411.196 298.48C412.345 298.214 413.424 297.667 414.371 296.868C418.803 293.406 419.974 286.755 420.905 280.684C420.933 280.139 420.784 279.586 420.492 279.147C420.199 278.707 419.786 278.415 419.341 278.334C418.897 278.27 418.462 278.419 418.127 278.748C417.791 279.078 417.581 279.564 417.539 280.104C416.721 285.437 415.473 293.142 410.396 294.394C409.65 294.605 408.859 294.578 408.096 294.317C407.334 294.056 406.623 293.568 406.028 292.898C404.82 291.486 403.843 289.803 403.159 287.952C401.17 283.077 400.185 277.847 399.325 272.469C398.17 265.021 397.555 257.507 397.487 250.016C397.435 246.289 397.472 242.572 397.559 238.865C397.742 235.923 397.766 232.956 397.633 229.983C397.231 225.416 395.913 220.967 393.798 217.042C391.862 213.429 389.053 210.176 385.663 208.939C381.53 207.431 377.816 209.177 374.607 212.002C371.084 215.144 368.216 219.249 366.206 224.028C364.454 228.428 363.034 233.038 361.962 237.804C360.763 242.621 359.554 247.508 357.674 251.934C356.134 255.418 354.328 258.699 352.279 261.734C349.952 265.334 347.397 268.696 344.637 271.792C341.934 274.766 338.991 277.642 335.594 279.422C334.25 280.19 332.788 280.641 331.277 280.756C330.646 280.795 330.008 280.732 329.379 280.568C328.706 280.386 328.047 280.111 327.414 279.747C326.816 279.442 326.253 279.029 325.745 278.523L325.357 278.136L325.169 277.937C324.921 277.636 324.689 277.317 324.473 276.981C323.766 275.839 323.269 274.531 323.019 273.156C322.367 269.761 322.687 266.025 323.273 262.593C324.05 258.401 325.097 254.313 326.405 250.368C327.579 246.664 328.894 243.04 330.173 239.396C331.511 235.616 332.611 231.746 333.641 227.828C336.769 215.824 339.058 202.234 334.39 189.688C330.555 179.423 322.274 171.005 313 172.64C302.702 174.456 296.401 186.239 293.864 197.726C292.413 204.244 291.753 211.033 290.822 217.697C289.951 224.307 288.496 230.731 286.482 236.859C284.513 242.847 281.94 248.465 278.819 253.587C276.199 257.886 272.431 261.971 267.52 260.994C266.501 260.822 265.515 260.338 264.654 259.588C263.793 258.837 263.085 257.843 262.595 256.698C261.635 254.16 261.38 251.355 261.873 248.74C262.342 245.768 263.476 242.918 264.364 240.15C265.253 237.381 266.148 234.654 266.936 231.851C268.677 225.783 269.603 219.343 269.68 212.775C269.665 205.321 268.912 197.834 267.44 190.48C266.392 185.073 266.371 178.909 263.955 173.95C262.977 171.874 261.629 170.08 260.021 168.717C258.414 167.354 256.592 166.46 254.707 166.109C251.094 165.518 247.51 166.845 244.427 168.761C241.189 170.808 238.246 173.451 235.69 176.605C232.794 180.3 230.289 184.437 228.226 188.93C225.578 194.399 223.399 200.219 221.72 206.303C220.112 212.15 218.975 218.212 218.325 224.408C218.059 226.992 221.412 227.617 221.693 224.996L221.691 224.988Z" fill="#E1E7E9" stroke="#E1E7E9" stroke-width="8"/>
<path d="M455.51 102.202H44.4913C44.9353 95.8286 47.7818 89.8608 52.4566 85.5024C57.1314 81.1439 63.2865 78.7191 69.6804 78.7173H430.321C436.715 78.7191 442.87 81.1439 447.545 85.5024C452.219 89.8608 455.066 95.8286 455.51 102.202Z" fill="#0C8CE9" stroke="#263238" stroke-width="1.1" stroke-miterlimit="10"/>
<path d="M94.9946 90.414C94.9946 91.2984 94.7321 92.163 94.2404 92.8983C93.7486 93.6337 93.0497 94.2068 92.232 94.5452C91.4142 94.8837 90.5144 94.9722 89.6463 94.7997C88.7781 94.6272 87.9807 94.2013 87.3548 93.5759C86.729 92.9506 86.3027 92.1538 86.1301 91.2864C85.9574 90.419 86.046 89.5199 86.3847 88.7028C86.7235 87.8857 87.2971 87.1873 88.033 86.696C88.769 86.2046 89.6342 85.9424 90.5193 85.9424C91.7062 85.9424 92.8446 86.4135 93.6838 87.2521C94.5231 88.0907 94.9946 89.2281 94.9946 90.414Z" fill="#263238"/>
<path d="M113.921 90.414C113.921 91.2984 113.658 92.163 113.166 92.8983C112.675 93.6337 111.976 94.2068 111.158 94.5452C110.34 94.8837 109.44 94.9722 108.572 94.7997C107.704 94.6272 106.907 94.2013 106.281 93.5759C105.655 92.9506 105.229 92.1538 105.056 91.2864C104.883 90.419 104.972 89.5199 105.311 88.7028C105.649 87.8857 106.223 87.1873 106.959 86.696C107.695 86.2046 108.56 85.9424 109.445 85.9424C110.632 85.9424 111.771 86.4135 112.61 87.2521C113.449 88.0907 113.921 89.2281 113.921 90.414Z" fill="#263238"/>
<path d="M128.371 94.8856C130.843 94.8856 132.847 92.8836 132.847 90.414C132.847 87.9444 130.843 85.9424 128.371 85.9424C125.9 85.9424 123.896 87.9444 123.896 90.414C123.896 92.8836 125.9 94.8856 128.371 94.8856Z" fill="#263238"/>
<path d="M444.578 111.623V300.876C444.578 307.153 442.082 313.173 437.64 317.611C433.198 322.049 427.174 324.543 420.892 324.543H80.4073C74.9246 324.542 69.6121 322.64 65.3758 319.163C61.1395 315.685 58.2418 310.847 57.1769 305.473V305.405C56.8874 303.905 56.7425 302.381 56.7442 300.854V111.623H444.578Z" stroke="#263238" stroke-width="1.1" stroke-miterlimit="10"/>
<path d="M393.22 66.1216V132.707C393.22 135.043 392.76 137.357 391.864 139.515C390.969 141.673 389.657 143.634 388.003 145.286C386.349 146.938 384.386 148.247 382.225 149.14C380.064 150.033 377.749 150.492 375.41 150.491H221.93C219.592 150.492 217.276 150.033 215.116 149.14C212.955 148.247 210.992 146.938 209.338 145.286C207.684 143.634 206.372 141.673 205.476 139.515C204.581 137.357 204.12 135.043 204.12 132.707V66.1216C204.124 61.4029 206.001 56.8783 209.34 53.5417C212.68 50.205 217.208 48.3292 221.93 48.3262H375.41C380.134 48.3262 384.664 50.201 388.004 53.5383C391.344 56.8756 393.22 61.402 393.22 66.1216Z" fill="white" stroke="#263238" stroke-width="1.1" stroke-miterlimit="10"/>
<path d="M393.22 66.1216V67.6463H204.12V66.1216C204.124 61.4029 206.001 56.8783 209.34 53.5417C212.68 50.205 217.208 48.3292 221.93 48.3262H375.41C380.134 48.3262 384.664 50.201 388.004 53.5383C391.344 56.8756 393.22 61.402 393.22 66.1216Z" fill="#0C8CE9" stroke="#263238" stroke-width="1.1" stroke-miterlimit="10"/>
<path d="M231.906 61.1721C231.524 61.5546 231.037 61.8154 230.507 61.9213C229.976 62.0272 229.426 61.9735 228.927 61.767C228.427 61.5605 228 61.2105 227.699 60.7613C227.398 60.3121 227.238 59.7838 227.238 59.2435C227.238 58.7031 227.398 58.1749 227.699 57.7256C228 57.2764 228.427 56.9264 228.927 56.7199C229.426 56.5134 229.976 56.4597 230.507 56.5657C231.037 56.6716 231.524 56.9323 231.906 57.3149C232.414 57.8282 232.699 58.5213 232.699 59.2435C232.699 59.9657 232.414 60.6587 231.906 61.1721Z" fill="#263238"/>
<path d="M244.569 61.1721C244.187 61.5546 243.7 61.8154 243.169 61.9213C242.639 62.0272 242.089 61.9735 241.59 61.767C241.09 61.5605 240.663 61.2105 240.362 60.7613C240.061 60.3121 239.901 59.7838 239.901 59.2435C239.901 58.7031 240.061 58.1749 240.362 57.7256C240.663 57.2764 241.09 56.9264 241.59 56.7199C242.089 56.5134 242.639 56.4597 243.169 56.5657C243.7 56.6716 244.187 56.9323 244.569 57.3149C245.077 57.8282 245.362 58.5213 245.362 59.2435C245.362 59.9657 245.077 60.6587 244.569 61.1721Z" fill="#263238"/>
<path d="M257.232 61.1721C256.85 61.5546 256.363 61.8154 255.832 61.9213C255.302 62.0272 254.752 61.9735 254.252 61.767C253.753 61.5605 253.325 61.2105 253.025 60.7613C252.724 60.3121 252.564 59.7838 252.564 59.2435C252.564 58.7031 252.724 58.1749 253.025 57.7256C253.325 57.2764 253.753 56.9264 254.252 56.7199C254.752 56.5134 255.302 56.4597 255.832 56.5657C256.363 56.6716 256.85 56.9323 257.232 57.3149C257.74 57.8282 258.025 58.5213 258.025 59.2435C258.025 59.9657 257.74 60.6587 257.232 61.1721Z" fill="#263238"/>
<path d="M277.991 79.8894H216.18V133.276H277.991V79.8894Z" stroke="#263238" stroke-width="1.1" stroke-linecap="round" stroke-linejoin="round" stroke-dasharray="4.41 4.41"/>
<path d="M358.66 79.8894H287.522V83.6442H358.66V79.8894Z" fill="#E1E7E9"/>
<path d="M342.091 87.6606H287.522V91.4041H342.091V87.6606Z" fill="#E1E7E9"/>
<path d="M368.772 95.3979H287.522V99.1869H368.772V95.3979Z" fill="#E1E7E9"/>
<path d="M356.712 102.941H287.522V106.73H356.712V102.941Z" fill="#E1E7E9"/>
<path d="M303.362 453.185C303.362 453.185 270.338 462.64 265.727 464.278C261.536 465.758 250.171 469.74 241.642 468.5C240.819 468.381 240.005 468.207 239.205 467.976C230.562 465.405 226.679 463.004 225.54 457.577C224.402 452.149 228.706 448.144 232.851 445.584C236.996 443.024 259.475 440.35 259.475 440.35L264.907 441.943L303.362 453.185Z" fill="white"/>
<path d="M241.642 468.5C240.819 468.381 240.005 468.207 239.205 467.976C230.562 465.405 226.679 463.004 225.54 457.577C224.402 452.149 228.706 448.144 232.851 445.584C236.996 443.024 259.475 440.35 259.475 440.35L264.907 441.943C259.987 444.219 241.676 445.459 237.679 447.757C233.682 450.056 231.758 454.379 234.115 460.273C235.379 463.345 238.75 466.361 241.642 468.5Z" fill="white"/>
<path d="M403.947 470.036C403.606 473.449 402.41 476.646 398.994 478.66C399.978 475.305 399.777 471.713 398.425 468.488C396.147 463.379 388.734 458.874 378.986 458.123C369.239 457.372 361.78 452.82 357.874 450.784C354.822 449.202 348.388 445.743 345.712 444.31L348.616 439.758L356.109 441.442C356.109 441.442 362.315 444.958 368.555 447.757C374.796 450.556 389.952 451.171 395.293 455.46C400.634 459.75 404.528 464.415 403.947 470.036Z" fill="white"/>
<path d="M298.39 454.527C298.39 454.527 273.588 460.945 263.749 465.052C253.911 469.16 235.156 470.957 228.448 462.492C221.741 454.027 227.674 446.722 234.358 445.095C241.043 443.468 254.56 440.908 261.939 441.943" fill="#263238"/>
<path d="M261.939 440.6C261.939 440.6 259.935 449.294 264.125 439.6C267.223 432.455 253.626 445.846 261.962 441.943" fill="#263238"/>
<path d="M403.94 470.036C403.599 473.449 402.403 476.647 398.987 478.66C396.709 480.003 393.475 480.8 388.841 480.754C377.259 480.606 355.487 472.334 355.487 472.334L335.103 461.07L345.705 444.31L348.609 439.759L356.102 441.442C356.102 441.442 362.308 444.958 368.548 447.757C374.788 450.556 389.945 451.171 395.286 455.46C400.627 459.75 404.521 464.415 403.94 470.036Z" fill="#263238"/>
<path d="M339.624 464.233C354.297 472.755 370.513 478.289 387.337 480.515C391.05 480.959 395.366 481.027 397.848 478.239C398.509 477.434 399 476.505 399.294 475.506C399.587 474.507 399.676 473.459 399.556 472.425C399.112 467.191 394.705 463.05 389.877 460.967C385.049 458.885 379.731 458.407 374.595 457.258C369.487 456.107 364.55 454.302 359.905 451.888C356.216 449.965 352.651 447.632 348.586 446.767C344.521 445.903 339.681 446.949 337.506 450.499" fill="#263238"/>
<path d="M396.482 479.662C398.389 478.749 400.057 477.403 401.352 475.732C402.647 474.061 403.534 472.11 403.94 470.036C404.68 465.109 401.868 460.148 397.916 457.122C393.965 454.095 389.011 452.661 384.126 451.649C379.241 450.636 374.242 449.953 369.562 448.099C362.422 445.3 355.373 439.793 347.925 441.761" fill="#263238"/>
<path d="M362.627 287.962L328.134 274.855L327.701 274.684C327.701 274.684 327.827 273.774 327.929 272.408C328.145 269.655 328.259 265.172 326.961 263.658C325.037 261.383 312.819 270.535 307.501 268.1C302.183 265.665 299.13 262.782 299.13 262.782C299.13 262.782 292.024 261.474 288.882 266.594C287.287 270.724 287.834 276.834 287.834 276.834L287.185 277.062C283.074 278.598 260.709 287.006 255.983 290.386C250.756 294.084 244.972 332.053 243.115 343.203C241.259 354.354 237.957 364.401 239.631 368.235C241.305 372.07 265.332 390.559 279.157 395.327C292.981 400.094 342.004 398.74 342.004 398.74C342.004 398.74 342.801 398.524 344.225 398.069C352.515 395.406 381.928 384.415 397.541 358.609C397.563 358.655 382.441 309.126 362.627 287.962ZM269.432 351.828C266.892 353.626 268.293 360.589 268.293 360.589L263.977 356.789L274.818 330.152L279.441 350.633C279.441 350.633 271.971 350.042 269.432 351.828ZM356.159 368.747C354.963 369.362 359.575 356.561 357.388 353.66C355.202 350.758 348.609 351.031 348.609 351.031L349.167 347.538L353.073 327.513L354.371 325.977C354.371 325.977 367.785 348.949 370.188 357.051C370.188 357.073 355.566 368.747 356.159 368.747Z" fill="#263238"/>
<path d="M297.502 204.89L279.692 223.778C279.692 223.778 277.244 225.951 278.211 231.424C279.179 236.897 281.457 241.664 283.176 241.983C284.538 242.221 285.917 242.343 287.299 242.347C287.299 242.347 291.113 250.608 293.824 253.85C293.824 253.85 301.002 263.055 300.501 266.594C300.501 266.594 304.514 265.395 310.538 266.1C316.562 266.806 322.501 264.1 322.501 264.1L324.285 256.638C324.285 256.638 329.751 248.355 330.115 246.147C330.48 243.94 332.985 244.509 334.215 243.417C335.445 242.324 338.28 237.466 338.77 232.869C339.26 228.272 339.271 222.993 333.93 224.54C329.296 223.3 332.199 213.515 332.199 213.515L324.057 206.347L297.502 204.89Z" fill="#263238"/>
<path d="M293.824 253.85C293.824 253.85 294.803 263.51 293.824 267.925L293.824 253.85Z" fill="#263238"/>
<path d="M322.998 266.628C323.009 263.522 323.368 260.427 324.069 257.4L322.998 266.628Z" fill="#263238"/>
<path d="M325.583 212.093C325.583 212.093 331.437 219.431 331.129 224.984C330.822 230.537 330.389 237.113 330.537 243.553C330.685 249.993 320.186 263.488 314.788 264.682C309.39 265.877 304.744 266.184 301.294 262.737C297.844 259.289 294.393 254.499 289.906 248.355C285.42 242.211 286.49 228.727 286.49 228.727" fill="#263238"/>
<path d="M311.486 233.859C311.129 235.875 310.977 237.922 311.03 239.969C310.913 241.694 311.45 243.4 312.533 244.748C313.183 245.408 314.116 245.943 314.242 246.853C314.238 247.263 314.125 247.664 313.912 248.014C313.7 248.365 313.396 248.651 313.035 248.844C312.304 249.212 311.6 249.63 310.928 250.096" fill="#263238"/>
<path d="M302.228 250.801C302.228 250.801 302.9 255.159 308.741 256.069L302.228 250.801Z" fill="#263238"/>
<path d="M302.831 237.181C302.831 238.444 302.284 239.457 301.613 239.457C300.941 239.457 300.394 238.444 300.394 237.181C300.394 235.918 300.941 234.906 301.613 234.906C302.284 234.906 302.831 235.93 302.831 237.181Z" fill="#263238"/>
<path d="M320.265 237.728C320.265 238.991 319.719 240.003 319.047 240.003C318.375 240.003 317.828 238.979 317.828 237.728C317.828 236.476 318.375 235.452 319.047 235.452C319.719 235.452 320.265 236.465 320.265 237.728Z" fill="#263238"/>
<path d="M316.747 232.209C316.747 232.209 322.44 226.52 327.212 232.869L316.747 232.209Z" fill="#263238"/>
<path d="M304.756 232.323C304.756 232.323 301.157 228.295 295.486 232.323H304.756Z" fill="#263238"/>
<path d="M294.257 259.221C294.257 259.221 297.73 268.778 305.485 271.498C313.239 274.217 323.534 260.12 323.534 260.12L322.998 258.288C322.998 258.288 316.246 267.049 308.741 265.558C301.237 264.068 293.824 253.896 293.824 253.896L294.257 259.221Z" fill="#263238"/>
<path d="M287.299 241.983C287.299 241.983 282.675 243.61 281.446 240.014C280.216 236.419 276.002 226.941 279.692 223.778C283.381 220.615 286.342 227.954 286.342 227.954" fill="#263238"/>
<path d="M330.526 243.94C330.526 243.94 334.819 244.805 336.048 241.209C337.278 237.614 341.492 228.136 337.802 224.972C334.113 221.809 331.152 229.148 331.152 229.148" fill="#263238"/>
<path d="M286.342 237.181C287.948 236.928 289.398 236.074 290.396 234.792C291.006 233.667 291.393 232.434 291.535 231.162C291.958 228.743 292.171 226.291 292.173 223.835C292.122 222.875 292.211 221.913 292.435 220.979C292.776 220.038 293.303 219.176 293.983 218.442C295.589 216.553 297.536 214.96 299.073 213.003C299.897 212.079 300.524 210.998 300.916 209.824C301.308 208.65 301.456 207.409 301.351 206.176C304.874 209.078 308.99 211.174 313.411 212.316C317.832 213.458 322.449 213.619 326.939 212.787C335.081 211.194 342.881 204.06 341.936 195.094C341.757 193.59 341.112 192.181 340.091 191.062C339.07 189.944 337.724 189.173 336.242 188.858C332.222 187.857 328.612 189.996 324.968 191.373C318.33 193.876 311.827 189.575 305.12 188.858C299.426 188.233 292.332 188.949 289.349 194.65C289.349 194.65 279.1 195.856 274.545 204.321C269.99 212.787 278.61 224.495 278.61 224.495C278.61 224.495 282.026 220.308 286.502 228.773L286.342 237.181Z" fill="#263238"/>
<path d="M332.427 209.931C332.427 209.931 323.625 223.812 330.583 230.536C330.583 230.536 332.108 226.361 333.646 225.337C334.754 222.873 335.224 220.17 335.011 217.478C334.798 214.785 333.909 212.189 332.427 209.931Z" fill="#263238"/>
<path d="M338.975 194.138C338.364 196.032 337.328 197.761 335.947 199.195C334.566 200.628 332.875 201.728 331.004 202.41C321.347 206.346 311.975 201.989 302.296 201.135C294.405 200.43 285.693 207.553 285.135 215.654" fill="#263238"/>
<path d="M279.179 213.515C279.298 210.318 280.324 207.221 282.139 204.585C283.954 201.95 286.482 199.885 289.428 198.632" fill="#263238"/>
<path d="M291.592 266.628C295.839 271.05 300.962 274.538 306.635 276.868C306.635 276.868 318.193 273.512 324.069 265.49" fill="#263238"/>
<path d="M303.392 246.435C308.526 244.082 310.778 238.017 308.424 232.888C306.069 227.758 299.999 225.508 294.866 227.86C289.732 230.213 287.48 236.278 289.834 241.407C292.189 246.537 298.259 248.787 303.392 246.435Z" fill="#263238"/>
<path d="M323.219 247.334C328.824 246.646 332.811 241.548 332.122 235.947C331.434 230.346 326.332 226.363 320.727 227.051C315.121 227.739 311.135 232.837 311.823 238.438C312.511 244.039 317.613 248.022 323.219 247.334Z" fill="#263238"/>
<path d="M293.824 262.816C292.788 263.088 291.817 263.566 290.97 264.221C290.123 264.876 289.416 265.694 288.893 266.628C287.082 269.814 288.176 279.838 288.176 279.838C288.176 279.838 297.525 289.077 305.485 292.98L307.83 279.793L311.474 292.98C311.474 292.98 323.796 284.276 327.212 276.914C327.212 276.914 328.351 268.323 327.212 265.536C326.953 264.762 326.46 264.086 325.802 263.604C325.143 263.121 320.317 261.838 319.501 261.823" fill="#263238"/>
<path d="M279.18 351.043C279.18 351.043 275.524 326.58 270.662 316.601L279.18 351.043Z" fill="#263238"/>
<path d="M260.151 294.891C262.982 298.912 265.509 303.137 267.712 307.532L260.151 294.891Z" fill="#263238"/>
<path d="M356.159 313.153C357.141 309.063 358.486 305.069 360.179 301.218L356.159 313.153Z" fill="#263238"/>
<path d="M348.609 351.043C348.609 351.043 351.239 334.271 354.382 320.458L348.609 351.043Z" fill="#263238"/>
<path d="M353.073 327.49C355.615 324.121 359.19 321.676 363.253 320.526L353.073 327.49Z" fill="#263238"/>
<path d="M327.713 274.684C327.713 274.684 348.928 283.161 362.627 287.974C362.627 287.974 379.48 303.801 397.552 358.655C397.552 358.655 380.995 386.486 349.497 395.406" fill="#263238"/>
<path d="M354.963 369.737L370.188 357.073C370.188 357.073 378.239 350.963 386.609 355.139" fill="#263238"/>
<path d="M354.382 325.977C354.382 325.977 366.965 344.557 370.188 357.073L354.382 325.977Z" fill="#263238"/>
<path d="M268.384 361.294L263.932 357.073C263.932 357.073 257.327 355.935 249.834 360.93" fill="#263238"/>
<path d="M263.932 357.073C263.932 357.073 269.466 338.868 274.921 329.549L263.932 357.073Z" fill="#263238"/>
<path d="M287.857 276.914C287.857 276.914 257.327 288.36 254.332 291.705C251.337 295.051 239.961 359.053 239.654 366.38C239.392 372.934 263.169 387.646 274.955 393.847" fill="#263238"/>
<path d="M310.688 298.544C310.688 298.942 310.57 299.331 310.349 299.663C310.127 299.994 309.813 300.252 309.444 300.404C309.076 300.557 308.671 300.597 308.28 300.519C307.889 300.441 307.53 300.249 307.248 299.968C306.966 299.686 306.774 299.327 306.696 298.937C306.618 298.546 306.658 298.141 306.811 297.773C306.963 297.405 307.222 297.09 307.553 296.869C307.885 296.648 308.274 296.53 308.673 296.53C308.938 296.528 309.201 296.579 309.446 296.68C309.691 296.781 309.914 296.929 310.102 297.116C310.289 297.304 310.437 297.526 310.538 297.771C310.639 298.016 310.69 298.279 310.688 298.544Z" fill="#263238"/>
<path d="M348.449 400.31L357.753 356.618C357.897 355.941 357.888 355.239 357.726 354.566C357.564 353.892 357.253 353.264 356.817 352.726C356.38 352.188 355.828 351.755 355.202 351.458C354.576 351.16 353.891 351.007 353.198 351.009H272.005C271.318 351.009 270.639 351.161 270.018 351.455C269.397 351.749 268.849 352.177 268.413 352.708C267.977 353.239 267.665 353.86 267.499 354.526C267.332 355.193 267.316 355.888 267.45 356.561L275.797 398.797C276.002 399.834 276.555 400.771 277.365 401.451C278.174 402.132 279.192 402.516 280.25 402.54L343.78 403.997C344.866 404.021 345.927 403.666 346.779 402.993C347.631 402.32 348.222 401.371 348.449 400.31Z" fill="#263238"/>
<path d="M348.609 446.699L341.207 466.11C341.207 466.11 322.326 461.354 298.151 456.405C272.859 451.228 246.452 444.526 232.753 420.507C231.09 417.582 229.974 414.123 230.76 410.847C232.73 402.552 243.537 400.299 250.654 399.468C255.128 398.985 259.625 398.734 264.125 398.717C266.403 398.717 273.975 397.477 275.809 398.831C278.563 400.839 277.501 402.6 277.501 402.6L346.501 403.997C347.527 401.76 349.296 397.859 349.497 395.406C358.778 390.696 380.243 386.713 389.353 388.477C403.621 391.242 411.946 399.559 410.363 408.275C408.78 416.991 377.26 440.361 348.609 446.699Z" fill="#263238"/>
<path d="M348.609 446.699C348.609 446.699 330.651 441.943 315.984 432.044C301.317 422.145 289.861 410.653 269.421 413.031" fill="#263238"/>
<path d="M312.624 429.712C321.894 427.049 328.692 421.053 336.128 415.307C343.971 409.017 352.394 403.485 361.283 398.786" fill="#263238"/>
<path fill-rule="evenodd" clip-rule="evenodd" d="M370.001 357C368.167 351.5 363.501 338.4 355.501 328L351.501 350.5L353.501 351L355.501 351.5L357.001 353L358.001 355V357L355.001 369.5L370.001 357ZM270.001 351L276.001 335L279.501 351H270.001Z" fill="#E7F4FD"/>
<path d="M398.39 231.367H363.602C359.495 231.367 356.166 234.693 356.166 238.797V259.198C356.166 263.301 359.495 266.628 363.602 266.628H398.39C402.497 266.628 405.826 263.301 405.826 259.198V238.797C405.826 234.693 402.497 231.367 398.39 231.367Z" fill="white" stroke="#263238" stroke-width="1.1" stroke-linecap="round" stroke-linejoin="round"/>
<path d="M372.188 241.971L362.634 247.968L371.493 255.819" stroke="#263238" stroke-width="1.1" stroke-linecap="round" stroke-linejoin="round"/>
<path d="M389.588 256.388L398.174 249.083L388.267 242.597" stroke="#263238" stroke-width="1.1" stroke-linecap="round" stroke-linejoin="round"/>
<path d="M376.823 260.894L383.883 238.797" stroke="#263238" stroke-width="1.1" stroke-linecap="round" stroke-linejoin="round"/>
<path d="M196.571 165.658H77.4807C69.2357 165.658 62.5518 172.337 62.5518 180.575V345.32C62.5518 353.558 69.2357 360.236 77.4807 360.236H196.571C204.816 360.236 211.5 353.558 211.5 345.32V180.575C211.5 172.337 204.816 165.658 196.571 165.658Z" fill="white" stroke="#263238" stroke-width="1.1" stroke-miterlimit="10"/>
<path d="M225.358 195.275V360.02C225.36 361.98 224.975 363.921 224.225 365.732C223.475 367.543 222.376 369.189 220.99 370.575C219.603 371.962 217.957 373.061 216.145 373.812C214.333 374.562 212.391 374.948 210.429 374.948H91.3393C89.3788 374.947 87.4378 374.559 85.6271 373.808C83.8164 373.057 82.1715 371.957 80.7863 370.571C79.4011 369.185 78.3027 367.54 77.5538 365.729C76.8049 363.919 76.4203 361.979 76.4218 360.02V195.275C76.4218 191.321 77.9931 187.529 80.7903 184.732C83.5876 181.935 87.3819 180.362 91.3393 180.359H210.429C214.389 180.359 218.186 181.93 220.986 184.728C223.785 187.525 225.358 191.319 225.358 195.275Z" fill="white" stroke="#263238" stroke-width="1.1" stroke-linecap="round" stroke-linejoin="round"/>
<path d="M225.358 195.275V204.094H76.4218V195.275C76.4218 191.321 77.9931 187.529 80.7903 184.732C83.5876 181.935 87.3819 180.362 91.3393 180.359H210.429C214.389 180.359 218.186 181.93 220.986 184.728C223.785 187.525 225.358 191.319 225.358 195.275Z" fill="#0C8CE9" stroke="#263238" stroke-width="1.1" stroke-miterlimit="10"/>
<path d="M127.062 214.311H90.4169V220.455H127.062V214.311Z" fill="#0C8CE9"/>
<path d="M127.062 269.37H90.4169V275.514H127.062V269.37Z" fill="#0C8CE9"/>
<path d="M127.062 319.298H90.4169V325.442H127.062V319.298Z" fill="#0C8CE9"/>
<path d="M194.487 229.512H90.4169V234.018H194.487V229.512Z" fill="#E1E7E9"/>
<path d="M175.72 238.137H90.4169V242.529H175.72V238.137Z" fill="#E1E7E9"/>
<path d="M186.891 246.614H90.4169V251.006H186.891V246.614Z" fill="#E1E7E9"/>
<path d="M186.891 255.079H90.4169V259.471H186.891V255.079Z" fill="#E1E7E9"/>
<path d="M194.487 279.44H90.4169V283.946H194.487V279.44Z" fill="#E1E7E9"/>
<path d="M175.72 288.064H90.4169V292.456H175.72V288.064Z" fill="#E1E7E9"/>
<path d="M186.891 296.541H90.4169V300.933H186.891V296.541Z" fill="#E1E7E9"/>
<path d="M194.487 334.271H90.4169V338.777H194.487V334.271Z" fill="#E1E7E9"/>
<path d="M175.72 342.896H90.4169V347.288H175.72V342.896Z" fill="#E1E7E9"/>
<path d="M186.891 351.373H90.4169V355.765H186.891V351.373Z" fill="#E1E7E9"/>
<path d="M298.397 454.527C298.397 454.527 273.595 460.945 263.757 465.052C253.918 469.16 235.163 470.957 228.455 462.492C221.748 454.027 227.681 446.722 234.366 445.095C241.05 443.468 254.567 440.908 261.946 441.943" fill="white"/>
<path d="M298.397 454.527C298.397 454.527 273.595 460.945 263.757 465.052C253.918 469.16 235.163 470.957 228.455 462.492C221.748 454.027 227.681 446.722 234.366 445.095C241.05 443.468 254.567 440.908 261.946 441.943" stroke="#263238" stroke-width="1.1" stroke-linecap="round" stroke-linejoin="round"/>
<path d="M242.132 468.056C242.132 468.056 229.515 461.138 233.705 451.444C236.803 444.298 253.633 445.846 261.969 441.943" stroke="#263238" stroke-width="1.1" stroke-linecap="round" stroke-linejoin="round"/>
<path d="M403.947 470.036C403.606 473.449 402.41 476.647 398.994 478.661C396.716 480.003 393.482 480.8 388.848 480.754C377.267 480.606 355.494 472.334 355.494 472.334L335.11 461.07L345.712 444.31L348.616 439.759L356.109 441.442C356.109 441.442 362.315 444.958 368.555 447.757C374.796 450.556 389.952 451.171 395.293 455.46C400.634 459.75 404.528 464.415 403.947 470.036Z" fill="white"/>
<path d="M339.631 464.233C354.304 472.755 370.52 478.289 387.345 480.515C391.057 480.959 395.373 481.027 397.855 478.239C398.516 477.434 399.007 476.505 399.301 475.506C399.594 474.507 399.683 473.459 399.563 472.425C399.119 467.191 394.712 463.05 389.884 460.967C385.056 458.885 379.738 458.407 374.602 457.258C369.494 456.107 364.557 454.302 359.912 451.888C356.223 449.965 352.658 447.632 348.593 446.767C344.528 445.903 339.688 446.949 337.513 450.499" stroke="#263238" stroke-width="1.1" stroke-linecap="round" stroke-linejoin="round"/>
<path d="M396.489 479.662C398.397 478.749 400.065 477.403 401.36 475.732C402.655 474.061 403.541 472.11 403.947 470.036C404.688 465.109 401.875 460.148 397.924 457.122C393.972 454.095 389.019 452.661 384.133 451.649C379.248 450.636 374.249 449.953 369.569 448.099C362.429 445.3 355.38 439.793 347.933 441.761" stroke="#263238" stroke-width="1.1" stroke-linecap="round" stroke-linejoin="round"/>
<path d="M362.634 287.962L328.141 274.855L327.708 274.684C327.708 274.684 327.834 273.774 327.936 272.408C328.153 269.655 328.266 265.172 326.968 263.658C325.044 261.383 319.601 263.294 314.283 260.859C308.965 258.424 299.137 262.782 299.137 262.782C299.137 262.782 292.032 261.474 288.889 266.594C287.294 270.724 287.841 276.834 287.841 276.834L287.192 277.062C283.081 278.598 260.716 287.006 255.99 290.386C250.763 294.084 244.979 332.053 243.122 343.203C241.266 354.354 237.964 364.401 239.638 368.235C241.312 372.07 265.339 390.559 279.164 395.327C292.988 400.094 342.011 398.74 342.011 398.74C342.011 398.74 342.808 398.524 344.232 398.069C352.522 395.406 381.935 384.415 397.548 358.609C397.57 358.655 382.448 309.126 362.634 287.962ZM269.439 351.828C266.899 353.626 268.3 360.589 268.3 360.589L263.984 356.789L269.001 342.5L274.825 330.152L279.448 350.633C279.448 350.633 271.978 350.042 269.439 351.828ZM356.166 368.747C354.97 369.362 359.582 356.561 357.396 353.66C355.209 350.758 348.616 351.031 348.616 351.031L349.174 347.538L353.08 327.513L354.378 325.977C354.378 325.977 367.792 348.949 370.195 357.051C370.195 357.073 355.574 368.747 356.166 368.747Z" fill="#E90C59"/>
<path d="M297.509 204.89L279.699 223.778C279.699 223.778 277.251 225.951 278.219 231.424C279.187 236.897 281.464 241.664 283.184 241.983C284.545 242.221 285.924 242.343 287.306 242.347C287.306 242.347 291.121 250.608 293.831 253.85C293.831 253.85 294.765 266.605 294.264 270.144C294.264 270.144 300.663 275.731 306.687 276.436C312.711 277.142 322.015 267.925 322.015 267.925L324.292 256.638C324.292 256.638 329.758 248.355 330.123 246.147C330.487 243.94 332.992 244.509 334.222 243.417C335.452 242.324 338.287 237.466 338.777 232.869C339.267 228.272 339.278 222.993 333.937 224.54C329.303 223.3 332.207 213.515 332.207 213.515L324.065 206.347L297.509 204.89Z" fill="white"/>
<path d="M293.831 253.85C293.831 253.85 294.81 263.51 293.831 267.925" stroke="#263238" stroke-width="1.1" stroke-linecap="round" stroke-linejoin="round"/>
<path d="M323.005 266.628C323.016 263.522 323.375 260.427 324.076 257.4" stroke="#263238" stroke-width="1.1" stroke-linecap="round" stroke-linejoin="round"/>
<path d="M325.59 212.093C325.59 212.093 331.444 219.431 331.136 224.984C330.829 230.537 330.396 237.113 330.544 243.553C330.692 249.993 320.193 263.488 314.795 264.682C309.397 265.877 304.751 266.184 301.301 262.737C297.851 259.289 294.4 254.499 289.914 248.355C285.427 242.211 286.497 228.727 286.497 228.727" stroke="#263238" stroke-width="1.1" stroke-linecap="round" stroke-linejoin="round"/>
<path d="M311.493 233.859C311.136 235.875 310.984 237.922 311.037 239.969C310.92 241.694 311.457 243.4 312.54 244.748C313.19 245.408 314.123 245.943 314.249 246.853C314.245 247.263 314.132 247.664 313.919 248.014C313.707 248.365 313.403 248.651 313.041 248.844C312.311 249.212 311.607 249.63 310.935 250.096" stroke="#263238" stroke-width="1.1" stroke-linecap="round" stroke-linejoin="round"/>
<path d="M302.235 250.801C302.235 250.801 302.907 255.159 308.748 256.069" stroke="#263238" stroke-width="1.1" stroke-linecap="round" stroke-linejoin="round"/>
<path d="M302.838 237.181C302.838 238.444 302.292 239.457 301.62 239.457C300.948 239.457 300.401 238.444 300.401 237.181C300.401 235.918 300.948 234.906 301.62 234.906C302.292 234.906 302.838 235.93 302.838 237.181Z" fill="#263238"/>
<path d="M320.272 237.728C320.272 238.991 319.726 240.003 319.054 240.003C318.382 240.003 317.836 238.979 317.836 237.728C317.836 236.476 318.382 235.452 319.054 235.452C319.726 235.452 320.272 236.465 320.272 237.728Z" fill="#263238"/>
<path d="M316.754 232.209C316.754 232.209 322.448 226.52 327.219 232.869" stroke="#263238" stroke-width="2.21" stroke-linecap="round" stroke-linejoin="round"/>
<path d="M304.763 232.323C304.763 232.323 301.164 228.295 295.493 232.323" stroke="#263238" stroke-width="2.21" stroke-linecap="round" stroke-linejoin="round"/>
<path d="M294.264 259.221C294.264 259.221 297.737 268.778 305.492 271.498C313.246 274.217 323.541 260.12 323.541 260.12L323.005 258.288C323.005 258.288 316.253 267.049 308.748 265.558C301.244 264.068 293.831 253.896 293.831 253.896L294.264 259.221Z" fill="#263238"/>
<path d="M287.306 241.983C287.306 241.983 282.683 243.61 281.453 240.014C280.223 236.419 276.009 226.941 279.699 223.778C283.389 220.615 286.349 227.954 286.349 227.954" stroke="#263238" stroke-width="1.1" stroke-linecap="round" stroke-linejoin="round"/>
<path d="M330.533 243.94C330.533 243.94 334.826 244.805 336.056 241.209C337.285 237.614 341.499 228.136 337.809 224.972C334.12 221.809 331.159 229.148 331.159 229.148" stroke="#263238" stroke-width="1.1" stroke-linecap="round" stroke-linejoin="round"/>
<path d="M286.349 237.181C287.955 236.928 289.405 236.074 290.403 234.792C291.013 233.667 291.4 232.434 291.542 231.162C291.965 228.743 292.178 226.291 292.18 223.835C292.13 222.875 292.218 221.913 292.442 220.979C292.784 220.038 293.31 219.176 293.99 218.442C295.596 216.553 297.543 214.96 299.081 213.003C299.905 212.079 300.532 210.998 300.923 209.824C301.315 208.65 301.463 207.409 301.358 206.176C304.881 209.078 308.998 211.174 313.418 212.316C317.839 213.458 322.456 213.619 326.946 212.787C335.088 211.194 342.888 204.06 341.943 195.094C341.764 193.59 341.119 192.181 340.098 191.062C339.077 189.944 337.731 189.173 336.249 188.858C332.229 187.857 328.62 189.996 324.976 191.373C318.337 193.876 311.834 189.575 305.127 188.858C299.434 188.233 292.339 188.949 289.356 194.65C289.356 194.65 279.107 195.856 274.552 204.321C269.997 212.787 278.617 224.495 278.617 224.495C278.617 224.495 282.033 220.308 286.509 228.773L286.349 237.181Z" fill="#263238"/>
<path d="M326.296 209.931C326.296 209.931 323.632 223.812 330.59 230.536C330.59 230.536 332.115 226.361 333.653 225.337C334.761 222.873 335.231 220.17 335.018 217.478C334.805 214.785 333.916 212.189 332.434 209.931C327.287 201.852 326.296 209.931 326.296 209.931Z" fill="#263238"/>
<path opacity="0.2" d="M338.982 194.138C338.371 196.032 337.335 197.761 335.954 199.195C334.573 200.628 332.882 201.728 331.011 202.41C321.354 206.346 311.982 201.989 302.303 201.135C294.412 200.43 285.7 207.553 285.142 215.654" stroke="white" stroke-width="1.1" stroke-linecap="round" stroke-linejoin="round"/>
<path opacity="0.2" d="M279.187 213.515C279.305 210.318 280.331 207.221 282.146 204.585C283.961 201.95 286.489 199.885 289.435 198.632" stroke="white" stroke-width="1.1" stroke-linecap="round" stroke-linejoin="round"/>
<path d="M291.599 266.628C295.846 271.05 300.969 274.538 306.642 276.868C306.642 276.868 318.2 273.512 324.076 265.49" stroke="#263238" stroke-width="1.1" stroke-linecap="round" stroke-linejoin="round"/>
<path d="M303.399 246.435C308.533 244.082 310.785 238.017 308.431 232.888C306.076 227.758 300.006 225.508 294.873 227.86C289.739 230.213 287.487 236.278 289.841 241.407C292.196 246.537 298.266 248.787 303.399 246.435Z" stroke="#263238" stroke-width="1.1" stroke-linecap="round" stroke-linejoin="round"/>
<path d="M323.226 247.334C328.832 246.646 332.818 241.548 332.13 235.947C331.441 230.346 326.339 226.363 320.734 227.051C315.128 227.739 311.142 232.837 311.83 238.438C312.518 244.039 317.621 248.022 323.226 247.334Z" stroke="#263238" stroke-width="1.1" stroke-linecap="round" stroke-linejoin="round"/>
<path d="M293.831 262.816C292.795 263.088 291.824 263.566 290.977 264.221C290.13 264.876 289.424 265.694 288.9 266.628C287.09 269.814 288.183 279.838 288.183 279.838C288.183 279.838 297.532 289.077 305.492 292.98L307.837 279.793L311.481 292.98C311.481 292.98 323.803 284.276 327.219 276.914C327.219 276.914 328.358 268.323 327.219 265.536C326.96 264.762 326.467 264.086 325.809 263.604C325.15 263.121 324.358 262.854 323.541 262.839" stroke="#263238" stroke-width="1.1" stroke-linecap="round" stroke-linejoin="round"/>
<path d="M279.187 351.043C279.187 351.043 275.531 326.58 270.669 316.601" stroke="#263238" stroke-width="1.1" stroke-linecap="round" stroke-linejoin="round"/>
<path d="M260.158 294.891C262.989 298.912 265.517 303.137 267.719 307.532" stroke="#263238" stroke-width="1.1" stroke-linecap="round" stroke-linejoin="round"/>
<path d="M356.166 313.153C357.147 309.063 358.493 305.069 360.186 301.218" stroke="#263238" stroke-width="1.1" stroke-linecap="round" stroke-linejoin="round"/>
<path d="M348.616 351.043C348.616 351.043 351.246 334.271 354.389 320.458" stroke="#263238" stroke-width="1.1" stroke-linecap="round" stroke-linejoin="round"/>
<path d="M353.08 327.49C355.622 324.121 359.197 321.676 363.26 320.526" stroke="#263238" stroke-width="1.1" stroke-linecap="round" stroke-linejoin="round"/>
<path d="M327.72 274.684C327.72 274.684 348.935 283.161 362.634 287.974C362.634 287.974 379.487 303.801 397.559 358.655C397.559 358.655 381.002 386.486 349.504 395.406" stroke="#263238" stroke-width="1.1" stroke-linecap="round" stroke-linejoin="round"/>
<path d="M354.97 369.737L370.195 357.073C370.195 357.073 378.246 350.963 386.616 355.139" stroke="#263238" stroke-width="1.1" stroke-linecap="round" stroke-linejoin="round"/>
<path d="M354.389 325.977C354.389 325.977 366.972 344.557 370.195 357.073" stroke="#263238" stroke-width="1.1" stroke-linecap="round" stroke-linejoin="round"/>
<path d="M268.391 361.294L263.939 357.073C263.939 357.073 257.334 355.935 249.841 360.93" stroke="#263238" stroke-width="1.1" stroke-linecap="round" stroke-linejoin="round"/>
<path d="M263.939 357.073C263.939 357.073 269.473 338.868 274.928 329.549" stroke="#263238" stroke-width="1.1" stroke-linecap="round" stroke-linejoin="round"/>
<path d="M287.864 276.914C287.864 276.914 257.334 288.36 254.339 291.705C251.344 295.051 239.968 359.053 239.661 366.38C239.399 372.934 263.176 387.646 274.962 393.847" stroke="#263238" stroke-width="1.1" stroke-linecap="round" stroke-linejoin="round"/>
<path d="M310.696 298.544C310.696 298.942 310.578 299.331 310.356 299.663C310.135 299.994 309.82 300.252 309.451 300.404C309.083 300.557 308.678 300.597 308.287 300.519C307.896 300.441 307.537 300.249 307.255 299.968C306.973 299.686 306.781 299.327 306.703 298.937C306.626 298.546 306.665 298.141 306.818 297.773C306.971 297.405 307.229 297.09 307.56 296.869C307.892 296.648 308.281 296.53 308.68 296.53C308.945 296.528 309.208 296.579 309.453 296.68C309.698 296.781 309.921 296.929 310.109 297.116C310.296 297.304 310.445 297.526 310.545 297.771C310.646 298.016 310.697 298.279 310.696 298.544Z" fill="#263238"/>
<path d="M346.019 405.749H276.556C276.124 405.749 275.71 405.578 275.405 405.272C275.099 404.967 274.928 404.553 274.928 404.122C274.928 403.69 275.099 403.277 275.405 402.971C275.71 402.666 276.124 402.495 276.556 402.495H346.019C346.451 402.495 346.866 402.666 347.171 402.971C347.476 403.277 347.648 403.69 347.648 404.122C347.648 404.553 347.476 404.967 347.171 405.272C346.866 405.578 346.451 405.749 346.019 405.749Z" fill="#263238"/>
<path d="M348.456 400.31L357.76 356.618C357.904 355.941 357.895 355.239 357.733 354.566C357.571 353.892 357.26 353.264 356.824 352.726C356.387 352.188 355.835 351.755 355.209 351.457C354.583 351.16 353.898 351.007 353.205 351.009H272.012C271.325 351.009 270.646 351.161 270.025 351.455C269.404 351.749 268.856 352.177 268.42 352.708C267.984 353.239 267.672 353.86 267.506 354.526C267.339 355.193 267.323 355.888 267.457 356.561L275.805 398.797C276.009 399.834 276.562 400.771 277.372 401.451C278.181 402.132 279.199 402.516 280.257 402.54L343.788 403.997C344.873 404.021 345.934 403.666 346.786 402.993C347.638 402.32 348.229 401.371 348.456 400.31Z" fill="white" stroke="#263238" stroke-width="1.1" stroke-linecap="round" stroke-linejoin="round"/>
<path d="M348.616 446.699L341.214 466.11C341.214 466.11 322.334 461.354 298.158 456.405C272.867 451.228 246.459 444.526 232.76 420.507C231.097 417.582 229.981 414.123 230.767 410.847C232.737 402.552 243.544 400.299 250.661 399.468C255.135 398.985 259.632 398.734 264.132 398.717C266.41 398.717 273.982 397.477 275.816 398.831C278.571 400.839 281.51 402.58 284.596 404.031C288.638 405.749 347.648 402.495 347.648 402.495C348.675 400.258 349.303 397.859 349.504 395.406C358.785 390.696 380.25 386.713 389.36 388.477C403.629 391.242 411.953 399.559 410.37 408.275C408.787 416.991 377.267 440.361 348.616 446.699Z" fill="#263238"/>
<path d="M348.616 446.699C348.616 446.699 330.658 441.943 315.991 432.044C301.324 422.145 289.868 410.653 269.427 413.031" stroke="white" stroke-width="1.1" stroke-linecap="round" stroke-linejoin="round"/>
<path d="M312.631 429.712C321.901 427.049 328.699 421.053 336.135 415.307C343.978 409.017 352.401 403.485 361.29 398.786" stroke="white" stroke-width="1.1" stroke-linecap="round" stroke-linejoin="round"/>
<path d="M309.363 238.797H312.073" stroke="#263238" stroke-width="1.1" stroke-linecap="round" stroke-linejoin="round"/>
<path d="M122.049 421.411C120.269 426.251 168.049 435.331 163.849 421.411C159.649 407.491 123.839 416.561 122.049 421.411Z" fill="#4A6D9B"/>
<path d="M459.171 404.524L482.862 385.494C482.862 385.494 493.992 398.941 481.895 407.307C469.798 415.673 459.171 404.524 459.171 404.524Z" fill="#E90C9D"/>
<path d="M147.922 28.0402C149.608 20.8967 145.184 13.7388 138.04 12.0527C130.897 10.3667 123.739 14.791 122.053 21.9345C120.367 29.0781 124.791 36.2359 131.935 37.922C139.078 39.608 146.236 35.1838 147.922 28.0402Z" fill="#F3C916"/>
<defs>
<filter id="filter0_d_96_461" x="43.8616" y="78.1218" width="418.278" height="262.495" filterUnits="userSpaceOnUse" color-interpolation-filters="sRGB">
<feFlood flood-opacity="0" result="BackgroundImageFix"/>
<feColorMatrix in="SourceAlpha" type="matrix" values="0 0 0 0 0 0 0 0 0 0 0 0 0 0 0 0 0 0 127 0" result="hardAlpha"/>
<feOffset dx="6" dy="6"/>
<feComposite in2="hardAlpha" operator="out"/>
<feColorMatrix type="matrix" values="0 0 0 0 0.14902 0 0 0 0 0.196078 0 0 0 0 0.219608 0 0 0 1 0"/>
<feBlend mode="normal" in2="BackgroundImageFix" result="effect1_dropShadow_96_461"/>
<feBlend mode="normal" in="SourceGraphic" in2="effect1_dropShadow_96_461" result="shape"/>
</filter>
</defs>
</svg>
