<svg width="500" height="482" viewBox="0 0 500 482" fill="none" xmlns="http://www.w3.org/2000/svg">
<path d="M485.208 189.695C429.705 94.7102 279.152 128.538 248.406 82.3421C232.657 58.721 215.04 31.2655 189.487 17.0086C165.129 3.35481 136.888 -1.4354 112.269 0.362349C24.3463 6.79102 -12.9248 85.3915 3.96277 171.706C26.5099 286.842 128.655 404.458 250 405.278C313.474 405.756 374.123 382.999 421.609 350.992L422.668 350.276C470.153 317.973 527.592 262.208 485.208 189.695Z" fill="#0C8CE9" fill-opacity="0.1"/>
<g filter="url(#filter0_d_96_462)">
<path d="M455.589 103.688V308.563C455.589 315.26 452.927 321.683 448.189 326.42C443.45 331.157 437.023 333.82 430.32 333.823H69.6799C62.9771 333.82 56.55 331.157 51.8115 326.42C47.073 321.683 44.4111 315.26 44.4111 308.563V103.688C44.4111 103.084 44.4111 102.55 44.4908 101.913C44.9348 95.5393 47.7813 89.5715 52.4561 85.2131C57.1309 80.8546 63.2861 78.4298 69.6799 78.428H430.32C436.722 78.4306 442.883 80.8617 447.559 85.2297C452.235 89.5977 455.076 95.5767 455.509 101.958C455.566 102.504 455.589 103.096 455.589 103.688Z" fill="white"/>
<path d="M455.589 103.688V308.563C455.589 315.26 452.927 321.683 448.189 326.42C443.45 331.157 437.023 333.82 430.32 333.823H69.6799C62.9771 333.82 56.55 331.157 51.8115 326.42C47.073 321.683 44.4111 315.26 44.4111 308.563V103.688C44.4111 103.084 44.4111 102.55 44.4908 101.913C44.9348 95.5393 47.7813 89.5715 52.4561 85.2131C57.1309 80.8546 63.2861 78.4298 69.6799 78.428H430.32C436.722 78.4306 442.883 80.8617 447.559 85.2297C452.235 89.5977 455.076 95.5767 455.509 101.958C455.566 102.504 455.589 103.096 455.589 103.688Z" stroke="#263238" stroke-width="1.1" stroke-linecap="round" stroke-linejoin="round"/>
</g>
<path d="M56.7095 111.379H444.577V300.632C444.577 306.909 442.082 312.929 437.64 317.367C433.198 321.806 427.173 324.299 420.891 324.299H80.3954C74.1135 324.299 68.0889 321.806 63.6469 317.367C59.2049 312.929 56.7095 306.909 56.7095 300.632V111.379Z" fill="#F6F7F9"/>
<path d="M221.691 224.744C223.043 212.076 226.52 200.07 231.903 189.47C235.835 181.776 240.71 174.88 247.8 171.392C250.637 169.981 253.86 169.279 256.76 170.807C258.266 171.674 259.583 173.012 260.571 174.679C261.86 176.751 262.346 179.41 262.758 181.86C263.202 184.636 263.5 187.435 264.022 190.189C264.708 193.841 265.331 197.486 265.731 201.175C266.6 208.242 266.528 215.357 265.519 222.235C264.568 228.14 262.676 233.644 260.91 239.162C259.101 244.839 257.188 250.634 259.19 256.998C261.083 262.973 266.285 265.776 271.039 264.88C276.177 263.923 279.832 259.171 282.638 254.249C285.671 248.893 288.184 243.092 290.129 236.955C292.064 230.681 293.463 224.136 294.307 217.421C295.998 205.011 296.944 191.135 304.634 182.265C307.838 178.558 312.089 175.879 316.763 176.394C318.757 176.668 320.715 177.42 322.525 178.609C324.335 179.798 325.961 181.4 327.312 183.324C330.239 187.361 332.258 192.242 333.146 197.428C334.278 203.914 333.723 210.636 332.558 216.863C331.481 222.629 330.067 228.265 328.327 233.729C327.304 236.934 326.119 240.012 325.026 243.203C322.396 250.799 319.626 258.959 319.353 267.491C319.267 271.199 319.681 275.063 321.444 278.357C322.368 279.976 323.548 281.358 324.905 282.411C326.261 283.465 327.764 284.166 329.315 284.469C332.677 285.193 336.056 283.814 338.883 281.956C342.296 279.617 345.42 276.723 348.177 273.346C353.253 267.332 358.039 260.391 361.145 252.499C364.633 243.69 365.597 233.404 369.587 224.887C371.685 220.288 374.712 216.48 378.397 213.804C379.767 212.803 381.348 212.276 382.988 212.274C384.403 212.367 385.798 212.935 387.02 213.916C389.865 216.206 391.805 219.929 393.041 223.789C393.662 225.777 394.074 227.839 394.266 229.922C394.505 232.526 394.231 235.527 394.164 238.291C393.81 252.817 394.299 267.768 397.876 282.072C398.951 286.373 400.329 290.999 402.857 294.407C404.134 296.233 405.822 297.55 407.676 298.169C408.85 298.478 410.047 298.501 411.196 298.236C412.345 297.971 413.424 297.423 414.371 296.624C418.802 293.162 419.973 286.511 420.905 280.44C420.932 279.895 420.784 279.342 420.491 278.903C420.199 278.463 419.785 278.171 419.34 278.09C418.896 278.026 418.462 278.175 418.126 278.504C417.79 278.834 417.58 279.32 417.538 279.86C416.72 285.193 415.473 292.898 410.396 294.15C409.649 294.361 408.859 294.335 408.096 294.073C407.333 293.812 406.622 293.325 406.027 292.655C404.819 291.242 403.843 289.559 403.158 287.708C401.17 282.833 400.184 277.603 399.324 272.225C398.17 264.777 397.555 257.263 397.487 249.772C397.434 246.045 397.472 242.328 397.558 238.621C397.741 235.679 397.766 232.712 397.632 229.739C397.231 225.172 395.912 220.723 393.797 216.798C391.861 213.185 389.052 209.932 385.662 208.695C381.53 207.187 377.815 208.933 374.606 211.758C371.083 214.9 368.216 219.005 366.205 223.784C364.453 228.184 363.033 232.794 361.962 237.56C360.762 242.377 359.554 247.264 357.674 251.69C356.134 255.174 354.328 258.455 352.279 261.49C349.951 265.09 347.396 268.452 344.636 271.548C341.933 274.522 338.99 277.398 335.593 279.178C334.249 279.946 332.787 280.398 331.276 280.512C330.646 280.551 330.008 280.488 329.379 280.324C328.705 280.142 328.046 279.867 327.414 279.503C326.816 279.198 326.253 278.785 325.744 278.279L325.356 277.892L325.168 277.693C324.921 277.392 324.688 277.073 324.472 276.737C323.765 275.595 323.268 274.287 323.018 272.912C322.367 269.517 322.686 265.781 323.272 262.349C324.049 258.157 325.096 254.069 326.404 250.124C327.578 246.42 328.894 242.796 330.172 239.152C331.51 235.372 332.61 231.502 333.641 227.584C336.768 215.58 339.057 201.99 334.389 189.444C330.554 179.179 322.274 170.761 312.999 172.396C302.701 174.212 296.401 185.995 293.863 197.482C292.413 204 291.753 210.789 290.821 217.453C289.95 224.063 288.495 230.487 286.482 236.615C284.512 242.603 281.939 248.221 278.819 253.343C276.199 257.642 272.43 261.727 267.519 260.75C266.5 260.578 265.514 260.095 264.653 259.344C263.793 258.593 263.085 257.599 262.595 256.454C261.634 253.916 261.38 251.111 261.872 248.496C262.341 245.524 263.475 242.674 264.364 239.906C265.252 237.137 266.147 234.41 266.935 231.607C268.676 225.539 269.602 219.1 269.679 212.531C269.664 205.077 268.912 197.591 267.439 190.236C266.391 184.829 266.37 178.665 263.954 173.706C262.977 171.63 261.629 169.837 260.021 168.473C258.413 167.11 256.591 166.216 254.706 165.865C251.094 165.274 247.509 166.601 244.426 168.517C241.189 170.564 238.245 173.207 235.689 176.361C232.794 180.056 230.288 184.193 228.226 188.686C225.578 194.155 223.398 199.975 221.719 206.06C220.111 211.906 218.974 217.968 218.324 224.164C218.058 226.748 221.411 227.373 221.692 224.752L221.691 224.744Z" fill="#E1E7E9" stroke="#E1E7E9" stroke-width="8"/>
<path d="M455.509 101.958H44.4907C44.9347 95.5847 47.7811 89.6169 52.4559 85.2585C57.1308 80.9 63.2859 78.4753 69.6798 78.4734H430.32C436.714 78.4753 442.869 80.9 447.544 85.2585C452.219 89.6169 455.065 95.5847 455.509 101.958Z" fill="#0C8CE9" stroke="#263238" stroke-width="1.1" stroke-miterlimit="10"/>
<path d="M94.994 90.1701C94.994 91.0545 94.7315 91.9191 94.2398 92.6544C93.748 93.3898 93.0491 93.9629 92.2313 94.3014C91.4136 94.6398 90.5138 94.7284 89.6456 94.5558C88.7775 94.3833 87.9801 93.9574 87.3542 93.332C86.7284 92.7067 86.3021 91.9099 86.1294 91.0425C85.9568 90.1751 86.0454 89.276 86.3841 88.4589C86.7228 87.6418 87.2964 86.9434 88.0324 86.4521C88.7684 85.9607 89.6336 85.6985 90.5187 85.6985C91.7056 85.6985 92.8439 86.1696 93.6832 87.0082C94.5225 87.8468 94.994 88.9842 94.994 90.1701Z" fill="#263238"/>
<path d="M113.92 90.1701C113.92 91.0545 113.658 91.9191 113.166 92.6544C112.674 93.3898 111.975 93.9629 111.157 94.3014C110.34 94.6398 109.44 94.7284 108.572 94.5558C107.704 94.3833 106.906 93.9574 106.28 93.332C105.654 92.7067 105.228 91.9099 105.055 91.0425C104.883 90.1751 104.971 89.276 105.31 88.4589C105.649 87.6418 106.222 86.9434 106.958 86.4521C107.694 85.9607 108.56 85.6985 109.445 85.6985C110.632 85.6985 111.77 86.1696 112.609 87.0082C113.449 87.8468 113.92 88.9842 113.92 90.1701Z" fill="#263238"/>
<path d="M128.371 94.6417C130.842 94.6417 132.846 92.6397 132.846 90.1701C132.846 87.7005 130.842 85.6985 128.371 85.6985C125.899 85.6985 123.896 87.7005 123.896 90.1701C123.896 92.6397 125.899 94.6417 128.371 94.6417Z" fill="#263238"/>
<path d="M444.577 111.379V300.632C444.577 306.909 442.082 312.929 437.64 317.367C433.198 321.806 427.173 324.299 420.891 324.299H80.4068C74.9241 324.298 69.6116 322.397 65.3753 318.919C61.139 315.441 58.2413 310.603 57.1764 305.229V305.161C56.8869 303.661 56.742 302.137 56.7437 300.61V111.379H444.577Z" stroke="#263238" stroke-width="1.1" stroke-miterlimit="10"/>
<path d="M393.22 65.8777V132.463C393.22 134.799 392.759 137.113 391.864 139.271C390.969 141.43 389.657 143.391 388.003 145.042C386.349 146.694 384.385 148.003 382.225 148.896C380.064 149.79 377.748 150.248 375.41 150.247H221.93C219.592 150.248 217.276 149.79 215.115 148.896C212.954 148.003 210.991 146.694 209.337 145.042C207.683 143.391 206.371 141.43 205.476 139.271C204.581 137.113 204.12 134.799 204.12 132.463V65.8777C204.123 61.159 206 56.6344 209.34 53.2978C212.679 49.9611 217.207 48.0853 221.93 48.0823H375.41C380.133 48.0823 384.663 49.9571 388.003 53.2944C391.343 56.6317 393.22 61.1581 393.22 65.8777Z" fill="white" stroke="#263238" stroke-width="1.1" stroke-miterlimit="10"/>
<path d="M393.22 65.8777V67.4024H204.12V65.8777C204.123 61.159 206 56.6344 209.34 53.2978C212.679 49.9611 217.207 48.0853 221.93 48.0823H375.41C380.133 48.0823 384.663 49.9571 388.003 53.2944C391.343 56.6317 393.22 61.1581 393.22 65.8777Z" fill="#0C8CE9" stroke="#263238" stroke-width="1.1" stroke-miterlimit="10"/>
<path d="M231.905 60.9282C231.523 61.3107 231.036 61.5715 230.506 61.6774C229.976 61.7833 229.426 61.7296 228.926 61.5231C228.426 61.3166 227.999 60.9666 227.698 60.5174C227.398 60.0682 227.237 59.5399 227.237 58.9996C227.237 58.4592 227.398 57.931 227.698 57.4817C227.999 57.0325 228.426 56.6825 228.926 56.476C229.426 56.2695 229.976 56.2159 230.506 56.3218C231.036 56.4277 231.523 56.6884 231.905 57.071C232.413 57.5844 232.699 58.2774 232.699 58.9996C232.699 59.7218 232.413 60.4148 231.905 60.9282Z" fill="#263238"/>
<path d="M244.568 60.9282C244.186 61.3107 243.699 61.5715 243.169 61.6774C242.639 61.7833 242.089 61.7296 241.589 61.5231C241.089 61.3166 240.662 60.9666 240.361 60.5174C240.061 60.0682 239.9 59.5399 239.9 58.9996C239.9 58.4592 240.061 57.931 240.361 57.4817C240.662 57.0325 241.089 56.6825 241.589 56.476C242.089 56.2695 242.639 56.2159 243.169 56.3218C243.699 56.4277 244.186 56.6884 244.568 57.071C245.077 57.5844 245.362 58.2774 245.362 58.9996C245.362 59.7218 245.077 60.4148 244.568 60.9282Z" fill="#263238"/>
<path d="M257.231 60.9282C256.849 61.3107 256.362 61.5715 255.832 61.6774C255.301 61.7833 254.751 61.7296 254.252 61.5231C253.752 61.3166 253.325 60.9666 253.024 60.5174C252.723 60.0682 252.563 59.5399 252.563 58.9996C252.563 58.4592 252.723 57.931 253.024 57.4817C253.325 57.0325 253.752 56.6825 254.252 56.476C254.751 56.2695 255.301 56.2159 255.832 56.3218C256.362 56.4277 256.849 56.6884 257.231 57.071C257.739 57.5844 258.024 58.2774 258.024 58.9996C258.024 59.7218 257.739 60.4148 257.231 60.9282Z" fill="#263238"/>
<path d="M277.99 79.6455H216.179V133.032H277.99V79.6455Z" stroke="#263238" stroke-width="1.1" stroke-linecap="round" stroke-linejoin="round" stroke-dasharray="4.41 4.41"/>
<path d="M358.659 79.6455H287.521V83.4003H358.659V79.6455Z" fill="#E1E7E9"/>
<path d="M342.09 87.4167H287.521V91.1602H342.09V87.4167Z" fill="#E1E7E9"/>
<path d="M368.771 95.1541H287.521V98.943H368.771V95.1541Z" fill="#E1E7E9"/>
<path d="M356.712 102.698H287.521V106.486H356.712V102.698Z" fill="#E1E7E9"/>
<path d="M303.361 452.941C303.361 452.941 270.338 462.396 265.726 464.035C261.535 465.514 250.171 469.496 241.642 468.256C240.818 468.138 240.004 467.963 239.205 467.732C230.562 465.161 226.678 462.76 225.54 457.333C224.401 451.905 228.705 447.9 232.85 445.34C236.995 442.78 259.474 440.106 259.474 440.106L264.906 441.699L303.361 452.941Z" fill="white"/>
<path d="M241.642 468.256C240.818 468.138 240.004 467.963 239.205 467.732C230.562 465.161 226.678 462.76 225.54 457.333C224.401 451.905 228.705 447.9 232.85 445.34C236.995 442.78 259.474 440.106 259.474 440.106L264.906 441.699C259.987 443.975 241.676 445.215 237.679 447.513C233.682 449.812 231.757 454.136 234.114 460.029C235.378 463.102 238.749 466.117 241.642 468.256Z" fill="white"/>
<path d="M403.947 469.792C403.605 473.205 402.41 476.402 398.993 478.416C399.977 475.061 399.776 471.469 398.424 468.244C396.146 463.136 388.733 458.63 378.986 457.879C369.238 457.128 361.779 452.577 357.873 450.54C354.821 448.958 348.387 445.499 345.711 444.066L348.615 439.514L356.108 441.198C356.108 441.198 362.314 444.714 368.555 447.513C374.795 450.312 389.952 450.927 395.292 455.216C400.633 459.506 404.528 464.171 403.947 469.792Z" fill="white"/>
<path d="M298.389 454.283C298.389 454.283 273.588 460.701 263.749 464.808C253.91 468.916 235.155 470.713 228.448 462.248C221.741 453.783 227.673 446.478 234.358 444.851C241.042 443.224 254.559 440.664 261.938 441.699" fill="#263238"/>
<path d="M261.938 440.356C261.938 440.356 259.934 449.05 264.125 439.356C267.222 432.211 253.625 445.602 261.961 441.699" fill="#263238"/>
<path d="M403.94 469.792C403.598 473.205 402.402 476.403 398.986 478.417C396.709 479.759 393.475 480.556 388.84 480.51C377.259 480.362 355.486 472.09 355.486 472.09L335.103 460.826L345.704 444.066L348.608 439.515L356.101 441.199C356.101 441.199 362.307 444.714 368.547 447.514C374.788 450.313 389.945 450.927 395.285 455.217C400.626 459.506 404.52 464.171 403.94 469.792Z" fill="#263238"/>
<path d="M339.623 463.989C354.296 472.511 370.512 478.045 387.337 480.271C391.049 480.715 395.365 480.783 397.847 477.996C398.508 477.19 399 476.261 399.293 475.262C399.586 474.263 399.676 473.215 399.556 472.181C399.111 466.947 394.705 462.806 389.876 460.723C385.048 458.641 379.73 458.163 374.594 457.014C369.487 455.864 364.549 454.058 359.904 451.644C356.215 449.721 352.651 447.388 348.585 446.523C344.52 445.659 339.68 446.706 337.505 450.255" fill="#263238"/>
<path d="M396.481 479.418C398.389 478.505 400.057 477.159 401.352 475.488C402.647 473.817 403.533 471.866 403.94 469.792C404.68 464.865 401.867 459.904 397.916 456.878C393.964 453.851 389.011 452.417 384.126 451.405C379.24 450.392 374.241 449.709 369.561 447.855C362.421 445.056 355.372 439.549 347.925 441.517" fill="#263238"/>
<path d="M362.626 287.718L328.133 274.611L327.701 274.44C327.701 274.44 327.826 273.53 327.928 272.164C328.145 269.411 328.259 264.928 326.961 263.415C325.036 261.139 312.818 270.291 307.5 267.856C302.182 265.421 299.13 262.538 299.13 262.538C299.13 262.538 292.024 261.23 288.881 266.35C287.287 270.48 287.833 276.59 287.833 276.59L287.184 276.818C283.073 278.354 260.708 286.763 255.983 290.142C250.756 293.84 244.971 331.809 243.115 342.959C241.259 354.11 237.956 364.157 239.63 367.991C241.304 371.826 265.332 390.315 279.156 395.083C292.98 399.85 342.003 398.496 342.003 398.496C342.003 398.496 342.8 398.28 344.224 397.825C352.514 395.162 381.928 384.171 397.54 358.365C397.563 358.411 382.44 308.882 362.626 287.718ZM269.431 351.584C266.892 353.382 268.292 360.345 268.292 360.345L263.977 356.545L274.817 329.909L279.441 350.389C279.441 350.389 271.971 349.798 269.431 351.584ZM356.158 368.503C354.962 369.118 359.574 356.317 357.388 353.416C355.201 350.514 348.608 350.788 348.608 350.788L349.166 347.294L353.072 327.269L354.37 325.733C354.37 325.733 367.785 348.705 370.187 356.807C370.187 356.829 355.566 368.503 356.158 368.503Z" fill="#263238"/>
<path d="M297.501 204.646L279.691 223.534C279.691 223.534 277.243 225.707 278.211 231.18C279.179 236.653 281.456 241.421 283.176 241.739C284.537 241.977 285.916 242.099 287.298 242.103C287.298 242.103 291.113 250.364 293.823 253.607C293.823 253.607 301.001 262.811 300.5 266.35C300.5 266.35 304.514 265.151 310.538 265.856C316.562 266.562 322.5 263.856 322.5 263.856L324.284 256.394C324.284 256.394 329.75 248.111 330.115 245.904C330.479 243.696 332.984 244.265 334.214 243.173C335.444 242.08 338.28 237.222 338.769 232.625C339.259 228.028 339.27 222.749 333.93 224.296C329.295 223.056 332.199 213.271 332.199 213.271L324.057 206.103L297.501 204.646Z" fill="#263238"/>
<path d="M293.823 253.607C293.823 253.607 294.803 263.267 293.823 267.681Z" fill="#263238"/>
<path d="M322.998 266.384C323.008 263.278 323.367 260.183 324.068 257.156Z" fill="#263238"/>
<path d="M325.583 211.849C325.583 211.849 331.436 219.188 331.128 224.74C330.821 230.293 330.388 236.869 330.536 243.309C330.684 249.749 320.185 263.244 314.787 264.439C309.39 265.633 304.744 265.94 301.293 262.493C297.843 259.045 294.393 254.255 289.906 248.111C285.419 241.967 286.49 228.484 286.49 228.484" fill="#263238"/>
<path d="M311.485 233.615C311.129 235.631 310.976 237.678 311.03 239.725C310.912 241.45 311.449 243.156 312.533 244.504C313.182 245.164 314.116 245.699 314.241 246.609C314.238 247.019 314.124 247.42 313.912 247.77C313.699 248.121 313.396 248.407 313.034 248.6C312.304 248.968 311.6 249.386 310.927 249.852" fill="#263238"/>
<path d="M302.227 250.557C302.227 250.557 302.899 254.915 308.741 255.825Z" fill="#263238"/>
<path d="M302.83 236.938C302.83 238.2 302.284 239.213 301.612 239.213C300.94 239.213 300.394 238.2 300.394 236.938C300.394 235.675 300.94 234.662 301.612 234.662C302.284 234.662 302.83 235.686 302.83 236.938Z" fill="#263238"/>
<path d="M320.265 237.484C320.265 238.747 319.718 239.759 319.046 239.759C318.374 239.759 317.828 238.735 317.828 237.484C317.828 236.232 318.374 235.208 319.046 235.208C319.718 235.208 320.265 236.221 320.265 237.484Z" fill="#263238"/>
<path d="M316.746 231.965C316.746 231.965 322.44 226.276 327.211 232.625Z" fill="#263238"/>
<path d="M304.755 232.079C304.755 232.079 301.157 228.051 295.486 232.079Z" fill="#263238"/>
<path d="M294.256 258.977C294.256 258.977 297.729 268.535 305.484 271.254C313.239 273.973 323.533 259.876 323.533 259.876L322.998 258.044C322.998 258.044 316.245 266.805 308.741 265.314C301.236 263.824 293.823 253.652 293.823 253.652L294.256 258.977Z" fill="#263238"/>
<path d="M287.298 241.739C287.298 241.739 282.675 243.366 281.445 239.771C280.215 236.175 276.002 226.697 279.691 223.534C283.381 220.371 286.342 227.71 286.342 227.71" fill="#263238"/>
<path d="M330.525 243.696C330.525 243.696 334.818 244.561 336.048 240.965C337.278 237.37 341.491 227.892 337.801 224.729C334.112 221.565 331.151 228.904 331.151 228.904" fill="#263238"/>
<path d="M286.342 236.938C287.948 236.685 289.397 235.83 290.396 234.548C291.005 233.423 291.392 232.19 291.534 230.918C291.957 228.499 292.17 226.047 292.172 223.591C292.122 222.631 292.21 221.67 292.434 220.735C292.776 219.795 293.302 218.932 293.983 218.198C295.588 216.309 297.536 214.716 299.073 212.759C299.897 211.835 300.524 210.754 300.915 209.58C301.307 208.406 301.455 207.165 301.35 205.932C304.873 208.834 308.99 210.93 313.41 212.072C317.831 213.214 322.448 213.375 326.938 212.543C335.08 210.95 342.88 203.816 341.935 194.85C341.757 193.346 341.112 191.937 340.09 190.818C339.069 189.7 337.723 188.929 336.241 188.614C332.222 187.613 328.612 189.752 324.968 191.129C318.329 193.632 311.827 189.331 305.12 188.614C299.426 187.989 292.331 188.705 289.348 194.406C289.348 194.406 279.099 195.612 274.544 204.077C269.989 212.543 278.61 224.251 278.61 224.251C278.61 224.251 282.026 220.064 286.501 228.529L286.342 236.938Z" fill="#263238"/>
<path d="M332.427 209.687C332.427 209.687 323.624 223.568 330.582 230.293C330.582 230.293 332.108 226.117 333.645 225.093C334.754 222.629 335.223 219.926 335.01 217.234C334.797 214.541 333.909 211.946 332.427 209.687Z" fill="#263238"/>
<path d="M338.974 193.894C338.363 195.788 337.328 197.518 335.946 198.951C334.565 200.385 332.874 201.484 331.003 202.166C321.347 206.103 311.975 201.745 302.295 200.891C294.404 200.186 285.693 207.309 285.135 215.41" fill="#263238"/>
<path d="M279.179 213.271C279.297 210.074 280.324 206.977 282.138 204.341C283.953 201.706 286.481 199.641 289.427 198.388" fill="#263238"/>
<path d="M291.591 266.384C295.838 270.806 300.961 274.294 306.634 276.625C306.634 276.625 318.192 273.268 324.068 265.246" fill="#263238"/>
<path d="M303.392 246.191C308.525 243.838 310.778 237.773 308.423 232.644C306.069 227.515 299.998 225.264 294.865 227.616C289.732 229.969 287.479 236.034 289.834 241.163C292.188 246.293 298.258 248.543 303.392 246.191Z" fill="#263238"/>
<path d="M323.218 247.09C328.824 246.402 332.81 241.304 332.122 235.704C331.434 230.103 326.331 226.12 320.726 226.807C315.12 227.495 311.134 232.593 311.822 238.194C312.511 243.795 317.613 247.778 323.218 247.09Z" fill="#263238"/>
<path d="M293.823 262.573C292.787 262.844 291.817 263.322 290.969 263.977C290.122 264.632 289.416 265.45 288.892 266.384C287.082 269.57 288.175 279.594 288.175 279.594C288.175 279.594 297.524 288.833 305.484 292.736L307.83 279.549L311.474 292.736C311.474 292.736 323.795 284.032 327.211 276.67C327.211 276.67 328.35 268.08 327.211 265.292C326.952 264.518 326.46 263.843 325.801 263.36C325.142 262.877 320.317 261.594 319.5 261.579" fill="#263238"/>
<path d="M279.179 350.799C279.179 350.799 275.524 326.336 270.661 316.357Z" fill="#263238"/>
<path d="M260.15 294.647C262.981 298.668 265.509 302.893 267.712 307.289Z" fill="#263238"/>
<path d="M356.158 312.91C357.14 308.819 358.485 304.825 360.178 300.974Z" fill="#263238"/>
<path d="M348.608 350.799C348.608 350.799 351.239 334.027 354.382 320.214Z" fill="#263238"/>
<path d="M353.072 327.246C355.615 323.878 359.19 321.432 363.252 320.282Z" fill="#263238"/>
<path d="M327.712 274.44C327.712 274.44 348.927 282.917 362.626 287.73C362.626 287.73 379.479 303.557 397.551 358.411C397.551 358.411 380.994 386.242 349.496 395.162" fill="#263238"/>
<path d="M354.962 369.493L370.187 356.829C370.187 356.829 378.238 350.719 386.608 354.895" fill="#263238"/>
<path d="M354.382 325.733C354.382 325.733 366.965 344.313 370.187 356.829Z" fill="#263238"/>
<path d="M268.384 361.051L263.931 356.829C263.931 356.829 257.326 355.691 249.833 360.686" fill="#263238"/>
<path d="M263.931 356.829C263.931 356.829 269.465 338.624 274.92 329.305Z" fill="#263238"/>
<path d="M287.856 276.67C287.856 276.67 257.326 288.116 254.331 291.462C251.337 294.807 239.96 358.809 239.653 366.137C239.391 372.69 263.168 387.402 274.954 393.604" fill="#263238"/>
<path d="M310.688 298.3C310.688 298.698 310.57 299.088 310.348 299.419C310.127 299.75 309.812 300.008 309.444 300.16C309.075 300.313 308.67 300.353 308.279 300.275C307.888 300.197 307.529 300.006 307.247 299.724C306.965 299.442 306.773 299.083 306.695 298.693C306.618 298.302 306.658 297.897 306.81 297.529C306.963 297.161 307.221 296.847 307.553 296.625C307.884 296.404 308.274 296.286 308.672 296.286C308.937 296.284 309.2 296.335 309.445 296.436C309.691 296.537 309.913 296.685 310.101 296.872C310.288 297.06 310.437 297.282 310.538 297.527C310.638 297.772 310.689 298.035 310.688 298.3Z" fill="#263238"/>
<path d="M348.449 400.066L357.752 356.374C357.897 355.697 357.888 354.995 357.726 354.322C357.564 353.649 357.253 353.02 356.816 352.482C356.379 351.944 355.828 351.511 355.201 351.214C354.575 350.916 353.89 350.763 353.197 350.765H272.005C271.317 350.765 270.639 350.917 270.018 351.211C269.396 351.505 268.848 351.933 268.412 352.464C267.977 352.995 267.664 353.616 267.498 354.283C267.331 354.949 267.315 355.644 267.45 356.317L275.797 398.553C276.001 399.59 276.554 400.527 277.364 401.207C278.174 401.888 279.191 402.272 280.249 402.296L343.78 403.753C344.866 403.777 345.926 403.422 346.778 402.749C347.63 402.076 348.221 401.127 348.449 400.066Z" fill="#263238"/>
<path d="M348.608 446.455L341.206 465.866C341.206 465.866 322.326 461.11 298.15 456.161C272.859 450.984 246.451 444.282 232.752 420.263C231.09 417.338 229.974 413.88 230.759 410.603C232.729 402.308 243.536 400.055 250.653 399.224C255.128 398.741 259.624 398.49 264.125 398.473C266.402 398.473 273.975 397.233 275.808 398.587C278.563 400.595 277.5 402.356 277.5 402.356L346.5 403.753C347.527 401.516 349.295 397.615 349.496 395.162C358.777 390.452 380.242 386.469 389.352 388.233C403.621 390.998 411.945 399.315 410.362 408.031C408.779 416.747 377.259 440.118 348.608 446.455Z" fill="#263238"/>
<path d="M348.608 446.455C348.608 446.455 330.65 441.699 315.983 431.8C301.316 421.901 289.86 410.409 269.42 412.787" fill="#263238"/>
<path d="M312.624 429.468C321.893 426.805 328.691 420.809 336.127 415.063C343.971 408.773 352.393 403.241 361.282 398.542" fill="#263238"/>
<path fill-rule="evenodd" clip-rule="evenodd" d="M370 356.756C368.167 351.256 363.5 338.156 355.5 327.756L351.5 350.256L353.5 350.756L355.5 351.256L357 352.756L358 354.756V356.756L355 369.256L370 356.756ZM270 350.756L276 334.756L279.5 350.756H270Z" fill="#E7F4FD"/>
<path d="M398.39 231.123H363.601C359.494 231.123 356.165 234.45 356.165 238.553V258.954C356.165 263.058 359.494 266.384 363.601 266.384H398.39C402.497 266.384 405.826 263.058 405.826 258.954V238.553C405.826 234.45 402.497 231.123 398.39 231.123Z" fill="white" stroke="#263238" stroke-width="1.1" stroke-linecap="round" stroke-linejoin="round"/>
<path d="M372.187 241.728L362.633 247.724L371.493 255.575" stroke="#263238" stroke-width="1.1" stroke-linecap="round" stroke-linejoin="round"/>
<path d="M389.587 256.144L398.173 248.839L388.266 242.354" stroke="#263238" stroke-width="1.1" stroke-linecap="round" stroke-linejoin="round"/>
<path d="M376.822 260.65L383.882 238.553" stroke="#263238" stroke-width="1.1" stroke-linecap="round" stroke-linejoin="round"/>
<path d="M196.57 165.414H77.4802C69.2352 165.414 62.5513 172.093 62.5513 180.331V345.076C62.5513 353.314 69.2352 359.993 77.4802 359.993H196.57C204.815 359.993 211.499 353.314 211.499 345.076V180.331C211.499 172.093 204.815 165.414 196.57 165.414Z" fill="white" stroke="#263238" stroke-width="1.1" stroke-miterlimit="10"/>
<path d="M225.358 195.032V359.776C225.359 361.736 224.974 363.677 224.225 365.488C223.475 367.299 222.376 368.945 220.989 370.331C219.603 371.718 217.957 372.817 216.145 373.568C214.333 374.318 212.39 374.704 210.429 374.704H91.3389C89.3784 374.703 87.4374 374.316 85.6267 373.565C83.8161 372.814 82.1711 371.714 80.7859 370.327C79.4007 368.941 78.3023 367.296 77.5534 365.485C76.8046 363.675 76.4199 361.735 76.4214 359.776V195.032C76.4214 191.077 77.9927 187.285 80.79 184.488C83.5872 181.691 87.3815 180.118 91.3389 180.115H210.429C214.388 180.115 218.185 181.686 220.985 184.484C223.785 187.281 225.358 191.075 225.358 195.032Z" fill="white" stroke="#263238" stroke-width="1.1" stroke-linecap="round" stroke-linejoin="round"/>
<path d="M225.358 195.032V203.85H76.4214V195.032C76.4214 191.077 77.9927 187.285 80.7899 184.488C83.5872 181.691 87.3815 180.118 91.3389 180.115H210.429C214.388 180.115 218.185 181.686 220.985 184.484C223.785 187.281 225.358 191.075 225.358 195.032Z" fill="#0C8CE9" stroke="#263238" stroke-width="1.1" stroke-miterlimit="10"/>
<path d="M127.061 214.067H90.4165V220.211H127.061V214.067Z" fill="#0C8CE9"/>
<path d="M127.061 269.126H90.4165V275.27H127.061V269.126Z" fill="#0C8CE9"/>
<path d="M127.061 319.054H90.4165V325.198H127.061V319.054Z" fill="#0C8CE9"/>
<path d="M194.486 229.269H90.4165V233.774H194.486V229.269Z" fill="#E1E7E9"/>
<path d="M175.72 237.893H90.4165V242.285H175.72V237.893Z" fill="#E1E7E9"/>
<path d="M186.891 246.37H90.4165V250.762H186.891V246.37Z" fill="#E1E7E9"/>
<path d="M186.891 254.835H90.4165V259.227H186.891V254.835Z" fill="#E1E7E9"/>
<path d="M194.486 279.196H90.4165V283.702H194.486V279.196Z" fill="#E1E7E9"/>
<path d="M175.72 287.821H90.4165V292.213H175.72V287.821Z" fill="#E1E7E9"/>
<path d="M186.891 296.297H90.4165V300.689H186.891V296.297Z" fill="#E1E7E9"/>
<path d="M194.486 334.028H90.4165V338.533H194.486V334.028Z" fill="#E1E7E9"/>
<path d="M175.72 342.652H90.4165V347.044H175.72V342.652Z" fill="#E1E7E9"/>
<path d="M186.891 351.129H90.4165V355.521H186.891V351.129Z" fill="#E1E7E9"/>
<path d="M298.397 454.283C298.397 454.283 273.595 460.701 263.756 464.808C253.917 468.916 235.162 470.713 228.455 462.248C221.748 453.783 227.68 446.478 234.365 444.851C241.049 443.224 254.566 440.664 261.945 441.699" fill="white"/>
<path d="M298.397 454.283C298.397 454.283 273.595 460.701 263.756 464.808C253.917 468.916 235.162 470.713 228.455 462.248C221.748 453.783 227.68 446.478 234.365 444.851C241.049 443.224 254.566 440.664 261.945 441.699" stroke="#263238" stroke-width="1.1" stroke-linecap="round" stroke-linejoin="round"/>
<path d="M242.131 467.812C242.131 467.812 229.514 460.894 233.705 451.2C236.802 444.055 253.633 445.602 261.968 441.699" stroke="#263238" stroke-width="1.1" stroke-linecap="round" stroke-linejoin="round"/>
<path d="M403.947 469.792C403.605 473.205 402.41 476.403 398.993 478.417C396.716 479.759 393.482 480.556 388.847 480.51C377.266 480.362 355.493 472.09 355.493 472.09L335.11 460.826L345.712 444.066L348.615 439.515L356.108 441.199C356.108 441.199 362.314 444.714 368.555 447.514C374.795 450.313 389.952 450.927 395.293 455.217C400.633 459.506 404.528 464.171 403.947 469.792Z" fill="white"/>
<path d="M339.63 463.989C354.303 472.511 370.52 478.045 387.344 480.271C391.056 480.715 395.372 480.783 397.855 477.996C398.515 477.19 399.007 476.261 399.3 475.262C399.594 474.263 399.683 473.215 399.563 472.181C399.119 466.947 394.712 462.806 389.883 460.723C385.055 458.641 379.737 458.163 374.601 457.014C369.494 455.864 364.556 454.058 359.912 451.644C356.222 449.721 352.658 447.388 348.592 446.523C344.527 445.659 339.687 446.706 337.512 450.255" stroke="#263238" stroke-width="1.1" stroke-linecap="round" stroke-linejoin="round"/>
<path d="M396.488 479.418C398.396 478.505 400.064 477.159 401.359 475.488C402.654 473.817 403.54 471.866 403.947 469.792C404.687 464.865 401.874 459.904 397.923 456.878C393.972 453.851 389.018 452.417 384.133 451.405C379.248 450.392 374.249 449.709 369.568 447.855C362.428 445.056 355.38 439.549 347.932 441.517" stroke="#263238" stroke-width="1.1" stroke-linecap="round" stroke-linejoin="round"/>
<path d="M362.633 287.718L328.141 274.611L327.708 274.44C327.708 274.44 327.833 273.53 327.936 272.164C328.152 269.411 328.266 264.928 326.968 263.415C325.043 261.139 319.6 263.05 314.282 260.615C308.964 258.181 299.137 262.538 299.137 262.538C299.137 262.538 292.031 261.23 288.888 266.35C287.294 270.48 287.84 276.59 287.84 276.59L287.191 276.818C283.08 278.354 260.715 286.763 255.99 290.142C250.763 293.84 244.978 331.809 243.122 342.959C241.266 354.11 237.963 364.157 239.637 367.991C241.311 371.826 265.339 390.315 279.163 395.083C292.987 399.85 342.01 398.496 342.01 398.496C342.01 398.496 342.808 398.28 344.231 397.825C352.521 395.162 381.935 384.171 397.547 358.365C397.57 358.411 382.447 308.882 362.633 287.718ZM269.438 351.584C266.899 353.382 268.3 360.345 268.3 360.345L263.984 356.545L269 342.256L274.824 329.909L279.448 350.389C279.448 350.389 271.978 349.798 269.438 351.584ZM356.165 368.503C354.969 369.118 359.581 356.317 357.395 353.416C355.209 350.514 348.615 350.788 348.615 350.788L349.173 347.294L353.079 327.269L354.377 325.733C354.377 325.733 367.792 348.705 370.194 356.807C370.194 356.829 355.573 368.503 356.165 368.503Z" fill="#E90C59"/>
<path d="M297.508 204.646L279.699 223.534C279.699 223.534 277.25 225.707 278.218 231.18C279.186 236.653 281.464 241.421 283.183 241.739C284.544 241.977 285.923 242.099 287.305 242.103C287.305 242.103 291.12 250.364 293.83 253.607C293.83 253.607 294.764 266.361 294.263 269.9C294.263 269.9 300.663 275.487 306.687 276.192C312.711 276.898 322.014 267.681 322.014 267.681L324.292 256.394C324.292 256.394 329.758 248.111 330.122 245.904C330.487 243.696 332.992 244.265 334.222 243.173C335.451 242.08 338.287 237.222 338.777 232.625C339.266 228.028 339.278 222.749 333.937 224.296C329.302 223.056 332.206 213.271 332.206 213.271L324.064 206.103L297.508 204.646Z" fill="white"/>
<path d="M293.83 253.606C293.83 253.606 294.809 263.267 293.83 267.681" stroke="#263238" stroke-width="1.1" stroke-linecap="round" stroke-linejoin="round"/>
<path d="M323.005 266.384C323.015 263.278 323.375 260.183 324.075 257.156" stroke="#263238" stroke-width="1.1" stroke-linecap="round" stroke-linejoin="round"/>
<path d="M325.59 211.849C325.59 211.849 331.443 219.188 331.136 224.74C330.828 230.293 330.395 236.869 330.543 243.309C330.691 249.749 320.192 263.244 314.795 264.439C309.397 265.633 304.751 265.94 301.3 262.493C297.85 259.045 294.4 254.255 289.913 248.111C285.426 241.967 286.497 228.484 286.497 228.484" stroke="#263238" stroke-width="1.1" stroke-linecap="round" stroke-linejoin="round"/>
<path d="M311.492 233.615C311.135 235.631 310.983 237.678 311.037 239.725C310.919 241.45 311.456 243.156 312.54 244.504C313.189 245.164 314.123 245.699 314.248 246.609C314.245 247.019 314.131 247.42 313.918 247.77C313.706 248.121 313.403 248.407 313.041 248.6C312.31 248.968 311.607 249.386 310.934 249.852" stroke="#263238" stroke-width="1.1" stroke-linecap="round" stroke-linejoin="round"/>
<path d="M302.234 250.557C302.234 250.557 302.906 254.915 308.748 255.825" stroke="#263238" stroke-width="1.1" stroke-linecap="round" stroke-linejoin="round"/>
<path d="M302.838 236.938C302.838 238.2 302.291 239.213 301.619 239.213C300.947 239.213 300.401 238.2 300.401 236.938C300.401 235.675 300.947 234.662 301.619 234.662C302.291 234.662 302.838 235.686 302.838 236.938Z" fill="#263238"/>
<path d="M320.272 237.484C320.272 238.747 319.725 239.759 319.053 239.759C318.382 239.759 317.835 238.735 317.835 237.484C317.835 236.232 318.382 235.208 319.053 235.208C319.725 235.208 320.272 236.221 320.272 237.484Z" fill="#263238"/>
<path d="M316.753 231.965C316.753 231.965 322.447 226.276 327.218 232.625" stroke="#263238" stroke-width="2.21" stroke-linecap="round" stroke-linejoin="round"/>
<path d="M304.762 232.079C304.762 232.079 301.164 228.051 295.493 232.079" stroke="#263238" stroke-width="2.21" stroke-linecap="round" stroke-linejoin="round"/>
<path d="M294.263 258.977C294.263 258.977 297.736 268.535 305.491 271.254C313.246 273.973 323.54 259.876 323.54 259.876L323.005 258.044C323.005 258.044 316.252 266.805 308.748 265.314C301.243 263.824 293.83 253.652 293.83 253.652L294.263 258.977Z" fill="#263238"/>
<path d="M287.305 241.739C287.305 241.739 282.682 243.366 281.452 239.771C280.222 236.175 276.009 226.697 279.698 223.534C283.388 220.371 286.349 227.71 286.349 227.71" stroke="#263238" stroke-width="1.1" stroke-linecap="round" stroke-linejoin="round"/>
<path d="M330.532 243.696C330.532 243.696 334.825 244.561 336.055 240.965C337.285 237.37 341.498 227.892 337.809 224.729C334.119 221.565 331.158 228.904 331.158 228.904" stroke="#263238" stroke-width="1.1" stroke-linecap="round" stroke-linejoin="round"/>
<path d="M286.349 236.938C287.955 236.685 289.404 235.83 290.403 234.548C291.012 233.423 291.399 232.19 291.541 230.918C291.964 228.499 292.178 226.047 292.179 223.591C292.129 222.631 292.217 221.67 292.441 220.735C292.783 219.795 293.309 218.932 293.99 218.198C295.595 216.309 297.543 214.716 299.08 212.759C299.904 211.835 300.531 210.754 300.922 209.58C301.314 208.406 301.462 207.165 301.357 205.932C304.88 208.834 308.997 210.93 313.418 212.072C317.838 213.214 322.456 213.375 326.945 212.543C335.087 210.95 342.887 203.816 341.942 194.85C341.764 193.346 341.119 191.937 340.097 190.818C339.076 189.7 337.73 188.929 336.249 188.614C332.229 187.613 328.619 189.752 324.975 191.129C318.336 193.632 311.834 189.331 305.127 188.614C299.433 187.989 292.339 188.705 289.355 194.406C289.355 194.406 279.106 195.612 274.551 204.077C269.996 212.543 278.617 224.251 278.617 224.251C278.617 224.251 282.033 220.064 286.508 228.529L286.349 236.938Z" fill="#263238"/>
<path d="M326.296 209.687C326.296 209.687 323.631 223.568 330.589 230.293C330.589 230.293 332.115 226.117 333.652 225.093C334.76 222.629 335.23 219.926 335.017 217.234C334.804 214.541 333.915 211.946 332.434 209.687C327.286 201.608 326.296 209.687 326.296 209.687Z" fill="#263238"/>
<path opacity="0.2" d="M338.981 193.894C338.371 195.788 337.335 197.518 335.953 198.951C334.572 200.385 332.881 201.484 331.01 202.166C321.354 206.103 311.982 201.745 302.302 200.891C294.411 200.186 285.7 207.309 285.142 215.41" stroke="white" stroke-width="1.1" stroke-linecap="round" stroke-linejoin="round"/>
<path opacity="0.2" d="M279.186 213.271C279.304 210.074 280.331 206.977 282.146 204.341C283.961 201.706 286.489 199.641 289.435 198.388" stroke="white" stroke-width="1.1" stroke-linecap="round" stroke-linejoin="round"/>
<path d="M291.598 266.384C295.845 270.806 300.968 274.294 306.641 276.625C306.641 276.625 318.199 273.268 324.075 265.246" stroke="#263238" stroke-width="1.1" stroke-linecap="round" stroke-linejoin="round"/>
<path d="M303.399 246.191C308.532 243.838 310.785 237.773 308.43 232.644C306.076 227.515 300.005 225.264 294.872 227.616C289.739 229.969 287.486 236.034 289.841 241.163C292.195 246.293 298.265 248.543 303.399 246.191Z" stroke="#263238" stroke-width="1.1" stroke-linecap="round" stroke-linejoin="round"/>
<path d="M323.226 247.09C328.831 246.402 332.817 241.304 332.129 235.704C331.441 230.103 326.339 226.12 320.733 226.807C315.128 227.495 311.141 232.593 311.83 238.194C312.518 243.795 317.62 247.778 323.226 247.09Z" stroke="#263238" stroke-width="1.1" stroke-linecap="round" stroke-linejoin="round"/>
<path d="M293.83 262.573C292.794 262.844 291.824 263.322 290.976 263.977C290.129 264.632 289.423 265.45 288.899 266.384C287.089 269.57 288.182 279.594 288.182 279.594C288.182 279.594 297.531 288.833 305.491 292.736L307.837 279.549L311.481 292.736C311.481 292.736 323.802 284.032 327.218 276.67C327.218 276.67 328.357 268.08 327.218 265.292C326.959 264.518 326.467 263.843 325.808 263.36C325.149 262.877 324.357 262.61 323.54 262.595" stroke="#263238" stroke-width="1.1" stroke-linecap="round" stroke-linejoin="round"/>
<path d="M279.186 350.799C279.186 350.799 275.53 326.336 270.668 316.357" stroke="#263238" stroke-width="1.1" stroke-linecap="round" stroke-linejoin="round"/>
<path d="M260.157 294.647C262.989 298.668 265.516 302.893 267.719 307.289" stroke="#263238" stroke-width="1.1" stroke-linecap="round" stroke-linejoin="round"/>
<path d="M356.165 312.91C357.147 308.819 358.492 304.825 360.185 300.974" stroke="#263238" stroke-width="1.1" stroke-linecap="round" stroke-linejoin="round"/>
<path d="M348.615 350.799C348.615 350.799 351.246 334.027 354.389 320.214" stroke="#263238" stroke-width="1.1" stroke-linecap="round" stroke-linejoin="round"/>
<path d="M353.079 327.246C355.622 323.878 359.197 321.432 363.259 320.282" stroke="#263238" stroke-width="1.1" stroke-linecap="round" stroke-linejoin="round"/>
<path d="M327.719 274.44C327.719 274.44 348.934 282.917 362.633 287.73C362.633 287.73 379.487 303.557 397.558 358.411C397.558 358.411 381.001 386.242 349.503 395.162" stroke="#263238" stroke-width="1.1" stroke-linecap="round" stroke-linejoin="round"/>
<path d="M354.969 369.493L370.194 356.829C370.194 356.829 378.245 350.719 386.615 354.895" stroke="#263238" stroke-width="1.1" stroke-linecap="round" stroke-linejoin="round"/>
<path d="M354.389 325.733C354.389 325.733 366.972 344.313 370.194 356.829" stroke="#263238" stroke-width="1.1" stroke-linecap="round" stroke-linejoin="round"/>
<path d="M268.391 361.051L263.938 356.829C263.938 356.829 257.334 355.691 249.841 360.686" stroke="#263238" stroke-width="1.1" stroke-linecap="round" stroke-linejoin="round"/>
<path d="M263.938 356.829C263.938 356.829 269.473 338.624 274.927 329.305" stroke="#263238" stroke-width="1.1" stroke-linecap="round" stroke-linejoin="round"/>
<path d="M287.863 276.67C287.863 276.67 257.333 288.116 254.339 291.462C251.344 294.807 239.968 358.809 239.66 366.137C239.398 372.69 263.175 387.402 274.961 393.603" stroke="#263238" stroke-width="1.1" stroke-linecap="round" stroke-linejoin="round"/>
<path d="M310.695 298.3C310.695 298.698 310.577 299.088 310.356 299.419C310.134 299.75 309.819 300.008 309.451 300.161C309.083 300.313 308.677 300.353 308.286 300.275C307.895 300.197 307.536 300.006 307.254 299.724C306.973 299.442 306.781 299.083 306.703 298.693C306.625 298.302 306.665 297.897 306.818 297.529C306.97 297.161 307.228 296.847 307.56 296.625C307.891 296.404 308.281 296.286 308.68 296.286C308.945 296.284 309.208 296.335 309.453 296.436C309.698 296.537 309.921 296.685 310.108 296.872C310.296 297.06 310.444 297.282 310.545 297.527C310.646 297.772 310.697 298.035 310.695 298.3Z" fill="#263238"/>
<path d="M346.019 405.505H276.555C276.124 405.505 275.709 405.334 275.404 405.029C275.099 404.723 274.927 404.31 274.927 403.878C274.927 403.447 275.099 403.033 275.404 402.728C275.709 402.422 276.124 402.251 276.555 402.251H346.019C346.451 402.251 346.865 402.422 347.17 402.728C347.476 403.033 347.647 403.447 347.647 403.878C347.647 404.31 347.476 404.723 347.17 405.029C346.865 405.334 346.451 405.505 346.019 405.505Z" fill="#263238"/>
<path d="M348.456 400.066L357.759 356.374C357.904 355.697 357.895 354.996 357.733 354.322C357.571 353.649 357.26 353.02 356.823 352.482C356.386 351.944 355.835 351.511 355.209 351.214C354.582 350.916 353.898 350.763 353.204 350.765H272.012C271.325 350.765 270.646 350.917 270.025 351.211C269.403 351.505 268.855 351.933 268.42 352.464C267.984 352.995 267.672 353.616 267.505 354.283C267.339 354.949 267.322 355.644 267.457 356.317L275.804 398.553C276.009 399.59 276.561 400.527 277.371 401.207C278.181 401.888 279.199 402.272 280.256 402.296L343.787 403.753C344.873 403.777 345.933 403.422 346.785 402.749C347.638 402.076 348.228 401.127 348.456 400.066Z" fill="white" stroke="#263238" stroke-width="1.1" stroke-linecap="round" stroke-linejoin="round"/>
<path d="M348.615 446.455L341.213 465.866C341.213 465.866 322.333 461.11 298.157 456.161C272.866 450.984 246.458 444.282 232.759 420.263C231.097 417.338 229.981 413.88 230.767 410.603C232.737 402.308 243.543 400.055 250.66 399.224C255.135 398.741 259.631 398.49 264.132 398.473C266.409 398.473 273.982 397.233 275.815 398.587C278.57 400.595 281.51 402.336 284.595 403.787C288.638 405.505 347.647 402.251 347.647 402.251C348.674 400.014 349.302 397.615 349.503 395.162C358.784 390.452 380.25 386.469 389.359 388.233C403.628 390.998 411.952 399.315 410.369 408.031C408.786 416.747 377.266 440.118 348.615 446.455Z" fill="#263238"/>
<path d="M348.615 446.455C348.615 446.455 330.657 441.699 315.99 431.8C301.323 421.901 289.867 410.409 269.427 412.787" stroke="white" stroke-width="1.1" stroke-linecap="round" stroke-linejoin="round"/>
<path d="M312.631 429.468C321.9 426.805 328.699 420.809 336.135 415.063C343.978 408.773 352.4 403.241 361.289 398.542" stroke="white" stroke-width="1.1" stroke-linecap="round" stroke-linejoin="round"/>
<path d="M309.363 238.553H312.073" stroke="#263238" stroke-width="1.1" stroke-linecap="round" stroke-linejoin="round"/>
<path d="M122.048 421.167C120.268 426.007 168.048 435.087 163.848 421.167C159.648 407.247 123.838 416.317 122.048 421.167Z" fill="#738BB1"/>
<path d="M459.17 404.28L482.862 385.25C482.862 385.25 493.992 398.697 481.895 407.063C469.798 415.429 459.17 404.28 459.17 404.28Z" fill="#F362B2"/>
<path d="M147.922 27.7963C149.608 20.6528 145.183 13.4949 138.04 11.8088C130.896 10.1228 123.738 14.5471 122.052 21.6907C120.366 28.8342 124.791 35.9921 131.934 37.6781C139.078 39.3641 146.236 34.9399 147.922 27.7963Z" fill="#F9D55C"/>
<defs>
<filter id="filter0_d_96_462" x="43.8611" y="77.8779" width="418.278" height="262.495" filterUnits="userSpaceOnUse" color-interpolation-filters="sRGB">
<feFlood flood-opacity="0" result="BackgroundImageFix"/>
<feColorMatrix in="SourceAlpha" type="matrix" values="0 0 0 0 0 0 0 0 0 0 0 0 0 0 0 0 0 0 127 0" result="hardAlpha"/>
<feOffset dx="6" dy="6"/>
<feComposite in2="hardAlpha" operator="out"/>
<feColorMatrix type="matrix" values="0 0 0 0 0.14902 0 0 0 0 0.196078 0 0 0 0 0.219608 0 0 0 1 0"/>
<feBlend mode="normal" in2="BackgroundImageFix" result="effect1_dropShadow_96_462"/>
<feBlend mode="normal" in="SourceGraphic" in2="effect1_dropShadow_96_462" result="shape"/>
</filter>
</defs>
</svg>
