<svg width="100" height="101" viewBox="0 0 100 101" fill="none" xmlns="http://www.w3.org/2000/svg">
<path d="M65.3908 37.2209C63.3399 25.867 63.9573 14.2585 67.2 3.0088L50.1567 0C46.4078 13.0023 45.6986 26.4344 48.0648 39.5571L65.3908 37.2209Z" fill="#263238"/>
<path d="M63.7825 3.20007L53.1252 1.39264C52.7949 2.57467 51.5147 3.38812 50.228 3.19792C47.4939 14.0365 46.8986 25.3002 48.475 36.3645C49.7789 36.2248 50.9706 37.0845 51.1736 38.2794L62.0003 36.8954C61.8125 35.795 62.7452 34.7881 64.0513 34.6484C62.6677 24.9337 63.1908 15.044 65.5916 5.52759C64.3039 5.33309 63.4792 4.29075 63.7825 3.20007Z" fill="#0C8CE9"/>
<path d="M58.9693 25.8262C61.5599 24.6442 62.594 21.5451 61.4433 18.8297C60.2927 16.1143 57.2691 14.5465 54.5295 15.3911C51.7899 16.2357 50.473 19.4411 51.7737 22.494C53.0744 25.5468 56.3786 27.005 58.9693 25.8262Z" fill="#263238"/>
<path d="M60.8605 19.8162L59.9192 20.1461C60.1826 21.3163 59.7486 22.1877 58.9337 22.4908C58.1187 22.7938 57.4008 22.5187 56.5308 21.4689C55.8918 20.7242 55.5593 20.4362 55.2549 20.5404C54.9959 20.6275 54.8231 20.9294 55.0811 21.5881C55.2013 21.89 55.361 22.1747 55.5561 22.4349C55.772 22.7197 55.7374 23.1119 55.4816 23.301C55.2333 23.4837 54.8674 23.4085 54.6634 23.1226C54.4662 22.8443 54.2977 22.5469 54.1604 22.235L53.3476 22.5209C53.2115 22.1842 53.0773 21.8471 52.9449 21.5097L53.8257 21.2099C53.5893 20.0451 54.0006 19.2026 54.821 18.9393C55.7277 18.6492 56.4639 19.2327 57.2141 20.1772C57.7355 20.8306 58.0863 21.0637 58.436 20.9391C58.8052 20.8069 58.8527 20.3556 58.6325 19.8001C58.4874 19.4391 58.2899 19.1013 58.0464 18.7975C57.9936 18.7362 57.9541 18.6647 57.9305 18.5876C57.9068 18.5104 57.8995 18.4291 57.9089 18.349C57.9184 18.2688 57.9444 18.1915 57.9853 18.1219C58.0262 18.0522 58.0812 17.9917 58.1467 17.9443L58.1759 17.9239C58.303 17.8469 58.4546 17.8206 58.6004 17.8503C58.7461 17.88 58.8752 17.9635 58.9617 18.084C59.2202 18.4219 59.4376 18.7891 59.6094 19.1779L60.4891 18.8748C60.6107 19.1908 60.7345 19.5045 60.8605 19.8162Z" fill="white"/>
<path d="M66.6538 33.3891C58.685 24.0167 52.5407 13.248 48.5354 1.63446L33.9706 5.96176C38.602 19.3882 45.7061 31.8379 54.9192 42.6734L66.6538 33.3891Z" fill="#263238"/>
<path d="M46.0678 3.22162L37.0005 5.99293C37.4268 7.20397 36.9227 8.46444 35.8444 8.82765C40.0453 19.9407 45.9723 30.3285 53.409 39.6119C54.3136 38.9457 55.7007 39.2315 56.5394 40.2309L63.9141 34.497C63.1466 33.5771 63.2762 32.278 64.1797 31.6128C57.6487 23.4605 52.4436 14.3381 48.7545 4.5788C47.675 4.93878 46.4564 4.33595 46.0678 3.22162Z" fill="#0C8CE9"/>
<path d="M52.5488 27.4445C54.9775 25.9552 55.6144 22.7508 54.1345 20.1966C52.6546 17.6423 49.4605 16.4603 46.8461 17.6316C44.2317 18.8029 43.3239 22.1448 44.9938 25.0192C46.6637 27.8937 50.1265 28.9328 52.5488 27.4445Z" fill="#263238"/>
<path d="M53.6778 21.2475L52.7862 21.6945C53.1932 22.825 52.8704 23.7362 52.0986 24.1435C51.3268 24.5507 50.5874 24.3584 49.5878 23.4257C48.8614 22.7648 48.4976 22.5187 48.2062 22.6606C47.96 22.7788 47.8208 23.1001 48.1641 23.7212C48.3206 24.0064 48.5149 24.2695 48.7415 24.5034C48.9898 24.7603 49.0049 25.1482 48.7739 25.3717C48.5505 25.5866 48.1781 25.5522 47.9406 25.2954C47.7099 25.0438 47.5055 24.7694 47.3307 24.4766L46.5643 24.8602C46.3873 24.5428 46.2121 24.2251 46.0386 23.9071L46.8763 23.5009C46.4974 22.3747 46.7996 21.4871 47.5822 21.1261C48.4458 20.7263 49.2478 21.2142 50.1103 22.0588C50.7083 22.6423 51.0818 22.8314 51.4175 22.6649C51.7672 22.4886 51.7586 22.0341 51.4704 21.5097C51.2813 21.1695 51.0435 20.8586 50.7644 20.5866C50.7045 20.5323 50.6565 20.4661 50.6235 20.3924C50.5904 20.3187 50.5731 20.2389 50.5725 20.1582C50.5718 20.0775 50.588 19.9975 50.6199 19.9233C50.6518 19.8491 50.6988 19.7822 50.7579 19.727L50.7849 19.7033C50.9014 19.6114 51.0484 19.5666 51.1966 19.5782C51.3448 19.5898 51.4831 19.6567 51.5837 19.7657C51.8816 20.0693 52.1425 20.4069 52.3609 20.7715L53.1964 20.3631C53.3518 20.6597 53.5148 20.9541 53.6778 21.2475Z" fill="white"/>
<path d="M63.0722 35.2244C53.4361 30.7499 44.4346 24.3713 36.5428 16.4119L28.8 26.2485C37.9234 35.4469 48.3314 42.827 59.4734 48C60.6737 43.7411 61.8733 39.4826 63.0722 35.2244Z" fill="#263238"/>
<path d="M35.621 18.7932L30.838 24.9817C31.6735 25.8123 31.9121 27.0835 31.3572 27.8454C39.1627 35.3072 47.8446 41.4634 57.0749 46.083C57.375 45.1395 58.4296 44.7849 59.441 45.2642C60.2103 42.6136 60.9796 39.9651 61.7488 37.3188C60.8184 36.8783 60.3132 35.737 60.6133 34.7947C52.5067 30.7382 44.8826 25.332 38.0282 18.7836C37.4733 19.5433 36.3896 19.5573 35.621 18.7932Z" fill="#E90C59"/>
<path d="M50.9631 36.2796C51.9054 33.9962 50.8713 31.0443 48.7232 29.5421C46.5751 28.0398 43.9068 28.4138 42.6967 30.5092C41.4867 32.6046 42.4042 35.7918 44.8232 37.4788C47.2422 39.1659 50.024 38.5588 50.9631 36.2796Z" fill="#263238"/>
<path d="M48.897 30.6145L48.5052 31.3667C49.291 32.1372 49.4918 33.0387 49.1615 33.7071C48.8312 34.3755 48.2483 34.5367 47.1602 34.1799C46.3755 33.9382 46.0214 33.8877 45.8919 34.1305C45.7839 34.3357 45.8347 34.6678 46.3463 35.0364C46.5738 35.2043 46.8229 35.3413 47.0868 35.4436C47.226 35.4992 47.3426 35.5995 47.4181 35.7286C47.4936 35.8576 47.5236 36.0081 47.5035 36.1561C47.4517 36.4279 47.1883 36.5612 46.913 36.4483C46.6397 36.3315 46.379 36.1875 46.1347 36.0185L45.7947 36.6633C45.5328 36.4734 45.2715 36.2822 45.011 36.0894L45.3834 35.3931C44.6192 34.613 44.4173 33.7415 44.7736 33.1054C45.1676 32.4026 45.9253 32.4671 46.8839 32.8056C47.5488 33.0377 47.8867 33.0344 48.0313 32.754C48.1846 32.4574 47.9719 32.0813 47.5412 31.7654C47.2691 31.5663 46.9691 31.4081 46.6507 31.2958C46.511 31.2416 46.3948 31.1402 46.3226 31.0094C46.2504 30.8786 46.2267 30.7266 46.2556 30.5801C46.2556 30.5694 46.2556 30.5597 46.2632 30.549C46.2755 30.4901 46.3009 30.4347 46.3374 30.3867C46.3739 30.3388 46.4207 30.2996 46.4743 30.2719C46.528 30.2443 46.5871 30.2288 46.6475 30.2267C46.7079 30.2247 46.768 30.236 46.8234 30.2599C47.1661 30.391 47.4921 30.5616 47.7949 30.7682C47.9191 30.5361 48.0421 30.3029 48.1662 30.0697C48.4109 30.2595 48.6545 30.4411 48.897 30.6145Z" fill="white"/>
<path d="M58.7621 40.3984C56.5312 39.2794 54.3364 38.0662 52.1775 36.7589C52.0185 37.1478 51.8601 37.5368 51.7025 37.9258C53.8895 39.2497 56.1146 40.4797 58.3778 41.6159L58.7621 40.3984Z" fill="#50BFA5"/>
<path d="M40.7786 28.6212C38.9608 26.947 37.2125 25.1991 35.5336 23.3773L34.6506 24.2896C36.3525 26.1357 38.1253 27.9077 39.969 29.6055L40.7786 28.6212Z" fill="#263238"/>
<path d="M46.125 16.0831C45.0261 13.9919 44.0258 11.8575 43.1241 9.67969L41.8871 10.1751C42.8017 12.3801 43.8161 14.5446 44.93 16.6687L46.125 16.0831Z" fill="#263238"/>
<path d="M58.2601 13.7148C58.328 11.5315 58.5104 9.35326 58.8063 7.1889L57.3771 7.03632C57.0754 9.23231 56.8891 11.4425 56.819 13.6578L58.2601 13.7148Z" fill="#263238"/>
<g filter="url(#filter0_d_230_2839)">
<path d="M6 35C6 33.3431 7.34315 32 9 32H87C88.6569 32 90 33.3431 90 35V86.3396H6V35Z" fill="white"/>
<path d="M6.5 35C6.5 33.6193 7.61929 32.5 9 32.5H87C88.3807 32.5 89.5 33.6193 89.5 35V85.8396H6.5V35Z" stroke="#263238"/>
</g>
<g filter="url(#filter1_d_230_2839)">
<path d="M0 85.1321H96V93C96 94.6569 94.6569 96 93 96H3C1.34315 96 0 94.6569 0 93V85.1321Z" fill="white"/>
<path d="M0.5 85.6321H95.5V93C95.5 94.3807 94.3807 95.5 93 95.5H3C1.61929 95.5 0.5 94.3807 0.5 93V85.6321Z" stroke="#263238"/>
</g>
<path d="M37.7 85.6321H58.3V88.1698C58.3 89.5505 57.1807 90.6698 55.8 90.6698H40.2C38.8193 90.6698 37.7 89.5505 37.7 88.1698V85.6321Z" fill="#E90C59" stroke="#263238"/>
<rect x="9.5" y="35.5" width="77" height="47" stroke="#263238"/>
<path d="M2.84061 53.5672C1.79155 54.3688 1.25155 56.6075 1.13905 59.7744C1.02655 62.9413 1.6228 64.6625 1.83093 65.1828C2.03905 65.7031 3.6028 66.4794 5.36343 67.8406C6.65436 68.8391 16.7906 75.8956 17.9916 76.4441C19.9012 77.3131 21.1162 75.5553 21.1162 75.5553C21.1162 75.5553 22.1287 76.1347 23.1075 75.5553C24.3028 74.8466 24.1622 73.9663 24.1622 73.9663C24.1622 73.9663 25.3941 74.2503 26.0212 73.6963C26.6484 73.1422 26.9269 71.8119 26.9269 71.8119C26.9269 71.8119 27.7566 72.1888 28.4597 71.5616C29.1628 70.9344 29.6972 70.085 28.9519 68.9263C28.2066 67.7675 25.1747 64.1169 24.3872 63.0931C23.5997 62.0694 21.5747 56.2306 19.6256 55.6484C17.6766 55.0663 15.7528 55.2153 13.7166 55.8172C11.6803 56.4191 9.77624 56.3628 7.51499 55.7216C5.25374 55.0803 2.84061 53.5672 2.84061 53.5672Z" fill="white"/>
<path d="M34.6809 58.5313C34.2647 55.761 33.7162 53.8766 33.3084 53.421C32.8415 52.9035 32.04 53.9328 30.344 54.5347C28.6481 55.1366 25.5937 55.3644 25.5937 55.3644C25.5937 55.3644 20.6803 55.221 18.8409 55.8397C18.149 56.0703 11.3231 58.9475 11.1178 60.1541C11.0306 60.666 11.5987 61.8106 13.0106 61.926C15.3028 62.1144 18.1687 60.1175 18.1687 60.1175C18.2025 60.0613 18.5428 59.9656 20.1094 59.9656C21.6759 59.9656 23.4956 60.9922 23.6109 61.1835C24.7809 63.11 25.8919 64.46 26.9634 65.765C27.7481 66.7185 29.5931 69.2413 29.5931 69.2413C29.5931 69.2413 31.6659 66.7916 32.1947 66.2263C32.7234 65.661 34.6837 64.2294 34.6837 64.2294C34.6837 64.2294 35.1169 61.4281 34.6809 58.5313Z" fill="white"/>
<path d="M7.47843 71.1398C7.47843 71.1398 6.73031 71.4041 6.04687 70.4226C5.36343 69.441 5.93437 68.766 6.63187 68.2176C7.32937 67.6691 8.25187 67.4048 8.80031 67.821C9.34593 68.2344 9.57374 68.9516 9.57374 68.9516C9.57374 68.9516 10.7044 68.0291 11.7225 68.5944C12.7406 69.1598 12.6759 70.1891 12.6759 70.1891C12.6759 70.1891 13.6631 69.5901 14.7009 70.1891C15.7387 70.7882 15.2297 72.5151 15.2297 72.5151C15.2297 72.5151 16.4362 72.5516 16.6612 73.7413C16.8862 74.9282 16.605 76.191 15.2466 76.4188C13.8909 76.6438 13.0978 75.3726 13.0978 75.3726C13.0978 75.3726 11.7422 76.191 10.7409 75.516C9.73968 74.841 9.85499 73.4235 9.85499 73.4235C9.85499 73.4235 8.63156 73.626 7.94249 72.9848C7.25343 72.3435 7.47843 71.1398 7.47843 71.1398Z" fill="white"/>
<path d="M16.9566 75.4794C17.2997 74.8437 17.3841 74.1125 17.1591 73.5106C16.9959 73.0719 16.605 72.5206 15.6937 72.2534C15.7022 72.2365 15.7106 72.2225 15.7191 72.2084L15.6937 72.1944C15.8147 71.8259 15.8428 71.4744 15.7866 71.0525C15.6966 70.3887 15.3141 69.8909 14.7094 69.6575C14.1975 69.4578 13.5787 69.4747 13.0837 69.6772C13.0303 69.1006 12.7547 68.69 12.2231 68.3665C11.16 67.7197 10.3669 68.1415 9.8803 68.4228C9.66374 67.8012 9.12655 67.4947 8.78624 67.3569C8.38124 67.1937 7.39124 66.9828 6.2128 68.0347L6.81468 68.5859C7.62749 67.894 8.23499 68.0065 8.4853 68.1078C9.13218 68.3665 9.10968 68.8475 9.10687 69.0697C9.10405 69.289 9.0703 69.5225 8.53312 70.0203C7.86937 70.6362 7.39968 70.639 7.39968 70.639C6.92437 70.6953 6.49968 70.3353 6.30562 69.9781C6.23812 69.8515 6.03843 69.4184 6.3028 69.1062C6.36468 69.0359 6.49124 68.839 6.92155 68.5015L6.32812 67.939C6.06937 68.1528 5.74593 68.5128 5.68405 68.5831C5.28749 69.05 5.25374 69.7334 5.59405 70.3634C5.8753 70.8894 6.44343 71.3844 7.13812 71.4519C7.08749 72.1269 7.32655 72.7512 7.83562 73.2434C8.38124 73.7722 9.05905 73.8284 9.53155 73.7862C9.53718 74.2587 9.64124 74.9225 10.1025 75.3978C11.0194 76.34 12.1641 76.1009 12.9066 75.7044C13.1737 76.2472 13.6547 76.6353 14.265 76.7787C14.4366 76.8181 14.6109 76.8378 14.7825 76.8378C15.4237 76.8378 16.2534 76.8378 17.0691 75.2431C16.8159 75.0856 16.5741 74.9619 16.3603 74.8353C15.7387 76.0672 14.9147 76.0981 14.4478 75.9884C14.0231 75.8872 13.7109 75.6003 13.5675 75.1869C14.2453 74.4275 14.7234 73.8284 15.255 72.9819C15.8569 73.1084 16.2422 73.3812 16.3969 73.7975C16.5319 74.1603 16.4784 74.6272 16.2703 75.0434L16.9566 75.4794ZM9.8353 72.8975C9.82687 72.9003 8.96062 73.1984 8.39812 72.6556C8.02405 72.2928 7.8778 71.854 7.96499 71.3534C8.98312 70.6306 9.86343 69.5 10.0462 69.2553C10.1109 69.2215 10.9744 68.5381 11.8012 69.0556C12.1837 69.2947 12.3384 69.8459 12.2597 70.234C12.1809 70.6222 12.0009 71.0919 11.2584 71.885C10.5328 72.6584 9.8353 72.8975 9.8353 72.8975ZM14.8331 72.1747C14.6447 72.5459 14.0597 73.7778 12.8447 74.779C12.7069 74.8915 11.5453 75.7072 10.6847 74.824C10.3753 74.5062 10.3275 73.9606 10.3444 73.6062C10.9209 73.1534 12.0684 72.1409 12.9572 70.6925C13.3031 70.3015 13.9753 70.2369 14.4169 70.4084C14.7431 70.535 14.9344 70.7853 14.9822 71.1565C15.03 71.4997 15.0216 71.8034 14.8331 72.1747Z" fill="#263238"/>
<path d="M22.0359 76.16C21.7659 76.16 21.5016 76.1179 21.2541 76.0307C20.6184 75.8085 18.1575 73.9354 17.7356 73.2857C17.6147 73.0972 17.6681 72.8469 17.8538 72.726C18.0422 72.605 18.2925 72.6585 18.4134 72.8441C18.7059 73.2941 21.0009 75.0829 21.5213 75.2657C21.9881 75.4288 22.5872 75.3444 23.0428 75.0519C23.3325 74.8635 23.6925 74.5091 23.7459 73.8875C23.7656 73.6654 23.9625 73.4994 24.1847 73.5191C24.4069 73.5388 24.5728 73.7357 24.5531 73.9579C24.4884 74.6975 24.1088 75.3275 23.4844 75.7325C23.0524 76.0106 22.5497 76.159 22.0359 76.16Z" fill="#263238"/>
<path d="M24.9862 74.3263C24.4322 74.3263 23.8359 74.1519 23.1159 73.7835C22.23 73.3335 21.0628 72.1775 20.2106 71.3366C20.039 71.1679 19.8844 71.0132 19.7522 70.8866C19.5919 70.7319 19.5862 70.476 19.7409 70.3129C19.8956 70.1497 20.1515 70.1469 20.3147 70.3016C20.4497 70.431 20.6072 70.5857 20.7815 70.76C21.5494 71.5194 22.7109 72.6669 23.4844 73.0607C24.4603 73.5585 24.9609 73.5529 25.3265 73.4825C25.9959 73.3504 26.4122 72.7232 26.4094 71.84C26.4094 71.7326 26.452 71.6296 26.528 71.5537C26.6039 71.4777 26.7069 71.435 26.8144 71.435C26.9218 71.435 27.0248 71.4777 27.1007 71.5537C27.1767 71.6296 27.2194 71.7326 27.2194 71.84C27.2222 73.1141 26.5387 74.0732 25.4812 74.2813C25.3181 74.3122 25.1522 74.3263 24.9862 74.3263Z" fill="#263238"/>
<path d="M27.3122 72.3378C27.0956 72.3378 26.8763 72.3013 26.6653 72.2197C25.5263 71.7753 24.0075 70.3747 22.0219 67.9363C21.9585 67.8523 21.9301 67.747 21.9428 67.6426C21.9555 67.5381 22.0082 67.4427 22.0899 67.3763C22.1715 67.31 22.2758 67.2779 22.3806 67.2869C22.4854 67.2958 22.5827 67.3451 22.6519 67.4244C24.5194 69.7194 25.9678 71.0778 26.9606 71.4631C27.4584 71.6572 28.1981 71.3759 28.6425 70.8247C28.8506 70.5659 29.1488 70.0513 28.7888 69.5028C27.9928 68.2906 27.1884 67.3119 26.3363 66.2769C25.245 64.9494 24.1172 63.5769 22.9163 61.6025C22.8009 61.4113 22.86 61.1609 23.0513 61.0456C23.2425 60.9303 23.4928 60.9894 23.6081 61.1806C24.7781 63.1072 25.8891 64.4572 26.9606 65.7622C27.8269 66.8141 28.6425 67.8097 29.4638 69.0584C29.9278 69.7616 29.8547 70.6138 29.2697 71.3366C28.8197 71.8906 28.0688 72.3378 27.3122 72.3378Z" fill="#263238"/>
<path d="M28.0181 63.5516C28.0012 63.5516 27.9872 63.5516 27.9703 63.5488C24.9947 63.2028 23.5012 62.0497 22.514 61.2875C22.0275 60.9134 21.645 60.6153 21.2794 60.5619C20.2444 60.4044 19.2206 60.2919 18.1181 60.6125C18.014 60.6434 17.7047 60.7897 17.3728 60.9472C16.3575 61.4281 14.8247 62.1566 13.6969 62.2747C12.8194 62.3675 12.0347 62.1453 11.4862 61.6531C11.0419 61.2538 10.7887 60.7025 10.7887 60.14C10.7887 59.1528 12.0375 58.5706 12.8615 58.1881C13.3144 57.9772 13.9303 57.6313 14.58 57.2656C15.7162 56.6272 17.0044 55.9016 17.9494 55.6034C19.5019 55.1141 23.594 54.9678 24.9047 54.9538C27.8437 54.9256 30.2597 54.1016 32.0962 53.1566C32.1722 53.1172 32.5069 52.9428 32.7994 53.0159C33.2072 53.1172 33.3084 53.4238 33.3084 53.4238C31.3031 54.6191 28.5637 55.7328 24.9159 55.7694C23.3072 55.7834 19.5497 55.955 18.1997 56.3797C17.3334 56.6525 16.0847 57.3556 14.9822 57.9772C14.3184 58.3513 13.6912 58.7056 13.2075 58.9278C12.7265 59.15 11.6015 59.6731 11.6015 60.1456C11.6015 60.4775 11.759 60.8094 12.029 61.0569C12.4031 61.3944 12.9684 61.5434 13.6125 61.4759C14.6025 61.3719 16.1184 60.6519 17.0269 60.2216C17.4853 60.0022 17.7328 59.8869 17.8931 59.8419C19.2572 59.4425 20.5481 59.6366 21.4003 59.7659C21.9712 59.8531 22.4522 60.2244 23.009 60.6519C23.9822 61.4028 25.3125 62.4294 28.0659 62.75C28.2881 62.7753 28.4484 62.9778 28.4231 63.2C28.3978 63.3997 28.2234 63.5516 28.0181 63.5516Z" fill="#263238"/>
<path d="M29.4272 69.005L29.0137 68.3975C29.3287 68.5662 30.0459 68.4369 30.9544 67.1572C31.5309 66.3444 32.6081 64.7047 34.6556 63.8525C34.6556 63.8525 34.8103 64.6287 34.349 64.9437C32.9597 65.9 32.085 66.9631 31.6153 67.6269C30.8447 68.7153 30.1359 69.3678 29.7309 69.694C29.7309 69.694 29.6803 69.3678 29.4272 69.005Z" fill="#263238"/>
<path d="M19.1869 77.0038C18.1772 77.0038 17.2012 76.475 16.709 76.2078C16.6275 76.1628 16.5572 76.1263 16.4981 76.0953L17.0972 74.7285C17.0972 74.7285 17.2434 75.5441 17.8622 75.8647C18.8803 76.3963 19.7944 76.4722 20.5369 75.4878L21.1837 75.9772C20.6015 76.7506 19.8844 77.0038 19.1869 77.0038Z" fill="#263238"/>
<path d="M5.81344 68.8138C4.88532 67.835 3.74626 66.9069 2.49188 66.0969C2.43001 66.0575 2.08969 65.8382 1.92376 65.5429C1.66501 65.0844 1.72688 64.6935 1.72688 64.6935C3.50719 65.6835 5.13844 66.9238 6.40126 68.2569L5.81344 68.8138Z" fill="#263238"/>
<path d="M11.1347 56.6609C7.79905 56.6609 4.71937 55.3841 2.50593 53.8991C2.50593 53.8991 2.62124 53.6656 2.84062 53.5672C3.14718 53.4294 3.38343 53.5053 3.41718 53.525C5.47312 54.8019 8.19843 55.8481 11.1319 55.8481H11.1516C11.9925 55.8481 13.1231 55.5106 13.7981 55.3109C13.9247 55.2744 14.0372 55.2406 14.1356 55.2125C15.795 54.7428 17.5809 54.7484 20.1066 55.2266L19.9547 56.0225C17.5612 55.5697 15.885 55.5612 14.355 55.9916C14.2622 56.0169 14.1525 56.0506 14.0287 56.0872C13.3116 56.3009 12.1106 56.6581 11.1544 56.6581C11.1487 56.6609 11.1403 56.6609 11.1347 56.6609Z" fill="#263238"/>
<path d="M26.0634 64.6597C26.0634 64.6597 25.8384 64.0663 26.2153 63.7316C26.6569 63.3379 27.1519 63.4785 27.495 63.4841C27.495 63.4841 26.8284 63.3097 25.9791 62.9694C24.9244 62.5447 24.1988 62.0188 24.1988 62.0188C24.1988 62.0188 24.3872 62.3957 24.9722 63.2816C25.5544 64.1675 26.0634 64.6597 26.0634 64.6597Z" fill="#263238"/>
<rect x="48" y="42" width="28" height="3" rx="1.5" fill="#D9D9D9"/>
<rect x="48" y="47" width="22" height="3" rx="1.5" fill="#D9D9D9"/>
<rect x="48" y="77" width="30" height="2" rx="1" fill="#D9D9D9"/>
<rect x="48.5" y="54.5" width="31" height="19" fill="white" stroke="#263238"/>
<path d="M60 73.5L69 59L79.5 73.5" stroke="#263238" stroke-linejoin="round"/>
<path d="M54.5 73.5L60 65L63 69" stroke="#263238" stroke-linejoin="round"/>
<circle cx="54.5" cy="60.5" r="3" fill="#0C8CE9" stroke="#263238"/>
<defs>
<filter id="filter0_d_230_2839" x="6" y="32" width="88" height="59.3396" filterUnits="userSpaceOnUse" color-interpolation-filters="sRGB">
<feFlood flood-opacity="0" result="BackgroundImageFix"/>
<feColorMatrix in="SourceAlpha" type="matrix" values="0 0 0 0 0 0 0 0 0 0 0 0 0 0 0 0 0 0 127 0" result="hardAlpha"/>
<feOffset dx="4" dy="5"/>
<feComposite in2="hardAlpha" operator="out"/>
<feColorMatrix type="matrix" values="0 0 0 0 0.14902 0 0 0 0 0.196078 0 0 0 0 0.219608 0 0 0 1 0"/>
<feBlend mode="normal" in2="BackgroundImageFix" result="effect1_dropShadow_230_2839"/>
<feBlend mode="normal" in="SourceGraphic" in2="effect1_dropShadow_230_2839" result="shape"/>
</filter>
<filter id="filter1_d_230_2839" x="0" y="85.1321" width="100" height="15.8679" filterUnits="userSpaceOnUse" color-interpolation-filters="sRGB">
<feFlood flood-opacity="0" result="BackgroundImageFix"/>
<feColorMatrix in="SourceAlpha" type="matrix" values="0 0 0 0 0 0 0 0 0 0 0 0 0 0 0 0 0 0 127 0" result="hardAlpha"/>
<feOffset dx="4" dy="5"/>
<feComposite in2="hardAlpha" operator="out"/>
<feColorMatrix type="matrix" values="0 0 0 0 0.14902 0 0 0 0 0.196078 0 0 0 0 0.219608 0 0 0 1 0"/>
<feBlend mode="normal" in2="BackgroundImageFix" result="effect1_dropShadow_230_2839"/>
<feBlend mode="normal" in="SourceGraphic" in2="effect1_dropShadow_230_2839" result="shape"/>
</filter>
</defs>
</svg>
